<?xml version="1.0" encoding="utf-8"?>
<!-- Generator: Adobe Illustrator 24.0.2, SVG Export Plug-In . SVG Version: 6.00 Build 0)  -->
<svg version="1.1" xmlns="http://www.w3.org/2000/svg" xmlns:xlink="http://www.w3.org/1999/xlink" x="0px" y="0px"
	 viewBox="0 0 60 60" style="enable-background:new 0 0 60 60;" xml:space="preserve">
<style type="text/css">
	.st0{fill:#FFFFFF;}
</style>
<g id="Capa_1">
</g>
<g id="Capa_2">
	<g>
		<path class="st0" d="M60,30.1c-0.4,0.5-0.9,1-1.3,1.5c-5,5.7-10.9,10.1-18,12.7c-5.9,2.2-12,2.6-18.1,1c-3.9-1-7.6-2.6-11-4.8
			C7.8,38,4.3,35,1.3,31.5c-0.4-0.5-0.8-1-1.3-1.6c1.5-1.6,2.8-3.2,4.4-4.6c3.4-3.3,7.2-6,11.5-8.1c6.9-3.3,14.1-4.4,21.6-2.5
			c3.9,1,7.6,2.6,11,4.8c3.9,2.5,7.4,5.5,10.4,9c0.4,0.4,0.8,0.9,1.1,1.3C60,30,60,30,60,30.1z M19,27.1c-1.5,6.6,2.5,11.8,7,13.5
			c5,1.8,10.6,0.1,13.5-4.3c3-4.5,2.5-10.2-1.3-14.2c-1.9-2-4.2-3.1-6.9-3.4c-3.4-0.4-6.4,0.7-9,3c-0.4-0.5-0.9-0.9-1.3-1.4
			c-0.3-0.4-0.6-0.5-1.1-0.3c-4.6,1.9-8.6,4.6-12.2,7.9C7,28.6,6.3,29.3,5.5,30c4.3,4.5,9.1,8,14.8,10.1c-3.6-3.8-4.9-8.2-3.9-13.4
			C17.4,26.9,18.2,27,19,27.1z M54.5,30c-3.5-4-12-9.8-14.8-10.1C42.5,22.7,44,26.1,44,30c0,3.9-1.5,7.3-4.4,10.2
			C45.1,38.2,50.8,34.1,54.5,30z"/>
		<path class="st0" d="M22.9,27.8c1.8,0.3,3.7,0.6,5.7,0.9c-1.3-1.5-2.5-2.8-3.7-4.2c2.1-2.3,6.3-3,9.5-0.8c3.2,2.3,4.2,6.6,2.3,9.9
			c-2,3.4-6.1,4.8-9.7,3.2C23.5,35.3,21.7,31.3,22.9,27.8z"/>
	</g>
</g>
</svg>
