<?xml version="1.0" encoding="utf-8"?>
<!-- Generator: Adobe Illustrator 24.0.2, SVG Export Plug-In . SVG Version: 6.00 Build 0)  -->
<svg version="1.1" xmlns="http://www.w3.org/2000/svg" xmlns:xlink="http://www.w3.org/1999/xlink" x="0px" y="0px"
	 viewBox="0 0 150 150" style="enable-background:new 0 0 150 150;" xml:space="preserve">
<style type="text/css">
	.st0{display:none;}
	.st1{display:inline;}
	.st2{fill:#101820;}
	.st3{fill:#FFFFFF;}
	.st4{display:inline;fill:#101820;}
</style>
<g id="Capa_1" class="st0">
	<g class="st1">
		<path class="st2" d="M76.8,82.5c4.8-4.8,9.3-9.4,14.1-14.1c6.7,5.5,13.4,11.1,20.2,16.7c9.8,8.1,19.7,16.3,29.5,24.5
			c6.1,5.1,7.5,12.9,3.7,19.8c-3.8,6.9-12.2,10.4-19.3,7.8c-2.2-0.8-4.5-2.1-5.9-3.9C104.9,116.4,90.8,99.5,76.8,82.5z"/>
		<path class="st2" d="M59.8,23.4c8.9,8.8,17.9,17.9,26.7,26.7c-9.3,9.3-18.6,18.6-27.8,27.8C50,69.2,40.9,60.1,32,51.2
			C41.1,42.1,50.5,32.8,59.8,23.4z"/>
		<path class="st2" d="M44.4,147.5c-12.2,0-24.4,0-36.6,0c-3.8,0-4.2-0.5-4.2-4.1c0-2.5,0-5,0-7.6c0.1-4.6,3-7.6,7.6-7.6
			c22.4,0,44.7,0,67.1,0c4.5,0,7.5,3.1,7.5,7.6c0.1,2.6-0.1,5.2,0,7.9c0.2,2.9-1.2,3.9-4,3.9C69.3,147.4,56.8,147.5,44.4,147.5z"/>
		<path class="st2" d="M107.8,38.6c-0.6,0.9-1,1.7-1.6,2.3c-2.8,2.9-5.7,5.7-8.5,8.6c-1.6,1.7-3,1.5-4.6-0.1
			C82.3,38.6,71.4,27.7,60.6,17c-1.7-1.7-1.8-3.1,0-4.9c2.8-2.7,5.6-5.5,8.3-8.3C70.6,2,72,2.1,73.7,3.9
			c10.7,10.8,21.5,21.5,32.2,32.3C106.6,36.8,107.1,37.7,107.8,38.6z"/>
		<path class="st2" d="M47.1,99.4c-0.9-0.6-1.7-1-2.3-1.6C33.9,87,23,76.1,12.1,65.2c-1.6-1.6-1.7-3,0-4.6c2.9-2.8,5.7-5.7,8.5-8.5
			c1.6-1.7,3-1.5,4.6,0.1c10.8,10.8,21.6,21.7,32.5,32.5c1.7,1.7,1.8,3.2,0,4.9c-2.8,2.7-5.6,5.6-8.4,8.3
			C48.8,98.3,48,98.8,47.1,99.4z"/>
		<path class="st2" d="M78,123.2c-22.4,0-44.4,0-66.6,0c1.3-3.1,3.5-4.7,6.5-4.7c17.8-0.1,35.6,0,53.4,0
			C74.3,118.5,76.4,120.1,78,123.2z"/>
		<path class="st2" d="M88.3,57.2c3.2,2.9,3.2,3.3-0.1,6.6c-5.3,5.3-10.7,10.7-16,16c-3.3,3.3-3.6,3.3-6.6,0
			C73.1,72.3,80.6,64.9,88.3,57.2z"/>
	</g>
</g>
<g id="Capa_2">
	<g>
		<path class="st3" d="M76.8,82.5c4.8-4.8,9.3-9.4,14.1-14.1c6.7,5.5,13.4,11.1,20.2,16.7c9.8,8.1,19.7,16.3,29.5,24.5
			c6.1,5.1,7.5,12.9,3.7,19.8c-3.8,6.9-12.2,10.4-19.3,7.8c-2.2-0.8-4.5-2.1-5.9-3.9C104.9,116.4,90.8,99.5,76.8,82.5z"/>
		<path class="st3" d="M59.8,23.4c8.9,8.8,17.9,17.9,26.7,26.7c-9.3,9.3-18.6,18.6-27.8,27.8C50,69.2,40.9,60.1,32,51.2
			C41.1,42.1,50.5,32.8,59.8,23.4z"/>
		<path class="st3" d="M44.4,147.5c-12.2,0-24.4,0-36.6,0c-3.8,0-4.2-0.5-4.2-4.1c0-2.5,0-5,0-7.6c0.1-4.6,3-7.6,7.6-7.6
			c22.4,0,44.7,0,67.1,0c4.5,0,7.5,3.1,7.5,7.6c0.1,2.6-0.1,5.2,0,7.9c0.2,2.9-1.2,3.9-4,3.9C69.3,147.4,56.8,147.5,44.4,147.5z"/>
		<path class="st3" d="M107.8,38.6c-0.6,0.9-1,1.7-1.6,2.3c-2.8,2.9-5.7,5.7-8.5,8.6c-1.6,1.7-3,1.5-4.6-0.1
			C82.3,38.6,71.4,27.7,60.6,17c-1.7-1.7-1.8-3.1,0-4.9c2.8-2.7,5.6-5.5,8.3-8.3C70.6,2,72,2.1,73.7,3.9
			c10.7,10.8,21.5,21.5,32.2,32.3C106.6,36.8,107.1,37.7,107.8,38.6z"/>
		<path class="st3" d="M47.1,99.4c-0.9-0.6-1.7-1-2.3-1.6C33.9,87,23,76.1,12.1,65.2c-1.6-1.6-1.7-3,0-4.6c2.9-2.8,5.7-5.7,8.5-8.5
			c1.6-1.7,3-1.5,4.6,0.1c10.8,10.8,21.6,21.7,32.5,32.5c1.7,1.7,1.8,3.2,0,4.9c-2.8,2.7-5.6,5.6-8.4,8.3
			C48.8,98.3,48,98.8,47.1,99.4z"/>
		<path class="st3" d="M78,123.2c-22.4,0-44.4,0-66.6,0c1.3-3.1,3.5-4.7,6.5-4.7c17.8-0.1,35.6,0,53.4,0
			C74.3,118.5,76.4,120.1,78,123.2z"/>
		<path class="st3" d="M88.3,57.2c3.2,2.9,3.2,3.3-0.1,6.6c-5.3,5.3-10.7,10.7-16,16c-3.3,3.3-3.6,3.3-6.6,0
			C73.1,72.3,80.6,64.9,88.3,57.2z"/>
	</g>
</g>
</svg>
