<?xml version="1.0" encoding="utf-8"?>
<!-- Generator: Adobe Illustrator 21.0.0, SVG Export Plug-In . SVG Version: 6.00 Build 0)  -->
<svg version="1.1" xmlns="http://www.w3.org/2000/svg" xmlns:xlink="http://www.w3.org/1999/xlink" x="0px" y="0px"
	 viewBox="0 0 60 60" style="enable-background:new 0 0 60 60;" xml:space="preserve">
<style type="text/css">
	.st0{display:none;}
	.st1{display:inline;fill:#131E29;}
	.st2{display:inline;}
	.st3{fill:#131E29;}
	.st4{display:inline;fill:#88A91E;}
	.st5{fill:#88A91E;}
	.st6{display:inline;fill:#1E9091;}
	.st7{fill:#1E9091;}
	.st8{fill:#FFFFFF;}
	.st9{display:inline;fill:#9CA9AF;}
	.st10{fill:#9CA9AF;}
</style>
<g id="Capa_1_copia_3" class="st0">
	<g class="st2">
		<path class="st3" d="M31.4,1c0.8,0.1,1.5,0.2,2.3,0.4c4.1,0.8,6.5,3.4,7.4,7.3c0.8,3.4,1,6.9,0.2,10.4C40.3,22.9,38.4,26,35,28
			c-3.6,2.1-7.3,1.8-10.7-0.5c-3-2.1-4.8-5.1-5.5-8.6c-0.8-4.2-0.6-8.3,1-12.3c1.1-2.6,3.1-4.2,5.8-4.9c1-0.3,2.1-0.4,3.1-0.6
			C29.6,1,30.5,1,31.4,1z"/>
		<path class="st3" d="M30.9,59c-5.3,0-9.8-0.3-14.1-1.5c-2.6-0.7-5.1-1.6-7.2-3.4c-0.1-0.1-0.3-0.2-0.4-0.3
			c-0.9-0.7-1.3-1.6-1.2-2.8C8.1,48,8.1,45,8.6,42c0.4-2.4,1.2-4.7,2.9-6.6c1.2-1.3,2.7-2.1,4.3-2.8c2.4-1,5-1.6,7.6-2.1
			c0.1,0,0.4,0,0.5,0.2c1.8,1.7,4.1,2.2,6.5,2.2c1.8,0,3.5-0.5,5-1.5c0.1-0.1,0.2-0.1,0.3-0.2c0.5-0.7,1.2-0.7,2-0.5
			c2.6,0.6,5.2,1.2,7.6,2.3c3.3,1.6,5.2,4.3,6,7.8c0.5,2.4,0.7,4.8,0.8,7.2c0.1,1.3,0.1,2.6,0.1,3.9c0,0.3-0.1,0.7-0.3,0.9
			c-1.3,1.7-3.2,2.7-5.1,3.5c-3.6,1.5-7.3,2.1-11.1,2.4C33.7,58.9,31.8,59,30.9,59z"/>
	</g>
</g>
<g id="Capa_1_copia_4" class="st0">
	<g class="st2">
		<path class="st5" d="M31.4,1c0.8,0.1,1.5,0.2,2.3,0.4c4.1,0.8,6.5,3.4,7.4,7.3c0.8,3.4,1,6.9,0.2,10.4C40.3,22.9,38.4,26,35,28
			c-3.6,2.1-7.3,1.8-10.7-0.5c-3-2.1-4.8-5.1-5.5-8.6c-0.8-4.2-0.6-8.3,1-12.3c1.1-2.6,3.1-4.2,5.8-4.9c1-0.3,2.1-0.4,3.1-0.6
			C29.6,1,30.5,1,31.4,1z"/>
		<path class="st5" d="M30.9,59c-5.3,0-9.8-0.3-14.1-1.5c-2.6-0.7-5.1-1.6-7.2-3.4c-0.1-0.1-0.3-0.2-0.4-0.3
			c-0.9-0.7-1.3-1.6-1.2-2.8C8.1,48,8.1,45,8.6,42c0.4-2.4,1.2-4.7,2.9-6.6c1.2-1.3,2.7-2.1,4.3-2.8c2.4-1,5-1.6,7.6-2.1
			c0.1,0,0.4,0,0.5,0.2c1.8,1.7,4.1,2.2,6.5,2.2c1.8,0,3.5-0.5,5-1.5c0.1-0.1,0.2-0.1,0.3-0.2c0.5-0.7,1.2-0.7,2-0.5
			c2.6,0.6,5.2,1.2,7.6,2.3c3.3,1.6,5.2,4.3,6,7.8c0.5,2.4,0.7,4.8,0.8,7.2c0.1,1.3,0.1,2.6,0.1,3.9c0,0.3-0.1,0.7-0.3,0.9
			c-1.3,1.7-3.2,2.7-5.1,3.5c-3.6,1.5-7.3,2.1-11.1,2.4C33.7,58.9,31.8,59,30.9,59z"/>
	</g>
</g>
<g id="Capa_1_copia_5" class="st0">
	<g class="st2">
		<path class="st7" d="M31.4,1c0.8,0.1,1.5,0.2,2.3,0.4c4.1,0.8,6.5,3.4,7.4,7.3c0.8,3.4,1,6.9,0.2,10.4C40.3,22.9,38.4,26,35,28
			c-3.6,2.1-7.3,1.8-10.7-0.5c-3-2.1-4.8-5.1-5.5-8.6c-0.8-4.2-0.6-8.3,1-12.3c1.1-2.6,3.1-4.2,5.8-4.9c1-0.3,2.1-0.4,3.1-0.6
			C29.6,1,30.5,1,31.4,1z"/>
		<path class="st7" d="M30.9,59c-5.3,0-9.8-0.3-14.1-1.5c-2.6-0.7-5.1-1.6-7.2-3.4c-0.1-0.1-0.3-0.2-0.4-0.3
			c-0.9-0.7-1.3-1.6-1.2-2.8C8.1,48,8.1,45,8.6,42c0.4-2.4,1.2-4.7,2.9-6.6c1.2-1.3,2.7-2.1,4.3-2.8c2.4-1,5-1.6,7.6-2.1
			c0.1,0,0.4,0,0.5,0.2c1.8,1.7,4.1,2.2,6.5,2.2c1.8,0,3.5-0.5,5-1.5c0.1-0.1,0.2-0.1,0.3-0.2c0.5-0.7,1.2-0.7,2-0.5
			c2.6,0.6,5.2,1.2,7.6,2.3c3.3,1.6,5.2,4.3,6,7.8c0.5,2.4,0.7,4.8,0.8,7.2c0.1,1.3,0.1,2.6,0.1,3.9c0,0.3-0.1,0.7-0.3,0.9
			c-1.3,1.7-3.2,2.7-5.1,3.5c-3.6,1.5-7.3,2.1-11.1,2.4C33.7,58.9,31.8,59,30.9,59z"/>
	</g>
</g>
<g id="Capa_1_copia_6">
	<g>
		<path class="st8" d="M31.4,1c0.8,0.1,1.5,0.2,2.3,0.4c4.1,0.8,6.5,3.4,7.4,7.3c0.8,3.4,1,6.9,0.2,10.4C40.3,22.9,38.4,26,35,28
			c-3.6,2.1-7.3,1.8-10.7-0.5c-3-2.1-4.8-5.1-5.5-8.6c-0.8-4.2-0.6-8.3,1-12.3c1.1-2.6,3.1-4.2,5.8-4.9c1-0.3,2.1-0.4,3.1-0.6
			C29.6,1,30.5,1,31.4,1z"/>
		<path class="st8" d="M30.9,59c-5.3,0-9.8-0.3-14.1-1.5c-2.6-0.7-5.1-1.6-7.2-3.4c-0.1-0.1-0.3-0.2-0.4-0.3
			c-0.9-0.7-1.3-1.6-1.2-2.8C8.1,48,8.1,45,8.6,42c0.4-2.4,1.2-4.7,2.9-6.6c1.2-1.3,2.7-2.1,4.3-2.8c2.4-1,5-1.6,7.6-2.1
			c0.1,0,0.4,0,0.5,0.2c1.8,1.7,4.1,2.2,6.5,2.2c1.8,0,3.5-0.5,5-1.5c0.1-0.1,0.2-0.1,0.3-0.2c0.5-0.7,1.2-0.7,2-0.5
			c2.6,0.6,5.2,1.2,7.6,2.3c3.3,1.6,5.2,4.3,6,7.8c0.5,2.4,0.7,4.8,0.8,7.2c0.1,1.3,0.1,2.6,0.1,3.9c0,0.3-0.1,0.7-0.3,0.9
			c-1.3,1.7-3.2,2.7-5.1,3.5c-3.6,1.5-7.3,2.1-11.1,2.4C33.7,58.9,31.8,59,30.9,59z"/>
	</g>
</g>
<g id="Capa_1_copia_7" class="st0">
	<g class="st2">
		<path class="st10" d="M31.4,1c0.8,0.1,1.5,0.2,2.3,0.4c4.1,0.8,6.5,3.4,7.4,7.3c0.8,3.4,1,6.9,0.2,10.4C40.3,22.9,38.4,26,35,28
			c-3.6,2.1-7.3,1.8-10.7-0.5c-3-2.1-4.8-5.1-5.5-8.6c-0.8-4.2-0.6-8.3,1-12.3c1.1-2.6,3.1-4.2,5.8-4.9c1-0.3,2.1-0.4,3.1-0.6
			C29.6,1,30.5,1,31.4,1z"/>
		<path class="st10" d="M30.9,59c-5.3,0-9.8-0.3-14.1-1.5c-2.6-0.7-5.1-1.6-7.2-3.4c-0.1-0.1-0.3-0.2-0.4-0.3
			c-0.9-0.7-1.3-1.6-1.2-2.8C8.1,48,8.1,45,8.6,42c0.4-2.4,1.2-4.7,2.9-6.6c1.2-1.3,2.7-2.1,4.3-2.8c2.4-1,5-1.6,7.6-2.1
			c0.1,0,0.4,0,0.5,0.2c1.8,1.7,4.1,2.2,6.5,2.2c1.8,0,3.5-0.5,5-1.5c0.1-0.1,0.2-0.1,0.3-0.2c0.5-0.7,1.2-0.7,2-0.5
			c2.6,0.6,5.2,1.2,7.6,2.3c3.3,1.6,5.2,4.3,6,7.8c0.5,2.4,0.7,4.8,0.8,7.2c0.1,1.3,0.1,2.6,0.1,3.9c0,0.3-0.1,0.7-0.3,0.9
			c-1.3,1.7-3.2,2.7-5.1,3.5c-3.6,1.5-7.3,2.1-11.1,2.4C33.7,58.9,31.8,59,30.9,59z"/>
	</g>
</g>
</svg>
