<?xml version="1.0" encoding="utf-8"?>
<!-- Generator: Adobe Illustrator 24.0.2, SVG Export Plug-In . SVG Version: 6.00 Build 0)  -->
<svg version="1.1" xmlns="http://www.w3.org/2000/svg" xmlns:xlink="http://www.w3.org/1999/xlink" x="0px" y="0px"
	 viewBox="0 0 60 60" style="enable-background:new 0 0 60 60;" xml:space="preserve">
<style type="text/css">
	.st0{display:none;}
	.st1{display:inline;}
	.st2{fill:#FFFFFF;}
</style>
<g id="Capa_1" class="st0">
</g>
<g id="Capa_2">
	<g>
		<path class="st2" d="M60,30.6c-0.4,1.4-1.4,2.3-2.3,3.3c-3.1,3.6-6.6,6.8-10.6,9.5C43.2,46,39,48,34.3,48.9
			C30.1,49.7,26,49.3,22,48c-5.6-1.9-10.4-5.1-14.7-9C5,36.8,3,34.5,0.9,32.2c-1.2-1.4-1.2-3,0-4.4c3.5-4.2,7.4-8,12-11.1
			C16.7,14,21,12,25.7,11.1C29.9,10.3,34,10.7,38,12c5.6,1.9,10.4,5,14.6,9c2.3,2.1,4.3,4.5,6.5,6.8c0.4,0.4,0.6,1.1,0.9,1.6
			C60,29.8,60,30.2,60,30.6z M30,16c-7.7,0-13.9,6.2-14,13.9c0,7.7,6.2,13.9,13.9,14c7.7,0.1,14-6.2,14-14C44,22.3,37.8,16.1,30,16z
			"/>
		<path class="st2" d="M39.6,30c0,5.3-4.3,9.6-9.7,9.6c-5.3,0-9.6-4.3-9.6-9.7c0-5.3,4.3-9.6,9.7-9.6C35.4,20.4,39.7,24.7,39.6,30z
			 M29.3,24c-3-0.2-5.5,2.7-5.3,5.3c1,0,2,0,3.1,0c0.2-1.2,0.8-1.9,2-2.1c0.1,0,0.3-0.2,0.3-0.3C29.3,25.9,29.3,25,29.3,24z"/>
	</g>
</g>
</svg>
