<?xml version="1.0" encoding="utf-8"?>
<!-- Generator: Adobe Illustrator 21.0.0, SVG Export Plug-In . SVG Version: 6.00 Build 0)  -->
<svg version="1.1" xmlns="http://www.w3.org/2000/svg" xmlns:xlink="http://www.w3.org/1999/xlink" x="0px" y="0px"
	 viewBox="0 0 60 60" style="enable-background:new 0 0 60 60;" xml:space="preserve">
<style type="text/css">
	.st0{display:none;}
	.st1{display:inline;fill:#131E29;}
	.st2{display:inline;}
	.st3{fill:#131E29;}
	.st4{display:inline;fill:#88A91E;}
	.st5{fill:#88A91E;}
	.st6{display:inline;fill:#1E9091;}
	.st7{fill:#1E9091;}
	.st8{fill:#FFFFFF;}
	.st9{display:inline;fill:#9CA9AF;}
	.st10{fill:#9CA9AF;}
</style>
<g id="Capa_1_copia_3" class="st0">
	<path class="st1" d="M1,28.9c0.2-0.9,0.2-1.8,0.5-2.6c1.7-6.1,5.7-9.8,11.8-11.3c1.1-0.3,2.4-0.3,3.5-0.3c8.8,0,17.6,0,26.4,0
		c4.8,0,8.9,1.7,12,5.4c3,3.5,4.2,7.6,3.5,12.2c-0.7,4.9-3.3,8.6-7.6,11.1c-2.4,1.4-5.1,2-7.9,2c-8.9,0-17.8,0-26.7,0
		c-5.4,0-9.7-2.2-12.8-6.5c-1.5-2.1-2.4-4.5-2.7-7.1c0-0.2-0.1-0.4-0.1-0.6C1,30.4,1,29.6,1,28.9z M43.7,41.9c6.6,0,12-5.4,11.9-12
		c0-6.6-5.3-11.9-11.9-11.9c-6.6,0-12,5.4-12,11.9C31.7,36.6,37.1,42,43.7,41.9z"/>
</g>
<g id="Capa_1_copia_4" class="st0">
	<path class="st4" d="M1,28.9c0.2-0.9,0.2-1.8,0.5-2.6c1.7-6.1,5.7-9.8,11.8-11.3c1.1-0.3,2.4-0.3,3.5-0.3c8.8,0,17.6,0,26.4,0
		c4.8,0,8.9,1.7,12,5.4c3,3.5,4.2,7.6,3.5,12.2c-0.7,4.9-3.3,8.6-7.6,11.1c-2.4,1.4-5.1,2-7.9,2c-8.9,0-17.8,0-26.7,0
		c-5.4,0-9.7-2.2-12.8-6.5c-1.5-2.1-2.4-4.5-2.7-7.1c0-0.2-0.1-0.4-0.1-0.6C1,30.4,1,29.6,1,28.9z M43.7,41.9c6.6,0,12-5.4,11.9-12
		c0-6.6-5.3-11.9-11.9-11.9c-6.6,0-12,5.4-12,11.9C31.7,36.6,37.1,42,43.7,41.9z"/>
</g>
<g id="Capa_1_copia_5" class="st0">
	<path class="st6" d="M1,28.9c0.2-0.9,0.2-1.8,0.5-2.6c1.7-6.1,5.7-9.8,11.8-11.3c1.1-0.3,2.4-0.3,3.5-0.3c8.8,0,17.6,0,26.4,0
		c4.8,0,8.9,1.7,12,5.4c3,3.5,4.2,7.6,3.5,12.2c-0.7,4.9-3.3,8.6-7.6,11.1c-2.4,1.4-5.1,2-7.9,2c-8.9,0-17.8,0-26.7,0
		c-5.4,0-9.7-2.2-12.8-6.5c-1.5-2.1-2.4-4.5-2.7-7.1c0-0.2-0.1-0.4-0.1-0.6C1,30.4,1,29.6,1,28.9z M43.7,41.9c6.6,0,12-5.4,11.9-12
		c0-6.6-5.3-11.9-11.9-11.9c-6.6,0-12,5.4-12,11.9C31.7,36.6,37.1,42,43.7,41.9z"/>
</g>
<g id="Capa_1_copia_6">
	<path class="st8" d="M1,28.9c0.2-0.9,0.2-1.8,0.5-2.6c1.7-6.1,5.7-9.8,11.8-11.3c1.1-0.3,2.4-0.3,3.5-0.3c8.8,0,17.6,0,26.4,0
		c4.8,0,8.9,1.7,12,5.4c3,3.5,4.2,7.6,3.5,12.2c-0.7,4.9-3.3,8.6-7.6,11.1c-2.4,1.4-5.1,2-7.9,2c-8.9,0-17.8,0-26.7,0
		c-5.4,0-9.7-2.2-12.8-6.5c-1.5-2.1-2.4-4.5-2.7-7.1c0-0.2-0.1-0.4-0.1-0.6C1,30.4,1,29.6,1,28.9z M43.7,41.9c6.6,0,12-5.4,11.9-12
		c0-6.6-5.3-11.9-11.9-11.9c-6.6,0-12,5.4-12,11.9C31.7,36.6,37.1,42,43.7,41.9z"/>
</g>
<g id="Capa_1_copia_7" class="st0">
	<path class="st9" d="M1,28.9c0.2-0.9,0.2-1.8,0.5-2.6c1.7-6.1,5.7-9.8,11.8-11.3c1.1-0.3,2.4-0.3,3.5-0.3c8.8,0,17.6,0,26.4,0
		c4.8,0,8.9,1.7,12,5.4c3,3.5,4.2,7.6,3.5,12.2c-0.7,4.9-3.3,8.6-7.6,11.1c-2.4,1.4-5.1,2-7.9,2c-8.9,0-17.8,0-26.7,0
		c-5.4,0-9.7-2.2-12.8-6.5c-1.5-2.1-2.4-4.5-2.7-7.1c0-0.2-0.1-0.4-0.1-0.6C1,30.4,1,29.6,1,28.9z M43.7,41.9c6.6,0,12-5.4,11.9-12
		c0-6.6-5.3-11.9-11.9-11.9c-6.6,0-12,5.4-12,11.9C31.7,36.6,37.1,42,43.7,41.9z"/>
</g>
</svg>
