<?xml version="1.0" encoding="utf-8"?>
<!-- Generator: Adobe Illustrator 24.0.2, SVG Export Plug-In . SVG Version: 6.00 Build 0)  -->
<svg version="1.1" xmlns="http://www.w3.org/2000/svg" xmlns:xlink="http://www.w3.org/1999/xlink" x="0px" y="0px"
	 viewBox="0 0 150 150" style="enable-background:new 0 0 150 150;" xml:space="preserve">
<style type="text/css">
	.st0{display:none;}
	.st1{display:inline;}
	.st2{fill:#101820;}
	.st3{fill:#FFFFFF;}
	.st4{display:inline;fill:#101820;}
</style>
<g id="Capa_1" class="st0">
	<g class="st1">
		<path class="st2" d="M131.8,50.9c0-1-0.1-2-0.1-3.2c-1.3,0-2.3,0-3.3,0c-11.6,0-23.2,0-34.8,0c-5.1,0-6.8-1.7-6.8-6.8
			c0-11.7,0-23.4,0-35.1c0-1,0-2,0-3.4c-1.3,0-2.2,0-3,0c-19.2,0-38.5,0-57.7,0c-5.7,0-7.8,2.1-7.8,7.9c0,43,0,86.1,0,129.1
			c0,6,2,8,8,8c32.5,0,65.1,0,97.6,0c6,0,8-2,8-7.9C131.8,110,131.8,80.5,131.8,50.9z M80.3,61.4c1.4-1.4,2.8-2.8,4.2-4.2
			c0.9-0.9,1.6-0.8,2.5,0c5.4,5.5,10.9,10.9,16.3,16.3c0.3,0.3,0.6,0.8,1,1.3c-0.3,0.5-0.5,0.9-0.8,1.2c-1.4,1.5-2.9,2.9-4.3,4.3
			c-0.8,0.8-1.5,0.8-2.3,0c-5.5-5.5-10.9-11-16.4-16.4C79.5,63,79.4,62.2,80.3,61.4z M86.3,95.6c-1.7,1.7-1.8,1.7-3.4,0
			c3.8-3.8,7.6-7.6,11.5-11.4c1.6,1.5,1.6,1.7,0,3.3C91.7,90.2,89,92.9,86.3,95.6z M89.2,117.6c-11.3,0-22.4,0-33.7,0
			c0.7-1.5,1.8-2.4,3.3-2.4c9,0,18,0,27,0C87.3,115.2,88.4,116,89.2,117.6z M80,67.1c4.5,4.5,9.1,9,13.5,13.5
			C88.8,85.3,84,90,79.4,94.7c-4.4-4.4-9-9-13.5-13.5C70.5,76.6,75.2,71.8,80,67.1z M55.8,85.9c1.5-1.4,2.9-2.9,4.3-4.3
			c0.8-0.9,1.5-0.8,2.3,0c5.5,5.5,10.9,11,16.4,16.4c0.9,0.9,0.9,1.6,0,2.5c-1.4,1.4-2.8,2.8-4.2,4.2c-0.3,0.3-0.7,0.5-1.2,0.9
			c-0.4-0.3-0.9-0.5-1.2-0.8c-5.5-5.5-11-11-16.6-16.5C55,87.4,55,86.7,55.8,85.9z M33.6,95.6c0.3-1.1,1.4-1.7,2.4-1.4l18.6,4.7
			c1.1,0.3,1.7,1.4,1.4,2.4c-0.2,0.9-1,1.5-1.9,1.5c-0.2,0-0.3,0-0.5-0.1l-18.6-4.7C34,97.8,33.3,96.7,33.6,95.6z M35.9,114.5
			c-0.9,0-1.8-0.6-2-1.6c-0.2-1.1,0.5-2.1,1.5-2.4l18.3-3.8c1.1-0.2,2.1,0.5,2.4,1.5c0.2,1.1-0.5,2.1-1.5,2.4l-18.3,3.8
			C36.2,114.5,36.1,114.5,35.9,114.5z M91.1,129.9c-6.3,0-12.6,0-19,0c-6.2,0-12.3,0-18.5,0c-1.9,0-2.1-0.2-2.1-2.1
			c0-1.3,0-2.5,0-3.8c0.1-2.3,1.5-3.9,3.8-3.9c11.3,0,22.6,0,33.9,0c2.3,0,3.8,1.5,3.8,3.9c0,1.3-0.1,2.7,0,4
			C93.2,129.4,92.5,129.9,91.1,129.9z M122.7,120.7c-1.9,3.5-6.2,5.3-9.8,3.9c-1.1-0.4-2.3-1.1-3-2c-7.2-8.5-14.3-17.1-21.4-25.7
			c2.4-2.4,4.7-4.7,7.1-7.1c3.4,2.8,6.8,5.6,10.2,8.5c5,4.1,10,8.2,14.9,12.4C124,113.3,124.7,117.2,122.7,120.7z"/>
		<path class="st2" d="M97.1,11.3c0,8.1,0,16.9,0,25.8c9.1,0,17.8,0,25.8,0C114.4,28.6,105.6,19.9,97.1,11.3z"/>
	</g>
</g>
<g id="Capa_2">
	<g>
		<path class="st3" d="M131.8,50.9c0-1-0.1-2-0.1-3.2c-1.3,0-2.3,0-3.3,0c-11.6,0-23.2,0-34.8,0c-5.1,0-6.8-1.7-6.8-6.8
			c0-11.7,0-23.4,0-35.1c0-1,0-2,0-3.4c-1.3,0-2.2,0-3,0c-19.2,0-38.5,0-57.7,0c-5.7,0-7.8,2.1-7.8,7.9c0,43,0,86.1,0,129.1
			c0,6,2,8,8,8c32.5,0,65.1,0,97.6,0c6,0,8-2,8-7.9C131.8,110,131.8,80.5,131.8,50.9z M80.3,61.4c1.4-1.4,2.8-2.8,4.2-4.2
			c0.9-0.9,1.6-0.8,2.5,0c5.4,5.5,10.9,10.9,16.3,16.3c0.3,0.3,0.6,0.8,1,1.3c-0.3,0.5-0.5,0.9-0.8,1.2c-1.4,1.5-2.9,2.9-4.3,4.3
			c-0.8,0.8-1.5,0.8-2.3,0c-5.5-5.5-10.9-11-16.4-16.4C79.5,63,79.4,62.2,80.3,61.4z M86.3,95.6c-1.7,1.7-1.8,1.7-3.4,0
			c3.8-3.8,7.6-7.6,11.5-11.4c1.6,1.5,1.6,1.7,0,3.3C91.7,90.2,89,92.9,86.3,95.6z M89.2,117.6c-11.3,0-22.4,0-33.7,0
			c0.7-1.5,1.8-2.4,3.3-2.4c9,0,18,0,27,0C87.3,115.2,88.4,116,89.2,117.6z M80,67.1c4.5,4.5,9.1,9,13.5,13.5
			C88.8,85.3,84,90,79.4,94.7c-4.4-4.4-9-9-13.5-13.5C70.5,76.6,75.2,71.8,80,67.1z M55.8,85.9c1.5-1.4,2.9-2.9,4.3-4.3
			c0.8-0.9,1.5-0.8,2.3,0c5.5,5.5,10.9,11,16.4,16.4c0.9,0.9,0.9,1.6,0,2.5c-1.4,1.4-2.8,2.8-4.2,4.2c-0.3,0.3-0.7,0.5-1.2,0.9
			c-0.4-0.3-0.9-0.5-1.2-0.8c-5.5-5.5-11-11-16.6-16.5C55,87.4,55,86.7,55.8,85.9z M33.6,95.6c0.3-1.1,1.4-1.7,2.4-1.4l18.6,4.7
			c1.1,0.3,1.7,1.4,1.4,2.4c-0.2,0.9-1,1.5-1.9,1.5c-0.2,0-0.3,0-0.5-0.1l-18.6-4.7C34,97.8,33.3,96.7,33.6,95.6z M35.9,114.5
			c-0.9,0-1.8-0.6-2-1.6c-0.2-1.1,0.5-2.1,1.5-2.4l18.3-3.8c1.1-0.2,2.1,0.5,2.4,1.5c0.2,1.1-0.5,2.1-1.5,2.4l-18.3,3.8
			C36.2,114.5,36.1,114.5,35.9,114.5z M91.1,129.9c-6.3,0-12.6,0-19,0c-6.2,0-12.3,0-18.5,0c-1.9,0-2.1-0.2-2.1-2.1
			c0-1.3,0-2.5,0-3.8c0.1-2.3,1.5-3.9,3.8-3.9c11.3,0,22.6,0,33.9,0c2.3,0,3.8,1.5,3.8,3.9c0,1.3-0.1,2.7,0,4
			C93.2,129.4,92.5,129.9,91.1,129.9z M122.7,120.7c-1.9,3.5-6.2,5.3-9.8,3.9c-1.1-0.4-2.3-1.1-3-2c-7.2-8.5-14.3-17.1-21.4-25.7
			c2.4-2.4,4.7-4.7,7.1-7.1c3.4,2.8,6.8,5.6,10.2,8.5c5,4.1,10,8.2,14.9,12.4C124,113.3,124.7,117.2,122.7,120.7z"/>
		<path class="st3" d="M97.1,11.3c0,8.1,0,16.9,0,25.8c9.1,0,17.8,0,25.8,0C114.4,28.6,105.6,19.9,97.1,11.3z"/>
	</g>
</g>
</svg>
