<?xml version="1.0" encoding="utf-8"?>
<!-- Generator: Adobe Illustrator 24.0.2, SVG Export Plug-In . SVG Version: 6.00 Build 0)  -->
<svg version="1.1" xmlns="http://www.w3.org/2000/svg" xmlns:xlink="http://www.w3.org/1999/xlink" x="0px" y="0px"
	 viewBox="0 0 150 150" style="enable-background:new 0 0 150 150;" xml:space="preserve">
<style type="text/css">
	.st0{display:none;}
	.st1{display:inline;}
	.st2{fill:#101820;}
	.st3{fill:#FFFFFF;}
	.st4{display:inline;fill:#101820;}
</style>
<g id="Capa_1" class="st0">
	<g class="st1">
		<path class="st2" d="M75.1,41.2c14,0,27.9,0,41.9,0c10.6,0,17,6.4,17,17c0,24,0,48,0,72c0,10.4-6.5,16.8-16.8,16.8
			c-28.1,0-56.2,0-84.3,0c-10.4,0-16.8-6.5-16.8-16.9c0-24.1,0-48.2,0-72.3c0-10.2,6.5-16.7,16.7-16.7C46.9,41.2,61,41.2,75.1,41.2z
			 M61.1,78c-0.2-0.3-0.3-0.3-0.3-0.4c-0.1-2.4-0.1-4.9-0.2-7.3c-0.2-3.3-2.3-5.4-5.3-5.3c-2.9,0.1-4.9,2.2-5,5.3
			c-0.1,4.2-0.1,8.4,0,12.7c0.1,3.6,2,5.5,5.6,5.5c12.7,0,25.5,0,38.2,0c3.8,0,5.6-2,5.7-5.8c0-3.8,0-7.7,0-11.5
			c0-3.9-2-6.3-5.3-6.2c-3.1,0.1-5,2.3-5.1,6.2c0,2.3,0,4.6,0,6.9C79.6,78,70.2,78,61.1,78z"/>
		<path class="st2" d="M75.2,22.1c14.1,0,28.1,0,42.2,0c2.4,0,4.5,0.6,5.6,2.9c1.6,3.2-0.4,6.9-4,7.4c-1,0.1-2.1,0.1-3.1,0.1
			c-27.3,0-54.5,0-81.8,0c-1.1,0-2.3,0-3.4-0.1c-2.7-0.4-4.3-2.4-4.3-5.1c0-2.6,1.7-4.7,4.3-5.1c0.9-0.1,1.9-0.1,2.8-0.1
			C47.5,22.1,61.4,22.1,75.2,22.1z"/>
		<path class="st2" d="M75,3c11.3,0,22.7,0,34,0c2.2,0,4.4,0.6,5.1,2.7c0.5,1.6,0.5,3.7-0.1,5.3c-0.8,2.2-3.1,2.5-5.2,2.5
			c-6.8,0-13.7,0-20.5,0c-15,0-30,0-45,0c-0.9,0-1.9,0-2.8,0c-3.3-0.2-5.4-2.4-5.3-5.3c0.1-3,2.3-5,5.6-5C52.1,3,63.6,3,75,3z"/>
	</g>
</g>
<g id="Capa_2">
	<g>
		<path class="st3" d="M75.1,41.2c14,0,27.9,0,41.9,0c10.6,0,17,6.4,17,17c0,24,0,48,0,72c0,10.4-6.5,16.8-16.8,16.8
			c-28.1,0-56.2,0-84.3,0c-10.4,0-16.8-6.5-16.8-16.9c0-24.1,0-48.2,0-72.3c0-10.2,6.5-16.7,16.7-16.7C46.9,41.2,61,41.2,75.1,41.2z
			 M61.1,78c-0.2-0.3-0.3-0.3-0.3-0.4c-0.1-2.4-0.1-4.9-0.2-7.3c-0.2-3.3-2.3-5.4-5.3-5.3c-2.9,0.1-4.9,2.2-5,5.3
			c-0.1,4.2-0.1,8.4,0,12.7c0.1,3.6,2,5.5,5.6,5.5c12.7,0,25.5,0,38.2,0c3.8,0,5.6-2,5.7-5.8c0-3.8,0-7.7,0-11.5
			c0-3.9-2-6.3-5.3-6.2c-3.1,0.1-5,2.3-5.1,6.2c0,2.3,0,4.6,0,6.9C79.6,78,70.2,78,61.1,78z"/>
		<path class="st3" d="M75.2,22.1c14.1,0,28.1,0,42.2,0c2.4,0,4.5,0.6,5.6,2.9c1.6,3.2-0.4,6.9-4,7.4c-1,0.1-2.1,0.1-3.1,0.1
			c-27.3,0-54.5,0-81.8,0c-1.1,0-2.3,0-3.4-0.1c-2.7-0.4-4.3-2.4-4.3-5.1c0-2.6,1.7-4.7,4.3-5.1c0.9-0.1,1.9-0.1,2.8-0.1
			C47.5,22.1,61.4,22.1,75.2,22.1z"/>
		<path class="st3" d="M75,3c11.3,0,22.7,0,34,0c2.2,0,4.4,0.6,5.1,2.7c0.5,1.6,0.5,3.7-0.1,5.3c-0.8,2.2-3.1,2.5-5.2,2.5
			c-6.8,0-13.7,0-20.5,0c-15,0-30,0-45,0c-0.9,0-1.9,0-2.8,0c-3.3-0.2-5.4-2.4-5.3-5.3c0.1-3,2.3-5,5.6-5C52.1,3,63.6,3,75,3z"/>
	</g>
</g>
</svg>
