<?xml version="1.0" encoding="utf-8"?>
<!-- Generator: Adobe Illustrator 24.0.2, SVG Export Plug-In . SVG Version: 6.00 Build 0)  -->
<svg version="1.1" xmlns="http://www.w3.org/2000/svg" xmlns:xlink="http://www.w3.org/1999/xlink" x="0px" y="0px"
	 viewBox="0 0 150 150" style="enable-background:new 0 0 150 150;" xml:space="preserve">
<style type="text/css">
	.st0{display:none;}
	.st1{display:inline;}
	.st2{fill:#101820;}
	.st3{fill:#FFFFFF;}
	.st4{display:inline;fill:#101820;}
</style>
<g id="Capa_1" class="st0">
	<g class="st1">
		<path class="st2" d="M85.3,3c0,6.6,0,12.8,0,18.9c0,7,0,13.9,0,20.9c0,4.6,1.8,6.4,6.4,6.4c13.7,0,27.4,0,41.1,0
			c1.2,0,2.3,0,3.9,0c0,1.3,0,2.5,0,3.6c0,28.9,0,57.8,0,86.8c0,5.9-1.5,7.4-7.4,7.4c-36.2,0-72.4,0-108.6,0c-5.9,0-7.4-1.5-7.4-7.4
			c0-43.2,0-86.3,0-129.5c0-5.6,1.5-7.2,7.3-7.2c20.3,0,40.7,0,61,0C82.7,3,83.7,3,85.3,3z M49.4,39c4.7,0,9.1,0,13.5,0
			c4.6,0,7-1.8,7-5.2c-0.1-3.3-2.4-5-6.8-5.1c-1.1,0-2.2,0-3.3,0c-0.1-2-0.2-3.4-0.3-5.1c-1.8,0-3.4,0-5,0c-1.7,0-3.3,0-5.2,0
			c0,1.9,0,3.4,0,5.1c-1.4,0-2.5,0-3.7,0c-4.8,0-6.5,1.8-6.5,6.6c0,4.3,0,8.6,0,12.9c0,4.4,1.9,6.2,6.3,6.2c4.7,0,9.4,0,14,0
			c0,1.9,0,3.4,0,5.2c-4.5,0-8.8,0-13,0c-4.9,0-7.3,1.8-7.3,5.2c0,3.3,2.4,5,7.1,5.1c1,0,2,0,3,0c0.1,2,0.2,3.4,0.2,4.9
			c3.5,0,6.7,0,10,0c0.1-1.8,0.2-3.3,0.3-4.9c1.2,0,2,0,2.9,0c5.7,0,7.2-1.5,7.2-7.3c0-4.1,0-8.1,0-12.2c0-4.4-1.9-6.2-6.3-6.2
			c-4.7,0-9.4,0-14.1,0C49.4,42.3,49.4,40.9,49.4,39z M74.7,100.7c10,0,19.9,0,29.9,0c4,0,6.4-1.9,6.4-5.1c0-3.2-2.4-5.1-6.4-5.1
			c-19.7,0-39.4,0-59.1,0c-4.1,0-6.4,1.9-6.4,5.1c0,3.2,2.4,5.1,6.4,5.1C55.2,100.7,64.9,100.7,74.7,100.7z M74.7,121.3
			c10,0,19.9,0,29.9,0c4,0,6.4-1.9,6.4-5.1c0-3.2-2.4-5.1-6.4-5.1c-19.7,0-39.4,0-59.1,0c-4.1,0-6.4,1.9-6.4,5.1
			c0,3.2,2.4,5.1,6.4,5.1C55.2,121.3,64.9,121.3,74.7,121.3z"/>
		<path class="st2" d="M133.4,38.9c-13.1,0-25.2,0-37.6,0c0-10.7,0-21.5,0-32.9C108.3,17,120.5,27.6,133.4,38.9z"/>
	</g>
</g>
<g id="Capa_2">
	<g>
		<path class="st3" d="M85.3,3c0,6.6,0,12.8,0,18.9c0,7,0,13.9,0,20.9c0,4.6,1.8,6.4,6.4,6.4c13.7,0,27.4,0,41.1,0
			c1.2,0,2.3,0,3.9,0c0,1.3,0,2.5,0,3.6c0,28.9,0,57.8,0,86.8c0,5.9-1.5,7.4-7.4,7.4c-36.2,0-72.4,0-108.6,0c-5.9,0-7.4-1.5-7.4-7.4
			c0-43.2,0-86.3,0-129.5c0-5.6,1.5-7.2,7.3-7.2c20.3,0,40.7,0,61,0C82.7,3,83.7,3,85.3,3z M49.4,39c4.7,0,9.1,0,13.5,0
			c4.6,0,7-1.8,7-5.2c-0.1-3.3-2.4-5-6.8-5.1c-1.1,0-2.2,0-3.3,0c-0.1-2-0.2-3.4-0.3-5.1c-1.8,0-3.4,0-5,0c-1.7,0-3.3,0-5.2,0
			c0,1.9,0,3.4,0,5.1c-1.4,0-2.5,0-3.7,0c-4.8,0-6.5,1.8-6.5,6.6c0,4.3,0,8.6,0,12.9c0,4.4,1.9,6.2,6.3,6.2c4.7,0,9.4,0,14,0
			c0,1.9,0,3.4,0,5.2c-4.5,0-8.8,0-13,0c-4.9,0-7.3,1.8-7.3,5.2c0,3.3,2.4,5,7.1,5.1c1,0,2,0,3,0c0.1,2,0.2,3.4,0.2,4.9
			c3.5,0,6.7,0,10,0c0.1-1.8,0.2-3.3,0.3-4.9c1.2,0,2,0,2.9,0c5.7,0,7.2-1.5,7.2-7.3c0-4.1,0-8.1,0-12.2c0-4.4-1.9-6.2-6.3-6.2
			c-4.7,0-9.4,0-14.1,0C49.4,42.3,49.4,40.9,49.4,39z M74.7,100.7c10,0,19.9,0,29.9,0c4,0,6.4-1.9,6.4-5.1c0-3.2-2.4-5.1-6.4-5.1
			c-19.7,0-39.4,0-59.1,0c-4.1,0-6.4,1.9-6.4,5.1c0,3.2,2.4,5.1,6.4,5.1C55.2,100.7,64.9,100.7,74.7,100.7z M74.7,121.3
			c10,0,19.9,0,29.9,0c4,0,6.4-1.9,6.4-5.1c0-3.2-2.4-5.1-6.4-5.1c-19.7,0-39.4,0-59.1,0c-4.1,0-6.4,1.9-6.4,5.1
			c0,3.2,2.4,5.1,6.4,5.1C55.2,121.3,64.9,121.3,74.7,121.3z"/>
		<path class="st3" d="M133.4,38.9c-13.1,0-25.2,0-37.6,0c0-10.7,0-21.5,0-32.9C108.3,17,120.5,27.6,133.4,38.9z"/>
	</g>
</g>
</svg>
