<?xml version="1.0" encoding="utf-8"?>
<!-- Generator: Adobe Illustrator 24.0.2, SVG Export Plug-In . SVG Version: 6.00 Build 0)  -->
<svg version="1.1" xmlns="http://www.w3.org/2000/svg" xmlns:xlink="http://www.w3.org/1999/xlink" x="0px" y="0px"
	 viewBox="0 0 150 150" style="enable-background:new 0 0 150 150;" xml:space="preserve">
<style type="text/css">
	.st0{display:none;}
	.st1{display:inline;}
	.st2{fill:#101820;}
	.st3{fill:#FFFFFF;}
	.st4{display:inline;fill:#101820;}
</style>
<g id="Capa_1" class="st0">
	<g class="st1">
		<path class="st2" d="M33.3,36.2c-0.5,0-0.7,0-0.9,0c-2.4,0-3.4-0.9-3.4-3.3c0-4.4,0-8.9,0-13.3c0-1.4,0-2.8,0-4.2
			c0-2.4,1-3.3,3.4-3.3c7.5,0,14.9,0,22.4,0c20.8,0,41.6,0,62.5,0c3,0,3.8,0.8,3.8,3.7c0,5.3,0,10.7,0,16c0,3.8-0.4,4.3-4.3,4.5
			c0,0.5,0,1.1,0,1.6c0,12,0,24,0,36c0,4.5-2,6.5-6.5,6.5c-23.5,0-47,0-70.5,0c-4.4,0-6.4-2-6.4-6.4c0-12,0-24,0-36
			C33.3,37.5,33.3,36.9,33.3,36.2z M74.9,28.4c1.8,0,3.7,0,5.5,0c0.1,0,0.2,0,0.3,0c2.8-0.1,4.6-1.8,4.6-4.3c0-2.5-1.9-4.3-4.6-4.3
			c-3.8,0-7.6,0-11.3,0c-2.8,0-4.6,1.8-4.7,4.3c0,2.6,1.8,4.3,4.7,4.4C71.2,28.5,73.1,28.4,74.9,28.4z"/>
		<path class="st2" d="M56.7,110.7c7.3,4.5,14.8,6.6,22.9,2.4c3.2-1.7,5.7-4.2,7.7-7.2c0.8-1.3,1.8-1.9,3.4-2.2
			c13.8-2.4,27.6-4.9,41.4-7.3c4.1-0.7,8.2-0.7,12,1.5c2.1,1.2,3.6,2.8,3.5,5.4c-0.1,2.8-1.4,5-4,6.2c-4.1,2-8.3,3.9-12.5,5.7
			c-15.3,6.9-30.7,13.7-46.1,20.7c-4.6,2.1-9.3,2.4-14.1,1.9c-11.7-1.3-22.4-5.9-32.9-10.8c-1.9-0.9-3.9-1.7-5.7-2.8
			c-2.1-1.2-4.2-1.6-6.6-1.4c-4,0.2-8,0.2-12,0.2c-2.2,0-2.8-0.4-3.5-2.5c-2.5-6.9-4.9-13.8-7.4-20.8c-0.6-1.6,0.1-2.6,1.8-2.9
			c8.7-1.2,17.4-2.4,26-3.8c3.7-0.6,7.3-1.7,11-2.6c5.5-1.3,11-1.3,16.4-0.3c6,1.1,12,2.5,17.9,3.9c1.3,0.3,2.5,0.9,3.7,1.5
			c2.8,1.5,3.5,3.9,2,6.8c-1.8,3.6-4.8,5.8-8.4,7.2c-5.1,2.1-10.4,2.4-15.8,1.3C57.2,110.8,57,110.8,56.7,110.7z"/>
	</g>
</g>
<g id="Capa_2">
	<g>
		<path class="st3" d="M33.3,36.2c-0.5,0-0.7,0-0.9,0c-2.4,0-3.4-0.9-3.4-3.3c0-4.4,0-8.9,0-13.3c0-1.4,0-2.8,0-4.2
			c0-2.4,1-3.3,3.4-3.3c7.5,0,14.9,0,22.4,0c20.8,0,41.6,0,62.5,0c3,0,3.8,0.8,3.8,3.7c0,5.3,0,10.7,0,16c0,3.8-0.4,4.3-4.3,4.5
			c0,0.5,0,1.1,0,1.6c0,12,0,24,0,36c0,4.5-2,6.5-6.5,6.5c-23.5,0-47,0-70.5,0c-4.4,0-6.4-2-6.4-6.4c0-12,0-24,0-36
			C33.3,37.5,33.3,36.9,33.3,36.2z M74.9,28.4c1.8,0,3.7,0,5.5,0c0.1,0,0.2,0,0.3,0c2.8-0.1,4.6-1.8,4.6-4.3c0-2.5-1.9-4.3-4.6-4.3
			c-3.8,0-7.6,0-11.3,0c-2.8,0-4.6,1.8-4.7,4.3c0,2.6,1.8,4.3,4.7,4.4C71.2,28.5,73.1,28.4,74.9,28.4z"/>
		<path class="st3" d="M56.7,110.7c7.3,4.5,14.8,6.6,22.9,2.4c3.2-1.7,5.7-4.2,7.7-7.2c0.8-1.3,1.8-1.9,3.4-2.2
			c13.8-2.4,27.6-4.9,41.4-7.3c4.1-0.7,8.2-0.7,12,1.5c2.1,1.2,3.6,2.8,3.5,5.4c-0.1,2.8-1.4,5-4,6.2c-4.1,2-8.3,3.9-12.5,5.7
			c-15.3,6.9-30.7,13.7-46.1,20.7c-4.6,2.1-9.3,2.4-14.1,1.9c-11.7-1.3-22.4-5.9-32.9-10.8c-1.9-0.9-3.9-1.7-5.7-2.8
			c-2.1-1.2-4.2-1.6-6.6-1.4c-4,0.2-8,0.2-12,0.2c-2.2,0-2.8-0.4-3.5-2.5c-2.5-6.9-4.9-13.8-7.4-20.8c-0.6-1.6,0.1-2.6,1.8-2.9
			c8.7-1.2,17.4-2.4,26-3.8c3.7-0.6,7.3-1.7,11-2.6c5.5-1.3,11-1.3,16.4-0.3c6,1.1,12,2.5,17.9,3.9c1.3,0.3,2.5,0.9,3.7,1.5
			c2.8,1.5,3.5,3.9,2,6.8c-1.8,3.6-4.8,5.8-8.4,7.2c-5.1,2.1-10.4,2.4-15.8,1.3C57.2,110.8,57,110.8,56.7,110.7z"/>
	</g>
</g>
</svg>
