<?xml version="1.0" encoding="utf-8"?>
<!-- Generator: Adobe Illustrator 24.0.2, SVG Export Plug-In . SVG Version: 6.00 Build 0)  -->
<svg version="1.1" xmlns="http://www.w3.org/2000/svg" xmlns:xlink="http://www.w3.org/1999/xlink" x="0px" y="0px"
	 viewBox="0 0 150 150" style="enable-background:new 0 0 150 150;" xml:space="preserve">
<style type="text/css">
	.st0{display:none;}
	.st1{display:inline;}
	.st2{fill:#c89211;}
	.st3{display:inline;fill:#c89211;}
	.st4{fill:#FFFFFF;}
</style>
<g id="Sky" class="st0">
	<g class="st1">
		<path class="st2" d="M2.6,125.6c0-31.8,0-63.5,0-95.3c0.1-0.3,0.3-0.7,0.4-1c2.3-9.3,9-14.6,18.5-14.6c12.6,0,25.2,0,37.7,0
			c0.4,0,0.9,0.1,1.6,0.1c-0.6,0.4-0.9,0.6-1.2,0.8c-4.8,2.9-9.7,5.6-14.4,8.7c-2.8,1.9-5.7,2.7-9.1,2.5c-5.1-0.2-10.2-0.1-15.3,0
			c-2.9,0-5.1,1.6-5.9,4.2c-0.8,2.4-0.1,5.3,2.2,6.6c1.3,0.8,2.9,1.2,4.4,1.2c33.4,0.1,66.9,0.1,100.3,0.1c0.7,0,1.3,0,2,0
			c5.7,0.2,10.9,4.8,11.3,10.4c0.3,4.4,0.1,8.9,0.1,13.4c0,0.1-0.1,0.1-0.2,0.3c-4.5,0-9.2,0-13.8,0c-1.6,0-3.1,0.1-4.7,0.3
			C102.6,65,92.4,77.5,93.1,91.7c0.8,13.9,12.3,25.2,26.3,25.5c4.7,0.1,9.4,0,14.1,0c0.5,0,1,0,1.7,0c0,2.4,0,4.7,0,6.9
			c0,2.4,0.2,4.9-0.2,7.3c-1,6-6,9.9-12.3,9.9c-8.8,0-17.6,0-26.4,0c-25,0-50,0-75,0c-8,0-13.7-3.7-17.2-10.9
			C3.4,128.9,3.1,127.2,2.6,125.6z"/>
		<path class="st2" d="M147.4,90.1c0,4.3,0,8.7,0,13c0,3.2-1.7,5-4.9,5c-7.4,0-14.9,0.1-22.3,0c-9.4-0.1-17-7.1-17.9-16.4
			c-0.9-9.1,5.4-17.5,14.6-19.3c1.3-0.3,2.6-0.4,3.9-0.4c7.1,0,14.2,0,21.3,0c3.6,0,5.3,1.8,5.3,5.3
			C147.4,81.5,147.4,85.8,147.4,90.1z M126.2,90c0-3.3-2.7-6-6.1-6c-3.3,0-6,2.7-5.9,6.1c0,3.3,2.8,6,6.1,6
			C123.6,96.1,126.3,93.4,126.2,90z"/>
		<path class="st2" d="M49.2,32.5c0.4-0.2,0.7-0.5,1.1-0.7c12.2-7.3,24.5-14.7,36.7-22c3.2-1.9,5.5-1.4,7.4,1.9
			c3.9,6.6,7.7,13.2,11.6,19.9c0.2,0.4,0.4,0.7,0.7,1.2c-19.2,0-38.3,0-57.4,0C49.3,32.7,49.2,32.6,49.2,32.5z"/>
		<path class="st2" d="M117,32.4c-3.4-5.9-6.7-11.6-10.1-17.3C114.5,15.9,118.4,22.4,117,32.4z"/>
	</g>
</g>
<g id="White">
	<g>
		<path class="st4" d="M2.6,125.6c0-31.8,0-63.5,0-95.3c0.1-0.3,0.3-0.7,0.4-1c2.3-9.3,9-14.6,18.5-14.6c12.6,0,25.2,0,37.7,0
			c0.4,0,0.9,0.1,1.6,0.1c-0.6,0.4-0.9,0.6-1.2,0.8c-4.8,2.9-9.7,5.6-14.4,8.7c-2.8,1.9-5.7,2.7-9.1,2.5c-5.1-0.2-10.2-0.1-15.3,0
			c-2.9,0-5.1,1.6-5.9,4.2c-0.8,2.4-0.1,5.3,2.2,6.6c1.3,0.8,2.9,1.2,4.4,1.2c33.4,0.1,66.9,0.1,100.3,0.1c0.7,0,1.3,0,2,0
			c5.7,0.2,10.9,4.8,11.3,10.4c0.3,4.4,0.1,8.9,0.1,13.4c0,0.1-0.1,0.1-0.2,0.3c-4.5,0-9.2,0-13.8,0c-1.6,0-3.1,0.1-4.7,0.3
			C102.6,65,92.4,77.5,93.1,91.7c0.8,13.9,12.3,25.2,26.3,25.5c4.7,0.1,9.4,0,14.1,0c0.5,0,1,0,1.7,0c0,2.4,0,4.7,0,6.9
			c0,2.4,0.2,4.9-0.2,7.3c-1,6-6,9.9-12.3,9.9c-8.8,0-17.6,0-26.4,0c-25,0-50,0-75,0c-8,0-13.7-3.7-17.2-10.9
			C3.4,128.9,3.1,127.2,2.6,125.6z"/>
		<path class="st4" d="M147.4,90.1c0,4.3,0,8.7,0,13c0,3.2-1.7,5-4.9,5c-7.4,0-14.9,0.1-22.3,0c-9.4-0.1-17-7.1-17.9-16.4
			c-0.9-9.1,5.4-17.5,14.6-19.3c1.3-0.3,2.6-0.4,3.9-0.4c7.1,0,14.2,0,21.3,0c3.6,0,5.3,1.8,5.3,5.3
			C147.4,81.5,147.4,85.8,147.4,90.1z M126.2,90c0-3.3-2.7-6-6.1-6c-3.3,0-6,2.7-5.9,6.1c0,3.3,2.8,6,6.1,6
			C123.6,96.1,126.3,93.4,126.2,90z"/>
		<path class="st4" d="M49.2,32.5c0.4-0.2,0.7-0.5,1.1-0.7c12.2-7.3,24.5-14.7,36.7-22c3.2-1.9,5.5-1.4,7.4,1.9
			c3.9,6.6,7.7,13.2,11.6,19.9c0.2,0.4,0.4,0.7,0.7,1.2c-19.2,0-38.3,0-57.4,0C49.3,32.7,49.2,32.6,49.2,32.5z"/>
		<path class="st4" d="M117,32.4c-3.4-5.9-6.7-11.6-10.1-17.3C114.5,15.9,118.4,22.4,117,32.4z"/>
	</g>
</g>
</svg>
