<?xml version="1.0" encoding="utf-8"?>
<!-- Generator: Adobe Illustrator 24.0.2, SVG Export Plug-In . SVG Version: 6.00 Build 0)  -->
<svg version="1.1" xmlns="http://www.w3.org/2000/svg" xmlns:xlink="http://www.w3.org/1999/xlink" x="0px" y="0px"
	 viewBox="0 0 150 150" style="enable-background:new 0 0 150 150;" xml:space="preserve">
<style type="text/css">
	.st0{display:none;}
	.st1{display:inline;}
	.st2{fill:#101820;}
	.st3{fill:#FFFFFF;}
	.st4{display:inline;fill:#101820;}
</style>
<g id="Capa_1" class="st0">
	<g class="st1">
		<path class="st2" d="M52.9,100.2c-0.2-25.7,20.8-46.9,46.6-47.1c26-0.2,47.4,21,47.3,47c-0.1,25.8-21,46.8-46.8,47
			C74.1,147.1,53,126.2,52.9,100.2z M106.2,110.8c0,4.3-4,7.3-8.1,5.9c-1.3-0.4-2.5-1.3-3.7-2c-2-1.2-3.9-1.1-5.6,0.7
			c-1.5,1.6-1.4,4.2,0.3,5.8c1.2,1.2,2.6,2.2,4.1,2.9c1.6,0.8,2.4,1.5,2.4,3.5c0,3,1.8,4.9,4.3,4.8c2.4-0.1,4.2-1.9,4.1-4.7
			c0-1.9,0.6-2.7,2.3-3.5c9.9-4.9,11.3-18,2.7-25c-2.8-2.3-6-3.2-9.6-3.4c-2.9-0.2-5-1.8-5.8-4.6c-0.7-2.5-0.2-4.8,1.9-6.6
			c2.2-1.9,4.6-2,7.1-0.9c0.7,0.3,1.4,1,2,1.5c2.1,1.6,4.4,1.5,6-0.3c1.5-1.6,1.5-4.2-0.2-5.8c-1.3-1.2-2.7-2.3-4.3-3.1
			c-1.6-0.7-2.2-1.6-2.2-3.3c0-3.1-1.7-4.9-4.3-4.8c-2.5,0-4.2,1.8-4.2,4.9c0,1.8-0.7,2.5-2.3,3.3c-5.7,2.7-9,8.6-8.4,14.7
			c0.7,7.6,6.5,13.2,14.3,13.7C103.6,104.6,106.2,107,106.2,110.8z"/>
		<path class="st2" d="M56.1,3c12.5,0.2,25.8,1.3,38.3,6.4c3.5,1.4,6.9,3.4,9.8,5.9c4.6,3.9,4.4,8.7-0.1,12.8
			c-4,3.7-8.9,5.8-14.1,7.2C65.5,42,41,42,16.8,33.8c-3.4-1.1-6.6-3.1-9.5-5.3C1.9,24.3,2,18.7,7.4,14.3c4.7-3.8,10.2-5.8,15.9-7.4
			C33.8,4.1,44.5,3.1,56.1,3z"/>
		<path class="st2" d="M3.5,35.1c10.1,6.9,21.2,9.1,32.3,10.5C55,47.9,74,47.4,92.7,41.9c5-1.5,9.8-4,14.7-6c0,3.1,0,6.6,0,9.8
			c-5.7,0.3-11.4,0.2-16.9,1.1C77.6,48.8,67,55.1,58.4,64.9c-0.7,0.8-1.8,1.6-2.7,1.6c-13.9-0.6-27.7-1.6-40.8-6.7
			c-2-0.8-3.9-1.8-5.7-2.9C5.4,54.5,3,51.3,3.5,46.4C3.8,42.8,3.5,39.2,3.5,35.1z"/>
		<path class="st2" d="M3.4,115.3c14.7,9.5,30.8,10.9,47,11.8c1.9,0.1,3,0.7,4,2.3c3.6,5.9,8.4,10.7,14,14.8c0.7,0.5,1.3,1,2.5,1.9
			c-2.6,0.2-4.6,0.4-6.6,0.6c-16.1,0.9-32-0.2-47.3-5.8c-1.6-0.6-3.1-1.3-4.6-2.1c-6.2-3-10-7.4-9-14.9
			C3.7,121.2,3.4,118.5,3.4,115.3z"/>
		<path class="st2" d="M51.5,73.8c-1.7,5.9-3.4,12-5.3,18c-0.2,0.6-1.3,1.3-2,1.2c-10.5-0.8-20.8-2.4-30.5-6.9
			c-2.2-1-4.3-2.4-6.2-3.8c-2.9-2.1-4.4-4.9-4.2-8.7c0.2-3.8,0.1-7.7,0.1-12c7.4,5.1,15.3,7.7,23.6,9C35.4,72,43.7,72.8,51.5,73.8z"
			/>
		<path class="st2" d="M3.4,88.6c12.2,7.9,25.5,9.9,39,11.1c2.4,0.2,3.2,0.8,3.5,3.4c0.5,4.8,1.7,9.5,2.6,14.3
			c0.2,0.9,0.5,1.7,1,3.3c-6.4-0.8-12.4-1.1-18.1-2.5c-6.5-1.5-12.9-3.6-19.1-6.2c-6.3-2.6-9.7-7.4-8.9-14.7
			C3.7,94.6,3.4,91.8,3.4,88.6z"/>
	</g>
</g>
<g id="Capa_2">
	<g>
		<path class="st3" d="M52.9,100.2c-0.2-25.7,20.8-46.9,46.6-47.1c26-0.2,47.4,21,47.3,47c-0.1,25.8-21,46.8-46.8,47
			C74.1,147.1,53,126.2,52.9,100.2z M106.2,110.8c0,4.3-4,7.3-8.1,5.9c-1.3-0.4-2.5-1.3-3.7-2c-2-1.2-3.9-1.1-5.6,0.7
			c-1.5,1.6-1.4,4.2,0.3,5.8c1.2,1.2,2.6,2.2,4.1,2.9c1.6,0.8,2.4,1.5,2.4,3.5c0,3,1.8,4.9,4.3,4.8c2.4-0.1,4.2-1.9,4.1-4.7
			c0-1.9,0.6-2.7,2.3-3.5c9.9-4.9,11.3-18,2.7-25c-2.8-2.3-6-3.2-9.6-3.4c-2.9-0.2-5-1.8-5.8-4.6c-0.7-2.5-0.2-4.8,1.9-6.6
			c2.2-1.9,4.6-2,7.1-0.9c0.7,0.3,1.4,1,2,1.5c2.1,1.6,4.4,1.5,6-0.3c1.5-1.6,1.5-4.2-0.2-5.8c-1.3-1.2-2.7-2.3-4.3-3.1
			c-1.6-0.7-2.2-1.6-2.2-3.3c0-3.1-1.7-4.9-4.3-4.8c-2.5,0-4.2,1.8-4.2,4.9c0,1.8-0.7,2.5-2.3,3.3c-5.7,2.7-9,8.6-8.4,14.7
			c0.7,7.6,6.5,13.2,14.3,13.7C103.6,104.6,106.2,107,106.2,110.8z"/>
		<path class="st3" d="M56.1,3c12.5,0.2,25.8,1.3,38.3,6.4c3.5,1.4,6.9,3.4,9.8,5.9c4.6,3.9,4.4,8.7-0.1,12.8
			c-4,3.7-8.9,5.8-14.1,7.2C65.5,42,41,42,16.8,33.8c-3.4-1.1-6.6-3.1-9.5-5.3C1.9,24.3,2,18.7,7.4,14.3c4.7-3.8,10.2-5.8,15.9-7.4
			C33.8,4.1,44.5,3.1,56.1,3z"/>
		<path class="st3" d="M3.5,35.1c10.1,6.9,21.2,9.1,32.3,10.5C55,47.9,74,47.4,92.7,41.9c5-1.5,9.8-4,14.7-6c0,3.1,0,6.6,0,9.8
			c-5.7,0.3-11.4,0.2-16.9,1.1C77.6,48.8,67,55.1,58.4,64.9c-0.7,0.8-1.8,1.6-2.7,1.6c-13.9-0.6-27.7-1.6-40.8-6.7
			c-2-0.8-3.9-1.8-5.7-2.9C5.4,54.5,3,51.3,3.5,46.4C3.8,42.8,3.5,39.2,3.5,35.1z"/>
		<path class="st3" d="M3.4,115.3c14.7,9.5,30.8,10.9,47,11.8c1.9,0.1,3,0.7,4,2.3c3.6,5.9,8.4,10.7,14,14.8c0.7,0.5,1.3,1,2.5,1.9
			c-2.6,0.2-4.6,0.4-6.6,0.6c-16.1,0.9-32-0.2-47.3-5.8c-1.6-0.6-3.1-1.3-4.6-2.1c-6.2-3-10-7.4-9-14.9
			C3.7,121.2,3.4,118.5,3.4,115.3z"/>
		<path class="st3" d="M51.5,73.8c-1.7,5.9-3.4,12-5.3,18c-0.2,0.6-1.3,1.3-2,1.2c-10.5-0.8-20.8-2.4-30.5-6.9
			c-2.2-1-4.3-2.4-6.2-3.8c-2.9-2.1-4.4-4.9-4.2-8.7c0.2-3.8,0.1-7.7,0.1-12c7.4,5.1,15.3,7.7,23.6,9C35.4,72,43.7,72.8,51.5,73.8z"
			/>
		<path class="st3" d="M3.4,88.6c12.2,7.9,25.5,9.9,39,11.1c2.4,0.2,3.2,0.8,3.5,3.4c0.5,4.8,1.7,9.5,2.6,14.3
			c0.2,0.9,0.5,1.7,1,3.3c-6.4-0.8-12.4-1.1-18.1-2.5c-6.5-1.5-12.9-3.6-19.1-6.2c-6.3-2.6-9.7-7.4-8.9-14.7
			C3.7,94.6,3.4,91.8,3.4,88.6z"/>
	</g>
</g>
</svg>
