<?xml version="1.0" encoding="utf-8"?>
<!-- Generator: Adobe Illustrator 24.0.2, SVG Export Plug-In . SVG Version: 6.00 Build 0)  -->
<svg version="1.1" xmlns="http://www.w3.org/2000/svg" xmlns:xlink="http://www.w3.org/1999/xlink" x="0px" y="0px"
	 viewBox="0 0 150 150" style="enable-background:new 0 0 150 150;" xml:space="preserve">
<style type="text/css">
	.st0{display:none;}
	.st1{display:inline;}
	.st2{fill:#FFFFFF;}
</style>
<g id="black" class="st0">
	<g class="st1">
		<path d="M97.2,107c0,5.9,0,11.3,0,17c5.4,0,10.6-0.2,15.8,0.1c2.4,0.2,5.1,0.9,6.9,2.4c1.5,1.2,2.1,3.7,2.6,5.8
			c0.4,1.9,0.1,4,0.1,6.2c-31.8,0-63.2,0-94.7,0c-1.9-9.1,0.4-14.7,10.5-14.5c4.7,0.1,9.5,0,14.3,0c0.1-0.9,0.1-1.4,0.1-2
			c0-4.8,0-9.7,0-15c-1.2,0-2.2,0-3.2,0c-10.8,0-21.6,0-32.4,0C9.2,107,5,102.7,5,94.6C5,71,5,47.4,5,23.7c0-8.1,4.2-12.3,12.1-12.3
			c38.6,0,77.2,0,115.7,0c7.8,0,12.1,4.2,12.1,12c0,23.8,0,47.6,0,71.4c0,7.7-4.3,12.1-12.1,12.1c-10.8,0-21.6,0-32.4,0
			C99.5,107,98.5,107,97.2,107z M135.8,92.6c0.1-0.8,0.1-1.3,0.1-1.8c0-22.4,0-44.9,0.1-67.3c0-2.8-1.4-3.1-3.6-3.1
			c-38.2,0-76.4,0-114.5,0c-3.8,0-3.9,0.1-3.9,4c0,21.7,0,43.3,0,65c0,1,0,2.1,0,3.2C54.8,92.6,95.2,92.6,135.8,92.6z"/>
		<path d="M95.6,64.3c-13.7,0-27.4,0-41.5,0c0.9-2.3,1.8-4.3,2.5-6.4c2-6.4,4-12.8,5.7-19.2c0.7-2.6,1.9-3.8,4.6-3.7
			c5.3,0.1,10.7,0,16,0c1.8,0,3.3,0.3,3.9,2.3C89.8,46.3,92.7,55.2,95.6,64.3z"/>
		<path d="M75,69.1c7,0,14,0,21,0c2.6,0,4.1,1.4,4,3.7c-0.1,2.5-1.6,3.6-4,3.6c-9.1,0-18.3,0-27.4,0c-4.8,0-9.5,0-14.3,0
			c-2.8,0-4.4-1.3-4.4-3.5c0-2.4,1.6-3.7,4.4-3.7C61.2,69.1,68.1,69.1,75,69.1z"/>
		<path d="M66.1,32.4c0.8-4.8,4.4-7.8,9.2-7.6c4.5,0.1,7.9,3.3,8.4,7.8c-2.1,0.2-4,0.8-5.6-1.6c-1.4-2.1-4.6-2-6.4-0.2
			C69.6,32.9,69.6,32.9,66.1,32.4z"/>
		<path d="M83,81.3c-1.7,3.2-4.3,4.6-7.5,4.8c-3.6,0.2-6.5-1.3-8.7-4.8C72.4,81.3,77.5,81.3,83,81.3z"/>
		<path d="M54.1,42c-0.8-0.3-1.4-0.5-1.9-0.8c-2.2-1.5-4.4-2.9-6.3-4.6c-0.7-0.6-0.6-2.1-0.8-3.2c1.1-0.2,2.5-0.9,3.3-0.5
			c2.4,1.3,4.6,2.9,6.6,4.7c0.6,0.5,0.9,1.9,0.8,2.7C55.7,41,54.7,41.5,54.1,42z"/>
		<path d="M103.5,32.4c0.4,0.4,1.4,0.8,1.5,1.5c0.2,0.8,0,2.1-0.6,2.6c-2.2,1.8-4.6,3.5-7.1,5c-0.6,0.4-2.3,0.1-2.7-0.5
			c-0.5-0.6-0.6-2.4-0.1-2.8c2.4-2,5.1-3.8,7.7-5.6C102.4,32.4,102.8,32.5,103.5,32.4z"/>
		<path d="M40.2,62.3c-0.4-0.4-1.8-1.1-2-2.2c-0.4-1.7,1-2.5,2.7-2.6c2.4-0.2,4.8-0.6,7.2-0.5c0.9,0,1.9,1.2,2.8,1.8
			c-0.8,0.9-1.4,2.4-2.4,2.6C46.1,62,43.6,62,40.2,62.3z"/>
		<path d="M103.1,56.9c2.1,0.2,4.3,0.2,6.3,0.7c1,0.3,2.4,1.5,2.5,2.4c0.2,1.8-1.3,2.3-3,2.2c-2-0.2-4-0.4-6-0.6
			c-1.8-0.1-3.9-0.4-3.5-2.7c0.2-1,2.1-1.8,3.2-2.6C102.7,56.5,102.9,56.7,103.1,56.9z"/>
		<path d="M50,51.5c-3.2-0.9-5.8-1.4-8.3-2.4c-0.7-0.3-1.5-1.8-1.4-2.7c0.1-0.6,1.6-1.7,2.3-1.5c2.7,0.5,5.5,1.2,8.1,2.1
			c0.7,0.2,1.4,1.7,1.3,2.5C51.7,50.3,50.6,50.9,50,51.5z"/>
		<path d="M100,51.5c-0.6-0.6-1.7-1.2-1.9-2.1c-0.1-0.7,0.6-2.2,1.3-2.5c2.5-0.9,5.1-1.7,7.8-2.1c0.8-0.1,2.3,0.9,2.5,1.6
			c0.2,0.7-0.7,2.4-1.4,2.6C105.8,50.1,103.2,50.6,100,51.5z"/>
	</g>
</g>
<g id="white">
	<g>
		<path class="st2" d="M97.2,107c0,5.9,0,11.3,0,17c5.4,0,10.6-0.2,15.8,0.1c2.4,0.2,5.1,0.9,6.9,2.4c1.5,1.2,2.1,3.7,2.6,5.8
			c0.4,1.9,0.1,4,0.1,6.2c-31.8,0-63.2,0-94.7,0c-1.9-9.1,0.4-14.7,10.5-14.5c4.7,0.1,9.5,0,14.3,0c0.1-0.9,0.1-1.4,0.1-2
			c0-4.8,0-9.7,0-15c-1.2,0-2.2,0-3.2,0c-10.8,0-21.6,0-32.4,0C9.2,107,5,102.7,5,94.6C5,71,5,47.4,5,23.7c0-8.1,4.2-12.3,12.1-12.3
			c38.6,0,77.2,0,115.7,0c7.8,0,12.1,4.2,12.1,12c0,23.8,0,47.6,0,71.4c0,7.7-4.3,12.1-12.1,12.1c-10.8,0-21.6,0-32.4,0
			C99.5,107,98.5,107,97.2,107z M135.8,92.6c0.1-0.8,0.1-1.3,0.1-1.8c0-22.4,0-44.9,0.1-67.3c0-2.8-1.4-3.1-3.6-3.1
			c-38.2,0-76.4,0-114.5,0c-3.8,0-3.9,0.1-3.9,4c0,21.7,0,43.3,0,65c0,1,0,2.1,0,3.2C54.8,92.6,95.2,92.6,135.8,92.6z"/>
		<path class="st2" d="M95.6,64.3c-13.7,0-27.4,0-41.5,0c0.9-2.3,1.8-4.3,2.5-6.4c2-6.4,4-12.8,5.7-19.2c0.7-2.6,1.9-3.8,4.6-3.7
			c5.3,0.1,10.7,0,16,0c1.8,0,3.3,0.3,3.9,2.3C89.8,46.3,92.7,55.2,95.6,64.3z"/>
		<path class="st2" d="M75,69.1c7,0,14,0,21,0c2.6,0,4.1,1.4,4,3.7c-0.1,2.5-1.6,3.6-4,3.6c-9.1,0-18.3,0-27.4,0
			c-4.8,0-9.5,0-14.3,0c-2.8,0-4.4-1.3-4.4-3.5c0-2.4,1.6-3.7,4.4-3.7C61.2,69.1,68.1,69.1,75,69.1z"/>
		<path class="st2" d="M66.1,32.4c0.8-4.8,4.4-7.8,9.2-7.6c4.5,0.1,7.9,3.3,8.4,7.8c-2.1,0.2-4,0.8-5.6-1.6c-1.4-2.1-4.6-2-6.4-0.2
			C69.6,32.9,69.6,32.9,66.1,32.4z"/>
		<path class="st2" d="M83,81.3c-1.7,3.2-4.3,4.6-7.5,4.8c-3.6,0.2-6.5-1.3-8.7-4.8C72.4,81.3,77.5,81.3,83,81.3z"/>
		<path class="st2" d="M54.1,42c-0.8-0.3-1.4-0.5-1.9-0.8c-2.2-1.5-4.4-2.9-6.3-4.6c-0.7-0.6-0.6-2.1-0.8-3.2
			c1.1-0.2,2.5-0.9,3.3-0.5c2.4,1.3,4.6,2.9,6.6,4.7c0.6,0.5,0.9,1.9,0.8,2.7C55.7,41,54.7,41.5,54.1,42z"/>
		<path class="st2" d="M103.5,32.4c0.4,0.4,1.4,0.8,1.5,1.5c0.2,0.8,0,2.1-0.6,2.6c-2.2,1.8-4.6,3.5-7.1,5c-0.6,0.4-2.3,0.1-2.7-0.5
			c-0.5-0.6-0.6-2.4-0.1-2.8c2.4-2,5.1-3.8,7.7-5.6C102.4,32.4,102.8,32.5,103.5,32.4z"/>
		<path class="st2" d="M40.2,62.3c-0.4-0.4-1.8-1.1-2-2.2c-0.4-1.7,1-2.5,2.7-2.6c2.4-0.2,4.8-0.6,7.2-0.5c0.9,0,1.9,1.2,2.8,1.8
			c-0.8,0.9-1.4,2.4-2.4,2.6C46.1,62,43.6,62,40.2,62.3z"/>
		<path class="st2" d="M103.1,56.9c2.1,0.2,4.3,0.2,6.3,0.7c1,0.3,2.4,1.5,2.5,2.4c0.2,1.8-1.3,2.3-3,2.2c-2-0.2-4-0.4-6-0.6
			c-1.8-0.1-3.9-0.4-3.5-2.7c0.2-1,2.1-1.8,3.2-2.6C102.7,56.5,102.9,56.7,103.1,56.9z"/>
		<path class="st2" d="M50,51.5c-3.2-0.9-5.8-1.4-8.3-2.4c-0.7-0.3-1.5-1.8-1.4-2.7c0.1-0.6,1.6-1.7,2.3-1.5
			c2.7,0.5,5.5,1.2,8.1,2.1c0.7,0.2,1.4,1.7,1.3,2.5C51.7,50.3,50.6,50.9,50,51.5z"/>
		<path class="st2" d="M100,51.5c-0.6-0.6-1.7-1.2-1.9-2.1c-0.1-0.7,0.6-2.2,1.3-2.5c2.5-0.9,5.1-1.7,7.8-2.1
			c0.8-0.1,2.3,0.9,2.5,1.6c0.2,0.7-0.7,2.4-1.4,2.6C105.8,50.1,103.2,50.6,100,51.5z"/>
	</g>
</g>
</svg>
