<?xml version="1.0" encoding="utf-8"?>
<!-- Generator: Adobe Illustrator 24.0.2, SVG Export Plug-In . SVG Version: 6.00 Build 0)  -->
<svg version="1.1" xmlns="http://www.w3.org/2000/svg" xmlns:xlink="http://www.w3.org/1999/xlink" x="0px" y="0px"
	 viewBox="0 0 150 150" style="enable-background:new 0 0 150 150;" xml:space="preserve">
<style type="text/css">
	.st0{display:none;}
	.st1{display:inline;}
	.st2{fill:#101820;}
	.st3{fill:#FFFFFF;}
	.st4{display:inline;fill:#101820;}
</style>
<g id="Capa_1" class="st0">
	<g class="st1">
		<path class="st2" d="M56.9,146.8c0-48,0-95.8,0-143.7c1.1,0,2,0,2.9,0c21.2,0,42.5,0,63.7,0c9,0,14.1,5,14.1,14.1
			c0,38.5,0,77.1,0,115.6c0,9-5.1,14-14.1,14c-21.2,0-42.5,0-63.7,0C58.8,146.8,57.9,146.8,56.9,146.8z M93.2,25.8
			c-4.4,0-8.8,0-13.2,0c-3.5,0.1-5,1.6-5,4.9c0,5.5,0,11,0,16.5c0,3.2,1.5,4.8,4.8,4.8c8.8,0.1,17.6,0.1,26.3,0
			c3.3,0,4.7-1.6,4.7-4.9c0-5.4,0-10.8,0-16.3c0-3.6-1.5-5.1-5.1-5.1C101.6,25.7,97.4,25.8,93.2,25.8z"/>
		<path class="st2" d="M21.5,124.3c-3.7-0.8-8.9,1.1-8.9-4.5c0-5.6,5.1-3.8,8.5-4.5c0-4.4,0-8.9,0-13.8c-1.5,0-2.9,0.1-4.4,0
			c-2.7-0.2-4.3-1.8-4.3-4.2c0-2.4,1.6-4,4.3-4.2c1.4-0.1,2.8,0,4.4,0c0-4.7,0-9.1,0-13.7c-3.3-1-8.8,1.2-8.6-4.8
			c0.3-5.3,5.3-3.4,8.6-4.2c0-4.5,0-8.9,0-13.5c-3.3-0.8-8.6,1.2-8.6-4.5c0.1-5.6,5.2-3.6,8.6-4.4c0-4.5,0-8.9,0-13.5
			c-3.4-0.8-8.7,1.2-8.6-4.6c0.1-5.5,5.3-3.6,8.8-4.4c0-2.9,0-5.8,0-8.7C21.4,8.1,26.5,3,35.2,3c4.3,0,8.6,0,13,0c0,48,0,95.6,0,144
			c-6.1-0.3-12.2,0-18-1.1c-5.2-1-8.2-5.1-8.6-10.5C21.2,131.8,21.5,128.2,21.5,124.3z M21.5,34c4.7,0,9.3,0.1,13.8-0.1
			c2.1-0.1,3.3-1.8,3.3-3.9c0-2.2-1.1-4-3.4-4.1c-4.5-0.2-9.1-0.1-13.8-0.1C21.5,28.6,21.5,31.1,21.5,34z M21.5,56.5
			c4.7,0,9.2,0.1,13.6-0.1c2.3-0.1,3.5-1.7,3.5-4c0-2.2-1.1-4-3.4-4.1c-4.5-0.2-9.1-0.1-13.7-0.1C21.5,51.1,21.5,53.6,21.5,56.5z
			 M21.5,78.9c4.7,0,9.3,0.1,13.8-0.1c2.1-0.1,3.3-1.7,3.3-3.9c0.1-2.2-1.1-4-3.3-4.1c-4.5-0.2-9.1-0.1-13.8-0.1
			C21.5,73.6,21.5,76.2,21.5,78.9z M21.5,93.2c0,2.9,0,5.4,0,8.3c4.4,0,8.7,0.1,13,0c2.5-0.1,4.1-1.7,4.2-4c0.1-2.4-1.5-4.2-4.2-4.3
			C30.3,93.1,26.1,93.2,21.5,93.2z M21.5,115.6c0,2.9,0,5.4,0,8.3c4.4,0,8.7,0.1,13,0c2.5-0.1,4.1-1.7,4.2-4
			c0.1-2.4-1.5-4.2-4.2-4.3C30.3,115.5,26.1,115.6,21.5,115.6z"/>
		<path class="st2" d="M83.6,34.3c6.3,0,12.4,0,18.8,0c0,3.1,0,6,0,9.2c-6.2,0-12.4,0-18.8,0C83.6,40.5,83.6,37.6,83.6,34.3z"/>
	</g>
</g>
<g id="Capa_2">
	<g>
		<path class="st3" d="M56.9,146.8c0-48,0-95.8,0-143.7c1.1,0,2,0,2.9,0c21.2,0,42.5,0,63.7,0c9,0,14.1,5,14.1,14.1
			c0,38.5,0,77.1,0,115.6c0,9-5.1,14-14.1,14c-21.2,0-42.5,0-63.7,0C58.8,146.8,57.9,146.8,56.9,146.8z M93.2,25.8
			c-4.4,0-8.8,0-13.2,0c-3.5,0.1-5,1.6-5,4.9c0,5.5,0,11,0,16.5c0,3.2,1.5,4.8,4.8,4.8c8.8,0.1,17.6,0.1,26.3,0
			c3.3,0,4.7-1.6,4.7-4.9c0-5.4,0-10.8,0-16.3c0-3.6-1.5-5.1-5.1-5.1C101.6,25.7,97.4,25.8,93.2,25.8z"/>
		<path class="st3" d="M21.5,124.3c-3.7-0.8-8.9,1.1-8.9-4.5c0-5.6,5.1-3.8,8.5-4.5c0-4.4,0-8.9,0-13.8c-1.5,0-2.9,0.1-4.4,0
			c-2.7-0.2-4.3-1.8-4.3-4.2c0-2.4,1.6-4,4.3-4.2c1.4-0.1,2.8,0,4.4,0c0-4.7,0-9.1,0-13.7c-3.3-1-8.8,1.2-8.6-4.8
			c0.3-5.3,5.3-3.4,8.6-4.2c0-4.5,0-8.9,0-13.5c-3.3-0.8-8.6,1.2-8.6-4.5c0.1-5.6,5.2-3.6,8.6-4.4c0-4.5,0-8.9,0-13.5
			c-3.4-0.8-8.7,1.2-8.6-4.6c0.1-5.5,5.3-3.6,8.8-4.4c0-2.9,0-5.8,0-8.7C21.4,8.1,26.5,3,35.2,3c4.3,0,8.6,0,13,0c0,48,0,95.6,0,144
			c-6.1-0.3-12.2,0-18-1.1c-5.2-1-8.2-5.1-8.6-10.5C21.2,131.8,21.5,128.2,21.5,124.3z M21.5,34c4.7,0,9.3,0.1,13.8-0.1
			c2.1-0.1,3.3-1.8,3.3-3.9c0-2.2-1.1-4-3.4-4.1c-4.5-0.2-9.1-0.1-13.8-0.1C21.5,28.6,21.5,31.1,21.5,34z M21.5,56.5
			c4.7,0,9.2,0.1,13.6-0.1c2.3-0.1,3.5-1.7,3.5-4c0-2.2-1.1-4-3.4-4.1c-4.5-0.2-9.1-0.1-13.7-0.1C21.5,51.1,21.5,53.6,21.5,56.5z
			 M21.5,78.9c4.7,0,9.3,0.1,13.8-0.1c2.1-0.1,3.3-1.7,3.3-3.9c0.1-2.2-1.1-4-3.3-4.1c-4.5-0.2-9.1-0.1-13.8-0.1
			C21.5,73.6,21.5,76.2,21.5,78.9z M21.5,93.2c0,2.9,0,5.4,0,8.3c4.4,0,8.7,0.1,13,0c2.5-0.1,4.1-1.7,4.2-4c0.1-2.4-1.5-4.2-4.2-4.3
			C30.3,93.1,26.1,93.2,21.5,93.2z M21.5,115.6c0,2.9,0,5.4,0,8.3c4.4,0,8.7,0.1,13,0c2.5-0.1,4.1-1.7,4.2-4
			c0.1-2.4-1.5-4.2-4.2-4.3C30.3,115.5,26.1,115.6,21.5,115.6z"/>
		<path class="st3" d="M83.6,34.3c6.3,0,12.4,0,18.8,0c0,3.1,0,6,0,9.2c-6.2,0-12.4,0-18.8,0C83.6,40.5,83.6,37.6,83.6,34.3z"/>
	</g>
</g>
</svg>
