<?xml version="1.0" encoding="utf-8"?>
<!-- Generator: Adobe Illustrator 24.0.2, SVG Export Plug-In . SVG Version: 6.00 Build 0)  -->
<svg version="1.1" xmlns="http://www.w3.org/2000/svg" xmlns:xlink="http://www.w3.org/1999/xlink" x="0px" y="0px"
	 viewBox="0 0 150 150" style="enable-background:new 0 0 150 150;" xml:space="preserve">
<style type="text/css">
	.st0{display:none;}
	.st1{display:inline;}
	.st2{fill:#101820;}
	.st3{fill:#FFFFFF;}
	.st4{display:inline;fill:#101820;}
</style>
<g id="Capa_1" class="st0">
	<g class="st1">
		<path class="st2" d="M131.8,50.9c0-1-0.1-2-0.1-3.2c-1.3,0-2.3,0-3.3,0c-11.6,0-23.2,0-34.8,0c-5.1,0-6.8-1.7-6.8-6.8
			c0-11.7,0-23.4,0-35.1c0-1,0-2,0-3.4c-1.3,0-2.2,0-3,0c-19.2,0-38.5,0-57.7,0c-5.7,0-7.8,2.1-7.8,7.9c0,43,0,86.1,0,129.1
			c0,6,2,8,8,8c32.5,0,65.1,0,97.6,0c6,0,8-2,8-7.9C131.8,110,131.8,80.5,131.8,50.9z M57.4,122.7H26.7v-5.3h12.1V58.1H26.7v-5.3
			h30.7v5.3H45.2v59.4h12.1V122.7z M117.7,110.1H52.2V65.4h65.5V110.1z"/>
		<path class="st2" d="M97.1,11.3c0,8.1,0,16.9,0,25.8c9.1,0,17.8,0,25.8,0C114.4,28.6,105.6,19.9,97.1,11.3z"/>
	</g>
</g>
<g id="Capa_2">
	<g>
		<path class="st3" d="M131.8,50.9c0-1-0.1-2-0.1-3.2c-1.3,0-2.3,0-3.3,0c-11.6,0-23.2,0-34.8,0c-5.1,0-6.8-1.7-6.8-6.8
			c0-11.7,0-23.4,0-35.1c0-1,0-2,0-3.4c-1.3,0-2.2,0-3,0c-19.2,0-38.5,0-57.7,0c-5.7,0-7.8,2.1-7.8,7.9c0,43,0,86.1,0,129.1
			c0,6,2,8,8,8c32.5,0,65.1,0,97.6,0c6,0,8-2,8-7.9C131.8,110,131.8,80.5,131.8,50.9z M57.4,122.7H26.7v-5.3h12.1V58.1H26.7v-5.3
			h30.7v5.3H45.2v59.4h12.1V122.7z M117.7,110.1H52.2V65.4h65.5V110.1z"/>
		<path class="st3" d="M97.1,11.3c0,8.1,0,16.9,0,25.8c9.1,0,17.8,0,25.8,0C114.4,28.6,105.6,19.9,97.1,11.3z"/>
	</g>
</g>
</svg>
