<?xml version="1.0" encoding="utf-8"?>
<!-- Generator: Adobe Illustrator 24.0.2, SVG Export Plug-In . SVG Version: 6.00 Build 0)  -->
<svg version="1.1" xmlns="http://www.w3.org/2000/svg" xmlns:xlink="http://www.w3.org/1999/xlink" x="0px" y="0px"
	 viewBox="0 0 150 150" style="enable-background:new 0 0 150 150;" xml:space="preserve">
<style type="text/css">
	.st0{display:none;}
	.st1{display:inline;}
	.st2{fill:#101820;}
	.st3{fill:#FFFFFF;}
	.st4{display:inline;fill:#101820;}
</style>
<g id="Capa_1" class="st0">
	<g class="st1">
		<path class="st2" d="M11.7,138.6c0-9.2,0-18,0-26.9c0-6.1,0-12.2,0-18.3c0-4.8,1.3-6.1,5.9-6.1c4.6,0,9.2,0,13.8,0
			c4.2,0,5.6,1.4,5.6,5.5c0,14.1,0,28.1,0,42.2c0,1,0,2,0,3.3c2.8,0,5.3,0,8.2,0c0.1-0.9,0.2-1.9,0.2-2.9c0-8.3,0-16.7,0-25
			c0-5,1.2-6.2,6.1-6.2c4.6,0,9.2,0,13.8,0c4,0,5.4,1.4,5.5,5.4c0,8.4,0,16.9,0,25.3c0,1.1,0,2.2,0,3.5c2.9,0,5.5,0,8.4,0
			c0-1.2,0-2.3,0-3.4c0-19.4,0-38.8,0-58.2c0-5.2,1.2-6.3,6.2-6.3c4.4,0,8.8,0,13.2,0c4.6,0,5.9,1.3,5.9,5.8c0,19.4,0,38.8,0,58.2
			c0,1.2,0,2.4,0,3.8c2.8,0,5.5,0,8.4,0c0-1.3,0-2.5,0-3.7c0-27.1,0-54.2,0-81.3c0-7.8,0.4-8.2,8-8.2c3.7,0,7.5,0,11.2,0
			c4.8,0,6,1.2,6,5.9c0,14.1,0,28.1,0,42.2c0,13.9,0,27.7,0,41.6c0,1.1,0,2.2,0,3.6c1.6,0,2.8,0,4.1,0c2.8,0.1,4.6,1.9,4.6,4.3
			c0,2.3-1.8,4-4.4,4.1c-0.6,0-1.1,0-1.7,0c-43.9,0-87.7,0-131.6,0c-0.6,0-1.1,0-1.7,0c-2.8-0.1-4.6-1.9-4.6-4.3
			c0-2.3,1.8-4,4.4-4.1C8.7,138.5,10,138.6,11.7,138.6z"/>
		<path class="st2" d="M104.4,39.9c0.7,8.9-7.4,15.6-16.1,13.1c-1.5-0.4-2.3-0.3-3.4,0.8c-4.6,4.7-9.3,9.2-13.8,14
			c-0.7,0.7-1,2.3-0.8,3.3c1.1,5.1,0.1,9.5-3.9,13c-3.9,3.4-8.4,4.2-13.1,2.2c-4.8-2-7.5-5.8-7.7-11.1c-0.1-1.7-0.6-2.5-2.1-3.1
			c-1.3-0.5-2.5-1.2-3.8-1.9c-3.6-1.9-6.6-3.8-11.1-0.8C24.2,72.3,18,70,14.6,65.8c-3.4-4.2-3.8-10.1-0.9-14.7
			c2.8-4.5,8.3-6.8,13.4-5.6c5.5,1.3,9.5,5.6,9.7,11.2c0.1,2.1,0.7,3.3,2.7,3.9c1.3,0.5,2.5,1.2,3.8,1.9c3.3,1.8,6.3,3.6,10.3,0.7
			c1.9-1.4,5.5-0.4,8.4-0.6c1-0.1,2.2-0.1,2.8-0.7c4.9-4.7,9.6-9.5,14.3-14.3c0.6-0.6,0.9-2,0.7-2.9c-1.3-5.2-0.2-9.7,3.8-13.3
			c4-3.5,8.7-4.2,13.6-1.9c1.5,0.7,2.4,0.4,3.5-0.5c3.3-2.6,6.7-5.2,10.1-7.6c1.9-1.3,2.6-2.6,2.3-5c-0.7-6.6,4-12.3,10.6-13.4
			c6.2-1,12.4,3,14,9.1c1.3,4.9,0.1,9.4-3.7,12.8c-3.8,3.4-8.3,4.3-13.1,2.2c-1.9-0.8-3.2-0.6-4.7,0.6c-3.1,2.5-6.4,4.9-9.6,7.3
			C104.2,37,104.2,37,104.4,39.9z"/>
	</g>
</g>
<g id="Capa_2">
	<g>
		<path class="st3" d="M11.7,138.6c0-9.2,0-18,0-26.9c0-6.1,0-12.2,0-18.3c0-4.8,1.3-6.1,5.9-6.1c4.6,0,9.2,0,13.8,0
			c4.2,0,5.6,1.4,5.6,5.5c0,14.1,0,28.1,0,42.2c0,1,0,2,0,3.3c2.8,0,5.3,0,8.2,0c0.1-0.9,0.2-1.9,0.2-2.9c0-8.3,0-16.7,0-25
			c0-5,1.2-6.2,6.1-6.2c4.6,0,9.2,0,13.8,0c4,0,5.4,1.4,5.5,5.4c0,8.4,0,16.9,0,25.3c0,1.1,0,2.2,0,3.5c2.9,0,5.5,0,8.4,0
			c0-1.2,0-2.3,0-3.4c0-19.4,0-38.8,0-58.2c0-5.2,1.2-6.3,6.2-6.3c4.4,0,8.8,0,13.2,0c4.6,0,5.9,1.3,5.9,5.8c0,19.4,0,38.8,0,58.2
			c0,1.2,0,2.4,0,3.8c2.8,0,5.5,0,8.4,0c0-1.3,0-2.5,0-3.7c0-27.1,0-54.2,0-81.3c0-7.8,0.4-8.2,8-8.2c3.7,0,7.5,0,11.2,0
			c4.8,0,6,1.2,6,5.9c0,14.1,0,28.1,0,42.2c0,13.9,0,27.7,0,41.6c0,1.1,0,2.2,0,3.6c1.6,0,2.8,0,4.1,0c2.8,0.1,4.6,1.9,4.6,4.3
			c0,2.3-1.8,4-4.4,4.1c-0.6,0-1.1,0-1.7,0c-43.9,0-87.7,0-131.6,0c-0.6,0-1.1,0-1.7,0c-2.8-0.1-4.6-1.9-4.6-4.3
			c0-2.3,1.8-4,4.4-4.1C8.7,138.5,10,138.6,11.7,138.6z"/>
		<path class="st3" d="M104.4,39.9c0.7,8.9-7.4,15.6-16.1,13.1c-1.5-0.4-2.3-0.3-3.4,0.8c-4.6,4.7-9.3,9.2-13.8,14
			c-0.7,0.7-1,2.3-0.8,3.3c1.1,5.1,0.1,9.5-3.9,13c-3.9,3.4-8.4,4.2-13.1,2.2c-4.8-2-7.5-5.8-7.7-11.1c-0.1-1.7-0.6-2.5-2.1-3.1
			c-1.3-0.5-2.5-1.2-3.8-1.9c-3.6-1.9-6.6-3.8-11.1-0.8C24.2,72.3,18,70,14.6,65.8c-3.4-4.2-3.8-10.1-0.9-14.7
			c2.8-4.5,8.3-6.8,13.4-5.6c5.5,1.3,9.5,5.6,9.7,11.2c0.1,2.1,0.7,3.3,2.7,3.9c1.3,0.5,2.5,1.2,3.8,1.9c3.3,1.8,6.3,3.6,10.3,0.7
			c1.9-1.4,5.5-0.4,8.4-0.6c1-0.1,2.2-0.1,2.8-0.7c4.9-4.7,9.6-9.5,14.3-14.3c0.6-0.6,0.9-2,0.7-2.9c-1.3-5.2-0.2-9.7,3.8-13.3
			c4-3.5,8.7-4.2,13.6-1.9c1.5,0.7,2.4,0.4,3.5-0.5c3.3-2.6,6.7-5.2,10.1-7.6c1.9-1.3,2.6-2.6,2.3-5c-0.7-6.6,4-12.3,10.6-13.4
			c6.2-1,12.4,3,14,9.1c1.3,4.9,0.1,9.4-3.7,12.8c-3.8,3.4-8.3,4.3-13.1,2.2c-1.9-0.8-3.2-0.6-4.7,0.6c-3.1,2.5-6.4,4.9-9.6,7.3
			C104.2,37,104.2,37,104.4,39.9z"/>
	</g>
</g>
</svg>
