<?xml version="1.0" encoding="utf-8"?>
<!-- Generator: Adobe Illustrator 24.0.2, SVG Export Plug-In . SVG Version: 6.00 Build 0)  -->
<svg version="1.1" xmlns="http://www.w3.org/2000/svg" xmlns:xlink="http://www.w3.org/1999/xlink" x="0px" y="0px"
	 viewBox="0 0 150 150" style="enable-background:new 0 0 150 150;" xml:space="preserve">
<style type="text/css">
	.st0{display:none;}
	.st1{display:inline;}
	.st2{fill:#101820;}
	.st3{fill:#FFFFFF;}
	.st4{display:inline;fill:#101820;}
</style>
<g id="Capa_1" class="st0">
	<g class="st1">
		<path class="st2" d="M75.1,3c39.8,0,72,32.4,71.9,72.2c-0.1,39.8-32.5,72-72.2,71.8C35.1,146.9,3,114.6,3,75C3,35.2,35.3,3,75.1,3
			z M100.1,110.7c3.7-3.8,7-7,10.7-10.8c-8.2-8.2-16.7-16.6-25.4-25.1c8.5-8.5,16.9-16.9,25-24.9c-3.5-3.5-6.8-6.8-10.7-10.6
			c-8.1,8.2-16.6,16.6-25.3,25.3c-8.3-8.3-16.8-16.8-25-25.1c-3.4,3.4-6.6,6.7-10.4,10.4c8.3,8.3,16.9,16.8,25.8,25.6
			c-8.5,8.5-16.9,16.9-25.1,25.1c3.3,3.2,6.6,6.5,10.2,10.1C58.1,102.5,66.5,94,75,85.5C83.5,94,91.9,102.5,100.1,110.7z"/>
	</g>
</g>
<g id="Capa_2">
	<g>
		<path class="st3" d="M75.1,3c39.8,0,72,32.4,71.9,72.2c-0.1,39.8-32.5,72-72.2,71.8C35.1,146.9,3,114.6,3,75C3,35.2,35.3,3,75.1,3
			z M100.1,110.7c3.7-3.8,7-7,10.7-10.8c-8.2-8.2-16.7-16.6-25.4-25.1c8.5-8.5,16.9-16.9,25-24.9c-3.5-3.5-6.8-6.8-10.7-10.6
			c-8.1,8.2-16.6,16.6-25.3,25.3c-8.3-8.3-16.8-16.8-25-25.1c-3.4,3.4-6.6,6.7-10.4,10.4c8.3,8.3,16.9,16.8,25.8,25.6
			c-8.5,8.5-16.9,16.9-25.1,25.1c3.3,3.2,6.6,6.5,10.2,10.1C58.1,102.5,66.5,94,75,85.5C83.5,94,91.9,102.5,100.1,110.7z"/>
	</g>
</g>
</svg>
