<?xml version="1.0" encoding="utf-8"?>
<!-- Generator: Adobe Illustrator 24.0.2, SVG Export Plug-In . SVG Version: 6.00 Build 0)  -->
<svg version="1.1" xmlns="http://www.w3.org/2000/svg" xmlns:xlink="http://www.w3.org/1999/xlink" x="0px" y="0px"
	 viewBox="0 0 60 60" style="enable-background:new 0 0 60 60;" xml:space="preserve">
<style type="text/css">
	.st0{display:none;}
	.st1{display:inline;}
	.st2{fill:#FFFFFF;}
</style>
<g id="Capa_1" class="st0">
</g>
<g id="Capa_2">
	<g>
		<path class="st2" d="M0,41c0-7.1,0-14.1,0-21.2c0-0.1,0.1-0.1,0.1-0.2c0.3-2.3,2.4-4.1,5.1-4c1.7,0.1,3.5,0,5.2,0
			c0.2,0,0.4,0,0.7,0c0-0.3,0-0.5,0-0.7c0-3.5,0-7,0-10.4c0-1.7,0.7-2.4,2.4-2.4c11,0,22.1,0,33.1,0c1.7,0,2.4,0.7,2.4,2.4
			c0,3.5,0,7,0,10.5c0,0.2,0,0.4,0,0.7c0.3,0,0.5,0,0.7,0c1.8,0,3.6,0,5.3,0c3,0,5,2,5,5c0,6.5,0,13,0,19.4c0,3-2,5-5,5
			c-1.8,0-3.6,0-5.4,0c-0.2,0-0.4,0-0.7,0c0,0.3,0,0.5,0,0.7c0,3.2,0,6.4,0,9.7c0,1.6-0.8,2.4-2.4,2.4c-11.1,0-22.1,0-33.2,0
			c-1.6,0-2.4-0.8-2.4-2.4c0-3.2,0-6.4,0-9.7c0-0.2,0-0.4,0-0.7c-0.3,0-0.5,0-0.7,0c-1.8,0-3.6,0-5.4,0c-1.4,0-2.6-0.4-3.5-1.4
			C0.6,43,0.2,42,0,41z M44.9,37.5c-10,0-19.9,0-29.9,0c0,5.4,0,10.9,0,16.3c10,0,19.9,0,29.9,0C44.9,48.4,44.9,43,44.9,37.5z
			 M44.9,6.1c-10,0-19.9,0-29.9,0c0,3.2,0,6.3,0,9.5c10,0,19.9,0,29.9,0C44.9,12.5,44.9,9.3,44.9,6.1z M44.4,27.4c0.8,0,1.6,0,2.3,0
			c0,0,0.1,0,0.1,0c1.2,0,2.1-0.9,2.1-2c0-1.1-0.9-2-2-2c-1.7,0-3.4,0-5,0c-1.2,0-2,0.9-2,2c0,1.1,0.9,2,2,2
			C42.8,27.4,43.6,27.4,44.4,27.4z"/>
	</g>
</g>
</svg>
