<?xml version="1.0" encoding="utf-8"?>
<!-- Generator: Adobe Illustrator 24.0.2, SVG Export Plug-In . SVG Version: 6.00 Build 0)  -->
<svg version="1.1" xmlns="http://www.w3.org/2000/svg" xmlns:xlink="http://www.w3.org/1999/xlink" x="0px" y="0px"
	 viewBox="0 0 150 150" style="enable-background:new 0 0 150 150;" xml:space="preserve">
<style type="text/css">
	.st0{display:none;}
	.st1{display:inline;}
	.st2{fill:#101820;}
	.st3{fill:#FFFFFF;}
	.st4{display:inline;fill:#101820;}
</style>
<g id="Capa_1" class="st0">
	<g class="st1">
		<path class="st2" d="M133.2,3.5c0.1,1.4,0.3,2.7,0.3,4.1c0,13.2,0,26.4,0,39.6c0,1.7,0.5,2.6,1.9,3.7c9.6,6.9,9.6,20.6,0.1,27.5
			c-1.5,1.1-1.9,2.2-1.9,3.9c0.1,13.3,0,26.6,0,39.9c0,1.2-0.2,2.3-0.4,4.5c-1.6-1.5-2.9-2.2-3.7-3.3c-12-17.7-29.3-27.1-49.8-31.1
			c-6.5-1.3-13.2-1.5-19.8-2c-5.1-0.4-6.3-1.5-6.3-6.7c0-13,0-26,0-39c0-4,1.2-5.2,5.2-5.1c10.5,0.1,20.7-1.3,30.7-4.5
			c15.8-5,29.1-13.5,38.6-27.5c1.1-1.6,2.7-2.9,4.1-4.3C132.4,3.2,132.8,3.3,133.2,3.5z"/>
		<path class="st2" d="M48.1,69c0,7.3-0.1,14.6,0.1,21.9c0.1,4.4-1.6,8-3.9,11.5c-0.9,1.4-1.1,2.4-0.2,4c2,3.3,1.7,6.7-0.2,10.1
			c-0.4,0.8-0.5,2.1-0.1,2.9c1.9,3.9,1.9,7.5-0.7,11.1c-0.5,0.7-0.5,2-0.3,3c0.4,2.4,1.3,4.7,1.5,7.1c0.2,3-1.5,5.2-4.3,5.8
			c-2.7,0.6-5.6,0.7-8.3,0.4c-2.7-0.3-3.8-2.2-3.8-5.7c0-12.1,0.1-24.2-0.1-36.2c0-2.5-0.8-5.1-1.8-7.5c-1-2.4-3-3.7-5.9-4
			c-7.4-1-12.1-6.7-12.5-15.7c-0.3-7.9-0.3-15.9,0-23.9c0.3-7.8,6.5-13.6,14.9-14c7-0.3,14-0.2,21.1-0.1c3.3,0.1,4.8,2,4.8,5.6
			c0,7.9,0,15.7,0,23.6C48.3,69,48.2,69,48.1,69z M10.9,66.4c0,3.5,0,6.9,0,10.4c0,3.1,1.8,5.1,4.4,5.1c2.6,0,4.6-2,4.6-5
			c0.1-7,0.1-14,0-21c0-3.1-1.8-4.9-4.6-4.9c-2.7,0-4.4,1.9-4.4,5C10.9,59.5,10.9,63,10.9,66.4z"/>
	</g>
</g>
<g id="Capa_2">
	<g>
		<path class="st3" d="M133.2,3.5c0.1,1.4,0.3,2.7,0.3,4.1c0,13.2,0,26.4,0,39.6c0,1.7,0.5,2.6,1.9,3.7c9.6,6.9,9.6,20.6,0.1,27.5
			c-1.5,1.1-1.9,2.2-1.9,3.9c0.1,13.3,0,26.6,0,39.9c0,1.2-0.2,2.3-0.4,4.5c-1.6-1.5-2.9-2.2-3.7-3.3c-12-17.7-29.3-27.1-49.8-31.1
			c-6.5-1.3-13.2-1.5-19.8-2c-5.1-0.4-6.3-1.5-6.3-6.7c0-13,0-26,0-39c0-4,1.2-5.2,5.2-5.1c10.5,0.1,20.7-1.3,30.7-4.5
			c15.8-5,29.1-13.5,38.6-27.5c1.1-1.6,2.7-2.9,4.1-4.3C132.4,3.2,132.8,3.3,133.2,3.5z"/>
		<path class="st3" d="M48.1,69c0,7.3-0.1,14.6,0.1,21.9c0.1,4.4-1.6,8-3.9,11.5c-0.9,1.4-1.1,2.4-0.2,4c2,3.3,1.7,6.7-0.2,10.1
			c-0.4,0.8-0.5,2.1-0.1,2.9c1.9,3.9,1.9,7.5-0.7,11.1c-0.5,0.7-0.5,2-0.3,3c0.4,2.4,1.3,4.7,1.5,7.1c0.2,3-1.5,5.2-4.3,5.8
			c-2.7,0.6-5.6,0.7-8.3,0.4c-2.7-0.3-3.8-2.2-3.8-5.7c0-12.1,0.1-24.2-0.1-36.2c0-2.5-0.8-5.1-1.8-7.5c-1-2.4-3-3.7-5.9-4
			c-7.4-1-12.1-6.7-12.5-15.7c-0.3-7.9-0.3-15.9,0-23.9c0.3-7.8,6.5-13.6,14.9-14c7-0.3,14-0.2,21.1-0.1c3.3,0.1,4.8,2,4.8,5.6
			c0,7.9,0,15.7,0,23.6C48.3,69,48.2,69,48.1,69z M10.9,66.4c0,3.5,0,6.9,0,10.4c0,3.1,1.8,5.1,4.4,5.1c2.6,0,4.6-2,4.6-5
			c0.1-7,0.1-14,0-21c0-3.1-1.8-4.9-4.6-4.9c-2.7,0-4.4,1.9-4.4,5C10.9,59.5,10.9,63,10.9,66.4z"/>
	</g>
</g>
</svg>
