<?xml version="1.0" encoding="utf-8"?>
<!-- Generator: Adobe Illustrator 24.0.2, SVG Export Plug-In . SVG Version: 6.00 Build 0)  -->
<svg version="1.1" id="Capa_1" xmlns="http://www.w3.org/2000/svg" xmlns:xlink="http://www.w3.org/1999/xlink" x="0px" y="0px"
	 viewBox="0 0 150 150" style="enable-background:new 0 0 150 150;" xml:space="preserve">
<style type="text/css">
	.st0{fill:#FFFFFF;}
	.st1{display:none;}
	.st2{display:inline;}
	.st3{fill:#FFFFFF;}
</style>
<g>
	<path class="st0" d="M28.4,150.4c-2.4-0.4-4.9-0.8-7.3-1.4c-3.1-0.8-3.5-2.4-1.3-4.7c4-4.1,8.1-8,12-12.1c0.7-0.8,1.2-2.4,1-3.4
		c-1.6-8.8-1.7-8.8-10.5-10.5c-1.1-0.2-2.6,0.3-3.4,1c-4.1,3.8-7.9,7.9-11.9,11.8c-2.5,2.5-4,2-5-1.4c-5.7-19.8,12.6-38.9,32.7-34
		c3,0.7,4.6,0.1,6.7-1.9C58.6,76.4,76,59,93.4,41.7c1.3-1.3,1.8-2.4,1.3-4.5c-5.4-20.2,12-38.6,32.5-34.3c0.5,0.1,0.9,0.2,1.4,0.4
		c3.2,1,3.7,2.5,1.3,4.9c-3.9,4-7.9,7.9-11.9,11.8c-1.1,1.1-1.5,2.1-1.1,3.8c1.9,8.6,1.8,8.6,10.4,10.4c1.7,0.4,2.6,0,3.8-1.2
		c3.9-4,7.9-7.9,11.8-11.8c2.4-2.4,3.9-1.9,4.8,1.4c5.9,19.8-12.6,39.1-32.8,34.1c-2.8-0.7-4.5-0.1-6.4,1.9
		c-17.1,17.3-34.4,34.5-51.6,51.7c-1.8,1.8-2.3,3.2-1.6,5.7C59.8,133.4,46.5,150.2,28.4,150.4z"/>
	<path class="st0" d="M87.9,117.9c9.6-9.6,19.1-19.1,28.8-28.7c0.4,0.3,1,0.8,1.6,1.4c8.9,8.8,17.7,17.7,26.5,26.5
		c5.4,5.4,5.4,10.5,0,16c-4.6,4.6-9.2,9.3-13.9,13.9c-4.2,4.2-9.7,4.3-13.9,0.2c-9.7-9.5-19.2-19.2-28.8-28.8
		C88.1,118.3,88,118,87.9,117.9z"/>
	<path class="st0" d="M63.8,58.9c-2.2,2.3-4.1,4.1-5.8,5.9c-11-11-21.8-21.9-32.7-32.8c-0.5-0.1-1-0.3-1.4-0.4
		c-0.6,1.1-1.1,2.3-1.9,3.2C19.5,37,17,36.8,15,34.2c-4.3-5.5-8.5-11.1-12.8-16.7c-1.7-2.3-1.5-4.4,0.5-6.4C5,8.8,7.3,6.4,9.6,4.1
		c2.4-2.4,4.2-2.5,6.9-0.5c5.4,4.1,10.9,8.3,16.3,12.4c2.7,2.1,2.9,4.6,0.6,7.1c-0.8,0.8-1.7,1.5-2.8,2.4
		C41.8,36.9,52.8,47.8,63.8,58.9z"/>
	<path class="st0" d="M108.2,84.2c-8.4,8.4-16.9,16.9-25.3,25.3c-1.3-2.7-2.7-5.6-4-8.4c7-7,13.9-14,20.9-21
		C102.5,81.4,105.4,82.8,108.2,84.2z"/>
</g>
</svg>
