<?xml version="1.0" encoding="utf-8"?>
<!-- Generator: Adobe Illustrator 24.0.2, SVG Export Plug-In . SVG Version: 6.00 Build 0)  -->
<svg version="1.1" xmlns="http://www.w3.org/2000/svg" xmlns:xlink="http://www.w3.org/1999/xlink" x="0px" y="0px"
	 viewBox="0 0 60 60" style="enable-background:new 0 0 60 60;" xml:space="preserve">
<style type="text/css">
	.st0{fill:#FFFFFF;}
</style>
<g id="Capa_1">
</g>
<g id="Capa_2">
	<path class="st0" d="M41.1,1c2.3,2.3,4.6,4.5,6.9,6.8c-7.4,7.4-14.8,14.8-22.2,22.2c7.4,7.4,14.8,14.8,22.2,22.2
		c-2.4,2.3-4.6,4.6-6.9,6.8c0,0-0.1,0-0.1,0c-0.1-0.2-0.3-0.4-0.4-0.5c-9.3-9.3-18.7-18.7-28-28c-0.2-0.2-0.4-0.3-0.6-0.4
		c0-0.1,0-0.2,0-0.2c0.2-0.1,0.4-0.2,0.6-0.4c9.3-9.3,18.7-18.7,28-28C40.7,1.4,40.8,1.2,41,1C41,1,41,1,41.1,1z"/>
</g>
</svg>
