<?xml version="1.0" encoding="utf-8"?>
<!-- Generator: Adobe Illustrator 24.0.2, SVG Export Plug-In . SVG Version: 6.00 Build 0)  -->
<svg version="1.1" xmlns="http://www.w3.org/2000/svg" xmlns:xlink="http://www.w3.org/1999/xlink" x="0px" y="0px"
	 viewBox="0 0 150 150" style="enable-background:new 0 0 150 150;" xml:space="preserve">
<style type="text/css">
	.st0{display:none;}
	.st1{display:inline;}
	.st2{fill:#101820;}
	.st3{fill:#FFFFFF;}
	.st4{display:inline;fill:#101820;}
</style>
<g id="Capa_1" class="st0">
	<g class="st1">
		<path class="st2" d="M92.3,2c0,1.4,0,2.4,0,3.4c0,14,0,27.9,0,41.9c0,5.8,1.3,7.1,7,7.1c14,0,27.9,0,41.9,0c1,0,2.1,0,3.4,0
			c0.1,1.1,0.1,2.1,0.1,3.1c0,25.4,0,50.8,0,76.1c0,5.2-1.4,6.7-6.6,6.7c-20.5,0-41.1,0-61.6,0c-0.7,0-1.5-0.1-2.5-0.1
			c10.2-15.9,11.9-32.2,2.1-48.4c-9.8-16.3-25-22.5-44-20.7c0-1.1,0-2,0-2.9c0-19.9,0-39.7,0-59.6c0-5.1,1.5-6.6,6.6-6.6
			C55.5,2,72.3,2,89,2C89.9,2,90.9,2,92.3,2z"/>
		<path class="st2" d="M59.3,87.3c-7.5,7.5-14.8,14.8-22.1,22.1c-3.8,3.8-3.8,5.8,0,9.6c7.3,7.3,14.6,14.6,22,21.9
			c-7,7.4-26.7,11.7-41.6-0.6c-14.6-12.1-16.4-34.1-3.8-48.4C26.9,76.7,48.2,77.8,59.3,87.3z"/>
		<path class="st2" d="M140.9,44.8c-12.7,0-25.7,0-38.9,0c0-13.1,0-26.1,0-38.9C114.9,18.7,127.9,31.7,140.9,44.8z"/>
		<path class="st2" d="M66.4,134c-6.7-6.7-13.4-13.4-20-19.9c6.5-6.5,13.2-13.2,19.8-19.9C75.1,104.3,75.2,123.5,66.4,134z"/>
	</g>
</g>
<g id="Capa_2">
	<g>
		<path class="st3" d="M92.3,2c0,1.4,0,2.4,0,3.4c0,14,0,27.9,0,41.9c0,5.8,1.3,7.1,7,7.1c14,0,27.9,0,41.9,0c1,0,2.1,0,3.4,0
			c0.1,1.1,0.1,2.1,0.1,3.1c0,25.4,0,50.8,0,76.1c0,5.2-1.4,6.7-6.6,6.7c-20.5,0-41.1,0-61.6,0c-0.7,0-1.5-0.1-2.5-0.1
			c10.2-15.9,11.9-32.2,2.1-48.4c-9.8-16.3-25-22.5-44-20.7c0-1.1,0-2,0-2.9c0-19.9,0-39.7,0-59.6c0-5.1,1.5-6.6,6.6-6.6
			C55.5,2,72.3,2,89,2C89.9,2,90.9,2,92.3,2z"/>
		<path class="st3" d="M59.3,87.3c-7.5,7.5-14.8,14.8-22.1,22.1c-3.8,3.8-3.8,5.8,0,9.6c7.3,7.3,14.6,14.6,22,21.9
			c-7,7.4-26.7,11.7-41.6-0.6c-14.6-12.1-16.4-34.1-3.8-48.4C26.9,76.7,48.2,77.8,59.3,87.3z"/>
		<path class="st3" d="M140.9,44.8c-12.7,0-25.7,0-38.9,0c0-13.1,0-26.1,0-38.9C114.9,18.7,127.9,31.7,140.9,44.8z"/>
		<path class="st3" d="M66.4,134c-6.7-6.7-13.4-13.4-20-19.9c6.5-6.5,13.2-13.2,19.8-19.9C75.1,104.3,75.2,123.5,66.4,134z"/>
	</g>
</g>
</svg>
