<?xml version="1.0" encoding="utf-8"?>
<!-- Generator: Adobe Illustrator 24.0.2, SVG Export Plug-In . SVG Version: 6.00 Build 0)  -->
<svg version="1.1" xmlns="http://www.w3.org/2000/svg" xmlns:xlink="http://www.w3.org/1999/xlink" x="0px" y="0px"
	 viewBox="0 0 150 150" style="enable-background:new 0 0 150 150;" xml:space="preserve">
<style type="text/css">
	.st0{display:none;}
	.st1{display:inline;}
	.st2{fill:#101820;}
	.st3{fill:#FFFFFF;}
	.st4{display:inline;fill:#101820;}
</style>
<g id="Capa_1" class="st0">
	<g class="st1">
		<path class="st2" d="M10.7,3c42.9,0,85.7,0,128.6,0c0,14.9,0,29.8,0,44.8c-42.8,0-85.6,0-128.6,0C10.7,33,10.7,18.1,10.7,3z
			 M81.2,30c2.9,3.6,5.6,6.4,7.6,9.6c2.1,3.2,4.7,3.4,8.1,2.8c0-8.5,0-16.9,0-25.4c-2.3,0-4.5,0-7.1,0c0,4.1,0,8,0,12.7
			c-3-3.8-5.7-6.7-7.8-10c-2-3.1-4.6-3.3-7.8-2.6c0,8.5,0,16.9,0,25.4c2.4,0,4.6,0,7.1,0C81.2,38.4,81.2,34.7,81.2,30z M25,42.6
			c4.2,0,8.1,0,12.1,0c1.1,0,2.3-0.1,3.4-0.3c5.2-0.8,7.9-4.8,5.9-9.2c-0.7-1.6-2.2-2.8-3.4-4.2c2.4-1.8,3.6-4.4,2.6-7.3
			c-0.7-1.8-2.5-4.3-4-4.5C36,16.7,30.5,17,25,17C25,25.6,25,33.9,25,42.6z M125.1,42.7c-3.5-5-6.7-9.6-10-14.3
			c3-3.8,5.9-7.4,9-11.3c-4.5-1-7.8-0.4-10.2,3.5c-1.3,2.1-3.1,3.9-4.7,5.9c-0.2-0.1-0.4-0.2-0.7-0.3c0-3.1,0-6.1,0-9.2
			c-2.5,0-4.7,0-6.9,0c0,8.6,0,17,0,25.6c1.1,0,2,0,2.9,0c4,0,4.1,0,4-4.1c0-2.2-0.3-4.5,2.5-5.9c1.8,2.7,3.5,5.5,5.5,8.1
			c0.7,0.9,2.1,1.5,3.3,1.8C121.3,42.9,122.9,42.7,125.1,42.7z M47,42.7c2,0,3.4-0.1,4.8,0c2.2,0.2,3.4-0.5,3.6-2.8
			c0.2-2.4,1.8-2.5,3.6-2.3c1.9,0.2,4.3-0.8,4.8,2.3c0.2,1,0.9,2.4,1.6,2.6c2,0.3,4.1,0.1,6.7,0.1c-3.2-8.6-6.2-16.7-9.3-24.7
			c-0.3-0.7-2.2-1-3.3-1c-1,0-2.7,0.4-3,1.1C53.2,25.9,50.2,34,47,42.7z"/>
		<path class="st2" d="M70.6,56.6c0,21.9,0,43.8,0,65.9c-19.9,0-39.8,0-59.9,0c0-22,0-43.9,0-65.9C30.7,56.6,50.6,56.6,70.6,56.6z
			 M59.7,93.9c2.3,0.1,4.1-1.6,4.3-3.9c0.2-2.4-1.6-4.4-4-4.4c-2.3-0.1-4.1,1.6-4.3,3.9C55.5,91.8,57.3,93.8,59.7,93.9z"/>
		<path class="st2" d="M79.4,122.4c0-22.1,0-43.9,0-65.9c20,0,39.9,0,60,0c0,21.9,0,43.8,0,65.9C119.4,122.4,99.5,122.4,79.4,122.4z
			 M94.4,89.6c0-2.3-1.8-4.1-4.1-4.1c-2.4,0-4.3,1.8-4.2,4.2c0,2.3,1.8,4.1,4.1,4.1C92.5,93.9,94.4,92,94.4,89.6z"/>
		<path class="st2" d="M3,147c0-5.3,0-10.4,0-15.7c48,0,95.9,0,144,0c0,5.3,0,10.4,0,15.7C99.1,147,51.2,147,3,147z"/>
		<path class="st2" d="M32.2,36.7c0-1.6,0-2.8,0-4.4c1.9,0,3.7-0.2,5.4,0.1c0.8,0.2,1.9,1.4,1.9,2.1c0,0.7-1.2,1.9-2,2
			C35.9,36.9,34.2,36.7,32.2,36.7z"/>
		<path class="st2" d="M32.2,26.7c0-1.5,0-2.6,0-3.9c1.6,0,3.2-0.2,4.6,0.1c0.8,0.2,1.3,1.2,2,1.9c-0.7,0.7-1.4,1.7-2.2,1.9
			C35.3,27,33.8,26.7,32.2,26.7z"/>
		<path class="st2" d="M61.8,32.7c-1.6,0-2.9,0-4.5,0c0.7-2.6,1.4-5.1,2-7.5c0.2,0,0.3,0,0.5,0C60.4,27.6,61.1,30,61.8,32.7z"/>
	</g>
</g>
<g id="Capa_2">
	<g>
		<path class="st3" d="M10.7,3c42.9,0,85.7,0,128.6,0c0,14.9,0,29.8,0,44.8c-42.8,0-85.6,0-128.6,0C10.7,33,10.7,18.1,10.7,3z
			 M81.2,30c2.9,3.6,5.6,6.4,7.6,9.6c2.1,3.2,4.7,3.4,8.1,2.8c0-8.5,0-16.9,0-25.4c-2.3,0-4.5,0-7.1,0c0,4.1,0,8,0,12.7
			c-3-3.8-5.7-6.7-7.8-10c-2-3.1-4.6-3.3-7.8-2.6c0,8.5,0,16.9,0,25.4c2.4,0,4.6,0,7.1,0C81.2,38.4,81.2,34.7,81.2,30z M25,42.6
			c4.2,0,8.1,0,12.1,0c1.1,0,2.3-0.1,3.4-0.3c5.2-0.8,7.9-4.8,5.9-9.2c-0.7-1.6-2.2-2.8-3.4-4.2c2.4-1.8,3.6-4.4,2.6-7.3
			c-0.7-1.8-2.5-4.3-4-4.5C36,16.7,30.5,17,25,17C25,25.6,25,33.9,25,42.6z M125.1,42.7c-3.5-5-6.7-9.6-10-14.3
			c3-3.8,5.9-7.4,9-11.3c-4.5-1-7.8-0.4-10.2,3.5c-1.3,2.1-3.1,3.9-4.7,5.9c-0.2-0.1-0.4-0.2-0.7-0.3c0-3.1,0-6.1,0-9.2
			c-2.5,0-4.7,0-6.9,0c0,8.6,0,17,0,25.6c1.1,0,2,0,2.9,0c4,0,4.1,0,4-4.1c0-2.2-0.3-4.5,2.5-5.9c1.8,2.7,3.5,5.5,5.5,8.1
			c0.7,0.9,2.1,1.5,3.3,1.8C121.3,42.9,122.9,42.7,125.1,42.7z M47,42.7c2,0,3.4-0.1,4.8,0c2.2,0.2,3.4-0.5,3.6-2.8
			c0.2-2.4,1.8-2.5,3.6-2.3c1.9,0.2,4.3-0.8,4.8,2.3c0.2,1,0.9,2.4,1.6,2.6c2,0.3,4.1,0.1,6.7,0.1c-3.2-8.6-6.2-16.7-9.3-24.7
			c-0.3-0.7-2.2-1-3.3-1c-1,0-2.7,0.4-3,1.1C53.2,25.9,50.2,34,47,42.7z"/>
		<path class="st3" d="M70.6,56.6c0,21.9,0,43.8,0,65.9c-19.9,0-39.8,0-59.9,0c0-22,0-43.9,0-65.9C30.7,56.6,50.6,56.6,70.6,56.6z
			 M59.7,93.9c2.3,0.1,4.1-1.6,4.3-3.9c0.2-2.4-1.6-4.4-4-4.4c-2.3-0.1-4.1,1.6-4.3,3.9C55.5,91.8,57.3,93.8,59.7,93.9z"/>
		<path class="st3" d="M79.4,122.4c0-22.1,0-43.9,0-65.9c20,0,39.9,0,60,0c0,21.9,0,43.8,0,65.9C119.4,122.4,99.5,122.4,79.4,122.4z
			 M94.4,89.6c0-2.3-1.8-4.1-4.1-4.1c-2.4,0-4.3,1.8-4.2,4.2c0,2.3,1.8,4.1,4.1,4.1C92.5,93.9,94.4,92,94.4,89.6z"/>
		<path class="st3" d="M3,147c0-5.3,0-10.4,0-15.7c48,0,95.9,0,144,0c0,5.3,0,10.4,0,15.7C99.1,147,51.2,147,3,147z"/>
		<path class="st3" d="M32.2,36.7c0-1.6,0-2.8,0-4.4c1.9,0,3.7-0.2,5.4,0.1c0.8,0.2,1.9,1.4,1.9,2.1c0,0.7-1.2,1.9-2,2
			C35.9,36.9,34.2,36.7,32.2,36.7z"/>
		<path class="st3" d="M32.2,26.7c0-1.5,0-2.6,0-3.9c1.6,0,3.2-0.2,4.6,0.1c0.8,0.2,1.3,1.2,2,1.9c-0.7,0.7-1.4,1.7-2.2,1.9
			C35.3,27,33.8,26.7,32.2,26.7z"/>
		<path class="st3" d="M61.8,32.7c-1.6,0-2.9,0-4.5,0c0.7-2.6,1.4-5.1,2-7.5c0.2,0,0.3,0,0.5,0C60.4,27.6,61.1,30,61.8,32.7z"/>
	</g>
</g>
</svg>
