<?xml version="1.0" encoding="utf-8"?>
<!-- Generator: Adobe Illustrator 24.0.2, SVG Export Plug-In . SVG Version: 6.00 Build 0)  -->
<svg version="1.1" xmlns="http://www.w3.org/2000/svg" xmlns:xlink="http://www.w3.org/1999/xlink" x="0px" y="0px"
	 viewBox="0 0 60 60" style="enable-background:new 0 0 60 60;" xml:space="preserve">
<style type="text/css">
	.st0{display:none;}
	.st1{display:inline;}
	.st2{fill:#FFFFFF;}
</style>
<g id="Capa_1" class="st0">
</g>
<g id="Capa_2">
	<g>
		<path class="st2" d="M58,15.3c0-1.4-0.7-2.1-2.1-2.1c-13.5,0-27.1,0-40.6,0c-1.3,0-2.1,0.7-2.1,2c0,13.6,0,27.1,0,40.7
			c0,1.3,0.8,2,2.1,2c13.5,0,27,0,40.5,0c1.5,0,2.2-0.7,2.2-2.2c0-6.7,0-13.5,0-20.2C58,28.8,58,22.1,58,15.3z M46.8,37.4
			c-3.1,0-6.1,0-9.3,0c0,3.1,0,6.2,0,9.3c-1.3,0-2.5,0-3.7,0c0-3.1,0-6.1,0-9.3c-3.1,0-6.2,0-9.3,0c0-1.3,0-2.5,0-3.7
			c3.1,0,6.1,0,9.3,0c0-3.1,0-6.2,0-9.3c1.3,0,2.5,0,3.8,0c0,3.1,0,6.2,0,9.3c3.1,0,6.2,0,9.3,0C46.8,35,46.8,36.2,46.8,37.4z"/>
		<path class="st2" d="M46.1,9.5c0.2,0,0.4,0,0.7,0c0-1.8,0-3.6,0-5.3c0-1.4-0.7-2.1-2.2-2.1C31.2,2,17.7,2,4.2,2C2.7,2,2,2.7,2,4.2
			C2,15.5,2,26.8,2,38c0,2.3,0,4.5,0,6.8c0,1.1,0.8,1.9,1.8,1.9c1.9,0,3.7,0,5.7,0c0-0.3,0-0.5,0-0.8c0-10.2,0-22.3,0-32.5
			c0-3.7,2.3-4.1,6-4.1C25.7,9.5,35.9,9.5,46.1,9.5z"/>
	</g>
</g>
</svg>
