<?xml version="1.0" encoding="utf-8"?>
<!-- Generator: Adobe Illustrator 24.0.2, SVG Export Plug-In . SVG Version: 6.00 Build 0)  -->
<svg version="1.1" xmlns="http://www.w3.org/2000/svg" xmlns:xlink="http://www.w3.org/1999/xlink" x="0px" y="0px"
	 viewBox="0 0 60 60" style="enable-background:new 0 0 60 60;" xml:space="preserve">
<style type="text/css">
	.st0{fill:#FFFFFF;}
</style>
<g id="Capa_1">
</g>
<g id="Capa_2">
	<g>
		<path class="st0" d="M5.7,53.1c0.2-0.8,0.5-1.7,0.7-2.5c0.6-2.2,1.1-4.5,1.7-6.7c0.1-0.2,0.2-0.5,0.4-0.6c7-7,23.8-23.8,30.8-30.8
			c0.1-0.1,0.1-0.1,0.2-0.2c2.8,2.8,5.5,5.5,8.3,8.3c0,0-0.1,0.1-0.2,0.2c-7,7-23.7,23.7-30.7,30.6c-0.2,0.2-0.5,0.4-0.8,0.4
			c-3,0.8-6,1.5-9,2.3c-0.1,0-0.1,0.1-0.2,0.1c-0.2,0-0.3,0-0.5,0c-0.2-0.2-0.4-0.4-0.6-0.6C5.7,53.5,5.7,53.3,5.7,53.1z"/>
		<path class="st0" d="M50.2,18.1c-2.8-2.8-5.5-5.5-8.3-8.3c0.7-0.7,1.5-1.5,2.3-2.3c0.3-0.3,0.7-0.7,1.1-1c1.5-1.1,3.8-1.1,5.2,0.2
			c1,0.9,1.9,1.8,2.8,2.8c1.3,1.4,1.4,3.6,0.2,5.2c-0.1,0.2-0.3,0.4-0.5,0.6C52,16.3,51.1,17.2,50.2,18.1z"/>
	</g>
</g>
</svg>
