<?xml version="1.0" encoding="utf-8"?>
<!-- Generator: Adobe Illustrator 24.0.2, SVG Export Plug-In . SVG Version: 6.00 Build 0)  -->
<svg version="1.1" xmlns="http://www.w3.org/2000/svg" xmlns:xlink="http://www.w3.org/1999/xlink" x="0px" y="0px"
	 viewBox="0 0 60 60" style="enable-background:new 0 0 60 60;" xml:space="preserve">
<style type="text/css">
	.st0{display:none;}
	.st1{display:inline;}
	.st2{fill:#FFFFFF;}
</style>
<g id="Capa_1" class="st0">
</g>
<g id="Capa_2">
	<g>
		<path class="st2" d="M34.4,1c0.4,0.1,0.7,0.2,1.1,0.3c2.1,0.8,3.5,2.7,3.6,5c0,0.6,0,1.2,0,1.9c0.2,0,0.4,0,0.6,0c3,0,6.1,0,9.1,0
			c2.8,0,4.8,1.9,4.8,4.8c0,1.1,0,2.2,0,3.3c0,1.2-0.8,1.9-1.9,1.9c-14.4,0-28.8,0-43.3,0c-1.2,0-1.9-0.8-1.9-1.9
			c0-1.4-0.1-2.9,0.1-4.3C6.8,9.8,8.7,8.3,11,8.3c3.1,0,6.2,0,9.3,0c0.2,0,0.4,0,0.7,0c0-0.6,0-1.1,0-1.6c0-2.8,1.7-4.9,4.4-5.5
			c0.1,0,0.1-0.1,0.2-0.1C28.5,1,31.5,1,34.4,1z M24.6,8.2c3.7,0,7.2,0,10.9,0c0-0.7,0-1.3,0-1.9c-0.1-0.9-0.8-1.7-1.7-1.7
			c-2.5,0-4.9,0-7.4,0c-0.9,0-1.7,0.8-1.7,1.7C24.5,6.9,24.6,7.5,24.6,8.2z"/>
		<path class="st2" d="M30,21.8c6.6,0,13.1,0,19.7,0c0.9,0,1,0.1,1,1c-0.2,4.3-0.4,8.6-0.6,13C49.8,41.9,49.5,48,49.2,54
			c-0.2,2.8-2.5,4.9-5.3,5c-2.3,0-4.7,0-7,0c-6.8,0-13.6,0-20.4,0c-2.8,0-5-1.8-5.5-4.5c-0.2-1.2-0.2-2.4-0.2-3.6
			c-0.2-5.1-0.5-10.3-0.7-15.4C9.7,31.3,9.5,27,9.3,22.8c0-0.7,0.1-0.9,0.9-0.9C16.8,21.8,23.4,21.8,30,21.8z M19.1,38.1
			c0,1.6,0,3.2,0,4.8c0,2.3,0,4.7,0,7c0,1,0.7,1.7,1.6,1.8c0.9,0.1,1.8-0.5,2-1.4c0-0.2,0-0.5,0-0.7c0-7.6,0-15.2,0-22.8
			c0-0.2,0-0.3,0-0.5c-0.1-0.7-0.5-1.3-1.2-1.5c-1.2-0.5-2.5,0.4-2.5,1.8C19.1,30.4,19.1,34.2,19.1,38.1z M31.8,38.2
			c0-3.9,0-7.8,0-11.7c0-0.9-0.4-1.6-1.1-1.9c-1.2-0.5-2.5,0.4-2.5,1.8c0,4.6,0,9.2,0,13.8c0,3.2,0,6.3,0,9.5c0,0.6,0.1,1.1,0.6,1.5
			c0.6,0.5,1.2,0.6,1.9,0.3c0.7-0.3,1.1-0.9,1.1-1.8C31.8,45.9,31.8,42.1,31.8,38.2z M37.3,38.1c0,0.2,0,0.4,0,0.6
			c0,3.7,0,7.4,0,11.1c0,1,0.7,1.8,1.6,1.9c0.9,0.1,1.8-0.5,2-1.4c0.1-0.3,0-0.5,0-0.8c0-6.7,0-13.4,0-20.1c0-1,0-2,0-3.1
			c0-0.8-0.5-1.4-1.2-1.7c-1.2-0.5-2.4,0.4-2.4,1.8C37.2,30.4,37.3,34.2,37.3,38.1z"/>
	</g>
</g>
</svg>
