<?xml version="1.0" encoding="utf-8"?>
<!-- Generator: Adobe Illustrator 24.0.2, SVG Export Plug-In . SVG Version: 6.00 Build 0)  -->
<svg version="1.1" xmlns="http://www.w3.org/2000/svg" xmlns:xlink="http://www.w3.org/1999/xlink" x="0px" y="0px"
	 viewBox="0 0 150 150" style="enable-background:new 0 0 150 150;" xml:space="preserve">
<style type="text/css">
	.st0{display:none;}
	.st1{display:inline;}
	.st2{fill:#101820;}
	.st3{fill:#FFFFFF;}
	.st4{display:inline;fill:#101820;}
</style>
<g id="Capa_1" class="st0">
	<g class="st1">
		<path class="st2" d="M96.5,129.3c-1.3,0-2.6,0-3.8,0c-1.3,0-2.5,0-3.8,0c-2,0-3.9-0.9-5.2-2.4c-1.3-1.5-2-3.5-1.7-5.5
			c0.3-2.2,1-4,2.3-5.6l4.7-5.8c6-7.4,12.1-15,18.1-22.5c2-2.6,4.4-3.9,7.1-3.9c0-19.5,0-37.9,0-43.9c0-1.4-0.2-2.5-1.2-3.5
			c-10-9.9-20-19.9-29.9-29.9C82.2,5.4,81.3,5,80,5c-22.4,0-44.8,0-67.3,0c-1.8,0-2.2,0.6-2.2,2.2c0,43.8,0,87.7,0,131.5
			c0,1.8,0.4,2.4,2.3,2.3c9.2-0.1,18.3,0,27.5-0.1c10.9,0,38.9,0,57.1,0c0-2.2,0-4.4,0-6.7c0-1.7,0-3.4,0-5.1
			C97.2,129.3,96.9,129.3,96.5,129.3z M78.7,11c9.9,9.9,19.7,19.7,29.5,29.6c-0.1,0.2-0.5,0-0.9,0c-8.9,0-17.9,0-26.8,0
			c-0.9,0-1.9,0.1-1.9-1.3C78.7,29.8,78.7,20.4,78.7,11z M75.3,102.3c-1.5,0.1-2.2-0.5-2.9-1.8c-2.8-5.4-5.7-10.7-8.6-16.1
			c-0.4-0.7-0.6-1.6-1.6-2.1c-2.6,4.9-5.5,9.6-7.7,14.6c-1.8,4.1-4.2,6.3-8.8,5.3c-1.3-0.3-2.8-0.1-4.2,0c-1.9,0.1-2.1-0.4-1.1-2
			c4.8-7.4,9.5-14.9,14.3-22.4c0.8-1.2,0.8-2.1,0.1-3.3c-4.3-7.2-8.5-14.4-12.7-21.7c-1.4-2.4-1.4-2.5,1.3-2.5c2.5,0,5.1,0.1,7.6,0
			c1.5-0.1,2.3,0.5,3,1.9c2.9,5.8,5.9,11.5,9,17.6c3.3-6,6.4-11.6,9.3-17.2c0.8-1.6,1.7-2.5,3.7-2.3c2.1,0.2,4.2,0,6.2,0.1
			c0.8,0,1.9-0.5,2.3,0.4c0.4,0.7-0.5,1.4-0.9,2c-4.4,7.2-8.8,14.4-13.3,21.6c-0.9,1.5-0.9,2.5,0,3.9c4.6,7.3,9.2,14.6,13.8,21.9
			c0.4,0.6,1.1,1.1,0.6,1.8c-0.4,0.5-1.1,0.3-1.7,0.3C80.5,102.2,77.9,102.1,75.3,102.3z"/>
		<path class="st2" d="M138.6,120.6c-5.5-7-11-13.9-16.6-20.9c-2.1-2.6-4.3-5.1-6.2-7.7c-1.3-1.7-2-1.7-3.4,0
			c-7.6,9.5-15.2,18.9-22.8,28.4c-0.4,0.5-0.7,1.1-0.8,2c4.4,0,8.8,0.1,13.2,0c2-0.1,2.5,0.6,2.4,2.5c-0.1,6,0,12-0.1,18
			c0,1.7,0.6,2.3,2.3,2.2c2.5-0.1,4.9,0,7.4,0c2.2,0,4.5,0,6.7,0c3.1,0,3.1,0,3.1-3c0-5.9,0.1-11.7,0-17.6c0-1.6,0.5-2.1,2.1-2.1
			c3.9,0.1,7.9,0,11.8,0c0.6,0,1.4,0.3,1.6-0.4C139.6,121.3,138.9,121,138.6,120.6z"/>
	</g>
</g>
<g id="Capa_2">
	<g>
		<path class="st3" d="M96.5,129.3c-1.3,0-2.6,0-3.8,0c-1.3,0-2.5,0-3.8,0c-2,0-3.9-0.9-5.2-2.4c-1.3-1.5-2-3.5-1.7-5.5
			c0.3-2.2,1-4,2.3-5.6l4.7-5.8c6-7.4,12.1-15,18.1-22.5c2-2.6,4.4-3.9,7.1-3.9c0-19.5,0-37.9,0-43.9c0-1.4-0.2-2.5-1.2-3.5
			c-10-9.9-20-19.9-29.9-29.9C82.2,5.4,81.3,5,80,5c-22.4,0-44.8,0-67.3,0c-1.8,0-2.2,0.6-2.2,2.2c0,43.8,0,87.7,0,131.5
			c0,1.8,0.4,2.4,2.3,2.3c9.2-0.1,18.3,0,27.5-0.1c10.9,0,38.9,0,57.1,0c0-2.2,0-4.4,0-6.7c0-1.7,0-3.4,0-5.1
			C97.2,129.3,96.9,129.3,96.5,129.3z M78.7,11c9.9,9.9,19.7,19.7,29.5,29.6c-0.1,0.2-0.5,0-0.9,0c-8.9,0-17.9,0-26.8,0
			c-0.9,0-1.9,0.1-1.9-1.3C78.7,29.8,78.7,20.4,78.7,11z M75.3,102.3c-1.5,0.1-2.2-0.5-2.9-1.8c-2.8-5.4-5.7-10.7-8.6-16.1
			c-0.4-0.7-0.6-1.6-1.6-2.1c-2.6,4.9-5.5,9.6-7.7,14.6c-1.8,4.1-4.2,6.3-8.8,5.3c-1.3-0.3-2.8-0.1-4.2,0c-1.9,0.1-2.1-0.4-1.1-2
			c4.8-7.4,9.5-14.9,14.3-22.4c0.8-1.2,0.8-2.1,0.1-3.3c-4.3-7.2-8.5-14.4-12.7-21.7c-1.4-2.4-1.4-2.5,1.3-2.5c2.5,0,5.1,0.1,7.6,0
			c1.5-0.1,2.3,0.5,3,1.9c2.9,5.8,5.9,11.5,9,17.6c3.3-6,6.4-11.6,9.3-17.2c0.8-1.6,1.7-2.5,3.7-2.3c2.1,0.2,4.2,0,6.2,0.1
			c0.8,0,1.9-0.5,2.3,0.4c0.4,0.7-0.5,1.4-0.9,2c-4.4,7.2-8.8,14.4-13.3,21.6c-0.9,1.5-0.9,2.5,0,3.9c4.6,7.3,9.2,14.6,13.8,21.9
			c0.4,0.6,1.1,1.1,0.6,1.8c-0.4,0.5-1.1,0.3-1.7,0.3C80.5,102.2,77.9,102.1,75.3,102.3z"/>
		<path class="st3" d="M138.6,120.6c-5.5-7-11-13.9-16.6-20.9c-2.1-2.6-4.3-5.1-6.2-7.7c-1.3-1.7-2-1.7-3.4,0
			c-7.6,9.5-15.2,18.9-22.8,28.4c-0.4,0.5-0.7,1.1-0.8,2c4.4,0,8.8,0.1,13.2,0c2-0.1,2.5,0.6,2.4,2.5c-0.1,6,0,12-0.1,18
			c0,1.7,0.6,2.3,2.3,2.2c2.5-0.1,4.9,0,7.4,0c2.2,0,4.5,0,6.7,0c3.1,0,3.1,0,3.1-3c0-5.9,0.1-11.7,0-17.6c0-1.6,0.5-2.1,2.1-2.1
			c3.9,0.1,7.9,0,11.8,0c0.6,0,1.4,0.3,1.6-0.4C139.6,121.3,138.9,121,138.6,120.6z"/>
	</g>
</g>
</svg>
