<?xml version="1.0" encoding="utf-8"?>
<!-- Generator: Adobe Illustrator 24.0.2, SVG Export Plug-In . SVG Version: 6.00 Build 0)  -->
<svg version="1.1" xmlns="http://www.w3.org/2000/svg" xmlns:xlink="http://www.w3.org/1999/xlink" x="0px" y="0px"
	 viewBox="0 0 150 150" style="enable-background:new 0 0 150 150;" xml:space="preserve">
<style type="text/css">
	.st0{display:none;}
	.st1{display:inline;}
	.st2{fill:#101820;}
	.st3{fill:#FFFFFF;}
	.st4{display:inline;fill:#101820;}
</style>
<g id="Capa_1" class="st0">
	<g class="st1">
		<path class="st2" d="M84.5,122.2c-3.5-3.4-2.5-7.2-2.1-8.3c1.1-3.1,4-5.1,7.3-5.1c0.4,0,0.8,0,1,0.1l1.7,0c1.6,0,3.2,0,4.8,0
			c0.1,0,0.1,0,0.2,0c0-2.8,0-5.6,0-8.4c0-1.4,0-2.9,0-4.3c0-2.2,0-5.2,2.5-7.6c2.4-2.3,5.3-2.3,7.5-2.3c0,0,5.5,0,6.6,0
			c0-16.3,0-32.7,0-49c0-1.4-0.2-2.5-1.2-3.5c-10-9.9-20-19.9-29.9-29.9c-0.9-0.9-1.8-1.3-3-1.3c-22.4,0-44.8,0-67.3,0
			c-1.8,0-2.2,0.6-2.2,2.2c0,43.8,0,87.7,0,131.5c0,1.8,0.4,2.4,2.3,2.3c9.2-0.1,18.3,0,27.5-0.1c19,0,38,0,57-0.1
			C93.1,133.1,88.8,127.6,84.5,122.2z M78.7,8.5c9.9,9.9,19.7,19.7,29.5,29.6c-0.1,0.2-0.5,0-0.9,0c-8.9,0-17.9,0-26.8,0
			c-0.9,0-1.9,0.1-1.9-1.3C78.7,27.3,78.7,17.9,78.7,8.5z M75.3,99.8c-1.5,0.1-2.2-0.5-2.9-1.8c-2.8-5.4-5.7-10.7-8.6-16.1
			c-0.4-0.7-0.6-1.6-1.6-2.1c-2.6,4.9-5.5,9.6-7.7,14.6c-1.8,4.1-4.2,6.3-8.8,5.3c-1.3-0.3-2.8-0.1-4.2,0c-1.9,0.1-2.1-0.4-1.1-2
			c4.8-7.4,9.5-14.9,14.3-22.4c0.8-1.2,0.8-2.1,0.1-3.3c-4.3-7.2-8.5-14.4-12.7-21.7c-1.4-2.4-1.4-2.5,1.3-2.5c2.5,0,5.1,0.1,7.6,0
			c1.5-0.1,2.3,0.5,3,1.9c2.9,5.8,5.9,11.5,9,17.6c3.3-6,6.4-11.6,9.3-17.2c0.8-1.6,1.7-2.5,3.7-2.3c2.1,0.2,4.2,0,6.2,0.1
			c0.8,0,1.9-0.5,2.3,0.4c0.4,0.7-0.5,1.4-0.9,2c-4.4,7.2-8.8,14.4-13.3,21.6c-0.9,1.5-0.9,2.5,0,3.9c4.6,7.3,9.2,14.6,13.8,21.9
			c0.4,0.6,1.1,1.1,0.6,1.8c-0.4,0.5-1.1,0.3-1.7,0.3C80.5,99.7,77.9,99.6,75.3,99.8z"/>
		<path class="st2" d="M106.3,138.5c-5.5-7-11-13.9-16.6-20.9c-0.3-0.4-1-0.7-0.8-1.3c0.3-0.8,1.1-0.4,1.6-0.4c3.9,0,7.9-0.1,11.8,0
			c1.6,0,2.1-0.5,2.1-2.1c-0.1-5.9,0-11.7,0-17.6c0-3,0-3,3.1-3c2.2,0,4.5,0,6.7,0c2.5,0,4.9,0.1,7.4,0c1.7-0.1,2.3,0.5,2.3,2.2
			c-0.1,6,0,12-0.1,18c0,1.9,0.5,2.5,2.4,2.5c4.4-0.1,8.7,0,13.2,0c-0.1,0.9-0.3,1.5-0.8,2c-7.6,9.4-15.3,18.9-22.8,28.4
			c-1.4,1.7-2.1,1.7-3.4,0C110.5,143.5,108.3,141,106.3,138.5z"/>
	</g>
</g>
<g id="Capa_2">
	<g>
		<path class="st3" d="M84.5,122.2c-3.5-3.4-2.5-7.2-2.1-8.3c1.1-3.1,4-5.1,7.3-5.1c0.4,0,0.8,0,1,0.1l1.7,0c1.6,0,3.2,0,4.8,0
			c0.1,0,0.1,0,0.2,0c0-2.8,0-5.6,0-8.4c0-1.4,0-2.9,0-4.3c0-2.2,0-5.2,2.5-7.6c2.4-2.3,5.3-2.3,7.5-2.3c0,0,5.5,0,6.6,0
			c0-16.3,0-32.7,0-49c0-1.4-0.2-2.5-1.2-3.5c-10-9.9-20-19.9-29.9-29.9c-0.9-0.9-1.8-1.3-3-1.3c-22.4,0-44.8,0-67.3,0
			c-1.8,0-2.2,0.6-2.2,2.2c0,43.8,0,87.7,0,131.5c0,1.8,0.4,2.4,2.3,2.3c9.2-0.1,18.3,0,27.5-0.1c19,0,38,0,57-0.1
			C93.1,133.1,88.8,127.6,84.5,122.2z M78.7,8.5c9.9,9.9,19.7,19.7,29.5,29.6c-0.1,0.2-0.5,0-0.9,0c-8.9,0-17.9,0-26.8,0
			c-0.9,0-1.9,0.1-1.9-1.3C78.7,27.3,78.7,17.9,78.7,8.5z M75.3,99.8c-1.5,0.1-2.2-0.5-2.9-1.8c-2.8-5.4-5.7-10.7-8.6-16.1
			c-0.4-0.7-0.6-1.6-1.6-2.1c-2.6,4.9-5.5,9.6-7.7,14.6c-1.8,4.1-4.2,6.3-8.8,5.3c-1.3-0.3-2.8-0.1-4.2,0c-1.9,0.1-2.1-0.4-1.1-2
			c4.8-7.4,9.5-14.9,14.3-22.4c0.8-1.2,0.8-2.1,0.1-3.3c-4.3-7.2-8.5-14.4-12.7-21.7c-1.4-2.4-1.4-2.5,1.3-2.5c2.5,0,5.1,0.1,7.6,0
			c1.5-0.1,2.3,0.5,3,1.9c2.9,5.8,5.9,11.5,9,17.6c3.3-6,6.4-11.6,9.3-17.2c0.8-1.6,1.7-2.5,3.7-2.3c2.1,0.2,4.2,0,6.2,0.1
			c0.8,0,1.9-0.5,2.3,0.4c0.4,0.7-0.5,1.4-0.9,2c-4.4,7.2-8.8,14.4-13.3,21.6c-0.9,1.5-0.9,2.5,0,3.9c4.6,7.3,9.2,14.6,13.8,21.9
			c0.4,0.6,1.1,1.1,0.6,1.8c-0.4,0.5-1.1,0.3-1.7,0.3C80.5,99.7,77.9,99.6,75.3,99.8z"/>
		<path class="st3" d="M106.3,138.5c-5.5-7-11-13.9-16.6-20.9c-0.3-0.4-1-0.7-0.8-1.3c0.3-0.8,1.1-0.4,1.6-0.4c3.9,0,7.9-0.1,11.8,0
			c1.6,0,2.1-0.5,2.1-2.1c-0.1-5.9,0-11.7,0-17.6c0-3,0-3,3.1-3c2.2,0,4.5,0,6.7,0c2.5,0,4.9,0.1,7.4,0c1.7-0.1,2.3,0.5,2.3,2.2
			c-0.1,6,0,12-0.1,18c0,1.9,0.5,2.5,2.4,2.5c4.4-0.1,8.7,0,13.2,0c-0.1,0.9-0.3,1.5-0.8,2c-7.6,9.4-15.3,18.9-22.8,28.4
			c-1.4,1.7-2.1,1.7-3.4,0C110.5,143.5,108.3,141,106.3,138.5z"/>
	</g>
</g>
</svg>
