<?xml version="1.0" encoding="utf-8"?>
<!-- Generator: Adobe Illustrator 21.0.0, SVG Export Plug-In . SVG Version: 6.00 Build 0)  -->
<svg version="1.1" xmlns="http://www.w3.org/2000/svg" xmlns:xlink="http://www.w3.org/1999/xlink" x="0px" y="0px"
	 viewBox="0 0 60 60" style="enable-background:new 0 0 60 60;" xml:space="preserve">
<style type="text/css">
	.st0{display:none;}
	.st1{display:inline;fill:#131E29;}
	.st2{display:inline;}
	.st3{fill:#131E29;}
	.st4{display:inline;fill:#88A91E;}
	.st5{fill:#88A91E;}
	.st6{display:inline;fill:#1E9091;}
	.st7{fill:#1E9091;}
	.st8{fill:#FFFFFF;}
	.st9{display:inline;fill:#9CA9AF;}
	.st10{fill:#9CA9AF;}
</style>
<g id="Capa_1_copia_3" class="st0">
	<g class="st2">
		<path class="st3" d="M7,3c9.4,0,18.7,0,28.1,0c0.7,0.3,1.5,0.5,2.1,0.9c1.4,0.9,1.8,2.3,1.8,4c0,10.6,0,21.2,0,31.8
			c0,4.2,0,8.3,0,12.5c0,2.8-1.9,4.8-4.7,4.8c-8.9,0-17.8,0-26.7,0c-0.7,0-1.5-0.2-2.1-0.5C3.8,55.7,3,54.1,3,52.2
			c0-11.3,0-22.6,0-33.9c0-3.5,0-7,0-10.5c0-1.2,0.3-2.2,1.1-3.1C4.8,3.7,5.9,3.2,7,3z M30,25.5c0-1.4-0.4-2.6-1.2-3.7
			c-1.3-1.9-3.2-2.9-5.6-3c0-1.5,0-3,0-4.4c-1.5,0-3,0-4.5,0c0,1.5,0,3,0,4.4c-0.2,0-0.4,0-0.6,0.1c-3,0.3-5.5,2.5-6,5.5
			c-0.5,2.9,1,5.9,3.7,7.3c1,0.5,2.1,0.7,3.2,0.7c1.5,0,3,0,4.5,0.1c1.2,0.1,2,1.1,2,2.3c0,1.2-1,2.1-2.2,2.1c-1.5,0-3.1,0-4.6,0
			c-1,0-1.8-0.7-2.1-1.7c-0.1-0.2-0.1-0.4-0.1-0.5c-1.5,0-3,0-4.4,0c0,1.5,0.4,2.7,1.3,3.9c1.3,1.8,3.2,2.7,5.5,2.8c0,1.5,0,3,0,4.4
			c1.5,0,3,0,4.5,0c0-1.5,0-3,0-4.4c0.1,0,0.1,0,0.2,0c0.2,0,0.3,0,0.5,0c2.8-0.4,4.8-1.9,5.7-4.5c0.9-2.7,0.3-5.1-1.7-7
			c-1.3-1.3-2.9-1.9-4.8-1.9c-1.5,0-3.1,0-4.6-0.1c-1.2-0.1-2.1-1.1-2-2.3c0.1-1.2,1-2.1,2.2-2.1c1.5,0,3,0,4.5,0
			c1.1,0,2,0.8,2.2,1.9c0,0.1,0,0.2,0.1,0.3C27,25.5,28.5,25.5,30,25.5z"/>
		<path class="st3" d="M43.5,7.6c1.7-0.1,3.6,1.2,4.2,2.9c0.2,0.6,0.3,1.3,0.3,1.9c0,11.8,0,23.5,0,35.3c0,2.4-1.2,4.1-3.4,4.7
			c-0.3,0.1-0.7,0.1-1.1,0.2C43.5,37.5,43.5,22.5,43.5,7.6z"/>
		<path class="st3" d="M52.5,47.9c0-12,0-23.9,0-35.9c1.3,0,2.4,0.5,3.3,1.4c0.8,0.9,1.2,2,1.2,3.2c0,8.9,0,17.8,0,26.7
			C57,46,55,48,52.5,47.9z"/>
	</g>
</g>
<g id="Capa_1_copia_4" class="st0">
	<g class="st2">
		<path class="st5" d="M7,3c9.4,0,18.7,0,28.1,0c0.7,0.3,1.5,0.5,2.1,0.9c1.4,0.9,1.8,2.3,1.8,4c0,10.6,0,21.2,0,31.8
			c0,4.2,0,8.3,0,12.5c0,2.8-1.9,4.8-4.7,4.8c-8.9,0-17.8,0-26.7,0c-0.7,0-1.5-0.2-2.1-0.5C3.8,55.7,3,54.1,3,52.2
			c0-11.3,0-22.6,0-33.9c0-3.5,0-7,0-10.5c0-1.2,0.3-2.2,1.1-3.1C4.8,3.7,5.9,3.2,7,3z M30,25.5c0-1.4-0.4-2.6-1.2-3.7
			c-1.3-1.9-3.2-2.9-5.6-3c0-1.5,0-3,0-4.4c-1.5,0-3,0-4.5,0c0,1.5,0,3,0,4.4c-0.2,0-0.4,0-0.6,0.1c-3,0.3-5.5,2.5-6,5.5
			c-0.5,2.9,1,5.9,3.7,7.3c1,0.5,2.1,0.7,3.2,0.7c1.5,0,3,0,4.5,0.1c1.2,0.1,2,1.1,2,2.3c0,1.2-1,2.1-2.2,2.1c-1.5,0-3.1,0-4.6,0
			c-1,0-1.8-0.7-2.1-1.7c-0.1-0.2-0.1-0.4-0.1-0.5c-1.5,0-3,0-4.4,0c0,1.5,0.4,2.7,1.3,3.9c1.3,1.8,3.2,2.7,5.5,2.8c0,1.5,0,3,0,4.4
			c1.5,0,3,0,4.5,0c0-1.5,0-3,0-4.4c0.1,0,0.1,0,0.2,0c0.2,0,0.3,0,0.5,0c2.8-0.4,4.8-1.9,5.7-4.5c0.9-2.7,0.3-5.1-1.7-7
			c-1.3-1.3-2.9-1.9-4.8-1.9c-1.5,0-3.1,0-4.6-0.1c-1.2-0.1-2.1-1.1-2-2.3c0.1-1.2,1-2.1,2.2-2.1c1.5,0,3,0,4.5,0
			c1.1,0,2,0.8,2.2,1.9c0,0.1,0,0.2,0.1,0.3C27,25.5,28.5,25.5,30,25.5z"/>
		<path class="st5" d="M43.5,7.6c1.7-0.1,3.6,1.2,4.2,2.9c0.2,0.6,0.3,1.3,0.3,1.9c0,11.8,0,23.5,0,35.3c0,2.4-1.2,4.1-3.4,4.7
			c-0.3,0.1-0.7,0.1-1.1,0.2C43.5,37.5,43.5,22.5,43.5,7.6z"/>
		<path class="st5" d="M52.5,47.9c0-12,0-23.9,0-35.9c1.3,0,2.4,0.5,3.3,1.4c0.8,0.9,1.2,2,1.2,3.2c0,8.9,0,17.8,0,26.7
			C57,46,55,48,52.5,47.9z"/>
	</g>
</g>
<g id="Capa_1_copia_5" class="st0">
	<g class="st2">
		<path class="st7" d="M7,3c9.4,0,18.7,0,28.1,0c0.7,0.3,1.5,0.5,2.1,0.9c1.4,0.9,1.8,2.3,1.8,4c0,10.6,0,21.2,0,31.8
			c0,4.2,0,8.3,0,12.5c0,2.8-1.9,4.8-4.7,4.8c-8.9,0-17.8,0-26.7,0c-0.7,0-1.5-0.2-2.1-0.5C3.8,55.7,3,54.1,3,52.2
			c0-11.3,0-22.6,0-33.9c0-3.5,0-7,0-10.5c0-1.2,0.3-2.2,1.1-3.1C4.8,3.7,5.9,3.2,7,3z M30,25.5c0-1.4-0.4-2.6-1.2-3.7
			c-1.3-1.9-3.2-2.9-5.6-3c0-1.5,0-3,0-4.4c-1.5,0-3,0-4.5,0c0,1.5,0,3,0,4.4c-0.2,0-0.4,0-0.6,0.1c-3,0.3-5.5,2.5-6,5.5
			c-0.5,2.9,1,5.9,3.7,7.3c1,0.5,2.1,0.7,3.2,0.7c1.5,0,3,0,4.5,0.1c1.2,0.1,2,1.1,2,2.3c0,1.2-1,2.1-2.2,2.1c-1.5,0-3.1,0-4.6,0
			c-1,0-1.8-0.7-2.1-1.7c-0.1-0.2-0.1-0.4-0.1-0.5c-1.5,0-3,0-4.4,0c0,1.5,0.4,2.7,1.3,3.9c1.3,1.8,3.2,2.7,5.5,2.8c0,1.5,0,3,0,4.4
			c1.5,0,3,0,4.5,0c0-1.5,0-3,0-4.4c0.1,0,0.1,0,0.2,0c0.2,0,0.3,0,0.5,0c2.8-0.4,4.8-1.9,5.7-4.5c0.9-2.7,0.3-5.1-1.7-7
			c-1.3-1.3-2.9-1.9-4.8-1.9c-1.5,0-3.1,0-4.6-0.1c-1.2-0.1-2.1-1.1-2-2.3c0.1-1.2,1-2.1,2.2-2.1c1.5,0,3,0,4.5,0
			c1.1,0,2,0.8,2.2,1.9c0,0.1,0,0.2,0.1,0.3C27,25.5,28.5,25.5,30,25.5z"/>
		<path class="st7" d="M43.5,7.6c1.7-0.1,3.6,1.2,4.2,2.9c0.2,0.6,0.3,1.3,0.3,1.9c0,11.8,0,23.5,0,35.3c0,2.4-1.2,4.1-3.4,4.7
			c-0.3,0.1-0.7,0.1-1.1,0.2C43.5,37.5,43.5,22.5,43.5,7.6z"/>
		<path class="st7" d="M52.5,47.9c0-12,0-23.9,0-35.9c1.3,0,2.4,0.5,3.3,1.4c0.8,0.9,1.2,2,1.2,3.2c0,8.9,0,17.8,0,26.7
			C57,46,55,48,52.5,47.9z"/>
	</g>
</g>
<g id="Capa_1_copia_6">
	<g>
		<path class="st8" d="M7,3c9.4,0,18.7,0,28.1,0c0.7,0.3,1.5,0.5,2.1,0.9c1.4,0.9,1.8,2.3,1.8,4c0,10.6,0,21.2,0,31.8
			c0,4.2,0,8.3,0,12.5c0,2.8-1.9,4.8-4.7,4.8c-8.9,0-17.8,0-26.7,0c-0.7,0-1.5-0.2-2.1-0.5C3.8,55.7,3,54.1,3,52.2
			c0-11.3,0-22.6,0-33.9c0-3.5,0-7,0-10.5c0-1.2,0.3-2.2,1.1-3.1C4.8,3.7,5.9,3.2,7,3z M30,25.5c0-1.4-0.4-2.6-1.2-3.7
			c-1.3-1.9-3.2-2.9-5.6-3c0-1.5,0-3,0-4.4c-1.5,0-3,0-4.5,0c0,1.5,0,3,0,4.4c-0.2,0-0.4,0-0.6,0.1c-3,0.3-5.5,2.5-6,5.5
			c-0.5,2.9,1,5.9,3.7,7.3c1,0.5,2.1,0.7,3.2,0.7c1.5,0,3,0,4.5,0.1c1.2,0.1,2,1.1,2,2.3c0,1.2-1,2.1-2.2,2.1c-1.5,0-3.1,0-4.6,0
			c-1,0-1.8-0.7-2.1-1.7c-0.1-0.2-0.1-0.4-0.1-0.5c-1.5,0-3,0-4.4,0c0,1.5,0.4,2.7,1.3,3.9c1.3,1.8,3.2,2.7,5.5,2.8c0,1.5,0,3,0,4.4
			c1.5,0,3,0,4.5,0c0-1.5,0-3,0-4.4c0.1,0,0.1,0,0.2,0c0.2,0,0.3,0,0.5,0c2.8-0.4,4.8-1.9,5.7-4.5c0.9-2.7,0.3-5.1-1.7-7
			c-1.3-1.3-2.9-1.9-4.8-1.9c-1.5,0-3.1,0-4.6-0.1c-1.2-0.1-2.1-1.1-2-2.3c0.1-1.2,1-2.1,2.2-2.1c1.5,0,3,0,4.5,0
			c1.1,0,2,0.8,2.2,1.9c0,0.1,0,0.2,0.1,0.3C27,25.5,28.5,25.5,30,25.5z"/>
		<path class="st8" d="M43.5,7.6c1.7-0.1,3.6,1.2,4.2,2.9c0.2,0.6,0.3,1.3,0.3,1.9c0,11.8,0,23.5,0,35.3c0,2.4-1.2,4.1-3.4,4.7
			c-0.3,0.1-0.7,0.1-1.1,0.2C43.5,37.5,43.5,22.5,43.5,7.6z"/>
		<path class="st8" d="M52.5,47.9c0-12,0-23.9,0-35.9c1.3,0,2.4,0.5,3.3,1.4c0.8,0.9,1.2,2,1.2,3.2c0,8.9,0,17.8,0,26.7
			C57,46,55,48,52.5,47.9z"/>
	</g>
</g>
<g id="Capa_1_copia_7" class="st0">
	<g class="st2">
		<path class="st10" d="M7,3c9.4,0,18.7,0,28.1,0c0.7,0.3,1.5,0.5,2.1,0.9c1.4,0.9,1.8,2.3,1.8,4c0,10.6,0,21.2,0,31.8
			c0,4.2,0,8.3,0,12.5c0,2.8-1.9,4.8-4.7,4.8c-8.9,0-17.8,0-26.7,0c-0.7,0-1.5-0.2-2.1-0.5C3.8,55.7,3,54.1,3,52.2
			c0-11.3,0-22.6,0-33.9c0-3.5,0-7,0-10.5c0-1.2,0.3-2.2,1.1-3.1C4.8,3.7,5.9,3.2,7,3z M30,25.5c0-1.4-0.4-2.6-1.2-3.7
			c-1.3-1.9-3.2-2.9-5.6-3c0-1.5,0-3,0-4.4c-1.5,0-3,0-4.5,0c0,1.5,0,3,0,4.4c-0.2,0-0.4,0-0.6,0.1c-3,0.3-5.5,2.5-6,5.5
			c-0.5,2.9,1,5.9,3.7,7.3c1,0.5,2.1,0.7,3.2,0.7c1.5,0,3,0,4.5,0.1c1.2,0.1,2,1.1,2,2.3c0,1.2-1,2.1-2.2,2.1c-1.5,0-3.1,0-4.6,0
			c-1,0-1.8-0.7-2.1-1.7c-0.1-0.2-0.1-0.4-0.1-0.5c-1.5,0-3,0-4.4,0c0,1.5,0.4,2.7,1.3,3.9c1.3,1.8,3.2,2.7,5.5,2.8c0,1.5,0,3,0,4.4
			c1.5,0,3,0,4.5,0c0-1.5,0-3,0-4.4c0.1,0,0.1,0,0.2,0c0.2,0,0.3,0,0.5,0c2.8-0.4,4.8-1.9,5.7-4.5c0.9-2.7,0.3-5.1-1.7-7
			c-1.3-1.3-2.9-1.9-4.8-1.9c-1.5,0-3.1,0-4.6-0.1c-1.2-0.1-2.1-1.1-2-2.3c0.1-1.2,1-2.1,2.2-2.1c1.5,0,3,0,4.5,0
			c1.1,0,2,0.8,2.2,1.9c0,0.1,0,0.2,0.1,0.3C27,25.5,28.5,25.5,30,25.5z"/>
		<path class="st10" d="M43.5,7.6c1.7-0.1,3.6,1.2,4.2,2.9c0.2,0.6,0.3,1.3,0.3,1.9c0,11.8,0,23.5,0,35.3c0,2.4-1.2,4.1-3.4,4.7
			c-0.3,0.1-0.7,0.1-1.1,0.2C43.5,37.5,43.5,22.5,43.5,7.6z"/>
		<path class="st10" d="M52.5,47.9c0-12,0-23.9,0-35.9c1.3,0,2.4,0.5,3.3,1.4c0.8,0.9,1.2,2,1.2,3.2c0,8.9,0,17.8,0,26.7
			C57,46,55,48,52.5,47.9z"/>
	</g>
</g>
</svg>
