<?xml version="1.0" encoding="utf-8"?>
<!-- Generator: Adobe Illustrator 24.0.2, SVG Export Plug-In . SVG Version: 6.00 Build 0)  -->
<svg version="1.1" xmlns="http://www.w3.org/2000/svg" xmlns:xlink="http://www.w3.org/1999/xlink" x="0px" y="0px"
	 viewBox="0 0 60 60" style="enable-background:new 0 0 60 60;" xml:space="preserve">
<style type="text/css">
	.st0{display:none;}
	.st1{display:inline;}
	.st2{fill:#FFFFFF;}
</style>
<g id="Capa_1" class="st0">
</g>
<g id="Capa_2">
	<g>
		<path class="st2" d="M1,24.2c0.3-0.3,0.5-0.6,0.9-0.8c9.7-7.1,19.5-14.1,29.3-21.2c0.2-0.1,0.4-0.3,0.6-0.4c0.6-0.3,1.3,0,1.5,0.7
			c0,0.2,0,0.4,0,0.6c0,3.5,0,7.1,0,10.6c0,0.2,0,0.4,0,0.6c1.4,0.1,2.7,0.2,4,0.4c4.3,0.6,8.2,2.1,11.8,4.6
			c3.1,2.1,5.5,4.8,7.3,8.1c2.4,4.5,3.3,9.2,2.3,14.2c-0.9,4.9-3.4,9.1-7,12.5c-1.4,1.4-3.1,2.5-4.6,3.8c-0.6,0.5-1.2,0.4-1.8,0.2
			c-0.8-0.2-0.9-1.1-0.3-1.7c0.6-0.7,1.3-1.4,1.9-2.1c1.6-2.1,2.7-4.4,2.8-7c0.1-3.5-1.5-6.3-4.1-8.6c-3-2.6-6.6-3.8-10.6-4.1
			c-0.6,0-1.1-0.1-1.8-0.1c0,0.3,0,0.5,0,0.7c0,3.5,0,7.1,0,10.6c0,0.5,0,1-0.6,1.3c-0.5,0.3-0.9,0-1.4-0.3
			c-9.9-7.1-19.7-14.2-29.5-21.3C1.4,25.3,1.2,25,1,24.8C1,24.6,1,24.4,1,24.2z"/>
	</g>
</g>
</svg>
