<?xml version="1.0" encoding="utf-8"?>
<!-- Generator: Adobe Illustrator 21.0.0, SVG Export Plug-In . SVG Version: 6.00 Build 0)  -->
<svg version="1.1" xmlns="http://www.w3.org/2000/svg" xmlns:xlink="http://www.w3.org/1999/xlink" x="0px" y="0px"
	 viewBox="0 0 60 60" style="enable-background:new 0 0 60 60;" xml:space="preserve">
<style type="text/css">
	.st0{display:none;}
	.st1{display:inline;fill:#131E29;}
	.st2{display:inline;}
	.st3{fill:#131E29;}
	.st4{display:inline;fill:#88A91E;}
	.st5{fill:#88A91E;}
	.st6{display:inline;fill:#1E9091;}
	.st7{fill:#1E9091;}
	.st8{fill:#FFFFFF;}
	.st9{display:inline;fill:#9CA9AF;}
	.st10{fill:#9CA9AF;}
</style>
<g id="Capa_1_copia_3" class="st0">
	<g class="st2">
		<path class="st3" d="M27.2,13.7c0,0.2,0,0.3,0.1,0.5c0,2.4,0,4.8,0,7.1c0,0.2,0,0.3-0.1,0.5c0,0,0,0,0,0c-8.1,0-16.1,0-24.2,0
			C3,15.6,3,9.3,3,3c6.3,0,12.6,0,18.9,0c0,3.6,0,7.2,0,10.8C23.7,13.8,25.5,13.8,27.2,13.7C27.3,13.8,27.2,13.7,27.2,13.7z
			 M8.4,8.4c0,2.7,0,5.4,0,8.1c2.7,0,5.4,0,8,0c0-2.7,0-5.4,0-8.1C13.8,8.4,11.1,8.4,8.4,8.4z"/>
		<path class="st3" d="M57,3c0,6.3,0,12.6,0,18.9c-6.3,0-12.6,0-18.9,0c0-0.1,0-0.2,0-0.3c0-6.1,0-12.2,0-18.3c0-0.1,0-0.1,0-0.2
			C44.4,3,50.7,3,57,3z M43.5,8.4c0,2.7,0,5.4,0,8c2.7,0,5.4,0,8,0c0-2.7,0-5.4,0-8C48.9,8.4,46.2,8.4,43.5,8.4z"/>
		<path class="st3" d="M32.7,3c0,0.3,0,0.5,0,0.8c0,3.1,0,6.2,0,9.3c0,0.2,0,0.4,0,0.7c-0.4,0-0.8,0-1.1,0c-1.5,0-2.9,0-4.4-0.1
			c0,0,0,0,0,0c0-2.8,0-5.6,0-8.4c0-0.8,0-1.6,0-2.4C29.1,3,30.9,3,32.7,3z"/>
		<path class="st3" d="M30,51.6c-2.7,0-5.4,0-8.1,0c0,1.8,0,3.6,0,5.3C15.6,57,9.3,57,3,57c0-6.2,0-12.5,0-18.8c6.2,0,12.5,0,18.8,0
			c0,2.6,0,5.3,0,8c0.2,0,0.4,0,0.6,0c2.3,0,4.7,0,7,0c0.2,0,0.3,0,0.5,0l0,0C30,48.1,30,49.9,30,51.6L30,51.6z M16.5,51.6
			c0-2.7,0-5.4,0-8c-2.7,0-5.4,0-8,0c0,2.7,0,5.4,0,8C11.1,51.6,13.8,51.6,16.5,51.6z"/>
		<path class="st3" d="M51.6,46.3c0,1.8,0,3.5,0,5.4c0.9,0,1.8,0,2.6,0c0,1.8,0,3.6,0,5.4c-2.7,0-5.3,0-8.1,0c0-1.8,0-3.5,0-5.3
			c-1.8,0-3.6,0-5.4,0c0,1.8,0,3.5,0,5.3c-3.6,0-7.2,0-10.8,0c0-1.8,0-3.6,0-5.4l0,0c1.8,0,3.6,0,5.4,0c0-1.9,0-3.6,0-5.4
			c0,0,0,0,0,0c0.2,0,0.3,0,0.5,0c5.1,0,10.2,0,15.3,0C51.3,46.2,51.5,46.3,51.6,46.3C51.6,46.3,51.6,46.3,51.6,46.3z"/>
		<path class="st3" d="M32.8,27.2c0.2,0,0.4,0.1,0.6,0.1c5.9,0,11.8,0,17.6,0c0.2,0,0.4,0,0.6,0c0,4.5,0,9,0,13.5l0,0
			c-1.8,0-3.5,0-5.3,0c0,0-0.1,0-0.1-0.1c0-2.6,0-5.2,0-7.9c-1.8,0-3.6,0-5.4,0c0,1.8,0,3.5,0,5.4c-1.8,0-3.6,0-5.4,0l0,0
			c0-1.8,0-3.6,0-5.4c-0.9,0-1.8,0-2.6,0c0-0.2,0-0.4,0-0.6c0-1.4,0-2.9,0-4.3C32.7,27.6,32.8,27.4,32.8,27.2
			C32.8,27.2,32.8,27.2,32.8,27.2z"/>
		<path class="st3" d="M3,32.7c0-1.8,0-3.6,0-5.4c3.6,0,7.1,0,10.7,0c0,1.8,0,3.6,0,5.4C10.2,32.7,6.6,32.7,3,32.7z"/>
		<path class="st3" d="M27.2,27.2c0,0.1,0.1,0.2,0.1,0.3c0,1.7,0,3.4,0,5.2c-2.7,0-5.3,0-8,0c0-1.8,0-3.5,0-5.4c0.2,0,0.4,0,0.6,0
			c2.3,0,4.6,0,6.9,0C26.8,27.3,27,27.3,27.2,27.2L27.2,27.2z"/>
		<path class="st3" d="M30,46.3c0-2.7,0-5.4,0-8.1c1.8,0,3.6,0,5.4,0c0,0,0,0,0,0c0,2.7,0,5.4,0,8.1l0,0
			C33.6,46.3,31.8,46.3,30,46.3L30,46.3z"/>
		<path class="st3" d="M51.6,40.8c1.5,0,3.1,0,4.6,0c0.2,0,0.5,0,0.7,0c0,1.8,0,3.6,0,5.5c-1.8,0-3.6,0-5.4,0c0,0,0,0,0,0
			C51.6,44.4,51.6,42.6,51.6,40.8L51.6,40.8z"/>
		<path class="st3" d="M27.2,27.2c0-0.2,0.1-0.5,0.1-0.7c0-1.4,0-2.8,0-4.2c0-0.2,0-0.3-0.1-0.5c0,0,0,0,0,0c1.8,0,3.6,0,5.5,0
			c0,0.2,0,0.4,0,0.6c0,1.4,0,2.8,0,4.2c0,0.2,0,0.3,0.1,0.5c0,0,0,0,0,0c0,0,0,0,0,0C30.9,27.2,29.1,27.2,27.2,27.2
			C27.2,27.2,27.2,27.2,27.2,27.2z"/>
	</g>
</g>
<g id="Capa_1_copia_4" class="st0">
	<g class="st2">
		<path class="st5" d="M27.2,13.7c0,0.2,0,0.3,0.1,0.5c0,2.4,0,4.8,0,7.1c0,0.2,0,0.3-0.1,0.5c0,0,0,0,0,0c-8.1,0-16.1,0-24.2,0
			C3,15.6,3,9.3,3,3c6.3,0,12.6,0,18.9,0c0,3.6,0,7.2,0,10.8C23.7,13.8,25.5,13.8,27.2,13.7C27.3,13.8,27.2,13.7,27.2,13.7z
			 M8.4,8.4c0,2.7,0,5.4,0,8.1c2.7,0,5.4,0,8,0c0-2.7,0-5.4,0-8.1C13.8,8.4,11.1,8.4,8.4,8.4z"/>
		<path class="st5" d="M57,3c0,6.3,0,12.6,0,18.9c-6.3,0-12.6,0-18.9,0c0-0.1,0-0.2,0-0.3c0-6.1,0-12.2,0-18.3c0-0.1,0-0.1,0-0.2
			C44.4,3,50.7,3,57,3z M43.5,8.4c0,2.7,0,5.4,0,8c2.7,0,5.4,0,8,0c0-2.7,0-5.4,0-8C48.9,8.4,46.2,8.4,43.5,8.4z"/>
		<path class="st5" d="M32.7,3c0,0.3,0,0.5,0,0.8c0,3.1,0,6.2,0,9.3c0,0.2,0,0.4,0,0.7c-0.4,0-0.8,0-1.1,0c-1.5,0-2.9,0-4.4-0.1
			c0,0,0,0,0,0c0-2.8,0-5.6,0-8.4c0-0.8,0-1.6,0-2.4C29.1,3,30.9,3,32.7,3z"/>
		<path class="st5" d="M30,51.6c-2.7,0-5.4,0-8.1,0c0,1.8,0,3.6,0,5.3C15.6,57,9.3,57,3,57c0-6.2,0-12.5,0-18.8c6.2,0,12.5,0,18.8,0
			c0,2.6,0,5.3,0,8c0.2,0,0.4,0,0.6,0c2.3,0,4.7,0,7,0c0.2,0,0.3,0,0.5,0l0,0C30,48.1,30,49.9,30,51.6L30,51.6z M16.5,51.6
			c0-2.7,0-5.4,0-8c-2.7,0-5.4,0-8,0c0,2.7,0,5.4,0,8C11.1,51.6,13.8,51.6,16.5,51.6z"/>
		<path class="st5" d="M51.6,46.3c0,1.8,0,3.5,0,5.4c0.9,0,1.8,0,2.6,0c0,1.8,0,3.6,0,5.4c-2.7,0-5.3,0-8.1,0c0-1.8,0-3.5,0-5.3
			c-1.8,0-3.6,0-5.4,0c0,1.8,0,3.5,0,5.3c-3.6,0-7.2,0-10.8,0c0-1.8,0-3.6,0-5.4l0,0c1.8,0,3.6,0,5.4,0c0-1.9,0-3.6,0-5.4
			c0,0,0,0,0,0c0.2,0,0.3,0,0.5,0c5.1,0,10.2,0,15.3,0C51.3,46.2,51.5,46.3,51.6,46.3C51.6,46.3,51.6,46.3,51.6,46.3z"/>
		<path class="st5" d="M32.8,27.2c0.2,0,0.4,0.1,0.6,0.1c5.9,0,11.8,0,17.6,0c0.2,0,0.4,0,0.6,0c0,4.5,0,9,0,13.5l0,0
			c-1.8,0-3.5,0-5.3,0c0,0-0.1,0-0.1-0.1c0-2.6,0-5.2,0-7.9c-1.8,0-3.6,0-5.4,0c0,1.8,0,3.5,0,5.4c-1.8,0-3.6,0-5.4,0l0,0
			c0-1.8,0-3.6,0-5.4c-0.9,0-1.8,0-2.6,0c0-0.2,0-0.4,0-0.6c0-1.4,0-2.9,0-4.3C32.7,27.6,32.8,27.4,32.8,27.2
			C32.8,27.2,32.8,27.2,32.8,27.2z"/>
		<path class="st5" d="M3,32.7c0-1.8,0-3.6,0-5.4c3.6,0,7.1,0,10.7,0c0,1.8,0,3.6,0,5.4C10.2,32.7,6.6,32.7,3,32.7z"/>
		<path class="st5" d="M27.2,27.2c0,0.1,0.1,0.2,0.1,0.3c0,1.7,0,3.4,0,5.2c-2.7,0-5.3,0-8,0c0-1.8,0-3.5,0-5.4c0.2,0,0.4,0,0.6,0
			c2.3,0,4.6,0,6.9,0C26.8,27.3,27,27.3,27.2,27.2L27.2,27.2z"/>
		<path class="st5" d="M30,46.3c0-2.7,0-5.4,0-8.1c1.8,0,3.6,0,5.4,0c0,0,0,0,0,0c0,2.7,0,5.4,0,8.1l0,0
			C33.6,46.3,31.8,46.3,30,46.3L30,46.3z"/>
		<path class="st5" d="M51.6,40.8c1.5,0,3.1,0,4.6,0c0.2,0,0.5,0,0.7,0c0,1.8,0,3.6,0,5.5c-1.8,0-3.6,0-5.4,0c0,0,0,0,0,0
			C51.6,44.4,51.6,42.6,51.6,40.8L51.6,40.8z"/>
		<path class="st5" d="M27.2,27.2c0-0.2,0.1-0.5,0.1-0.7c0-1.4,0-2.8,0-4.2c0-0.2,0-0.3-0.1-0.5c0,0,0,0,0,0c1.8,0,3.6,0,5.5,0
			c0,0.2,0,0.4,0,0.6c0,1.4,0,2.8,0,4.2c0,0.2,0,0.3,0.1,0.5c0,0,0,0,0,0c0,0,0,0,0,0C30.9,27.2,29.1,27.2,27.2,27.2
			C27.2,27.2,27.2,27.2,27.2,27.2z"/>
	</g>
</g>
<g id="Capa_1_copia_5" class="st0">
	<g class="st2">
		<path class="st7" d="M27.2,13.7c0,0.2,0,0.3,0.1,0.5c0,2.4,0,4.8,0,7.1c0,0.2,0,0.3-0.1,0.5c0,0,0,0,0,0c-8.1,0-16.1,0-24.2,0
			C3,15.6,3,9.3,3,3c6.3,0,12.6,0,18.9,0c0,3.6,0,7.2,0,10.8C23.7,13.8,25.5,13.8,27.2,13.7C27.3,13.8,27.2,13.7,27.2,13.7z
			 M8.4,8.4c0,2.7,0,5.4,0,8.1c2.7,0,5.4,0,8,0c0-2.7,0-5.4,0-8.1C13.8,8.4,11.1,8.4,8.4,8.4z"/>
		<path class="st7" d="M57,3c0,6.3,0,12.6,0,18.9c-6.3,0-12.6,0-18.9,0c0-0.1,0-0.2,0-0.3c0-6.1,0-12.2,0-18.3c0-0.1,0-0.1,0-0.2
			C44.4,3,50.7,3,57,3z M43.5,8.4c0,2.7,0,5.4,0,8c2.7,0,5.4,0,8,0c0-2.7,0-5.4,0-8C48.9,8.4,46.2,8.4,43.5,8.4z"/>
		<path class="st7" d="M32.7,3c0,0.3,0,0.5,0,0.8c0,3.1,0,6.2,0,9.3c0,0.2,0,0.4,0,0.7c-0.4,0-0.8,0-1.1,0c-1.5,0-2.9,0-4.4-0.1
			c0,0,0,0,0,0c0-2.8,0-5.6,0-8.4c0-0.8,0-1.6,0-2.4C29.1,3,30.9,3,32.7,3z"/>
		<path class="st7" d="M30,51.6c-2.7,0-5.4,0-8.1,0c0,1.8,0,3.6,0,5.3C15.6,57,9.3,57,3,57c0-6.2,0-12.5,0-18.8c6.2,0,12.5,0,18.8,0
			c0,2.6,0,5.3,0,8c0.2,0,0.4,0,0.6,0c2.3,0,4.7,0,7,0c0.2,0,0.3,0,0.5,0l0,0C30,48.1,30,49.9,30,51.6L30,51.6z M16.5,51.6
			c0-2.7,0-5.4,0-8c-2.7,0-5.4,0-8,0c0,2.7,0,5.4,0,8C11.1,51.6,13.8,51.6,16.5,51.6z"/>
		<path class="st7" d="M51.6,46.3c0,1.8,0,3.5,0,5.4c0.9,0,1.8,0,2.6,0c0,1.8,0,3.6,0,5.4c-2.7,0-5.3,0-8.1,0c0-1.8,0-3.5,0-5.3
			c-1.8,0-3.6,0-5.4,0c0,1.8,0,3.5,0,5.3c-3.6,0-7.2,0-10.8,0c0-1.8,0-3.6,0-5.4l0,0c1.8,0,3.6,0,5.4,0c0-1.9,0-3.6,0-5.4
			c0,0,0,0,0,0c0.2,0,0.3,0,0.5,0c5.1,0,10.2,0,15.3,0C51.3,46.2,51.5,46.3,51.6,46.3C51.6,46.3,51.6,46.3,51.6,46.3z"/>
		<path class="st7" d="M32.8,27.2c0.2,0,0.4,0.1,0.6,0.1c5.9,0,11.8,0,17.6,0c0.2,0,0.4,0,0.6,0c0,4.5,0,9,0,13.5l0,0
			c-1.8,0-3.5,0-5.3,0c0,0-0.1,0-0.1-0.1c0-2.6,0-5.2,0-7.9c-1.8,0-3.6,0-5.4,0c0,1.8,0,3.5,0,5.4c-1.8,0-3.6,0-5.4,0l0,0
			c0-1.8,0-3.6,0-5.4c-0.9,0-1.8,0-2.6,0c0-0.2,0-0.4,0-0.6c0-1.4,0-2.9,0-4.3C32.7,27.6,32.8,27.4,32.8,27.2
			C32.8,27.2,32.8,27.2,32.8,27.2z"/>
		<path class="st7" d="M3,32.7c0-1.8,0-3.6,0-5.4c3.6,0,7.1,0,10.7,0c0,1.8,0,3.6,0,5.4C10.2,32.7,6.6,32.7,3,32.7z"/>
		<path class="st7" d="M27.2,27.2c0,0.1,0.1,0.2,0.1,0.3c0,1.7,0,3.4,0,5.2c-2.7,0-5.3,0-8,0c0-1.8,0-3.5,0-5.4c0.2,0,0.4,0,0.6,0
			c2.3,0,4.6,0,6.9,0C26.8,27.3,27,27.3,27.2,27.2L27.2,27.2z"/>
		<path class="st7" d="M30,46.3c0-2.7,0-5.4,0-8.1c1.8,0,3.6,0,5.4,0c0,0,0,0,0,0c0,2.7,0,5.4,0,8.1l0,0
			C33.6,46.3,31.8,46.3,30,46.3L30,46.3z"/>
		<path class="st7" d="M51.6,40.8c1.5,0,3.1,0,4.6,0c0.2,0,0.5,0,0.7,0c0,1.8,0,3.6,0,5.5c-1.8,0-3.6,0-5.4,0c0,0,0,0,0,0
			C51.6,44.4,51.6,42.6,51.6,40.8L51.6,40.8z"/>
		<path class="st7" d="M27.2,27.2c0-0.2,0.1-0.5,0.1-0.7c0-1.4,0-2.8,0-4.2c0-0.2,0-0.3-0.1-0.5c0,0,0,0,0,0c1.8,0,3.6,0,5.5,0
			c0,0.2,0,0.4,0,0.6c0,1.4,0,2.8,0,4.2c0,0.2,0,0.3,0.1,0.5c0,0,0,0,0,0c0,0,0,0,0,0C30.9,27.2,29.1,27.2,27.2,27.2
			C27.2,27.2,27.2,27.2,27.2,27.2z"/>
	</g>
</g>
<g id="Capa_1_copia_6">
	<g>
		<path class="st8" d="M27.2,13.7c0,0.2,0,0.3,0.1,0.5c0,2.4,0,4.8,0,7.1c0,0.2,0,0.3-0.1,0.5c0,0,0,0,0,0c-8.1,0-16.1,0-24.2,0
			C3,15.6,3,9.3,3,3c6.3,0,12.6,0,18.9,0c0,3.6,0,7.2,0,10.8C23.7,13.8,25.5,13.8,27.2,13.7C27.3,13.8,27.2,13.7,27.2,13.7z
			 M8.4,8.4c0,2.7,0,5.4,0,8.1c2.7,0,5.4,0,8,0c0-2.7,0-5.4,0-8.1C13.8,8.4,11.1,8.4,8.4,8.4z"/>
		<path class="st8" d="M57,3c0,6.3,0,12.6,0,18.9c-6.3,0-12.6,0-18.9,0c0-0.1,0-0.2,0-0.3c0-6.1,0-12.2,0-18.3c0-0.1,0-0.1,0-0.2
			C44.4,3,50.7,3,57,3z M43.5,8.4c0,2.7,0,5.4,0,8c2.7,0,5.4,0,8,0c0-2.7,0-5.4,0-8C48.9,8.4,46.2,8.4,43.5,8.4z"/>
		<path class="st8" d="M32.7,3c0,0.3,0,0.5,0,0.8c0,3.1,0,6.2,0,9.3c0,0.2,0,0.4,0,0.7c-0.4,0-0.8,0-1.1,0c-1.5,0-2.9,0-4.4-0.1
			c0,0,0,0,0,0c0-2.8,0-5.6,0-8.4c0-0.8,0-1.6,0-2.4C29.1,3,30.9,3,32.7,3z"/>
		<path class="st8" d="M30,51.6c-2.7,0-5.4,0-8.1,0c0,1.8,0,3.6,0,5.3C15.6,57,9.3,57,3,57c0-6.2,0-12.5,0-18.8c6.2,0,12.5,0,18.8,0
			c0,2.6,0,5.3,0,8c0.2,0,0.4,0,0.6,0c2.3,0,4.7,0,7,0c0.2,0,0.3,0,0.5,0l0,0C30,48.1,30,49.9,30,51.6L30,51.6z M16.5,51.6
			c0-2.7,0-5.4,0-8c-2.7,0-5.4,0-8,0c0,2.7,0,5.4,0,8C11.1,51.6,13.8,51.6,16.5,51.6z"/>
		<path class="st8" d="M51.6,46.3c0,1.8,0,3.5,0,5.4c0.9,0,1.8,0,2.6,0c0,1.8,0,3.6,0,5.4c-2.7,0-5.3,0-8.1,0c0-1.8,0-3.5,0-5.3
			c-1.8,0-3.6,0-5.4,0c0,1.8,0,3.5,0,5.3c-3.6,0-7.2,0-10.8,0c0-1.8,0-3.6,0-5.4l0,0c1.8,0,3.6,0,5.4,0c0-1.9,0-3.6,0-5.4
			c0,0,0,0,0,0c0.2,0,0.3,0,0.5,0c5.1,0,10.2,0,15.3,0C51.3,46.2,51.5,46.3,51.6,46.3C51.6,46.3,51.6,46.3,51.6,46.3z"/>
		<path class="st8" d="M32.8,27.2c0.2,0,0.4,0.1,0.6,0.1c5.9,0,11.8,0,17.6,0c0.2,0,0.4,0,0.6,0c0,4.5,0,9,0,13.5l0,0
			c-1.8,0-3.5,0-5.3,0c0,0-0.1,0-0.1-0.1c0-2.6,0-5.2,0-7.9c-1.8,0-3.6,0-5.4,0c0,1.8,0,3.5,0,5.4c-1.8,0-3.6,0-5.4,0l0,0
			c0-1.8,0-3.6,0-5.4c-0.9,0-1.8,0-2.6,0c0-0.2,0-0.4,0-0.6c0-1.4,0-2.9,0-4.3C32.7,27.6,32.8,27.4,32.8,27.2
			C32.8,27.2,32.8,27.2,32.8,27.2z"/>
		<path class="st8" d="M3,32.7c0-1.8,0-3.6,0-5.4c3.6,0,7.1,0,10.7,0c0,1.8,0,3.6,0,5.4C10.2,32.7,6.6,32.7,3,32.7z"/>
		<path class="st8" d="M27.2,27.2c0,0.1,0.1,0.2,0.1,0.3c0,1.7,0,3.4,0,5.2c-2.7,0-5.3,0-8,0c0-1.8,0-3.5,0-5.4c0.2,0,0.4,0,0.6,0
			c2.3,0,4.6,0,6.9,0C26.8,27.3,27,27.3,27.2,27.2L27.2,27.2z"/>
		<path class="st8" d="M30,46.3c0-2.7,0-5.4,0-8.1c1.8,0,3.6,0,5.4,0c0,0,0,0,0,0c0,2.7,0,5.4,0,8.1l0,0
			C33.6,46.3,31.8,46.3,30,46.3L30,46.3z"/>
		<path class="st8" d="M51.6,40.8c1.5,0,3.1,0,4.6,0c0.2,0,0.5,0,0.7,0c0,1.8,0,3.6,0,5.5c-1.8,0-3.6,0-5.4,0c0,0,0,0,0,0
			C51.6,44.4,51.6,42.6,51.6,40.8L51.6,40.8z"/>
		<path class="st8" d="M27.2,27.2c0-0.2,0.1-0.5,0.1-0.7c0-1.4,0-2.8,0-4.2c0-0.2,0-0.3-0.1-0.5c0,0,0,0,0,0c1.8,0,3.6,0,5.5,0
			c0,0.2,0,0.4,0,0.6c0,1.4,0,2.8,0,4.2c0,0.2,0,0.3,0.1,0.5c0,0,0,0,0,0c0,0,0,0,0,0C30.9,27.2,29.1,27.2,27.2,27.2
			C27.2,27.2,27.2,27.2,27.2,27.2z"/>
	</g>
</g>
<g id="Capa_1_copia_7" class="st0">
	<g class="st2">
		<path class="st10" d="M27.2,13.7c0,0.2,0,0.3,0.1,0.5c0,2.4,0,4.8,0,7.1c0,0.2,0,0.3-0.1,0.5c0,0,0,0,0,0c-8.1,0-16.1,0-24.2,0
			C3,15.6,3,9.3,3,3c6.3,0,12.6,0,18.9,0c0,3.6,0,7.2,0,10.8C23.7,13.8,25.5,13.8,27.2,13.7C27.3,13.8,27.2,13.7,27.2,13.7z
			 M8.4,8.4c0,2.7,0,5.4,0,8.1c2.7,0,5.4,0,8,0c0-2.7,0-5.4,0-8.1C13.8,8.4,11.1,8.4,8.4,8.4z"/>
		<path class="st10" d="M57,3c0,6.3,0,12.6,0,18.9c-6.3,0-12.6,0-18.9,0c0-0.1,0-0.2,0-0.3c0-6.1,0-12.2,0-18.3c0-0.1,0-0.1,0-0.2
			C44.4,3,50.7,3,57,3z M43.5,8.4c0,2.7,0,5.4,0,8c2.7,0,5.4,0,8,0c0-2.7,0-5.4,0-8C48.9,8.4,46.2,8.4,43.5,8.4z"/>
		<path class="st10" d="M32.7,3c0,0.3,0,0.5,0,0.8c0,3.1,0,6.2,0,9.3c0,0.2,0,0.4,0,0.7c-0.4,0-0.8,0-1.1,0c-1.5,0-2.9,0-4.4-0.1
			c0,0,0,0,0,0c0-2.8,0-5.6,0-8.4c0-0.8,0-1.6,0-2.4C29.1,3,30.9,3,32.7,3z"/>
		<path class="st10" d="M30,51.6c-2.7,0-5.4,0-8.1,0c0,1.8,0,3.6,0,5.3C15.6,57,9.3,57,3,57c0-6.2,0-12.5,0-18.8
			c6.2,0,12.5,0,18.8,0c0,2.6,0,5.3,0,8c0.2,0,0.4,0,0.6,0c2.3,0,4.7,0,7,0c0.2,0,0.3,0,0.5,0l0,0C30,48.1,30,49.9,30,51.6L30,51.6z
			 M16.5,51.6c0-2.7,0-5.4,0-8c-2.7,0-5.4,0-8,0c0,2.7,0,5.4,0,8C11.1,51.6,13.8,51.6,16.5,51.6z"/>
		<path class="st10" d="M51.6,46.3c0,1.8,0,3.5,0,5.4c0.9,0,1.8,0,2.6,0c0,1.8,0,3.6,0,5.4c-2.7,0-5.3,0-8.1,0c0-1.8,0-3.5,0-5.3
			c-1.8,0-3.6,0-5.4,0c0,1.8,0,3.5,0,5.3c-3.6,0-7.2,0-10.8,0c0-1.8,0-3.6,0-5.4l0,0c1.8,0,3.6,0,5.4,0c0-1.9,0-3.6,0-5.4
			c0,0,0,0,0,0c0.2,0,0.3,0,0.5,0c5.1,0,10.2,0,15.3,0C51.3,46.2,51.5,46.3,51.6,46.3C51.6,46.3,51.6,46.3,51.6,46.3z"/>
		<path class="st10" d="M32.8,27.2c0.2,0,0.4,0.1,0.6,0.1c5.9,0,11.8,0,17.6,0c0.2,0,0.4,0,0.6,0c0,4.5,0,9,0,13.5l0,0
			c-1.8,0-3.5,0-5.3,0c0,0-0.1,0-0.1-0.1c0-2.6,0-5.2,0-7.9c-1.8,0-3.6,0-5.4,0c0,1.8,0,3.5,0,5.4c-1.8,0-3.6,0-5.4,0l0,0
			c0-1.8,0-3.6,0-5.4c-0.9,0-1.8,0-2.6,0c0-0.2,0-0.4,0-0.6c0-1.4,0-2.9,0-4.3C32.7,27.6,32.8,27.4,32.8,27.2
			C32.8,27.2,32.8,27.2,32.8,27.2z"/>
		<path class="st10" d="M3,32.7c0-1.8,0-3.6,0-5.4c3.6,0,7.1,0,10.7,0c0,1.8,0,3.6,0,5.4C10.2,32.7,6.6,32.7,3,32.7z"/>
		<path class="st10" d="M27.2,27.2c0,0.1,0.1,0.2,0.1,0.3c0,1.7,0,3.4,0,5.2c-2.7,0-5.3,0-8,0c0-1.8,0-3.5,0-5.4c0.2,0,0.4,0,0.6,0
			c2.3,0,4.6,0,6.9,0C26.8,27.3,27,27.3,27.2,27.2L27.2,27.2z"/>
		<path class="st10" d="M30,46.3c0-2.7,0-5.4,0-8.1c1.8,0,3.6,0,5.4,0c0,0,0,0,0,0c0,2.7,0,5.4,0,8.1l0,0
			C33.6,46.3,31.8,46.3,30,46.3L30,46.3z"/>
		<path class="st10" d="M51.6,40.8c1.5,0,3.1,0,4.6,0c0.2,0,0.5,0,0.7,0c0,1.8,0,3.6,0,5.5c-1.8,0-3.6,0-5.4,0c0,0,0,0,0,0
			C51.6,44.4,51.6,42.6,51.6,40.8L51.6,40.8z"/>
		<path class="st10" d="M27.2,27.2c0-0.2,0.1-0.5,0.1-0.7c0-1.4,0-2.8,0-4.2c0-0.2,0-0.3-0.1-0.5c0,0,0,0,0,0c1.8,0,3.6,0,5.5,0
			c0,0.2,0,0.4,0,0.6c0,1.4,0,2.8,0,4.2c0,0.2,0,0.3,0.1,0.5c0,0,0,0,0,0c0,0,0,0,0,0C30.9,27.2,29.1,27.2,27.2,27.2
			C27.2,27.2,27.2,27.2,27.2,27.2z"/>
	</g>
</g>
</svg>
