<?xml version="1.0" encoding="utf-8"?>
<!-- Generator: Adobe Illustrator 24.0.2, SVG Export Plug-In . SVG Version: 6.00 Build 0)  -->
<svg version="1.1" xmlns="http://www.w3.org/2000/svg" xmlns:xlink="http://www.w3.org/1999/xlink" x="0px" y="0px"
	 viewBox="0 0 60 60" style="enable-background:new 0 0 60 60;" xml:space="preserve">
<style type="text/css">
	.st0{display:none;}
	.st1{display:inline;}
	.st2{fill:#FFFFFF;}
</style>
<g id="Capa_1" class="st0">
</g>
<g id="Capa_2">
	<g>
		<path class="st2" d="M45.5,57.1c-13.3,0-26.5,0-39.8,0c0,0-0.1-0.1-0.1-0.1C3.9,56.5,3,55.3,3,53.5c0-1.2,0-2.3,0-3.5
			C3,35.5,3,21,3,6.5c0-2.2,1.4-3.6,3.4-3.6c12.8,0,25.6,0,38.4,0c2,0,3.4,1.4,3.4,3.4c0,1,0,1.9,0,2.9c0,0.2-0.1,0.4-0.3,0.5
			c-0.6,0.5-1.3,1-1.9,1.6c-2.1,2.1-4.2,4.2-6.4,6.4c-0.1,0.1-0.2,0.3-0.3,0.5c-0.1-0.1-0.1-0.1-0.2-0.2c-0.4-2.2-1.3-3-3.6-3
			c-2.2,0-4.4,0-6.6,0c-4.7,0-9.5,0-14.2,0c-1.3,0-2.4,0.9-2.8,2.1c-0.4,1.2,0.1,2.5,1.1,3.2c0.6,0.4,1.3,0.6,2,0.6
			c6.8,0,13.6,0,20.4,0c0.2,0,0.4,0,0.7,0c-1.7,1.7-3.2,3.2-4.8,4.8c-0.3,0.3-0.5,0.4-0.9,0.4c-5.1,0-10.2,0-15.3,0
			c-0.3,0-0.6,0-0.9,0c-1.6,0.2-2.7,1.8-2.5,3.3C12.3,31,13.5,32,15,32c3.2,0,6.5,0,9.7,0c0.2,0,0.4,0,0.7,0
			c-0.8,0.8-1.4,1.4-2.1,2.1c-0.8,0.8-1.4,1.7-1.8,2.7c-0.1,0.3-0.3,0.4-0.7,0.4c-1.9,0-3.8,0-5.7,0c-1.8,0-3.1,1.3-3.1,3
			c0,1.6,1.3,2.9,3,2.9c1.4,0,2.7,0,4.1,0c0.2,0,0.3,0,0.5,0c-0.1,0.6-0.2,1-0.2,1.5c-0.1,3.3,2.9,5.7,6.2,4.9
			c1.5-0.4,3.1-0.8,4.6-1.2c2.1-0.5,3.8-1.5,5.4-3.1c4-4.1,8.1-8.1,12.2-12.2c0.1-0.1,0.3-0.3,0.5-0.5c0,0.3,0,0.5,0,0.7
			c0,1.7,0,3.5,0,5.2c0,5,0,10,0,15c0,1.8-0.9,2.9-2.6,3.4C45.7,57,45.6,57,45.5,57.1z"/>
		<path class="st2" d="M44.6,17.8c2.2,2.2,4.5,4.5,6.7,6.7c-0.1,0.1-0.2,0.2-0.3,0.4C44.9,31,38.8,37.1,32.7,43.2
			c-0.7,0.7-1.6,1.3-2.6,1.5c-1.8,0.4-3.5,0.9-5.3,1.3c-1.2,0.3-2.1-0.5-1.8-1.8c0.5-1.8,0.9-3.6,1.4-5.4c0.2-0.8,0.6-1.6,1.2-2.2
			c6.3-6.3,12.5-12.5,18.8-18.8C44.5,17.9,44.6,17.8,44.6,17.8z"/>
		<path class="st2" d="M47.2,15.1c0.9-0.8,1.7-1.7,2.7-2.3c2-1.3,4.5-0.8,6.1,1c1.5,1.7,1.5,4.3,0,6.1c-0.6,0.7-1.3,1.3-2,1.9
			C51.7,19.7,49.5,17.4,47.2,15.1z"/>
	</g>
</g>
</svg>
