<?xml version="1.0" encoding="utf-8"?>
<!-- Generator: Adobe Illustrator 24.0.2, SVG Export Plug-In . SVG Version: 6.00 Build 0)  -->
<svg version="1.1" xmlns="http://www.w3.org/2000/svg" xmlns:xlink="http://www.w3.org/1999/xlink" x="0px" y="0px"
	 viewBox="0 0 60 60" style="enable-background:new 0 0 60 60;" xml:space="preserve">
<style type="text/css">
	.st0{fill:#FFFFFF;}
</style>
<g id="Capa_1">
</g>
<g id="Capa_2">
	<g>
		<path class="st0" d="M31.1,58c-0.7,0-1.5,0-2.2,0c-0.6-0.1-1.1-0.1-1.7-0.2c-3-0.4-5.7-1.5-8.2-3.2c-3.5-2.4-6-5.7-7.3-9.7
			c-1.2-3.6-1.4-7.2-0.2-10.8c1.2-3.7,2.7-7.2,4.5-10.6c3.6-6.9,7.8-13.6,12.1-20c0.4-0.6,0.8-1.1,1.4-1.3c0.3,0,0.6,0,0.9,0
			c0.6,0.3,1.1,0.8,1.4,1.3c3.8,5.6,7.4,11.3,10.6,17.2c2.3,4.2,4.4,8.6,5.9,13.2c1.6,5,1,9.8-1.5,14.3c-2.7,5-7,8.1-12.5,9.5
			C33.3,57.7,32.2,57.8,31.1,58z M15,38.1c0.1,2,0.5,3.9,1.3,5.7c1.9,4.8,5.2,8,10.3,9.1c1,0.2,2,0,2.7-0.8c0.7-0.8,0.9-1.7,0.6-2.6
			c-0.3-1-1.1-1.6-2.2-1.8c-1.3-0.3-2.5-0.8-3.5-1.6c-1.9-1.5-2.9-3.5-3.5-5.8c-0.2-1.1-0.3-2.2-0.5-3.2c-0.3-1.6-1.7-2.5-3.2-2.2
			C15.6,35.2,14.8,36.4,15,38.1z"/>
	</g>
</g>
</svg>
