<?xml version="1.0" encoding="utf-8"?>
<!-- Generator: Adobe Illustrator 24.0.2, SVG Export Plug-In . SVG Version: 6.00 Build 0)  -->
<svg version="1.1" xmlns="http://www.w3.org/2000/svg" xmlns:xlink="http://www.w3.org/1999/xlink" x="0px" y="0px"
	 viewBox="0 0 150 150" style="enable-background:new 0 0 150 150;" xml:space="preserve">
<style type="text/css">
	.st0{display:none;}
	.st1{display:inline;}
	.st2{fill:#c89211;}
	.st3{fill:#FFFFFF;}
</style>
<g id="Sky" class="st0">
	<g class="st1">
		<g>
			<path class="st2" d="M90.3,2.5c2.9,0.7,5.8,1.4,8.8,2.1c1.1,0.3,1.5,0.9,1.5,2.1c-0.1,4.2,0,8.4,0,12.7c-8.5,0-16.9,0-25.5,0
				c0-1.5,0-3.1,0-4.6c0-2.8,0-5.7,0-8.5c0-0.9,0.2-1.3,1.1-1.5c2.7-0.7,5.5-1.4,8.2-2c0.3-0.1,0.6-0.2,0.9-0.2
				C86.9,2.5,88.6,2.5,90.3,2.5z"/>
			<path class="st2" d="M41.2,11.1c8.5,0,16.8,0,25.3,0c0,5.6,0,11.2,0,16.8c14.2,0,28.3,0,42.4,0c0-5.6,0-11.1,0-16.8
				c8.5,0,16.9,0,25.4,0c0,45.4,0,90.8,0,136.3c-21.8,0-43.7,0-65.7,0c0.2-0.3,0.4-0.6,0.6-0.9c3.7-4.7,5.7-10.1,5.7-16.1
				c0-5.6,0-11.1,0-16.9c-0.6,0-1,0-1.5,0c-4.5,0-9,0.1-13.4,0c-7-0.2-13.3,1.7-18.9,6.4C41.2,83.5,41.2,47.3,41.2,11.1z M92,54
				c0-2.9,0-5.7,0-8.4c-2.9,0-5.7,0-8.5,0c0,2.8,0,5.5,0,8.4c-2.9,0-5.6,0-8.3,0c0,2.9,0,5.7,0,8.5c2.8,0,5.5,0,8.4,0
				c0,2.9,0,5.6,0,8.3c2.9,0,5.7,0,8.5,0c0-2.8,0-5.5,0-8.4c2.9,0,5.6,0,8.3,0c0-2.9,0-5.7,0-8.5C97.6,54,94.9,54,92,54z M109,79.6
				c-14.2,0-28.3,0-42.3,0c0,2.9,0,5.6,0,8.3c14.2,0,28.2,0,42.3,0C109,85.2,109,82.4,109,79.6z M109,96.6c-14.2,0-28.2,0-42.3,0
				c0,2.8,0,5.6,0,8.3c14.2,0,28.2,0,42.3,0C109,102.1,109,99.4,109,96.6z"/>
			<path class="st2" d="M66.8,122c-0.3,4.3-0.1,8.5-0.9,12.5c-1.6,7.7-8.5,12.9-16.3,13c-5.8,0-11.5,0-17.3,0
				c-9.2-0.1-16.7-7.6-16.8-16.8c0-2.8,0-5.7,0-8.6c0.4,0,0.8-0.1,1.1-0.1c3.6,0.1,7.3-0.3,10.8,0.4c7.2,1.5,11.5,6.2,13.2,13.3
				c0.1,0.2,0.1,0.5,0.2,0.7c0,0,0.1,0,0.2,0.1c0.2-0.6,0.3-1.2,0.5-1.8c1.9-7.3,8.6-12.6,16.1-12.7C60.6,122,63.5,122,66.8,122z"/>
		</g>
	</g>
</g>
<g id="White">
	<g>
		<g>
			<path class="st3" d="M90.3,2.5c2.9,0.7,5.8,1.4,8.8,2.1c1.1,0.3,1.5,0.9,1.5,2.1c-0.1,4.2,0,8.4,0,12.7c-8.5,0-16.9,0-25.5,0
				c0-1.5,0-3.1,0-4.6c0-2.8,0-5.7,0-8.5c0-0.9,0.2-1.3,1.1-1.5c2.7-0.7,5.5-1.4,8.2-2c0.3-0.1,0.6-0.2,0.9-0.2
				C86.9,2.5,88.6,2.5,90.3,2.5z"/>
			<path class="st3" d="M41.2,11.1c8.5,0,16.8,0,25.3,0c0,5.6,0,11.2,0,16.8c14.2,0,28.3,0,42.4,0c0-5.6,0-11.1,0-16.8
				c8.5,0,16.9,0,25.4,0c0,45.4,0,90.8,0,136.3c-21.8,0-43.7,0-65.7,0c0.2-0.3,0.4-0.6,0.6-0.9c3.7-4.7,5.7-10.1,5.7-16.1
				c0-5.6,0-11.1,0-16.9c-0.6,0-1,0-1.5,0c-4.5,0-9,0.1-13.4,0c-7-0.2-13.3,1.7-18.9,6.4C41.2,83.5,41.2,47.3,41.2,11.1z M92,54
				c0-2.9,0-5.7,0-8.4c-2.9,0-5.7,0-8.5,0c0,2.8,0,5.5,0,8.4c-2.9,0-5.6,0-8.3,0c0,2.9,0,5.7,0,8.5c2.8,0,5.5,0,8.4,0
				c0,2.9,0,5.6,0,8.3c2.9,0,5.7,0,8.5,0c0-2.8,0-5.5,0-8.4c2.9,0,5.6,0,8.3,0c0-2.9,0-5.7,0-8.5C97.6,54,94.9,54,92,54z M109,79.6
				c-14.2,0-28.3,0-42.3,0c0,2.9,0,5.6,0,8.3c14.2,0,28.2,0,42.3,0C109,85.2,109,82.4,109,79.6z M109,96.6c-14.2,0-28.2,0-42.3,0
				c0,2.8,0,5.6,0,8.3c14.2,0,28.2,0,42.3,0C109,102.1,109,99.4,109,96.6z"/>
			<path class="st3" d="M66.8,122c-0.3,4.3-0.1,8.5-0.9,12.5c-1.6,7.7-8.5,12.9-16.3,13c-5.8,0-11.5,0-17.3,0
				c-9.2-0.1-16.7-7.6-16.8-16.8c0-2.8,0-5.7,0-8.6c0.4,0,0.8-0.1,1.1-0.1c3.6,0.1,7.3-0.3,10.8,0.4c7.2,1.5,11.5,6.2,13.2,13.3
				c0.1,0.2,0.1,0.5,0.2,0.7c0,0,0.1,0,0.2,0.1c0.2-0.6,0.3-1.2,0.5-1.8c1.9-7.3,8.6-12.6,16.1-12.7C60.6,122,63.5,122,66.8,122z"/>
		</g>
	</g>
</g>
</svg>
