<?xml version="1.0" encoding="utf-8"?>
<!-- Generator: Adobe Illustrator 24.0.2, SVG Export Plug-In . SVG Version: 6.00 Build 0)  -->
<svg version="1.1" id="Capa_1" xmlns="http://www.w3.org/2000/svg" xmlns:xlink="http://www.w3.org/1999/xlink" x="0px" y="0px"
	 viewBox="0 0 60 60" style="enable-background:new 0 0 60 60;" xml:space="preserve">
<style type="text/css">
	.st0{display:none;}
	.st1{display:inline;}
	.st2{fill:#131E29;}
	.st3{fill:#88A91E;}
	.st4{fill:#1E9091;}
	.st5{fill:#9CA9AF;}
	.st6{fill:#FFFFFF;}
</style>
<g id="Capa_1_copia_3" class="st0">
	<g class="st1">
		<path class="st2" d="M31.5,4c1,0.1,2,0.2,3,0.4c4.8,0.8,9,2.9,12.7,6.1c0,0,0,0.1,0,0c-2.9,2.9-5.7,5.7-8.7,8.7
			c-2.5-1.9-5.3-3-8.5-3s-6.1,1.1-8.6,3c-2.9-2.9-5.8-5.8-8.7-8.7c2-1.8,4.4-3.3,6.9-4.4C22.3,4.9,25.1,4.2,28,4
			c0.1,0,0.3-0.1,0.4-0.1C29.5,4,30.5,4,31.5,4z"/>
		<path class="st2" d="M4,28.5c0.1-1,0.2-2,0.4-3c0.9-4.8,2.9-9,6.1-12.7c2.9,2.9,5.8,5.8,8.7,8.6c-4.1,5.3-3.8,12.3,0,17.1
			c-2.9,2.9-5.8,5.8-8.6,8.6C7.9,44,5.9,40.4,4.9,36.4c-0.4-1.5-0.5-3-0.7-4.4c0-0.2-0.1-0.3-0.1-0.5C4,30.5,4,29.5,4,28.5z"/>
		<path class="st2" d="M14,4c0.6,0.2,1.3,0.3,2,0.5c-1.3,0.9-2.5,1.8-3.8,2.6c-0.4,0.2-0.9,0.3-1.3,0.5c-1.8,0.8-3,2.2-3.5,4.1
			c0,0.2-0.1,0.3-0.2,0.5c-0.9,1.3-1.7,2.5-2.6,3.8c-0.2-0.7-0.3-1.3-0.5-2c0-0.6,0-1.2,0-1.7c0-0.2,0.1-0.3,0.1-0.5
			c0.6-3.1,2.2-5.4,5-6.8c1-0.5,2-0.6,3.1-1C12.8,4,13.4,4,14,4z"/>
		<path class="st2" d="M47.8,4c1,0.3,2.2,0.5,3.2,1c3.8,1.8,5.8,6.3,4.7,10.4c0,0.2-0.1,0.3-0.2,0.4c-0.9-1.3-1.8-2.5-2.6-3.8
			c-0.2-0.4-0.3-0.9-0.5-1.3c-0.8-1.8-2.2-3-4.1-3.5c-0.2,0-0.3-0.1-0.5-0.2c-1.3-0.9-2.5-1.7-3.8-2.6c0.7-0.2,1.3-0.3,2-0.5
			C46.6,4,47.2,4,47.8,4z"/>
		<path class="st2" d="M4,46c0.2-0.6,0.3-1.3,0.5-2c0.9,1.3,1.8,2.5,2.6,3.8c0.1,0.1,0.1,0.3,0.2,0.5c0.6,2.3,2.1,3.8,4.4,4.4
			c0.1,0,0.3,0.1,0.4,0.1c1.2,0.9,2.5,1.7,3.8,2.6c-1.2,0.4-2.4,0.6-3.6,0.4C8,55.3,4.8,52.3,4.1,48c0,0-0.1-0.1-0.1-0.2
			C4,47.2,4,46.6,4,46z"/>
		<path class="st2" d="M40.8,21.4c2.9-2.9,5.8-5.8,8.6-8.6c8.5,9.2,9,24.4,0,34.4c-2.9-2.9-5.8-5.8-8.6-8.6
			C44.9,33.3,44.7,26.4,40.8,21.4z"/>
		<path class="st2" d="M12.8,49.5c2.9-2.9,5.8-5.8,8.6-8.6c5.7,4,11.5,4,17.2,0c2.9,2.9,5.7,5.7,8.6,8.6
			C37.6,58,22.8,58.3,12.8,49.5z"/>
		<path class="st2" d="M55.5,44.1c1.2,2.8,0.2,6.9-2.2,9.2c-2.7,2.6-6.6,3.2-9.2,2.1c0.4-0.3,0.8-0.5,1.2-0.7
			c0.5-0.3,0.9-0.6,1.3-0.9c0.7-0.5,1.4-1,2.3-1.3c2-0.7,3.3-2.1,3.8-4.2c0-0.2,0.1-0.3,0.2-0.5C53.8,46.6,54.6,45.4,55.5,44.1z"/>
	</g>
</g>
<g id="Capa_1_copia_4" class="st0">
	<g class="st1">
		<path class="st3" d="M31.5,4c1,0.1,2,0.2,3,0.4c4.8,0.8,9,2.9,12.7,6.1c0,0,0,0.1,0,0c-2.9,2.9-5.7,5.7-8.7,8.7
			c-2.5-1.9-5.3-3-8.5-3s-6.1,1.1-8.6,3c-2.9-2.9-5.8-5.8-8.7-8.7c2-1.8,4.4-3.3,6.9-4.4C22.3,4.9,25.1,4.2,28,4
			c0.1,0,0.3-0.1,0.4-0.1C29.5,4,30.5,4,31.5,4z"/>
		<path class="st3" d="M4,28.5c0.1-1,0.2-2,0.4-3c0.9-4.8,2.9-9,6.1-12.7c2.9,2.9,5.8,5.8,8.7,8.6c-4.1,5.3-3.8,12.3,0,17.1
			c-2.9,2.9-5.8,5.8-8.6,8.6C7.9,44,5.9,40.4,4.9,36.4c-0.4-1.5-0.5-3-0.7-4.4c0-0.2-0.1-0.3-0.1-0.5C4,30.5,4,29.5,4,28.5z"/>
		<path class="st3" d="M14,4c0.6,0.2,1.3,0.3,2,0.5c-1.3,0.9-2.5,1.8-3.8,2.6c-0.4,0.2-0.9,0.3-1.3,0.5c-1.8,0.8-3,2.2-3.5,4.1
			c0,0.2-0.1,0.3-0.2,0.5c-0.9,1.3-1.7,2.5-2.6,3.8c-0.2-0.7-0.3-1.3-0.5-2c0-0.6,0-1.2,0-1.7c0-0.2,0.1-0.3,0.1-0.5
			c0.6-3.1,2.2-5.4,5-6.8c1-0.5,2-0.6,3.1-1C12.8,4,13.4,4,14,4z"/>
		<path class="st3" d="M47.8,4c1,0.3,2.2,0.5,3.2,1c3.8,1.8,5.8,6.3,4.7,10.4c0,0.2-0.1,0.3-0.2,0.4c-0.9-1.3-1.8-2.5-2.6-3.8
			c-0.2-0.4-0.3-0.9-0.5-1.3c-0.8-1.8-2.2-3-4.1-3.5c-0.2,0-0.3-0.1-0.5-0.2c-1.3-0.9-2.5-1.7-3.8-2.6c0.7-0.2,1.3-0.3,2-0.5
			C46.6,4,47.2,4,47.8,4z"/>
		<path class="st3" d="M4,46c0.2-0.6,0.3-1.3,0.5-2c0.9,1.3,1.8,2.5,2.6,3.8c0.1,0.1,0.1,0.3,0.2,0.5c0.6,2.3,2.1,3.8,4.4,4.4
			c0.1,0,0.3,0.1,0.4,0.1c1.2,0.9,2.5,1.7,3.8,2.6c-1.2,0.4-2.4,0.6-3.6,0.4C8,55.3,4.8,52.3,4.1,48c0,0-0.1-0.1-0.1-0.2
			C4,47.2,4,46.6,4,46z"/>
		<path class="st3" d="M40.8,21.4c2.9-2.9,5.8-5.8,8.6-8.6c8.5,9.2,9,24.4,0,34.4c-2.9-2.9-5.8-5.8-8.6-8.6
			C44.9,33.3,44.7,26.4,40.8,21.4z"/>
		<path class="st3" d="M12.8,49.5c2.9-2.9,5.8-5.8,8.6-8.6c5.7,4,11.5,4,17.2,0c2.9,2.9,5.7,5.7,8.6,8.6
			C37.6,58,22.8,58.3,12.8,49.5z"/>
		<path class="st3" d="M55.5,44.1c1.2,2.8,0.2,6.9-2.2,9.2c-2.7,2.6-6.6,3.2-9.2,2.1c0.4-0.3,0.8-0.5,1.2-0.7
			c0.5-0.3,0.9-0.6,1.3-0.9c0.7-0.5,1.4-1,2.3-1.3c2-0.7,3.3-2.1,3.8-4.2c0-0.2,0.1-0.3,0.2-0.5C53.8,46.6,54.6,45.4,55.5,44.1z"/>
	</g>
</g>
<g id="Capa_1_copia_5" class="st0">
	<g class="st1">
		<path class="st4" d="M31.5,4c1,0.1,2,0.2,3,0.4c4.8,0.8,9,2.9,12.7,6.1c0,0,0,0.1,0,0c-2.9,2.9-5.7,5.7-8.7,8.7
			c-2.5-1.9-5.3-3-8.5-3s-6.1,1.1-8.6,3c-2.9-2.9-5.8-5.8-8.7-8.7c2-1.8,4.4-3.3,6.9-4.4C22.3,4.9,25.1,4.2,28,4
			c0.1,0,0.3-0.1,0.4-0.1C29.5,4,30.5,4,31.5,4z"/>
		<path class="st4" d="M4,28.5c0.1-1,0.2-2,0.4-3c0.9-4.8,2.9-9,6.1-12.7c2.9,2.9,5.8,5.8,8.7,8.6c-4.1,5.3-3.8,12.3,0,17.1
			c-2.9,2.9-5.8,5.8-8.6,8.6C7.9,44,5.9,40.4,4.9,36.4c-0.4-1.5-0.5-3-0.7-4.4c0-0.2-0.1-0.3-0.1-0.5C4,30.5,4,29.5,4,28.5z"/>
		<path class="st4" d="M14,4c0.6,0.2,1.3,0.3,2,0.5c-1.3,0.9-2.5,1.8-3.8,2.6c-0.4,0.2-0.9,0.3-1.3,0.5c-1.8,0.8-3,2.2-3.5,4.1
			c0,0.2-0.1,0.3-0.2,0.5c-0.9,1.3-1.7,2.5-2.6,3.8c-0.2-0.7-0.3-1.3-0.5-2c0-0.6,0-1.2,0-1.7c0-0.2,0.1-0.3,0.1-0.5
			c0.6-3.1,2.2-5.4,5-6.8c1-0.5,2-0.6,3.1-1C12.8,4,13.4,4,14,4z"/>
		<path class="st4" d="M47.8,4c1,0.3,2.2,0.5,3.2,1c3.8,1.8,5.8,6.3,4.7,10.4c0,0.2-0.1,0.3-0.2,0.4c-0.9-1.3-1.8-2.5-2.6-3.8
			c-0.2-0.4-0.3-0.9-0.5-1.3c-0.8-1.8-2.2-3-4.1-3.5c-0.2,0-0.3-0.1-0.5-0.2c-1.3-0.9-2.5-1.7-3.8-2.6c0.7-0.2,1.3-0.3,2-0.5
			C46.6,4,47.2,4,47.8,4z"/>
		<path class="st4" d="M4,46c0.2-0.6,0.3-1.3,0.5-2c0.9,1.3,1.8,2.5,2.6,3.8c0.1,0.1,0.1,0.3,0.2,0.5c0.6,2.3,2.1,3.8,4.4,4.4
			c0.1,0,0.3,0.1,0.4,0.1c1.2,0.9,2.5,1.7,3.8,2.6c-1.2,0.4-2.4,0.6-3.6,0.4C8,55.3,4.8,52.3,4.1,48c0,0-0.1-0.1-0.1-0.2
			C4,47.2,4,46.6,4,46z"/>
		<path class="st4" d="M40.8,21.4c2.9-2.9,5.8-5.8,8.6-8.6c8.5,9.2,9,24.4,0,34.4c-2.9-2.9-5.8-5.8-8.6-8.6
			C44.9,33.3,44.7,26.4,40.8,21.4z"/>
		<path class="st4" d="M12.8,49.5c2.9-2.9,5.8-5.8,8.6-8.6c5.7,4,11.5,4,17.2,0c2.9,2.9,5.7,5.7,8.6,8.6
			C37.6,58,22.8,58.3,12.8,49.5z"/>
		<path class="st4" d="M55.5,44.1c1.2,2.8,0.2,6.9-2.2,9.2c-2.7,2.6-6.6,3.2-9.2,2.1c0.4-0.3,0.8-0.5,1.2-0.7
			c0.5-0.3,0.9-0.6,1.3-0.9c0.7-0.5,1.4-1,2.3-1.3c2-0.7,3.3-2.1,3.8-4.2c0-0.2,0.1-0.3,0.2-0.5C53.8,46.6,54.6,45.4,55.5,44.1z"/>
	</g>
</g>
<g id="Capa_1_copia_7" class="st0">
	<g class="st1">
		<path class="st5" d="M31.5,4c1,0.1,2,0.2,3,0.4c4.8,0.8,9,2.9,12.7,6.1c0,0,0,0.1,0,0c-2.9,2.9-5.7,5.7-8.7,8.7
			c-2.5-1.9-5.3-3-8.5-3s-6.1,1.1-8.6,3c-2.9-2.9-5.8-5.8-8.7-8.7c2-1.8,4.4-3.3,6.9-4.4C22.3,4.9,25.1,4.2,28,4
			c0.1,0,0.3-0.1,0.4-0.1C29.5,4,30.5,4,31.5,4z"/>
		<path class="st5" d="M4,28.5c0.1-1,0.2-2,0.4-3c0.9-4.8,2.9-9,6.1-12.7c2.9,2.9,5.8,5.8,8.7,8.6c-4.1,5.3-3.8,12.3,0,17.1
			c-2.9,2.9-5.8,5.8-8.6,8.6C7.9,44,5.9,40.4,4.9,36.4c-0.4-1.5-0.5-3-0.7-4.4c0-0.2-0.1-0.3-0.1-0.5C4,30.5,4,29.5,4,28.5z"/>
		<path class="st5" d="M14,4c0.6,0.2,1.3,0.3,2,0.5c-1.3,0.9-2.5,1.8-3.8,2.6c-0.4,0.2-0.9,0.3-1.3,0.5c-1.8,0.8-3,2.2-3.5,4.1
			c0,0.2-0.1,0.3-0.2,0.5c-0.9,1.3-1.7,2.5-2.6,3.8c-0.2-0.7-0.3-1.3-0.5-2c0-0.6,0-1.2,0-1.7c0-0.2,0.1-0.3,0.1-0.5
			c0.6-3.1,2.2-5.4,5-6.8c1-0.5,2-0.6,3.1-1C12.8,4,13.4,4,14,4z"/>
		<path class="st5" d="M47.8,4c1,0.3,2.2,0.5,3.2,1c3.8,1.8,5.8,6.3,4.7,10.4c0,0.2-0.1,0.3-0.2,0.4c-0.9-1.3-1.8-2.5-2.6-3.8
			c-0.2-0.4-0.3-0.9-0.5-1.3c-0.8-1.8-2.2-3-4.1-3.5c-0.2,0-0.3-0.1-0.5-0.2c-1.3-0.9-2.5-1.7-3.8-2.6c0.7-0.2,1.3-0.3,2-0.5
			C46.6,4,47.2,4,47.8,4z"/>
		<path class="st5" d="M4,46c0.2-0.6,0.3-1.3,0.5-2c0.9,1.3,1.8,2.5,2.6,3.8c0.1,0.1,0.1,0.3,0.2,0.5c0.6,2.3,2.1,3.8,4.4,4.4
			c0.1,0,0.3,0.1,0.4,0.1c1.2,0.9,2.5,1.7,3.8,2.6c-1.2,0.4-2.4,0.6-3.6,0.4C8,55.3,4.8,52.3,4.1,48c0,0-0.1-0.1-0.1-0.2
			C4,47.2,4,46.6,4,46z"/>
		<path class="st5" d="M40.8,21.4c2.9-2.9,5.8-5.8,8.6-8.6c8.5,9.2,9,24.4,0,34.4c-2.9-2.9-5.8-5.8-8.6-8.6
			C44.9,33.3,44.7,26.4,40.8,21.4z"/>
		<path class="st5" d="M12.8,49.5c2.9-2.9,5.8-5.8,8.6-8.6c5.7,4,11.5,4,17.2,0c2.9,2.9,5.7,5.7,8.6,8.6
			C37.6,58,22.8,58.3,12.8,49.5z"/>
		<path class="st5" d="M55.5,44.1c1.2,2.8,0.2,6.9-2.2,9.2c-2.7,2.6-6.6,3.2-9.2,2.1c0.4-0.3,0.8-0.5,1.2-0.7
			c0.5-0.3,0.9-0.6,1.3-0.9c0.7-0.5,1.4-1,2.3-1.3c2-0.7,3.3-2.1,3.8-4.2c0-0.2,0.1-0.3,0.2-0.5C53.8,46.6,54.6,45.4,55.5,44.1z"/>
	</g>
</g>
<g>
	<path class="st6" d="M57,12c0,9,0,18,0,27c-0.3,0.7-0.5,1.4-0.9,1.9c-0.9,1.3-2.2,1.7-3.8,1.7c-8.8,0-17.7,0-26.5,0
		c-6.1,0-12.2,0-18.3,0c-2.8,0-4.6-1.8-4.6-4.6c0-8.4,0-16.8,0-25.2c0-0.7,0.1-1.5,0.4-2.1C4.2,9,5.6,8.3,7.4,8.3
		c15.1,0,30.2,0,45.2,0c0.2,0,0.3,0,0.5,0c0.9,0.1,1.7,0.4,2.4,1C56.4,10,56.8,10.9,57,12z"/>
	<path class="st6" d="M41.4,51.7c-7.4,0-14.8,0-22.2,0c0.1-0.1,0.1-0.2,0.2-0.3c1.4-1.9,2.9-3.7,4.3-5.6c0.1-0.2,0.5-0.3,0.7-0.3
		c3.9,0,7.9,0,11.8,0c0.2,0,0.5,0.1,0.6,0.3c1.5,1.9,3,3.9,4.5,5.8C41.4,51.6,41.4,51.6,41.4,51.7z"/>
</g>
</svg>
