<?xml version="1.0" encoding="utf-8"?>
<!-- Generator: Adobe Illustrator 24.0.2, SVG Export Plug-In . SVG Version: 6.00 Build 0)  -->
<svg version="1.1" xmlns="http://www.w3.org/2000/svg" xmlns:xlink="http://www.w3.org/1999/xlink" x="0px" y="0px"
	 viewBox="0 0 150 150" style="enable-background:new 0 0 150 150;" xml:space="preserve">
<style type="text/css">
	.st0{display:none;}
	.st1{display:inline;}
	.st2{fill:#c89211;}
	.st3{fill:#FFFFFF;}
</style>
<g id="Sky" class="st0">
	<g class="st1">
		<g>
			<path class="st2" d="M68.6,149c-2.6-0.2-5.3-0.4-7.9-0.6c-10.8-0.9-21.4-2.7-31.2-7.5c-3.7-1.8-7.2-4-9.8-7.4
				c-0.5-0.7-0.9-1.6-0.9-2.4c0.1-8.5,0.2-17.1,1.6-25.5c1.1-6.2,3-12.1,7.5-16.9c3.1-3.3,7-5.6,11.2-7.3c6.1-2.5,12.5-3.9,18.9-5.1
				c0.4-0.1,1,0.1,1.3,0.4c3.7,3.5,8.2,5,13.2,5.4c5,0.4,9.8-0.2,14.3-2.6c1.4-0.8,2.6-1.9,4-2.8c0.4-0.3,0.9-0.5,1.3-0.4
				c6.6,1.2,13.1,2.6,19.3,5.3c6,2.5,11,6.1,14.3,11.9c2.4,4.3,3.8,8.9,4.2,13.7c0.7,7.9,1,15.8,1.4,23.8c0,0.9-0.4,1.9-0.9,2.6
				c-3.4,4.3-8.1,6.8-13,8.8c-9.1,3.7-18.7,5.3-28.4,6.1c-2.4,0.2-4.9,0.4-7.3,0.6C77.3,149,73,149,68.6,149z"/>
			<path class="st2" d="M45.3,34.5c0.1-5.5,0.6-11,2.3-16.4C50.7,8.3,57.6,3.1,67.7,1.6C73.8,0.7,80,0.8,86,2.3
				c8,2.1,13.6,7,16.1,14.9c3.4,10.9,4,22.1,0.6,33.1c-2.9,9.3-8.4,16.8-17.6,20.8C76.4,75,68,73.9,60.3,68.6
				C52.4,63.1,48,55.3,46.2,46c-0.8-3.7-0.9-7.6-1.3-11.4C45,34.6,45.2,34.6,45.3,34.5z"/>
		</g>
	</g>
</g>
<g id="White">
	<g>
		<g>
			<path class="st3" d="M68.6,149c-2.6-0.2-5.3-0.4-7.9-0.6c-10.8-0.9-21.4-2.7-31.2-7.5c-3.7-1.8-7.2-4-9.8-7.4
				c-0.5-0.7-0.9-1.6-0.9-2.4c0.1-8.5,0.2-17.1,1.6-25.5c1.1-6.2,3-12.1,7.5-16.9c3.1-3.3,7-5.6,11.2-7.3c6.1-2.5,12.5-3.9,18.9-5.1
				c0.4-0.1,1,0.1,1.3,0.4c3.7,3.5,8.2,5,13.2,5.4c5,0.4,9.8-0.2,14.3-2.6c1.4-0.8,2.6-1.9,4-2.8c0.4-0.3,0.9-0.5,1.3-0.4
				c6.6,1.2,13.1,2.6,19.3,5.3c6,2.5,11,6.1,14.3,11.9c2.4,4.3,3.8,8.9,4.2,13.7c0.7,7.9,1,15.8,1.4,23.8c0,0.9-0.4,1.9-0.9,2.6
				c-3.4,4.3-8.1,6.8-13,8.8c-9.1,3.7-18.7,5.3-28.4,6.1c-2.4,0.2-4.9,0.4-7.3,0.6C77.3,149,73,149,68.6,149z"/>
			<path class="st3" d="M45.3,34.5c0.1-5.5,0.6-11,2.3-16.4C50.7,8.3,57.6,3.1,67.7,1.6C73.8,0.7,80,0.8,86,2.3
				c8,2.1,13.6,7,16.1,14.9c3.4,10.9,4,22.1,0.6,33.1c-2.9,9.3-8.4,16.8-17.6,20.8C76.4,75,68,73.9,60.3,68.6
				C52.4,63.1,48,55.3,46.2,46c-0.8-3.7-0.9-7.6-1.3-11.4C45,34.6,45.2,34.6,45.3,34.5z"/>
		</g>
	</g>
</g>
</svg>
