<?xml version="1.0" encoding="utf-8"?>
<!-- Generator: Adobe Illustrator 21.0.0, SVG Export Plug-In . SVG Version: 6.00 Build 0)  -->
<svg version="1.1" xmlns="http://www.w3.org/2000/svg" xmlns:xlink="http://www.w3.org/1999/xlink" x="0px" y="0px"
	 viewBox="0 0 60 60" style="enable-background:new 0 0 60 60;" xml:space="preserve">
<style type="text/css">
	.st0{display:none;}
	.st1{display:inline;fill:#131E29;}
	.st2{display:inline;}
	.st3{fill:#131E29;}
	.st4{display:inline;fill:#88A91E;}
	.st5{fill:#88A91E;}
	.st6{display:inline;fill:#1E9091;}
	.st7{fill:#1E9091;}
	.st8{fill:#FFFFFF;}
	.st9{display:inline;fill:#9CA9AF;}
	.st10{fill:#9CA9AF;}
</style>
<g id="Capa_1_copia_3" class="st0">
	<path class="st1" d="M26.1,1c2.5,0,5,0,7.5,0c0.9,0.3,1.3,1,1.5,1.8c0.4,1.9,0.9,3.8,1.4,5.8c0.1,0.4,0.3,0.5,0.6,0.7
		c0.8,0.3,1.7,0.7,2.5,1c0.3,0.2,0.6,0.2,0.9,0c1.7-1,3.4-2,5-3c1.1-0.6,1.7-0.6,2.6,0.3c1.4,1.4,2.8,2.8,4.2,4.2c1,1,1,1.6,0.3,2.8
		c-1,1.7-2,3.4-3,5c-0.2,0.3-0.2,0.5,0,0.8c0.4,0.9,0.7,1.7,1.1,2.6c0.1,0.3,0.3,0.5,0.7,0.6c2,0.5,4,1,6,1.5c1.2,0.3,1.6,0.8,1.6,2
		c0,2,0,4.1,0,6.1c0,1.2-0.4,1.8-1.6,2c-2,0.5-4,1-6,1.5c-0.3,0.1-0.5,0.2-0.7,0.6c-0.3,0.9-0.7,1.7-1,2.6c-0.1,0.3-0.2,0.6,0,0.9
		c1,1.7,2,3.4,3.1,5.1c0.6,1.1,0.5,1.7-0.3,2.6c-1.4,1.4-2.9,2.9-4.3,4.3c-0.9,0.9-1.6,1-2.7,0.3c-1.7-1-3.3-2-5-3
		c-0.3-0.2-0.6-0.2-0.9,0c-0.8,0.4-1.7,0.7-2.5,1c-0.4,0.1-0.5,0.3-0.6,0.7c-0.5,1.9-0.9,3.8-1.4,5.7c-0.3,1.2-0.9,1.6-2.1,1.6
		c-2,0-4,0-5.9,0c-1.4,0-1.9-0.4-2.3-1.8c-0.5-1.9-0.9-3.7-1.4-5.6c-0.1-0.3-0.2-0.5-0.6-0.7c-0.9-0.3-1.7-0.7-2.6-1
		c-0.3-0.1-0.6-0.2-0.9,0c-1.7,1-3.4,2-5.1,3.1c-1.1,0.6-1.7,0.5-2.6-0.3c-1.4-1.4-2.9-2.9-4.3-4.3c-0.9-0.9-1-1.6-0.3-2.7
		c1-1.7,2-3.4,3-5c0.2-0.3,0.2-0.5,0-0.8C9.7,39,9.3,38.1,9,37.2c-0.1-0.3-0.3-0.5-0.6-0.5c-1.9-0.5-3.8-1-5.7-1.4
		c-0.8-0.2-1.4-0.6-1.7-1.4c0-2.5,0-5,0-7.5c0.3-0.8,0.9-1.2,1.7-1.4c1.9-0.4,3.8-1,5.6-1.4c0.4-0.1,0.6-0.2,0.7-0.6
		c0.3-0.8,0.7-1.7,1-2.5c0.2-0.3,0.2-0.6,0-0.9c-1-1.7-2-3.3-3-5c-0.7-1.1-0.6-1.8,0.3-2.7c1.4-1.4,2.8-2.8,4.2-4.2
		c1-1,1.6-1.1,2.8-0.3c1.7,1,3.3,2,5,3c0.3,0.2,0.5,0.2,0.8,0.1c0.9-0.4,1.8-0.8,2.7-1.1c0.3-0.1,0.5-0.3,0.5-0.6
		c0.4-1.9,0.9-3.8,1.4-5.8C24.9,2,25.3,1.3,26.1,1z M29.9,21.6c-4.7,0-8.5,3.8-8.5,8.5c0,4.7,3.8,8.5,8.4,8.5c4.7,0,8.5-3.8,8.5-8.5
		C38.4,25.5,34.6,21.6,29.9,21.6z"/>
</g>
<g id="Capa_1_copia_4" class="st0">
	<path class="st4" d="M26.1,1c2.5,0,5,0,7.5,0c0.9,0.3,1.3,1,1.5,1.8c0.4,1.9,0.9,3.8,1.4,5.8c0.1,0.4,0.3,0.5,0.6,0.7
		c0.8,0.3,1.7,0.7,2.5,1c0.3,0.2,0.6,0.2,0.9,0c1.7-1,3.4-2,5-3c1.1-0.6,1.7-0.6,2.6,0.3c1.4,1.4,2.8,2.8,4.2,4.2c1,1,1,1.6,0.3,2.8
		c-1,1.7-2,3.4-3,5c-0.2,0.3-0.2,0.5,0,0.8c0.4,0.9,0.7,1.7,1.1,2.6c0.1,0.3,0.3,0.5,0.7,0.6c2,0.5,4,1,6,1.5c1.2,0.3,1.6,0.8,1.6,2
		c0,2,0,4.1,0,6.1c0,1.2-0.4,1.8-1.6,2c-2,0.5-4,1-6,1.5c-0.3,0.1-0.5,0.2-0.7,0.6c-0.3,0.9-0.7,1.7-1,2.6c-0.1,0.3-0.2,0.6,0,0.9
		c1,1.7,2,3.4,3.1,5.1c0.6,1.1,0.5,1.7-0.3,2.6c-1.4,1.4-2.9,2.9-4.3,4.3c-0.9,0.9-1.6,1-2.7,0.3c-1.7-1-3.3-2-5-3
		c-0.3-0.2-0.6-0.2-0.9,0c-0.8,0.4-1.7,0.7-2.5,1c-0.4,0.1-0.5,0.3-0.6,0.7c-0.5,1.9-0.9,3.8-1.4,5.7c-0.3,1.2-0.9,1.6-2.1,1.6
		c-2,0-4,0-5.9,0c-1.4,0-1.9-0.4-2.3-1.8c-0.5-1.9-0.9-3.7-1.4-5.6c-0.1-0.3-0.2-0.5-0.6-0.7c-0.9-0.3-1.7-0.7-2.6-1
		c-0.3-0.1-0.6-0.2-0.9,0c-1.7,1-3.4,2-5.1,3.1c-1.1,0.6-1.7,0.5-2.6-0.3c-1.4-1.4-2.9-2.9-4.3-4.3c-0.9-0.9-1-1.6-0.3-2.7
		c1-1.7,2-3.4,3-5c0.2-0.3,0.2-0.5,0-0.8C9.7,39,9.3,38.1,9,37.2c-0.1-0.3-0.3-0.5-0.6-0.5c-1.9-0.5-3.8-1-5.7-1.4
		c-0.8-0.2-1.4-0.6-1.7-1.4c0-2.5,0-5,0-7.5c0.3-0.8,0.9-1.2,1.7-1.4c1.9-0.4,3.8-1,5.6-1.4c0.4-0.1,0.6-0.2,0.7-0.6
		c0.3-0.8,0.7-1.7,1-2.5c0.2-0.3,0.2-0.6,0-0.9c-1-1.7-2-3.3-3-5c-0.7-1.1-0.6-1.8,0.3-2.7c1.4-1.4,2.8-2.8,4.2-4.2
		c1-1,1.6-1.1,2.8-0.3c1.7,1,3.3,2,5,3c0.3,0.2,0.5,0.2,0.8,0.1c0.9-0.4,1.8-0.8,2.7-1.1c0.3-0.1,0.5-0.3,0.5-0.6
		c0.4-1.9,0.9-3.8,1.4-5.8C24.9,2,25.3,1.3,26.1,1z M29.9,21.6c-4.7,0-8.5,3.8-8.5,8.5c0,4.7,3.8,8.5,8.4,8.5c4.7,0,8.5-3.8,8.5-8.5
		C38.4,25.5,34.6,21.6,29.9,21.6z"/>
</g>
<g id="Capa_1_copia_5" class="st0">
	<path class="st6" d="M26.1,1c2.5,0,5,0,7.5,0c0.9,0.3,1.3,1,1.5,1.8c0.4,1.9,0.9,3.8,1.4,5.8c0.1,0.4,0.3,0.5,0.6,0.7
		c0.8,0.3,1.7,0.7,2.5,1c0.3,0.2,0.6,0.2,0.9,0c1.7-1,3.4-2,5-3c1.1-0.6,1.7-0.6,2.6,0.3c1.4,1.4,2.8,2.8,4.2,4.2c1,1,1,1.6,0.3,2.8
		c-1,1.7-2,3.4-3,5c-0.2,0.3-0.2,0.5,0,0.8c0.4,0.9,0.7,1.7,1.1,2.6c0.1,0.3,0.3,0.5,0.7,0.6c2,0.5,4,1,6,1.5c1.2,0.3,1.6,0.8,1.6,2
		c0,2,0,4.1,0,6.1c0,1.2-0.4,1.8-1.6,2c-2,0.5-4,1-6,1.5c-0.3,0.1-0.5,0.2-0.7,0.6c-0.3,0.9-0.7,1.7-1,2.6c-0.1,0.3-0.2,0.6,0,0.9
		c1,1.7,2,3.4,3.1,5.1c0.6,1.1,0.5,1.7-0.3,2.6c-1.4,1.4-2.9,2.9-4.3,4.3c-0.9,0.9-1.6,1-2.7,0.3c-1.7-1-3.3-2-5-3
		c-0.3-0.2-0.6-0.2-0.9,0c-0.8,0.4-1.7,0.7-2.5,1c-0.4,0.1-0.5,0.3-0.6,0.7c-0.5,1.9-0.9,3.8-1.4,5.7c-0.3,1.2-0.9,1.6-2.1,1.6
		c-2,0-4,0-5.9,0c-1.4,0-1.9-0.4-2.3-1.8c-0.5-1.9-0.9-3.7-1.4-5.6c-0.1-0.3-0.2-0.5-0.6-0.7c-0.9-0.3-1.7-0.7-2.6-1
		c-0.3-0.1-0.6-0.2-0.9,0c-1.7,1-3.4,2-5.1,3.1c-1.1,0.6-1.7,0.5-2.6-0.3c-1.4-1.4-2.9-2.9-4.3-4.3c-0.9-0.9-1-1.6-0.3-2.7
		c1-1.7,2-3.4,3-5c0.2-0.3,0.2-0.5,0-0.8C9.7,39,9.3,38.1,9,37.2c-0.1-0.3-0.3-0.5-0.6-0.5c-1.9-0.5-3.8-1-5.7-1.4
		c-0.8-0.2-1.4-0.6-1.7-1.4c0-2.5,0-5,0-7.5c0.3-0.8,0.9-1.2,1.7-1.4c1.9-0.4,3.8-1,5.6-1.4c0.4-0.1,0.6-0.2,0.7-0.6
		c0.3-0.8,0.7-1.7,1-2.5c0.2-0.3,0.2-0.6,0-0.9c-1-1.7-2-3.3-3-5c-0.7-1.1-0.6-1.8,0.3-2.7c1.4-1.4,2.8-2.8,4.2-4.2
		c1-1,1.6-1.1,2.8-0.3c1.7,1,3.3,2,5,3c0.3,0.2,0.5,0.2,0.8,0.1c0.9-0.4,1.8-0.8,2.7-1.1c0.3-0.1,0.5-0.3,0.5-0.6
		c0.4-1.9,0.9-3.8,1.4-5.8C24.9,2,25.3,1.3,26.1,1z M29.9,21.6c-4.7,0-8.5,3.8-8.5,8.5c0,4.7,3.8,8.5,8.4,8.5c4.7,0,8.5-3.8,8.5-8.5
		C38.4,25.5,34.6,21.6,29.9,21.6z"/>
</g>
<g id="Capa_1_copia_6">
	<path class="st8" d="M26.1,1c2.5,0,5,0,7.5,0c0.9,0.3,1.3,1,1.5,1.8c0.4,1.9,0.9,3.8,1.4,5.8c0.1,0.4,0.3,0.5,0.6,0.7
		c0.8,0.3,1.7,0.7,2.5,1c0.3,0.2,0.6,0.2,0.9,0c1.7-1,3.4-2,5-3c1.1-0.6,1.7-0.6,2.6,0.3c1.4,1.4,2.8,2.8,4.2,4.2c1,1,1,1.6,0.3,2.8
		c-1,1.7-2,3.4-3,5c-0.2,0.3-0.2,0.5,0,0.8c0.4,0.9,0.7,1.7,1.1,2.6c0.1,0.3,0.3,0.5,0.7,0.6c2,0.5,4,1,6,1.5c1.2,0.3,1.6,0.8,1.6,2
		c0,2,0,4.1,0,6.1c0,1.2-0.4,1.8-1.6,2c-2,0.5-4,1-6,1.5c-0.3,0.1-0.5,0.2-0.7,0.6c-0.3,0.9-0.7,1.7-1,2.6c-0.1,0.3-0.2,0.6,0,0.9
		c1,1.7,2,3.4,3.1,5.1c0.6,1.1,0.5,1.7-0.3,2.6c-1.4,1.4-2.9,2.9-4.3,4.3c-0.9,0.9-1.6,1-2.7,0.3c-1.7-1-3.3-2-5-3
		c-0.3-0.2-0.6-0.2-0.9,0c-0.8,0.4-1.7,0.7-2.5,1c-0.4,0.1-0.5,0.3-0.6,0.7c-0.5,1.9-0.9,3.8-1.4,5.7c-0.3,1.2-0.9,1.6-2.1,1.6
		c-2,0-4,0-5.9,0c-1.4,0-1.9-0.4-2.3-1.8c-0.5-1.9-0.9-3.7-1.4-5.6c-0.1-0.3-0.2-0.5-0.6-0.7c-0.9-0.3-1.7-0.7-2.6-1
		c-0.3-0.1-0.6-0.2-0.9,0c-1.7,1-3.4,2-5.1,3.1c-1.1,0.6-1.7,0.5-2.6-0.3c-1.4-1.4-2.9-2.9-4.3-4.3c-0.9-0.9-1-1.6-0.3-2.7
		c1-1.7,2-3.4,3-5c0.2-0.3,0.2-0.5,0-0.8C9.7,39,9.3,38.1,9,37.2c-0.1-0.3-0.3-0.5-0.6-0.5c-1.9-0.5-3.8-1-5.7-1.4
		c-0.8-0.2-1.4-0.6-1.7-1.4c0-2.5,0-5,0-7.5c0.3-0.8,0.9-1.2,1.7-1.4c1.9-0.4,3.8-1,5.6-1.4c0.4-0.1,0.6-0.2,0.7-0.6
		c0.3-0.8,0.7-1.7,1-2.5c0.2-0.3,0.2-0.6,0-0.9c-1-1.7-2-3.3-3-5c-0.7-1.1-0.6-1.8,0.3-2.7c1.4-1.4,2.8-2.8,4.2-4.2
		c1-1,1.6-1.1,2.8-0.3c1.7,1,3.3,2,5,3c0.3,0.2,0.5,0.2,0.8,0.1c0.9-0.4,1.8-0.8,2.7-1.1c0.3-0.1,0.5-0.3,0.5-0.6
		c0.4-1.9,0.9-3.8,1.4-5.8C24.9,2,25.3,1.3,26.1,1z M29.9,21.6c-4.7,0-8.5,3.8-8.5,8.5c0,4.7,3.8,8.5,8.4,8.5c4.7,0,8.5-3.8,8.5-8.5
		C38.4,25.5,34.6,21.6,29.9,21.6z"/>
</g>
<g id="Capa_1_copia_7" class="st0">
	<path class="st9" d="M26.1,1c2.5,0,5,0,7.5,0c0.9,0.3,1.3,1,1.5,1.8c0.4,1.9,0.9,3.8,1.4,5.8c0.1,0.4,0.3,0.5,0.6,0.7
		c0.8,0.3,1.7,0.7,2.5,1c0.3,0.2,0.6,0.2,0.9,0c1.7-1,3.4-2,5-3c1.1-0.6,1.7-0.6,2.6,0.3c1.4,1.4,2.8,2.8,4.2,4.2c1,1,1,1.6,0.3,2.8
		c-1,1.7-2,3.4-3,5c-0.2,0.3-0.2,0.5,0,0.8c0.4,0.9,0.7,1.7,1.1,2.6c0.1,0.3,0.3,0.5,0.7,0.6c2,0.5,4,1,6,1.5c1.2,0.3,1.6,0.8,1.6,2
		c0,2,0,4.1,0,6.1c0,1.2-0.4,1.8-1.6,2c-2,0.5-4,1-6,1.5c-0.3,0.1-0.5,0.2-0.7,0.6c-0.3,0.9-0.7,1.7-1,2.6c-0.1,0.3-0.2,0.6,0,0.9
		c1,1.7,2,3.4,3.1,5.1c0.6,1.1,0.5,1.7-0.3,2.6c-1.4,1.4-2.9,2.9-4.3,4.3c-0.9,0.9-1.6,1-2.7,0.3c-1.7-1-3.3-2-5-3
		c-0.3-0.2-0.6-0.2-0.9,0c-0.8,0.4-1.7,0.7-2.5,1c-0.4,0.1-0.5,0.3-0.6,0.7c-0.5,1.9-0.9,3.8-1.4,5.7c-0.3,1.2-0.9,1.6-2.1,1.6
		c-2,0-4,0-5.9,0c-1.4,0-1.9-0.4-2.3-1.8c-0.5-1.9-0.9-3.7-1.4-5.6c-0.1-0.3-0.2-0.5-0.6-0.7c-0.9-0.3-1.7-0.7-2.6-1
		c-0.3-0.1-0.6-0.2-0.9,0c-1.7,1-3.4,2-5.1,3.1c-1.1,0.6-1.7,0.5-2.6-0.3c-1.4-1.4-2.9-2.9-4.3-4.3c-0.9-0.9-1-1.6-0.3-2.7
		c1-1.7,2-3.4,3-5c0.2-0.3,0.2-0.5,0-0.8C9.7,39,9.3,38.1,9,37.2c-0.1-0.3-0.3-0.5-0.6-0.5c-1.9-0.5-3.8-1-5.7-1.4
		c-0.8-0.2-1.4-0.6-1.7-1.4c0-2.5,0-5,0-7.5c0.3-0.8,0.9-1.2,1.7-1.4c1.9-0.4,3.8-1,5.6-1.4c0.4-0.1,0.6-0.2,0.7-0.6
		c0.3-0.8,0.7-1.7,1-2.5c0.2-0.3,0.2-0.6,0-0.9c-1-1.7-2-3.3-3-5c-0.7-1.1-0.6-1.8,0.3-2.7c1.4-1.4,2.8-2.8,4.2-4.2
		c1-1,1.6-1.1,2.8-0.3c1.7,1,3.3,2,5,3c0.3,0.2,0.5,0.2,0.8,0.1c0.9-0.4,1.8-0.8,2.7-1.1c0.3-0.1,0.5-0.3,0.5-0.6
		c0.4-1.9,0.9-3.8,1.4-5.8C24.9,2,25.3,1.3,26.1,1z M29.9,21.6c-4.7,0-8.5,3.8-8.5,8.5c0,4.7,3.8,8.5,8.4,8.5c4.7,0,8.5-3.8,8.5-8.5
		C38.4,25.5,34.6,21.6,29.9,21.6z"/>
</g>
</svg>
