<?xml version="1.0" encoding="utf-8"?>
<!-- Generator: Adobe Illustrator 24.0.2, SVG Export Plug-In . SVG Version: 6.00 Build 0)  -->
<svg version="1.1" xmlns="http://www.w3.org/2000/svg" xmlns:xlink="http://www.w3.org/1999/xlink" x="0px" y="0px"
	 viewBox="0 0 150 150" style="enable-background:new 0 0 150 150;" xml:space="preserve">
<style type="text/css">
	.st0{display:none;}
	.st1{display:inline;}
	.st2{fill:#101820;}
	.st3{fill:#FFFFFF;}
	.st4{display:inline;fill:#101820;}
</style>
<g id="Capa_1" class="st0">
	<g class="st1">
		<path class="st2" d="M147.3,49.3c-48.3,0-96.2,0-144.3,0c-0.1-0.6-0.2-1.1-0.2-1.6c0-6.9,0-13.7,0-20.6c0-1.3,0.2-2.2,1.7-2.6
			c23.2-7.1,46.3-14.2,69.5-21.3c0.9-0.3,2-0.1,3,0.2c22.7,7,45.4,14,68.1,20.9c1.6,0.5,2.4,1.2,2.4,3.1
			C147.2,34.5,147.3,41.8,147.3,49.3z"/>
		<path class="st2" d="M2.8,147c0-2.8,0-5.4,0-8.2c2.7,0,5.3,0,8.2,0c0-4.3,0-8.4,0-12.7c42.7,0,85,0,127.7,0c0,4.1,0,8.2,0,12.6
			c3,0,5.6,0,8.4,0c0,2.9,0,5.5,0,8.3C99.1,147,51.1,147,2.8,147z"/>
		<path class="st2" d="M36.5,117.3c-5.6,0-11,0-16.6,0c0-19.7,0-39.3,0-59.1c5.5,0,10.9,0,16.6,0C36.5,77.8,36.5,97.3,36.5,117.3z"
			/>
		<path class="st2" d="M83.3,117.3c-5.6,0-11,0-16.6,0c0-19.7,0-39.3,0-59.1c5.5,0,11,0,16.6,0C83.3,77.8,83.3,97.4,83.3,117.3z"/>
		<path class="st2" d="M130.1,117.3c-5.6,0-11,0-16.6,0c0-19.7,0-39.3,0-59.1c5.5,0,10.9,0,16.6,0
			C130.1,77.8,130.1,97.4,130.1,117.3z"/>
	</g>
</g>
<g id="Capa_2">
	<g>
		<path class="st3" d="M147.3,49.3c-48.3,0-96.2,0-144.3,0c-0.1-0.6-0.2-1.1-0.2-1.6c0-6.9,0-13.7,0-20.6c0-1.3,0.2-2.2,1.7-2.6
			c23.2-7.1,46.3-14.2,69.5-21.3c0.9-0.3,2-0.1,3,0.2c22.7,7,45.4,14,68.1,20.9c1.6,0.5,2.4,1.2,2.4,3.1
			C147.2,34.5,147.3,41.8,147.3,49.3z"/>
		<path class="st3" d="M2.8,147c0-2.8,0-5.4,0-8.2c2.7,0,5.3,0,8.2,0c0-4.3,0-8.4,0-12.7c42.7,0,85,0,127.7,0c0,4.1,0,8.2,0,12.6
			c3,0,5.6,0,8.4,0c0,2.9,0,5.5,0,8.3C99.1,147,51.1,147,2.8,147z"/>
		<path class="st3" d="M36.5,117.3c-5.6,0-11,0-16.6,0c0-19.7,0-39.3,0-59.1c5.5,0,10.9,0,16.6,0C36.5,77.8,36.5,97.3,36.5,117.3z"
			/>
		<path class="st3" d="M83.3,117.3c-5.6,0-11,0-16.6,0c0-19.7,0-39.3,0-59.1c5.5,0,11,0,16.6,0C83.3,77.8,83.3,97.4,83.3,117.3z"/>
		<path class="st3" d="M130.1,117.3c-5.6,0-11,0-16.6,0c0-19.7,0-39.3,0-59.1c5.5,0,10.9,0,16.6,0
			C130.1,77.8,130.1,97.4,130.1,117.3z"/>
	</g>
</g>
</svg>
