<?xml version="1.0" encoding="utf-8"?>
<!-- Generator: Adobe Illustrator 24.0.2, SVG Export Plug-In . SVG Version: 6.00 Build 0)  -->
<svg version="1.1" id="Capa_1" xmlns="http://www.w3.org/2000/svg" xmlns:xlink="http://www.w3.org/1999/xlink" x="0px" y="0px"
	 viewBox="0 0 24 24" style="enable-background:new 0 0 24 24;" xml:space="preserve">
<style type="text/css">
	.st0{fill:#F7931E;}
</style>
<g>
	<path class="st0" d="M24,18.6c-0.1,0.2-0.1,0.4-0.2,0.7c-2.4-2.5-4.8-4.9-7.1-7.3c2.3-2.4,4.7-4.8,7.1-7.3C23.9,5,23.9,5.2,24,5.4
		C24,9.8,24,14.2,24,18.6z"/>
	<path class="st0" d="M22.8,3.8c-0.1,0.1-0.1,0.1-0.2,0.2c-3,3-6,6-9,9c-0.6,0.6-1.4,0.9-2.3,0.6c-0.3-0.1-0.6-0.3-0.9-0.6
		c-3-3-6.1-6-9.1-9.1c0,0-0.1-0.1-0.1-0.2C1.5,3.7,1.7,3.6,2,3.6c0.1,0,0.2,0,0.3,0c6.5,0,13,0,19.5,0C22.1,3.6,22.4,3.6,22.8,3.8z"
		/>
	<path class="st0" d="M8.5,13c0.4,0.4,0.7,0.7,1,1c1.3,1.3,3.2,1.4,4.7,0.3c0.3-0.2,0.5-0.5,0.7-0.7c0.2-0.2,0.4-0.4,0.6-0.6
		c2.4,2.4,4.8,4.9,7.2,7.3c-0.2,0-0.4,0.1-0.7,0.1c-0.1,0-0.2,0-0.3,0c-6.5,0-13,0-19.5,0c-0.3,0-0.7-0.1-1-0.1
		C3.7,17.8,6,15.4,8.5,13z"/>
	<path class="st0" d="M0.2,19.2C0.1,18.9,0,18.6,0,18.3c0-4.2,0-8.4,0-12.6c0-0.3,0.1-0.6,0.1-0.9c0,0,0.1,0,0.1,0
		C2.6,7.2,5,9.6,7.3,12c-2.3,2.4-4.7,4.8-7.1,7.2C0.2,19.2,0.2,19.2,0.2,19.2z"/>
</g>
</svg>
