<?xml version="1.0" encoding="utf-8"?>
<!-- Generator: Adobe Illustrator 24.0.2, SVG Export Plug-In . SVG Version: 6.00 Build 0)  -->
<svg version="1.1" id="Capa_1" xmlns="http://www.w3.org/2000/svg" xmlns:xlink="http://www.w3.org/1999/xlink" x="0px" y="0px"
	 viewBox="0 0 60 60" style="enable-background:new 0 0 60 60;" xml:space="preserve">
<style type="text/css">
	.st0{fill:/*#cc3300*/#101820;}
</style>
<g>
	<g>
		<path class="st0" d="M1,27.2c0.1-0.5,0.2-0.9,0.3-1.4c1.1-4.4,5.1-7.6,9.7-7.6c3.3,0,6.6,0,9.9,0c0.1,0,0.3,0,0.4,0
			c0,6.8,0,13.6,0,20.4c-0.2,0-0.4,0-0.6,0c-3.2,0-6.3,0-9.5,0c-5.2,0-9.4-3.7-10.2-8.8c0-0.1-0.1-0.2-0.1-0.3C1,28.7,1,27.9,1,27.2
			z"/>
		<path class="st0" d="M59,29.2c-0.1,0.4-0.2,0.8-0.3,1.1c-0.5,1.5-1.3,2.6-2.6,3.5c-0.1,0.1-0.2,0.1-0.3,0.2c0,0-0.1,0-0.1,0
			c0-3.9,0-7.7,0-11.6c0,0,0.1-0.1,0.1-0.1c0.6,0.6,1.2,1.1,1.8,1.7c0.7,0.8,1.1,1.8,1.4,2.9c0,0.1,0.1,0.2,0.1,0.4
			C59,28,59,28.6,59,29.2z"/>
		<path class="st0" d="M24.8,38.6c0-6.9,0-13.7,0-20.5c1.8-0.4,3.6-0.7,5.3-1.3c4.2-1.3,8-3.4,11.6-5.9c2.6-1.8,5.2-3.8,7.5-6
			c0.6-0.5,1.2-0.8,2-0.4c0.7,0.3,1,0.9,1,1.7c0,14.6,0,29.2,0,43.8c0,0.8-0.3,1.4-1,1.7c-0.8,0.3-1.4,0.1-2-0.5
			c-4.4-4-9.2-7.5-14.6-10C31.5,40,28.3,38.9,24.8,38.6z"/>
		<path class="st0" d="M9.9,41.8c0.5,0,1,0.1,1.6,0.1c2.8,0,5.5,0,8.3,0c0.4,0,0.6,0.1,0.7,0.6c0.2,0.8,0.4,1.7,0.7,2.5
			c0,0.1,0.3,0.3,0.4,0.3c0.7,0,1.4,0,2.2,0c-0.2-1.1-0.4-2.2-0.6-3.5c1.2,0.2,2.2,0.3,3.3,0.4c0.1,0,0.2,0.2,0.2,0.4
			c0.3,1.2,0.6,2.4,0.9,3.6c0.4,1.4-0.3,2.4-1.8,2.4c-1.1,0-2.1,0-3.3,0c0.2,0.6,0.5,1.1,0.7,1.6c0.4,0.9,0.9,1.8,1.3,2.6
			c0.7,1.3-0.1,2.6-1.6,2.6c-2.8,0-5.5,0-8.3,0c-0.9,0-1.4-0.4-1.7-1.2c-1.5-4-2.5-8.1-3.1-12.4C9.9,41.9,9.9,41.9,9.9,41.8z"/>
	</g>
</g>
</svg>
