<?xml version="1.0" encoding="utf-8"?>
<!-- Generator: Adobe Illustrator 24.0.2, SVG Export Plug-In . SVG Version: 6.00 Build 0)  -->
<svg version="1.1" id="Capa_1" xmlns="http://www.w3.org/2000/svg" xmlns:xlink="http://www.w3.org/1999/xlink" x="0px" y="0px"
	 viewBox="0 0 60 60" style="enable-background:new 0 0 60 60;" xml:space="preserve">
<style type="text/css">
	.st0{fill:/*#cc3300*/#101820;}
</style>
<g>
	<path class="st0" d="M2,21.7c0.4-1.1,1.2-1.4,2.4-1.4c2.1,0,4.3,0,6.4,0c1.5,0,2.2,0.7,2.2,2.2c0,10.8,0,21.5,0,32.3
		c0,1.5-0.7,2.2-2.2,2.2c-2.1,0-4.3,0-6.4,0c-1.1,0-1.9-0.3-2.4-1.4C2,44.2,2,32.9,2,21.7z"/>
	<path class="st0" d="M39.4,20.3c0.3,0,0.6,0,0.8,0c4.1,0,8.2,0,12.4,0c2.3,0,4.4,1.5,5.1,3.7c0.8,2.4,0.1,4.7-1.8,6.2
		c-0.1,0.1-0.2,0.4-0.2,0.5c1.2,2.3,0.4,5.5-1.9,7c0,0,0,0-0.1,0.1c0.6,1.2,0.8,2.6,0.5,4c-0.4,1.4-1.1,2.5-2.2,3.2
		c0.2,0.8,0.5,1.6,0.5,2.4c0.2,3.3-2.3,5.9-5.6,5.9c-8.6,0-17.1,0-25.7,0c-1.5,0-3,0-4.6,0c0-0.2,0-0.4,0-0.6c0-9.4,0-18.7,0-28.1
		c0-0.4,0.1-0.7,0.4-0.9c3.6-3.3,7.2-6.6,10.8-9.9c2.2-2,3.4-4.4,3.7-7.3c0.3-2.2,1.6-3.2,3.8-3.1c3.6,0.2,5.6,2.7,6.3,5.8
		c0.5,2.2,0.4,4.4-0.5,6.5c-0.5,1.4-1,2.8-1.5,4.2C39.5,19.8,39.5,20,39.4,20.3z"/>
</g>
</svg>
