<?xml version="1.0" encoding="utf-8"?>
<!-- Generator: Adobe Illustrator 24.0.2, SVG Export Plug-In . SVG Version: 6.00 Build 0)  -->
<svg version="1.1" id="Capa_1" xmlns="http://www.w3.org/2000/svg" xmlns:xlink="http://www.w3.org/1999/xlink" x="0px" y="0px"
	 viewBox="0 0 60 60" style="enable-background:new 0 0 60 60;" xml:space="preserve">
<style type="text/css">
	.st0{fill:/*#cc3300*/#101820;}
</style>
<g>
	<path class="st0" d="M1,18.4c0.3-1.1,0.6-2.1,1.3-3C3.6,13.9,5.1,13.1,7,13c1.3,0,2.7,0,4,0c7.5,0,14.9,0,22.4,0
		c2.8,0,4.9,1.2,6.1,3.7c0.4,0.9,0.6,1.9,0.6,2.8c0,7,0,13.9,0,20.9c0,3.3-2.1,5.9-5.3,6.5c-0.5,0.1-1,0.1-1.5,0.1
		c-8.6,0-17.1,0-25.7,0c-3.5,0-5.9-1.9-6.6-5.3c0,0-0.1-0.1-0.1-0.1C1,33.9,1,26.2,1,18.4z"/>
	<path class="st0" d="M59,30c0,3.2,0,6.5,0,9.7c0,2.6-2.4,4.4-4.9,3.6c-0.4-0.1-0.8-0.3-1.1-0.5c-3.1-1.7-6.1-3.5-9.2-5.3
		c-0.4-0.2-0.5-0.4-0.5-0.8c0-4.5,0-9.1,0-13.6c0-0.3,0.1-0.6,0.4-0.8c3.2-1.8,6.3-3.6,9.5-5.4c1.9-1.1,4.2-0.5,5.3,1.4
		c0.3,0.6,0.5,1.4,0.5,2.1C59,23.6,59,26.8,59,30z"/>
</g>
</svg>
