<?xml version="1.0" encoding="utf-8"?>
<!-- Generator: Adobe Illustrator 24.0.2, SVG Export Plug-In . SVG Version: 6.00 Build 0)  -->
<svg version="1.1" id="Capa_1" xmlns="http://www.w3.org/2000/svg" xmlns:xlink="http://www.w3.org/1999/xlink" x="0px" y="0px"
	 viewBox="0 0 150 150" style="enable-background:new 0 0 150 150;" xml:space="preserve">
<style type="text/css">
	.st0{fill:#C89211;}
	.st1{display:none;}
	.st2{display:inline;}
	.st3{fill:#FFFFFF;}
</style>
<g id="Sky_1_">
	<g>
		<g>
			<path class="st0" d="M2.5,130.5c0-41.1,0-82.2,0-123.3c1-2.5,2.7-4.2,5.4-4.8c32.9,0,65.7,0,98.6,0c3.7,1.3,4.9,3.9,4.9,7.6
				c-0.1,10.2,0,20.3,0,30.5c0,1.5,0.1,3,0,4.5c-0.2,3.6-3.4,6.1-6.9,5.6c-3.2-0.5-5.2-3-5.2-6.7c0-9.2,0-18.4,0-27.6
				c0-0.5,0-1.1,0-1.7c-16.2,0-32.2,0-48.2,0c0.3,0.3,0.7,0.5,1.1,0.6c5.7,1.7,11.5,3.4,17.2,5.2c4.6,1.4,5.8,3,5.8,7.7
				c0,31.1,0,62.2,0,93.4c0,0.6,0,1.2,0,1.8c8.2,0,16.1,0,24.2,0c0-0.7,0-1.2,0-1.8c0-9,0-18,0-27.1c0-0.8,0-1.7,0.2-2.5
				c0.5-2.6,2.8-4.6,5.5-4.7c3.7-0.2,6.4,2.5,6.4,6.5c0,11.6,0,23.1,0,34.7c0,4.8-2.3,7.1-7.1,7.1c-9.2,0-18.3,0-27.5,0
				c-0.5,0-1.1,0-1.7,0c0,2.2,0.1,4.2,0,6.2c-0.1,3-2.1,5.4-5,5.8c-1.2,0.2-2.4-0.1-3.6-0.3c-19.1-3.8-38.3-7.7-57.4-11.4
				C5.7,135,3.4,133.6,2.5,130.5z"/>
			<path class="st0" d="M126.5,62.5c-2.4-2.4-4.8-4.8-7.2-7.2c-2.6-2.6-2.7-6.2-0.4-8.6c2.1-2.2,5.5-2.5,8-0.7
				c0.5,0.4,0.9,0.8,1.4,1.2c5.6,5.6,11.2,11.1,16.7,16.7c3.4,3.4,3.4,6.7,0,10.1c-5.7,5.7-11.3,11.4-17,17c-3,3-7.2,2.8-9.5-0.4
				c-1.8-2.5-1.5-5.6,0.8-8c2.1-2.2,4.3-4.3,6.4-6.4c0.3-0.3,0.6-0.7,1.1-1.2c-0.8,0-1.3,0-1.8,0c-10.5,0-21,0-31.6,0
				c-3.9,0-6.5-2.7-6.3-6.4c0.1-2.7,2.1-5,4.7-5.5c0.8-0.2,1.7-0.2,2.5-0.2c10.2,0,20.4,0,30.6,0c0.5,0,1,0,1.5,0
				C126.5,62.7,126.5,62.6,126.5,62.5z"/>
		</g>
	</g>
</g>
</svg>
