<?xml version="1.0" encoding="utf-8"?>
<!-- Generator: Adobe Illustrator 24.0.2, SVG Export Plug-In . SVG Version: 6.00 Build 0)  -->
<svg version="1.1" id="Capa_1" xmlns="http://www.w3.org/2000/svg" xmlns:xlink="http://www.w3.org/1999/xlink" x="0px" y="0px"
	 viewBox="0 0 300 100" style="enable-background:new 0 0 300 100;" xml:space="preserve">
<style type="text/css">
	.st0{fill:#FF5100;}
	.st1{fill:#FFEE2D;}
	.st2{fill:#FFFFFF;}
	.st3{fill:#003057;}
</style>
<g>
	<g>
		<g>
			<g>
				<path class="st0" d="M81,0.6v81h218.6v-81H81z"/>
				<rect x="131.5" y="54.3" class="st1" width="0.4" height="0.2"/>
				<g>
					<g>
						<polygon class="st3" points="67,53.4 67,20.1 44.9,53.4 						"/>
						<polygon class="st3" points="67,67.3 27.6,67.3 27.6,54.2 63.3,0.6 0,0.6 0,81.6 67,81.6 						"/>
					</g>
				</g>
				<g>
					<path class="st3" d="M9.8,96c-0.1,1-0.6,1.9-1.5,2.5c-0.9,0.6-2,0.9-3.3,0.9c-1.5,0-2.7-0.4-3.6-1.2c-0.9-0.8-1.4-1.9-1.4-3.2
						c0-1.3,0.5-2.4,1.4-3.2c0.9-0.8,2.1-1.2,3.6-1.2c1.3,0,2.4,0.3,3.3,0.9c0.9,0.6,1.4,1.4,1.5,2.3H7.5c-0.1-0.5-0.4-0.9-0.8-1.2
						c-0.4-0.3-1-0.4-1.6-0.4c-0.8,0-1.5,0.2-2,0.7c-0.5,0.5-0.7,1.1-0.7,2c0,0.8,0.2,1.5,0.7,1.9c0.5,0.5,1.1,0.7,2,0.7
						c0.7,0,1.3-0.2,1.7-0.5c0.4-0.3,0.7-0.7,0.8-1.3H9.8z"/>
					<path class="st3" d="M10.8,95c0-1.3,0.5-2.4,1.4-3.2c0.9-0.8,2.1-1.2,3.6-1.2c1.5,0,2.7,0.4,3.6,1.2c0.9,0.8,1.3,1.9,1.3,3.2
						c0,1.3-0.5,2.4-1.3,3.2c-0.9,0.8-2.1,1.2-3.6,1.2c-1.5,0-2.7-0.4-3.6-1.2C11.2,97.4,10.8,96.3,10.8,95z M15.8,97.7
						c0.8,0,1.5-0.2,2-0.7c0.5-0.5,0.7-1.1,0.7-1.9c0-0.8-0.2-1.5-0.7-2c-0.5-0.5-1.1-0.7-2-0.7c-0.8,0-1.5,0.2-2,0.7
						c-0.5,0.5-0.7,1.1-0.7,2c0,0.8,0.2,1.5,0.7,1.9C14.3,97.4,14.9,97.7,15.8,97.7z"/>
					<path class="st3" d="M22.2,99.2v-8.3h2.6l4.1,5.9v-5.9h2v8.3h-2.5l-4.2-5.9v5.9H22.2z"/>
					<path class="st3" d="M36.6,92.5v6.6h-2.1v-6.6h-2.8v-1.7h7.7v1.7H36.6z"/>
					<path class="st3" d="M40.4,99.2v-8.3h5.1c1.1,0,1.9,0.2,2.4,0.5c0.5,0.4,0.8,0.9,0.8,1.7c0,0.5-0.1,0.9-0.4,1.3
						c-0.2,0.4-0.6,0.6-1,0.8c0.4,0.2,0.6,0.3,0.8,0.6c0.1,0.2,0.2,0.6,0.3,1.2c0,0.1,0,0.1,0,0.2c0,1,0.2,1.7,0.4,2h-2.3
						c-0.1-0.1-0.1-0.2-0.1-0.3c0-0.1,0-0.2,0-0.3V98c0-0.8-0.1-1.3-0.3-1.5c-0.2-0.2-0.6-0.4-1.2-0.4h-0.1h-2.4v3.1H40.4z
						 M42.4,94.4h2.4c0.6,0,1.1-0.1,1.3-0.2c0.3-0.2,0.4-0.4,0.4-0.7c0-0.3-0.1-0.6-0.4-0.7c-0.2-0.1-0.7-0.2-1.4-0.2h-2.3V94.4z"/>
					<path class="st3" d="M49.7,95c0-1.3,0.5-2.4,1.4-3.2c0.9-0.8,2.1-1.2,3.6-1.2c1.5,0,2.7,0.4,3.6,1.2c0.9,0.8,1.3,1.9,1.3,3.2
						c0,1.3-0.4,2.4-1.3,3.2c-0.9,0.8-2.1,1.2-3.6,1.2c-1.5,0-2.7-0.4-3.6-1.2C50.2,97.4,49.7,96.3,49.7,95z M54.7,97.7
						c0.8,0,1.5-0.2,2-0.7c0.5-0.5,0.7-1.1,0.7-1.9c0-0.8-0.2-1.5-0.7-2c-0.5-0.5-1.1-0.7-2-0.7c-0.8,0-1.5,0.2-2,0.7
						c-0.5,0.5-0.7,1.1-0.7,2c0,0.8,0.2,1.5,0.7,1.9C53.2,97.4,53.9,97.7,54.7,97.7z"/>
					<path class="st3" d="M61.1,99.2v-8.3h2.1v6.6h4.3v1.7H61.1z"/>
					<path class="st3" d="M71.6,99.2l3.9-8.3h2l3.8,8.3H79l-0.8-1.8h-3.7l-0.7,1.8H71.6z M75.3,95.7h2.2l-1.1-2.6L75.3,95.7z"/>
					<path class="st3" d="M85.6,90.9c0.9,0,1.6,0,2,0.1c0.4,0.1,0.8,0.2,1.2,0.4c0.6,0.3,1.1,0.8,1.4,1.4c0.3,0.6,0.5,1.3,0.5,2.2
						c0,0.8-0.2,1.5-0.5,2.2c-0.3,0.6-0.8,1.1-1.4,1.4c-0.4,0.2-0.8,0.3-1.2,0.4c-0.4,0.1-1.1,0.1-2,0.1h-3.8v-8.3H85.6z M84,92.5
						v4.9h1.6c1,0,1.7-0.2,2.2-0.6c0.5-0.4,0.7-1,0.7-1.8c0-0.8-0.2-1.4-0.7-1.8c-0.5-0.4-1.2-0.6-2.2-0.6H84z"/>
					<path class="st3" d="M92.1,99.2v-8.3h2.7l2.7,5.9l2.8-5.9h2.7v8.3h-2v-5.5l-2.6,5.5h-1.7l-2.5-5.6v5.6H92.1z"/>
					<path class="st3" d="M104.8,99.2v-8.3h2.1v8.3H104.8z"/>
					<path class="st3" d="M108.8,99.2v-8.3h2.6l4.1,5.9v-5.9h2v8.3h-2.5l-4.2-5.9v5.9H108.8z"/>
					<path class="st3" d="M119.4,99.2v-8.3h2.1v8.3H119.4z"/>
					<path class="st3" d="M123,96.3h2.1v0.1c0,0.5,0.2,0.8,0.6,1.1c0.4,0.2,1,0.4,1.8,0.4c0.6,0,1.1-0.1,1.4-0.3
						c0.3-0.2,0.5-0.4,0.5-0.8c0-0.3-0.1-0.5-0.3-0.6c-0.2-0.1-0.6-0.2-1.3-0.3l-1.5-0.1c-1.1-0.1-1.9-0.4-2.4-0.7
						c-0.5-0.4-0.8-0.9-0.8-1.6c0-0.8,0.4-1.5,1.1-2c0.7-0.5,1.7-0.8,2.9-0.8c1.3,0,2.3,0.2,3,0.7c0.7,0.5,1.1,1.1,1.1,2v0.1h-2.1
						c0-0.4-0.2-0.7-0.6-0.9c-0.3-0.2-0.8-0.3-1.5-0.3c-0.6,0-1,0.1-1.4,0.2c-0.3,0.2-0.5,0.4-0.5,0.7c0,0.2,0.1,0.4,0.3,0.5
						c0.2,0.1,0.7,0.2,1.4,0.3l1.5,0.2c1.1,0.1,1.8,0.4,2.3,0.8c0.5,0.4,0.7,1,0.7,1.7c0,0.9-0.4,1.6-1.1,2.1
						c-0.8,0.5-1.8,0.7-3.3,0.7c-1.4,0-2.4-0.3-3.2-0.8c-0.7-0.5-1.1-1.2-1.1-2.2V96.3z"/>
					<path class="st3" d="M137.1,92.5v6.6h-2.1v-6.6h-2.8v-1.7h7.7v1.7H137.1z"/>
					<path class="st3" d="M140.8,99.2v-8.3h5.1c1.1,0,1.9,0.2,2.4,0.5c0.5,0.4,0.8,0.9,0.8,1.7c0,0.5-0.1,0.9-0.4,1.3
						c-0.2,0.4-0.6,0.6-1,0.8c0.4,0.2,0.6,0.3,0.8,0.6c0.1,0.2,0.2,0.6,0.3,1.2c0,0.1,0,0.1,0,0.2c0,1,0.2,1.7,0.4,2h-2.3
						c-0.1-0.1-0.1-0.2-0.1-0.3c0-0.1,0-0.2,0-0.3V98c0-0.8-0.1-1.3-0.3-1.5c-0.2-0.2-0.6-0.4-1.2-0.4h-0.1h-2.4v3.1H140.8z
						 M142.9,94.4h2.4c0.6,0,1.1-0.1,1.3-0.2c0.3-0.2,0.4-0.4,0.4-0.7c0-0.3-0.1-0.6-0.4-0.7c-0.2-0.1-0.7-0.2-1.4-0.2h-2.3V94.4z"
						/>
					<path class="st3" d="M149.3,99.2l3.9-8.3h2l3.8,8.3h-2.3l-0.8-1.8h-3.7l-0.7,1.8H149.3z M153,95.7h2.2l-1.1-2.6L153,95.7z"/>
					<path class="st3" d="M162.9,92.5v6.6h-2.1v-6.6H158v-1.7h7.7v1.7H162.9z"/>
					<path class="st3" d="M166.6,99.2v-8.3h2.1v8.3H166.6z"/>
					<path class="st3" d="M172.8,99.2l-3.6-8.3h2.3l2.4,6l2.4-6h2.3l-3.7,8.3H172.8z"/>
					<path class="st3" d="M178.6,95c0-1.3,0.5-2.4,1.4-3.2c0.9-0.8,2.1-1.2,3.6-1.2c1.5,0,2.7,0.4,3.6,1.2c0.9,0.8,1.3,1.9,1.3,3.2
						c0,1.3-0.4,2.4-1.3,3.2c-0.9,0.8-2.1,1.2-3.6,1.2c-1.5,0-2.7-0.4-3.6-1.2C179,97.4,178.6,96.3,178.6,95z M183.6,97.7
						c0.8,0,1.5-0.2,2-0.7c0.5-0.5,0.7-1.1,0.7-1.9c0-0.8-0.2-1.5-0.7-2c-0.5-0.5-1.1-0.7-2-0.7c-0.8,0-1.5,0.2-2,0.7
						c-0.5,0.5-0.7,1.1-0.7,2c0,0.8,0.2,1.5,0.7,1.9C182.1,97.4,182.7,97.7,183.6,97.7z"/>
					<path class="st3" d="M194.2,99.2v-8.3h4.9c1,0,1.7,0.2,2.3,0.7c0.5,0.5,0.8,1.2,0.8,2.1c0,0.9-0.3,1.6-0.8,2.1
						c-0.5,0.5-1.3,0.7-2.3,0.7h-2.8v2.7H194.2z M196.2,94.9h1.9c0.7,0,1.2-0.1,1.5-0.3c0.3-0.2,0.4-0.5,0.4-0.9
						c0-0.4-0.1-0.7-0.4-0.9c-0.2-0.2-0.7-0.3-1.4-0.3h-2V94.9z"/>
					<path class="st3" d="M203,95c0-1.3,0.5-2.4,1.4-3.2c0.9-0.8,2.1-1.2,3.6-1.2c1.5,0,2.7,0.4,3.6,1.2c0.9,0.8,1.3,1.9,1.3,3.2
						c0,1.3-0.4,2.4-1.3,3.2c-0.9,0.8-2.1,1.2-3.6,1.2c-1.5,0-2.7-0.4-3.6-1.2C203.4,97.4,203,96.3,203,95z M207.9,97.7
						c0.8,0,1.5-0.2,2-0.7c0.5-0.5,0.7-1.1,0.7-1.9c0-0.8-0.2-1.5-0.7-2c-0.5-0.5-1.1-0.7-2-0.7c-0.8,0-1.5,0.2-2,0.7
						c-0.5,0.5-0.7,1.1-0.7,2c0,0.8,0.2,1.5,0.7,1.9C206.4,97.4,207.1,97.7,207.9,97.7z"/>
					<path class="st3" d="M214,96.3h2.1v0.1c0,0.5,0.2,0.8,0.6,1.1c0.4,0.2,1,0.4,1.8,0.4c0.6,0,1.1-0.1,1.4-0.3
						c0.3-0.2,0.5-0.4,0.5-0.8c0-0.3-0.1-0.5-0.3-0.6c-0.2-0.1-0.7-0.2-1.3-0.3l-1.5-0.1c-1.1-0.1-1.9-0.4-2.4-0.7
						c-0.5-0.4-0.8-0.9-0.8-1.6c0-0.8,0.4-1.5,1.1-2c0.7-0.5,1.7-0.8,2.9-0.8c1.3,0,2.3,0.2,3,0.7c0.7,0.5,1.1,1.1,1.1,2v0.1h-2.1
						c0-0.4-0.2-0.7-0.6-0.9c-0.3-0.2-0.8-0.3-1.5-0.3c-0.6,0-1,0.1-1.4,0.2c-0.3,0.2-0.5,0.4-0.5,0.7c0,0.2,0.1,0.4,0.3,0.5
						c0.2,0.1,0.7,0.2,1.4,0.3l1.5,0.2c1.1,0.1,1.8,0.4,2.3,0.8c0.5,0.4,0.7,1,0.7,1.7c0,0.9-0.4,1.6-1.1,2.1
						c-0.8,0.5-1.8,0.7-3.3,0.7c-1.4,0-2.4-0.3-3.2-0.8c-0.7-0.5-1.1-1.2-1.1-2.2V96.3z"/>
					<path class="st3" d="M224.2,99.2v-8.3h2.1v8.3H224.2z"/>
					<path class="st3" d="M228.2,99.2v-8.3h5.4c0.9,0,1.6,0.2,2.1,0.5c0.5,0.3,0.7,0.9,0.7,1.6c0,0.4-0.1,0.8-0.3,1.1
						c-0.2,0.3-0.5,0.6-0.8,0.8c0.5,0.2,0.8,0.4,1.1,0.7c0.2,0.3,0.4,0.8,0.4,1.3c0,0.7-0.2,1.3-0.7,1.7c-0.5,0.4-1.1,0.6-2,0.6
						H228.2z M232.7,92.5h-2.5v1.7h2.5c0.6,0,0.9-0.1,1.1-0.2c0.2-0.1,0.3-0.3,0.3-0.7c0-0.3-0.1-0.5-0.3-0.7
						C233.6,92.5,233.2,92.5,232.7,92.5z M230.3,97.5h2.8c0.6,0,0.9-0.1,1.1-0.2c0.2-0.1,0.3-0.4,0.3-0.7c0-0.3-0.1-0.6-0.3-0.7
						c-0.2-0.1-0.6-0.2-1.1-0.2h-2.8V97.5z"/>
					<path class="st3" d="M238.1,99.2v-8.3h2.1v8.3H238.1z"/>
					<path class="st3" d="M242,99.2v-8.3h2.1v6.6h4.3v1.7H242z"/>
					<path class="st3" d="M249.7,99.2v-8.3h2.1v8.3H249.7z"/>
					<path class="st3" d="M257.4,90.9c0.9,0,1.6,0,2,0.1c0.4,0.1,0.8,0.2,1.2,0.4c0.6,0.3,1.1,0.8,1.4,1.4c0.3,0.6,0.5,1.3,0.5,2.2
						c0,0.8-0.2,1.5-0.5,2.2c-0.3,0.6-0.8,1.1-1.4,1.4c-0.4,0.2-0.8,0.3-1.2,0.4c-0.4,0.1-1.1,0.1-2,0.1h-3.7v-8.3H257.4z
						 M255.8,92.5v4.9h1.6c1,0,1.7-0.2,2.2-0.6c0.5-0.4,0.7-1,0.7-1.8c0-0.8-0.2-1.4-0.7-1.8c-0.5-0.4-1.2-0.6-2.2-0.6H255.8z"/>
					<path class="st3" d="M262.4,99.2l3.9-8.3h2l3.8,8.3h-2.3l-0.8-1.8h-3.7l-0.7,1.8H262.4z M266.1,95.7h2.2l-1.1-2.6L266.1,95.7z"
						/>
					<path class="st3" d="M276.4,90.9c0.9,0,1.6,0,2,0.1c0.4,0.1,0.8,0.2,1.2,0.4c0.6,0.3,1.1,0.8,1.4,1.4c0.3,0.6,0.5,1.3,0.5,2.2
						c0,0.8-0.2,1.5-0.5,2.2c-0.3,0.6-0.8,1.1-1.4,1.4c-0.4,0.2-0.8,0.3-1.2,0.4c-0.4,0.1-1.1,0.1-2,0.1h-3.7v-8.3H276.4z
						 M274.8,92.5v4.9h1.6c1,0,1.7-0.2,2.2-0.6c0.5-0.4,0.7-1,0.7-1.8c0-0.8-0.2-1.4-0.7-1.8c-0.5-0.4-1.2-0.6-2.2-0.6H274.8z"/>
					<path class="st3" d="M282.9,99.2v-8.3h7.4v1.7H285v1.4h4.7v1.7H285v1.8h5.3v1.7H282.9z"/>
					<path class="st3" d="M291.3,96.3h2.1v0.1c0,0.5,0.2,0.8,0.6,1.1c0.4,0.2,1,0.4,1.8,0.4c0.6,0,1.1-0.1,1.4-0.3
						c0.3-0.2,0.5-0.4,0.5-0.8c0-0.3-0.1-0.5-0.3-0.6c-0.2-0.1-0.7-0.2-1.3-0.3l-1.5-0.1c-1.1-0.1-1.9-0.4-2.4-0.7
						c-0.5-0.4-0.8-0.9-0.8-1.6c0-0.8,0.4-1.5,1.1-2c0.7-0.5,1.7-0.8,2.9-0.8c1.3,0,2.3,0.2,3,0.7c0.7,0.5,1.1,1.1,1.1,2v0.1h-2.1
						c0-0.4-0.2-0.7-0.6-0.9c-0.3-0.2-0.8-0.3-1.5-0.3c-0.6,0-1,0.1-1.4,0.2c-0.3,0.2-0.5,0.4-0.5,0.7c0,0.2,0.1,0.4,0.3,0.5
						c0.2,0.1,0.7,0.2,1.4,0.3l1.5,0.2c1.1,0.1,1.8,0.4,2.3,0.8c0.5,0.4,0.7,1,0.7,1.7c0,0.9-0.4,1.6-1.1,2.1
						c-0.8,0.5-1.8,0.7-3.3,0.7c-1.4,0-2.4-0.3-3.2-0.8c-0.7-0.5-1.1-1.2-1.1-2.2V96.3z"/>
				</g>
			</g>
		</g>
	</g>
	<g>
		<path class="st2" d="M208.2,66.2l-22.9-40.4l-22.9,40.4l-44.8,0c-14.3,0-21.2-5.7-21.2-17.3V33.4c0-11.7,6.9-17.3,21.2-17.3H160
			l-5.7,11.7h-36.6c-6.2,0-9.6,3.4-9.6,9.6v7.4c0,6.2,3.4,9.6,9.6,9.6h37.5l18.4-31.5l0-0.1c2.2-4.5,5.5-6.7,9.9-6.7h3.8
			c4.4,0,7.6,2.2,9.9,6.7l0.1,0.1l25.3,43.3H208.2z"/>
		<path class="st2" d="M284.1,39.6c0,6.3-2.3,12.2-19.3,12.2h-30.3v14.3l-8.9,0H223V40.5h41.9c2.3,0,7.6,0,7.6-5.1v-2.5
			c0-5.1-5.4-5.1-7.6-5.1H223l0-11.7h41.8c12.4,0,19.3,5.4,19.3,15.1V39.6z"/>
	</g>
</g>
</svg>
