<?xml version="1.0" encoding="utf-8"?>
<!-- Generator: Adobe Illustrator 24.0.2, SVG Export Plug-In . SVG Version: 6.00 Build 0)  -->
<svg version="1.1" id="Capa_1" xmlns="http://www.w3.org/2000/svg" xmlns:xlink="http://www.w3.org/1999/xlink" x="0px" y="0px"
	 viewBox="0 0 60 60" style="enable-background:new 0 0 60 60;" xml:space="preserve">
<style type="text/css">
	.st0{fill:#101820;}
</style>
<g>
	<path class="st0" d="M2,29.7c0-0.4,0-0.7,0-1.1c0.4-0.6,0.6-1.2,1.1-1.7c8.2-7.5,16.5-15.1,24.8-22.6c1.4-1.2,2.9-1.2,4.2,0
		c8.3,7.5,16.5,15,24.8,22.6c1.1,1,1.4,2.1,0.9,3.3c-0.5,1.2-1.5,1.9-2.9,1.9c-1.1,0-2.1,0-3.2,0c-0.2,0-0.4,0-0.6,0
		c0,0.3,0,0.5,0,0.7c0,7.3,0,14.6,0,21.9c0,1.3-0.6,1.9-1.9,1.9c-4.4,0-8.8,0-13.2,0c-1.4,0-2-0.6-2-2c0-4.3,0-8.6,0-13
		c0-0.2,0-0.4,0-0.6c-2.7,0-5.4,0-8.1,0c0,0.2,0,0.4,0,0.6c0,4.3,0,8.5,0,12.8c0,1.5-0.6,2.1-2.1,2.1c-4.3,0-8.6,0-13,0
		c-1.5,0-2-0.6-2-2c0-7.3,0-14.5,0-21.8c0-0.2,0-0.4,0-0.7c-1.3,0-2.5,0-3.8,0c-1.1,0-2-0.3-2.6-1.2C2.3,30.5,2.2,30.1,2,29.7z"/>
	<path class="st0" d="M52.3,18.2c-4.2-3.8-8.4-7.6-12.6-11.4c0.2,0,0.3-0.1,0.4-0.1c3.5,0,7,0,10.4,0c1.1,0,1.8,0.7,1.8,1.7
		c0,3.2,0,6.3,0,9.5C52.3,17.9,52.3,18,52.3,18.2z"/>
</g>
</svg>
