<?xml version="1.0" encoding="utf-8"?>
<!-- Generator: Adobe Illustrator 24.0.2, SVG Export Plug-In . SVG Version: 6.00 Build 0)  -->
<svg version="1.1" xmlns="http://www.w3.org/2000/svg" xmlns:xlink="http://www.w3.org/1999/xlink" x="0px" y="0px"
	 viewBox="0 0 150 150" style="enable-background:new 0 0 150 150;" xml:space="preserve">
<style type="text/css">
	.st0{fill:#101820;}
	.st1{display:none;}
	.st2{display:inline;}
	.st3{fill:#FFFFFF;}
	.st4{display:inline;fill:#101820;}
</style>
<g id="Capa_1">
	<g>
		<path class="st0" d="M126.4,20.2c0-11-6.2-17.2-17-17.2C86.5,3,63.5,3,40.6,3c-10.8,0-17,6.3-17,17.2c0,18.2,0,36.4,0,54.6
			c0,18.3,0,36.6,0,54.9c0,10.9,6.2,17.2,17.1,17.2c22.9,0,45.8,0,68.8,0c10.8,0,17-6.3,17-17.2C126.4,93.3,126.4,56.7,126.4,20.2z
			 M91.8,101.5c1.4,2.2,2.4,5.2,2.3,7.7c-0.1,6.9-4.8,10.1-15.1,11c-0.2,2.6-1,4.9-4.1,4.9c-3-0.1-3.7-2.4-3.9-5.1
			c-2.8,0-5.5,0-8.1,0c-2.6,0-4.5-1.1-4.5-3.9c0-2.8,2-3.8,4.6-3.8c2.6,0,5.1,0,7.9,0c0-2.5,0-4.9,0-7.7c-4.8,0.3-9.8-0.1-12.7-4.7
			c-1.4-2.2-2.4-5.1-2.3-7.7c0.1-6.8,4.8-10.1,15.1-11c0.1-2.6,1-4.9,4.1-4.9c3,0.1,3.8,2.3,3.8,5.1c3.6,0,7,0,10.4,0
			c3.1,0,4.9,1.5,4.8,3.9c0,2.4-1.8,3.8-4.9,3.8c-3.3,0-6.6,0-10.2,0c0,2.5,0,4.9,0,7.7C83.9,96.6,88.9,96.9,91.8,101.5z M99.4,59.6
			c-16.3,0-32.6,0-48.8,0c-4,0-6.4-1.9-6.4-5.1c0-3.2,2.4-5.1,6.4-5.1c8.2,0,16.5,0,24.7,0c8,0,16.1,0,24.1,0c4,0,6.4,1.9,6.4,5.1
			C105.8,57.6,103.5,59.6,99.4,59.6z M99.7,39c-16.4,0-32.8,0-49.2,0c-4,0-6.4-2-6.3-5.2c0.1-3.2,2.4-5,6.5-5c8.1,0,16.3,0,24.4,0
			c8.1,0,16.3,0,24.4,0c4,0,6.4,2,6.3,5.2C105.8,37.1,103.5,39,99.7,39z"/>
		<path class="st0" d="M64.3,95c1.9,1.2,4.2,1.6,6.8,2.5c0-3.3,0-5.6,0-9.2c-2.7,1-5,1.6-6.8,2.8C63.5,91.5,63.6,94.6,64.3,95z"/>
		<path class="st0" d="M79,113.2c2.7-1.1,5-1.6,6.9-2.9c0.6-0.4,0.5-3.5-0.1-3.9c-1.9-1.2-4.2-1.6-6.7-2.5
			C79,107.2,79,109.6,79,113.2z"/>
	</g>
</g>
<g id="Capa_2" class="st1">
	<g class="st2">
		<path class="st0" d="M126.4,20.2c0-11-6.2-17.2-17-17.2C86.5,3,63.5,3,40.6,3c-10.8,0-17,6.3-17,17.2c0,18.2,0,36.4,0,54.6
			c0,18.3,0,36.6,0,54.9c0,10.9,6.2,17.2,17.1,17.2c22.9,0,45.8,0,68.8,0c10.8,0,17-6.3,17-17.2C126.4,93.3,126.4,56.7,126.4,20.2z
			 M91.8,101.5c1.4,2.2,2.4,5.2,2.3,7.7c-0.1,6.9-4.8,10.1-15.1,11c-0.2,2.6-1,4.9-4.1,4.9c-3-0.1-3.7-2.4-3.9-5.1
			c-2.8,0-5.5,0-8.1,0c-2.6,0-4.5-1.1-4.5-3.9c0-2.8,2-3.8,4.6-3.8c2.6,0,5.1,0,7.9,0c0-2.5,0-4.9,0-7.7c-4.8,0.3-9.8-0.1-12.7-4.7
			c-1.4-2.2-2.4-5.1-2.3-7.7c0.1-6.8,4.8-10.1,15.1-11c0.1-2.6,1-4.9,4.1-4.9c3,0.1,3.8,2.3,3.8,5.1c3.6,0,7,0,10.4,0
			c3.1,0,4.9,1.5,4.8,3.9c0,2.4-1.8,3.8-4.9,3.8c-3.3,0-6.6,0-10.2,0c0,2.5,0,4.9,0,7.7C83.9,96.6,88.9,96.9,91.8,101.5z M99.4,59.6
			c-16.3,0-32.6,0-48.8,0c-4,0-6.4-1.9-6.4-5.1c0-3.2,2.4-5.1,6.4-5.1c8.2,0,16.5,0,24.7,0c8,0,16.1,0,24.1,0c4,0,6.4,1.9,6.4,5.1
			C105.8,57.6,103.5,59.6,99.4,59.6z M99.7,39c-16.4,0-32.8,0-49.2,0c-4,0-6.4-2-6.3-5.2c0.1-3.2,2.4-5,6.5-5c8.1,0,16.3,0,24.4,0
			c8.1,0,16.3,0,24.4,0c4,0,6.4,2,6.3,5.2C105.8,37.1,103.5,39,99.7,39z"/>
		<path class="st0" d="M64.3,95c1.9,1.2,4.2,1.6,6.8,2.5c0-3.3,0-5.6,0-9.2c-2.7,1-5,1.6-6.8,2.8C63.5,91.5,63.6,94.6,64.3,95z"/>
		<path class="st0" d="M79,113.2c2.7-1.1,5-1.6,6.9-2.9c0.6-0.4,0.5-3.5-0.1-3.9c-1.9-1.2-4.2-1.6-6.7-2.5
			C79,107.2,79,109.6,79,113.2z"/>
	</g>
</g>
</svg>
