<?xml version="1.0" encoding="utf-8"?>
<!-- Generator: Adobe Illustrator 24.0.2, SVG Export Plug-In . SVG Version: 6.00 Build 0)  -->
<svg version="1.1" id="Capa_1" xmlns="http://www.w3.org/2000/svg" xmlns:xlink="http://www.w3.org/1999/xlink" x="0px" y="0px"
	 viewBox="0 0 50 50" style="enable-background:new 0 0 50 50;" xml:space="preserve">
<style type="text/css">
	.st0{fill:#787E82;}
</style>
<g>
	<path class="st0" d="M11.8,0c0,1,0,1.9,0,2.9c-2,0-3.9,0-5.8,0c0,2,0,3.9,0,5.8c-1,0-1.9,0-2.9,0C3,5.8,3,2.9,3,0C6,0,8.9,0,11.8,0
		z"/>
	<path class="st0" d="M47,0c0,2.9,0,5.8,0,8.8c-1,0-1.9,0-2.9,0c0-1.9,0-3.8,0-5.8c-2,0-3.9,0-5.9,0c0-1,0-2,0-3C41.1,0,44,0,47,0z"
		/>
	<path class="st0" d="M3,50c0-2.9,0-5.8,0-8.7c1,0,1.9,0,2.9,0c0,1.9,0,3.9,0,5.8c2,0,3.9,0,5.9,0c0,1,0,1.9,0,2.9C8.9,50,6,50,3,50
		z"/>
	<path class="st0" d="M46.9,50c-2.9,0-5.8,0-8.7,0c0-1,0-1.9,0-2.9c1.9,0,3.9,0,5.8,0c0-2,0-3.9,0-5.8c1,0,1.9,0,2.9,0
		C46.9,44.2,46.9,47.1,46.9,50z"/>
	<path class="st0" d="M38.2,29.4c0-0.3,0-0.5,0-0.7c0-4.2,0-8.5,0-12.7c0-0.3-0.1-0.6-0.3-0.8c-3-3-6-6-9-9C28.6,6.1,28.4,5.9,28,6
		c-5.2,0-10.5,0-15.7,0c-0.2,0-0.3,0-0.6,0c0,7.8,0,15.6,0,23.5c-3,0-5.9,0-8.7,0c0,1,0,1.9,0,2.9c2.9,0,5.8,0,8.8,0
		c0,3.9,0,7.8,0,11.7c8.8,0,17.6,0,26.4,0c0-3.9,0-7.8,0-11.7c2.9,0,5.8,0,8.7,0c0-1,0-1.9,0-2.9C44,29.4,41.1,29.4,38.2,29.4z
		 M17.7,17.7c1.9,0,3.8,0,5.8,0c0,1,0,1.9,0,2.9c-1.9,0-3.8,0-5.8,0C17.7,19.6,17.7,18.7,17.7,17.7z M32.3,38.2c-4.9,0-9.7,0-14.6,0
		c0-0.9,0-1.9,0-2.9c4.8,0,9.7,0,14.6,0C32.3,36.3,32.3,37.2,32.3,38.2z M32.3,26.4c-4.9,0-9.7,0-14.6,0c0-0.9,0-1.9,0-2.9
		c4.8,0,9.7,0,14.6,0C32.3,24.5,32.3,25.5,32.3,26.4z M27.4,18.1c0-2.8,0-5.5,0-8.2c2.7,2.7,5.5,5.5,8.2,8.2
		C33,18.1,30.2,18.1,27.4,18.1z"/>
</g>
</svg>
