<?xml version="1.0" encoding="utf-8"?>
<!-- Generator: Adobe Illustrator 24.0.2, SVG Export Plug-In . SVG Version: 6.00 Build 0)  -->
<svg version="1.1" xmlns="http://www.w3.org/2000/svg" xmlns:xlink="http://www.w3.org/1999/xlink" x="0px" y="0px"
	 viewBox="0 0 150 150" style="enable-background:new 0 0 150 150;" xml:space="preserve">
<style type="text/css">
	.st0{display:none;}
	.st1{display:inline;}
	.st2{fill:#FFFFFF;}
	.st3{display:inline;fill:#FFFFFF;}
</style>
<g id="black">
	<g>
		<g>
			<path d="M74.9,145c-3.3,0-6.6,0-9.8,0c-3.8-0.1-6-2.1-6.1-5.9c-0.1-3.2-0.1-6.4,0-9.6c0-1.5-0.4-2.4-1.9-2.8
				c-1-0.2-1.9-0.6-2.8-1c-5-2-5-2-8.9,1.9c-1.4,1.4-2.8,2.9-4.3,4.2c-2.5,2.2-5.5,2.4-7.9,0.1c-5.1-4.9-10-9.8-14.9-14.9
				c-2.4-2.5-2.3-5.5,0.1-8.1c2.2-2.4,4.6-4.7,7-7c1-1,1.3-1.8,0.5-3.1c-0.6-1.1-1.1-2.3-1.6-3.5c-1.7-4.3-1.7-4.4-6.5-4.4
				c-2.3,0-4.6,0.1-6.8-0.1c-3.6-0.2-5.7-2.4-5.8-6C5,78.4,5,71.6,5,64.9c0-3.6,2.1-5.8,5.7-6c3.2-0.2,6.4-0.1,9.6,0
				c1.6,0,2.6-0.4,3-2c0.3-1.2,0.9-2.4,1.4-3.6c1.8-4,1.8-4-1.4-7.2c-1.6-1.6-3.3-3.2-4.8-4.8c-2.6-2.8-2.7-5.8-0.1-8.5
				c4.8-4.9,9.6-9.7,14.5-14.5c2.6-2.5,5.6-2.4,8.3,0.1c2.4,2.3,4.6,4.7,7,6.9c0.6,0.5,1.9,0.6,2.7,0.5c0.9-0.1,1.8-1,2.7-1.2
				c4.8-0.8,5.9-3.8,5.3-8.1c-0.3-1.9-0.1-3.8,0-5.7c0.3-3.4,2.4-5.6,5.8-5.6C71.6,5,78.4,5,85.2,5.1c3.5,0,5.7,2.2,5.9,5.9
				c0.1,3.2,0.1,6.4,0,9.6c0,1.5,0.4,2.4,1.9,2.8c1,0.2,1.9,0.6,2.8,1c5,2,5,2,8.7-1.7c1.4-1.4,2.8-2.9,4.3-4.2
				c2.7-2.5,5.7-2.6,8.3-0.1c4.9,4.7,9.7,9.6,14.5,14.5c2.6,2.7,2.5,5.7-0.1,8.5c-2.3,2.4-4.7,4.6-6.9,7c-0.5,0.5-0.6,1.7-0.4,2.5
				c0.3,1.3,1.1,2.5,1.6,3.7c1.7,4.3,1.7,4.3,6.5,4.3c2.3,0,4.6-0.1,6.8,0.1c3.6,0.2,5.7,2.4,5.8,6c0.1,6.7,0.1,13.5,0,20.2
				c0,3.6-2.1,5.8-5.7,6c-3.3,0.2-6.6-0.1-9.8,0.1c-0.9,0.1-2,0.9-2.5,1.7c-0.7,1.1-1,2.5-1.6,3.8c-1.8,4-1.8,4,1.4,7.2
				c1.6,1.6,3.3,3.2,4.8,4.8c2.6,2.8,2.7,5.8,0.1,8.5c-4.8,4.9-9.6,9.7-14.5,14.5c-2.6,2.5-5.7,2.4-8.3-0.1c-2.4-2.3-4.6-4.7-7-6.9
				c-0.6-0.5-1.9-0.6-2.7-0.5c-1,0.2-2,0.9-3,1.3c-5,2.1-5,2.1-5,7.4c0,2,0.1,4,0,6c-0.2,3.8-2.4,5.8-6.1,5.9
				C81.6,145,78.2,145,74.9,145z M115.4,75.1c0.1-22.1-18-40.2-40.2-40.4c-22-0.2-40.2,17.9-40.5,40.2
				c-0.3,22.1,18.2,40.6,40.4,40.6C97.2,115.3,115.3,97.2,115.4,75.1z"/>
		</g>
		<path d="M51.8,74.9c0-7,0-14,0-21c0-5.3,3.2-8.4,8.4-8.5c6.6,0,13.3,0,19.9,0c2.5,0,4.5,0.8,6.3,2.5c3,3,6.1,5.9,9.1,8.8
			c1.8,1.7,2.7,3.8,2.7,6.4c0,11.1,0,22.1,0,33.2c0,5-3.2,8.2-8.2,8.2c-10,0-20,0-30.1,0c-5,0-8.2-3.3-8.2-8.4
			C51.8,89.1,51.8,82,51.8,74.9z M75,77.3c-3.5,0-7,0-10.6,0c-1.9,0-3.1,0.9-3.1,2.4c0,1.6,1.1,2.6,3.1,2.6c7,0,14.1,0,21.1,0
			c2,0,3.2-1,3.1-2.6c0-1.5-1.2-2.4-3.1-2.4C82,77.3,78.5,77.3,75,77.3z M75,94.3c3.7,0,7.3,0,11,0c1.6,0,2.7-1.2,2.7-2.6
			c0-1.4-1.1-2.4-2.6-2.4c-7.3,0-14.7,0-22,0c-0.8,0-1.8,0.6-2.3,1.3c-1.2,1.6,0.2,3.7,2.4,3.7C67.7,94.3,71.4,94.3,75,94.3z
			 M74.9,70.4c3.7,0,7.3,0,11,0c1.7,0,2.7-1.1,2.7-2.5c0-1.4-1.1-2.5-2.7-2.5c-7.3,0-14.6,0-21.9,0c-0.7,0-1.7,0.4-2.1,1
			c-0.4,0.6-0.5,1.7-0.3,2.5c0.3,1.1,1.3,1.5,2.4,1.5C67.7,70.4,71.3,70.4,74.9,70.4z"/>
	</g>
</g>
<g id="white" class="st0">
	<g class="st1">
		<g>
			<path class="st2" d="M74.9,145c-3.3,0-6.6,0-9.8,0c-3.8-0.1-6-2.1-6.1-5.9c-0.1-3.2-0.1-6.4,0-9.6c0-1.5-0.4-2.4-1.9-2.8
				c-1-0.2-1.9-0.6-2.8-1c-5-2-5-2-8.9,1.9c-1.4,1.4-2.8,2.9-4.3,4.2c-2.5,2.2-5.5,2.4-7.9,0.1c-5.1-4.9-10-9.8-14.9-14.9
				c-2.4-2.5-2.3-5.5,0.1-8.1c2.2-2.4,4.6-4.7,7-7c1-1,1.3-1.8,0.5-3.1c-0.6-1.1-1.1-2.3-1.6-3.5c-1.7-4.3-1.7-4.4-6.5-4.4
				c-2.3,0-4.6,0.1-6.8-0.1c-3.6-0.2-5.7-2.4-5.8-6C5,78.4,5,71.6,5,64.9c0-3.6,2.1-5.8,5.7-6c3.2-0.2,6.4-0.1,9.6,0
				c1.6,0,2.6-0.4,3-2c0.3-1.2,0.9-2.4,1.4-3.6c1.8-4,1.8-4-1.4-7.2c-1.6-1.6-3.3-3.2-4.8-4.8c-2.6-2.8-2.7-5.8-0.1-8.5
				c4.8-4.9,9.6-9.7,14.5-14.5c2.6-2.5,5.6-2.4,8.3,0.1c2.4,2.3,4.6,4.7,7,6.9c0.6,0.5,1.9,0.6,2.7,0.5c0.9-0.1,1.8-1,2.7-1.2
				c4.8-0.8,5.9-3.8,5.3-8.1c-0.3-1.9-0.1-3.8,0-5.7c0.3-3.4,2.4-5.6,5.8-5.6C71.6,5,78.4,5,85.2,5.1c3.5,0,5.7,2.2,5.9,5.9
				c0.1,3.2,0.1,6.4,0,9.6c0,1.5,0.4,2.4,1.9,2.8c1,0.2,1.9,0.6,2.8,1c5,2,5,2,8.7-1.7c1.4-1.4,2.8-2.9,4.3-4.2
				c2.7-2.5,5.7-2.6,8.3-0.1c4.9,4.7,9.7,9.6,14.5,14.5c2.6,2.7,2.5,5.7-0.1,8.5c-2.3,2.4-4.7,4.6-6.9,7c-0.5,0.5-0.6,1.7-0.4,2.5
				c0.3,1.3,1.1,2.5,1.6,3.7c1.7,4.3,1.7,4.3,6.5,4.3c2.3,0,4.6-0.1,6.8,0.1c3.6,0.2,5.7,2.4,5.8,6c0.1,6.7,0.1,13.5,0,20.2
				c0,3.6-2.1,5.8-5.7,6c-3.3,0.2-6.6-0.1-9.8,0.1c-0.9,0.1-2,0.9-2.5,1.7c-0.7,1.1-1,2.5-1.6,3.8c-1.8,4-1.8,4,1.4,7.2
				c1.6,1.6,3.3,3.2,4.8,4.8c2.6,2.8,2.7,5.8,0.1,8.5c-4.8,4.9-9.6,9.7-14.5,14.5c-2.6,2.5-5.7,2.4-8.3-0.1c-2.4-2.3-4.6-4.7-7-6.9
				c-0.6-0.5-1.9-0.6-2.7-0.5c-1,0.2-2,0.9-3,1.3c-5,2.1-5,2.1-5,7.4c0,2,0.1,4,0,6c-0.2,3.8-2.4,5.8-6.1,5.9
				C81.6,145,78.2,145,74.9,145z M115.4,75.1c0.1-22.1-18-40.2-40.2-40.4c-22-0.2-40.2,17.9-40.5,40.2
				c-0.3,22.1,18.2,40.6,40.4,40.6C97.2,115.3,115.3,97.2,115.4,75.1z"/>
		</g>
		<path class="st2" d="M51.8,74.9c0-7,0-14,0-21c0-5.3,3.2-8.4,8.4-8.5c6.6,0,13.3,0,19.9,0c2.5,0,4.5,0.8,6.3,2.5
			c3,3,6.1,5.9,9.1,8.8c1.8,1.7,2.7,3.8,2.7,6.4c0,11.1,0,22.1,0,33.2c0,5-3.2,8.2-8.2,8.2c-10,0-20,0-30.1,0c-5,0-8.2-3.3-8.2-8.4
			C51.8,89.1,51.8,82,51.8,74.9z M75,77.3c-3.5,0-7,0-10.6,0c-1.9,0-3.1,0.9-3.1,2.4c0,1.6,1.1,2.6,3.1,2.6c7,0,14.1,0,21.1,0
			c2,0,3.2-1,3.1-2.6c0-1.5-1.2-2.4-3.1-2.4C82,77.3,78.5,77.3,75,77.3z M75,94.3c3.7,0,7.3,0,11,0c1.6,0,2.7-1.2,2.7-2.6
			c0-1.4-1.1-2.4-2.6-2.4c-7.3,0-14.7,0-22,0c-0.8,0-1.8,0.6-2.3,1.3c-1.2,1.6,0.2,3.7,2.4,3.7C67.7,94.3,71.4,94.3,75,94.3z
			 M74.9,70.4c3.7,0,7.3,0,11,0c1.7,0,2.7-1.1,2.7-2.5c0-1.4-1.1-2.5-2.7-2.5c-7.3,0-14.6,0-21.9,0c-0.7,0-1.7,0.4-2.1,1
			c-0.4,0.6-0.5,1.7-0.3,2.5c0.3,1.1,1.3,1.5,2.4,1.5C67.7,70.4,71.3,70.4,74.9,70.4z"/>
	</g>
</g>
</svg>
