<?xml version="1.0" encoding="utf-8"?>
<!-- Generator: Adobe Illustrator 24.0.2, SVG Export Plug-In . SVG Version: 6.00 Build 0)  -->
<svg version="1.1" id="Capa_1" xmlns="http://www.w3.org/2000/svg" xmlns:xlink="http://www.w3.org/1999/xlink" x="0px" y="0px"
	 viewBox="0 0 50 50" style="enable-background:new 0 0 50 50;" xml:space="preserve">
<style type="text/css">
	.st0{fill:#787E82;}
</style>
<g>
	<path class="st0" d="M31.3,7.5c0,1.8,0,3.5,0,5.2c0,1.9,0.8,3.4,2.6,4.2c0.6,0.3,1.3,0.4,2,0.5c0.8,0.1,1.7,0,2.5,0
		c2.7,0,4.6-1.9,4.6-4.7c0-1.6,0-3.1,0-4.7c0-0.2,0-0.3,0-0.5c1.5,0.1,2.6,0.7,3.3,1.9c0.4,0.7,0.6,1.4,0.6,2.2
		c0,10.5,0,21.1,0,31.6c0,2-1.1,3.5-3,4.1c-0.4,0.1-0.8,0.1-1.2,0.1c-11.8,0-23.7,0-35.5,0c-2.5,0-4.2-1.7-4.2-4.4
		c0-8.6,0-17.3,0-25.9c0-1.9,0-3.7,0-5.6c0-2,1.1-3.4,3-4c0.3-0.1,0.6-0.1,0.9-0.2c0,0.2,0,0.3,0,0.5c0,1.6,0,3.2,0,4.7
		c0,2.7,1.9,4.6,4.6,4.7c0.9,0,1.7,0,2.6,0c2.7-0.1,4.6-2,4.6-4.7c0-1.7,0-3.5,0-5.2C22.9,7.5,27.1,7.5,31.3,7.5z M25,43.2
		c4.9,0,9.8,0,14.8,0c1.4,0,2.1-0.7,2.1-2.1c0-5.3,0-10.5,0-15.8c0-1.4-0.7-2.1-2.1-2.1c-9.8,0-19.7,0-29.5,0
		c-1.4,0-2.1,0.7-2.1,2.1c0,5.3,0,10.5,0,15.8c0,1.4,0.7,2.1,2.1,2.1C15.1,43.2,20,43.2,25,43.2z"/>
	<path class="st0" d="M40.1,8.5c0,1.4,0,2.8,0,4.2c0,1.2-0.6,1.8-1.8,1.8c-0.8,0-1.6,0-2.5,0c-1,0-1.6-0.6-1.6-1.6
		c0-2.9,0-5.9,0-8.8c0-1,0.7-1.6,1.6-1.6c0.8,0,1.7,0,2.5,0c1.1,0,1.7,0.6,1.7,1.7C40.1,5.6,40.1,7.1,40.1,8.5z"/>
	<path class="st0" d="M15.7,8.5c0,1.4,0,2.8,0,4.2c0,1.2-0.6,1.8-1.8,1.8c-0.8,0-1.6,0-2.4,0c-1,0-1.6-0.6-1.6-1.6
		c0-1.6,0-3.1,0-4.7c0-1.3,0-2.6,0-3.9c0-1.2,0.6-1.8,1.8-1.8c0.8,0,1.6,0,2.4,0c1,0,1.7,0.6,1.7,1.7C15.7,5.6,15.7,7,15.7,8.5z"/>
	<path class="st0" d="M25,26.3c0.6,0,1.1,0,1.7,0c0.7,0,1.1,0.4,1.1,1.1c0,1.2,0,2.3,0,3.5c0,0.7-0.4,1-1.1,1.1c-1.1,0-2.3,0-3.4,0
		c-0.7,0-1.1-0.4-1.1-1.2c0-1.1,0-2.2,0-3.3c0-0.8,0.4-1.2,1.2-1.2C23.9,26.3,24.5,26.3,25,26.3z"/>
	<path class="st0" d="M25,40.8c-0.6,0-1.1,0-1.7,0c-0.7,0-1.1-0.4-1.1-1.1c0-1.1,0-2.2,0-3.3c0-0.7,0.4-1.1,1.1-1.1
		c1.1,0,2.3,0,3.4,0c0.7,0,1.1,0.4,1.1,1.1c0,1.1,0,2.2,0,3.3c0,0.8-0.4,1.2-1.2,1.2C26.1,40.8,25.5,40.8,25,40.8z"/>
	<path class="st0" d="M13.3,29.1c0-0.6,0-1.1,0-1.7c0-0.7,0.4-1.1,1.1-1.1c1.1,0,2.3,0,3.4,0c0.7,0,1.1,0.4,1.1,1c0,1.2,0,2.3,0,3.5
		c0,0.7-0.4,1.1-1.1,1.1c-1.1,0-2.3,0-3.4,0c-0.7,0-1.1-0.4-1.1-1.2C13.3,30.2,13.3,29.6,13.3,29.1z"/>
	<path class="st0" d="M36.7,29.1c0,0.5,0,1.1,0,1.6c0,0.7-0.4,1.1-1.1,1.1c-1.2,0-2.3,0-3.5,0c-0.7,0-1-0.4-1.1-1.1
		c0-1.1,0-2.3,0-3.4c0-0.7,0.4-1.1,1.1-1.1c1.1,0,2.2,0,3.3,0c0.7,0,1.1,0.4,1.1,1.1C36.7,28,36.7,28.6,36.7,29.1z"/>
	<path class="st0" d="M16.1,40.8c-0.5,0-1.1,0-1.6,0c-0.8,0-1.2-0.4-1.2-1.2c0-1.1,0-2.2,0-3.3c0-0.7,0.4-1.1,1.1-1.2
		c1.1,0,2.2,0,3.3,0c0.7,0,1.1,0.4,1.2,1.1c0,1.1,0,2.2,0,3.3c0,0.7-0.4,1.1-1.2,1.1C17.2,40.8,16.6,40.8,16.1,40.8z"/>
	<path class="st0" d="M36.7,38c0,0.6,0,1.1,0,1.7c0,0.7-0.4,1.1-1.1,1.1c-1.2,0-2.3,0-3.5,0c-0.6,0-1-0.4-1-1c0-1.2,0-2.4,0-3.6
		c0-0.6,0.4-1,1.1-1c1.1,0,2.3,0,3.4,0c0.7,0,1.1,0.4,1.1,1.1C36.7,36.9,36.7,37.5,36.7,38z"/>
</g>
</svg>
