<?xml version="1.0" encoding="utf-8"?>
<!-- Generator: Adobe Illustrator 24.0.2, SVG Export Plug-In . SVG Version: 6.00 Build 0)  -->
<svg version="1.1" xmlns="http://www.w3.org/2000/svg" xmlns:xlink="http://www.w3.org/1999/xlink" x="0px" y="0px"
	 viewBox="0 0 150 150" style="enable-background:new 0 0 150 150;" xml:space="preserve">
<style type="text/css">
	.st0{fill:#101820;}
	.st1{display:none;}
	.st2{display:inline;}
	.st3{fill:#FFFFFF;}
	.st4{display:inline;fill:#101820;}
</style>
<g id="Capa_1">
	<g>
		<path class="st0" d="M21,75c0-18.9,0-37.9,0-56.8C21,8.4,26.4,3,36.1,3C62,3,88,3,113.9,3c9.7,0,15.1,5.4,15.1,15.2
			c0,37.9,0,75.7,0,113.6c0,9.8-5.4,15.2-15,15.2c-26,0-51.9,0-77.9,0c-9.7,0-15.1-5.4-15.1-15.2C21,112.9,21,93.9,21,75z M75,129
			c10,0,20.1,0,30.1,0c4.4,0,5.9-1.5,5.9-5.9c0-15.6,0-31.1,0-46.7c0-4.4-1.5-5.9-5.9-5.9c-20.1,0-40.1,0-60.2,0
			c-4.4,0-5.9,1.5-5.9,5.9c0,15.6,0,31.1,0,46.7c0,4.4,1.5,5.9,5.9,5.9C54.9,129,64.9,129,75,129z M52.4,18.6
			c-1.3,0.9-2.5,1.6-3.6,2.5c-1.2,1-2.2,2.4-3.5,3.2c-3.5,2.3-5.3,5.6-5,9.7c0.4,4.4,2.8,7.6,7.1,8.8c1.9,0.6,4.1,0.3,6.1,0.6
			c0.8,0.1,1.4,0.8,2.1,1.2C55,45.2,54.3,46,53.5,46c-2.6,0.2-5.2,0-7.9,0.1c-3.4,0.1-5.4,1.7-5.4,4.4c0,2.6,2,4.5,5.3,4.5
			c1.5,0,2.4,0.3,3.3,1.8c1.7,2.9,5.7,2.6,7.5-0.2c0.7-1.1,1.7-2.1,2.8-2.8c3.6-2.1,5.9-6.1,5.5-10c-0.5-4.4-3.4-8-7.7-9
			c-1.8-0.4-3.7-0.2-5.6-0.5c-0.8-0.1-1.4-0.8-2.1-1.2c0.7-0.4,1.4-1.2,2.1-1.3c2.8-0.2,5.6,0,8.4-0.1c2.9-0.1,4.8-1.9,4.8-4.4
			c0-2.5-1.9-4.4-4.8-4.5c-1.8,0-3.1-0.2-4.1-2.1C55.4,20,53.9,19.5,52.4,18.6z M92.9,30c4.1,0,8.2,0,12.4,0c3.6,0,5.6-1.6,5.7-4.4
			c0-2.8-2-4.6-5.5-4.6c-8.3,0-16.7,0-25,0c-3.3,0-5.3,1.7-5.4,4.4c0,2.8,2,4.5,5.5,4.6C84.7,30,88.8,30,92.9,30z M88.3,43.5
			c2.9,0,5.8,0,8.7,0c3-0.1,5-2,4.9-4.6c-0.1-2.5-2-4.3-4.9-4.3c-5.7-0.1-11.4-0.1-17.1,0c-3,0-5,2-4.9,4.6c0.1,2.5,2,4.3,4.9,4.4
			C82.7,43.5,85.5,43.5,88.3,43.5z M88.8,48c-3,0-6-0.1-9,0c-2.9,0.1-4.8,1.9-4.8,4.5c0,2.5,1.9,4.4,4.8,4.5
			c5.8,0.1,11.6,0.1,17.4,0c2.9,0,4.8-1.9,4.8-4.5c0-2.5-1.9-4.4-4.8-4.5C94.4,48,91.6,48,88.8,48z"/>
		<path class="st0" d="M61.3,119.9c-4.5,0-8.8,0-13.2,0c0-7.4,0-14.6,0-22.1c4.4,0,8.7,0,13.2,0C61.3,105.1,61.3,112.4,61.3,119.9z"
			/>
		<path class="st0" d="M83.8,119.9c-4.5,0-8.8,0-13.2,0c0-7.4,0-14.6,0-22.1c4.4,0,8.7,0,13.2,0C83.8,105.2,83.8,112.4,83.8,119.9z"
			/>
		<path class="st0" d="M101.8,119.9c-3,0-5.8,0-8.7,0c0-7.4,0-14.6,0-22.1c2.9,0,5.7,0,8.7,0C101.8,105.1,101.8,112.4,101.8,119.9z"
			/>
		<path class="st0" d="M48.1,88.4c0-3,0-5.7,0-8.7c4.4,0,8.8,0,13.2,0c0,2.9,0,5.7,0,8.7C57,88.4,52.7,88.4,48.1,88.4z"/>
		<path class="st0" d="M83.8,88.5c-4.4,0-8.7,0-13.1,0c0-2.9,0-5.7,0-8.8c4.3,0,8.7,0,13.1,0C83.8,82.6,83.8,85.5,83.8,88.5z"/>
		<path class="st0" d="M101.9,79.7c0,3.1,0,5.9,0,8.8c-3,0-5.8,0-8.8,0c0-3,0-5.8,0-8.8C96,79.7,98.9,79.7,101.9,79.7z"/>
	</g>
</g>
<g id="Capa_2" class="st1">
	<g class="st2">
		<path class="st0" d="M21,75c0-18.9,0-37.9,0-56.8C21,8.4,26.4,3,36.1,3C62,3,88,3,113.9,3c9.7,0,15.1,5.4,15.1,15.2
			c0,37.9,0,75.7,0,113.6c0,9.8-5.4,15.2-15,15.2c-26,0-51.9,0-77.9,0c-9.7,0-15.1-5.4-15.1-15.2C21,112.9,21,93.9,21,75z M75,129
			c10,0,20.1,0,30.1,0c4.4,0,5.9-1.5,5.9-5.9c0-15.6,0-31.1,0-46.7c0-4.4-1.5-5.9-5.9-5.9c-20.1,0-40.1,0-60.2,0
			c-4.4,0-5.9,1.5-5.9,5.9c0,15.6,0,31.1,0,46.7c0,4.4,1.5,5.9,5.9,5.9C54.9,129,64.9,129,75,129z M52.4,18.6
			c-1.3,0.9-2.5,1.6-3.6,2.5c-1.2,1-2.2,2.4-3.5,3.2c-3.5,2.3-5.3,5.6-5,9.7c0.4,4.4,2.8,7.6,7.1,8.8c1.9,0.6,4.1,0.3,6.1,0.6
			c0.8,0.1,1.4,0.8,2.1,1.2C55,45.2,54.3,46,53.5,46c-2.6,0.2-5.2,0-7.9,0.1c-3.4,0.1-5.4,1.7-5.4,4.4c0,2.6,2,4.5,5.3,4.5
			c1.5,0,2.4,0.3,3.3,1.8c1.7,2.9,5.7,2.6,7.5-0.2c0.7-1.1,1.7-2.1,2.8-2.8c3.6-2.1,5.9-6.1,5.5-10c-0.5-4.4-3.4-8-7.7-9
			c-1.8-0.4-3.7-0.2-5.6-0.5c-0.8-0.1-1.4-0.8-2.1-1.2c0.7-0.4,1.4-1.2,2.1-1.3c2.8-0.2,5.6,0,8.4-0.1c2.9-0.1,4.8-1.9,4.8-4.4
			c0-2.5-1.9-4.4-4.8-4.5c-1.8,0-3.1-0.2-4.1-2.1C55.4,20,53.9,19.5,52.4,18.6z M92.9,30c4.1,0,8.2,0,12.4,0c3.6,0,5.6-1.6,5.7-4.4
			c0-2.8-2-4.6-5.5-4.6c-8.3,0-16.7,0-25,0c-3.3,0-5.3,1.7-5.4,4.4c0,2.8,2,4.5,5.5,4.6C84.7,30,88.8,30,92.9,30z M88.3,43.5
			c2.9,0,5.8,0,8.7,0c3-0.1,5-2,4.9-4.6c-0.1-2.5-2-4.3-4.9-4.3c-5.7-0.1-11.4-0.1-17.1,0c-3,0-5,2-4.9,4.6c0.1,2.5,2,4.3,4.9,4.4
			C82.7,43.5,85.5,43.5,88.3,43.5z M88.8,48c-3,0-6-0.1-9,0c-2.9,0.1-4.8,1.9-4.8,4.5c0,2.5,1.9,4.4,4.8,4.5
			c5.8,0.1,11.6,0.1,17.4,0c2.9,0,4.8-1.9,4.8-4.5c0-2.5-1.9-4.4-4.8-4.5C94.4,48,91.6,48,88.8,48z"/>
		<path class="st0" d="M61.3,119.9c-4.5,0-8.8,0-13.2,0c0-7.4,0-14.6,0-22.1c4.4,0,8.7,0,13.2,0C61.3,105.1,61.3,112.4,61.3,119.9z"
			/>
		<path class="st0" d="M83.8,119.9c-4.5,0-8.8,0-13.2,0c0-7.4,0-14.6,0-22.1c4.4,0,8.7,0,13.2,0C83.8,105.2,83.8,112.4,83.8,119.9z"
			/>
		<path class="st0" d="M101.8,119.9c-3,0-5.8,0-8.7,0c0-7.4,0-14.6,0-22.1c2.9,0,5.7,0,8.7,0C101.8,105.1,101.8,112.4,101.8,119.9z"
			/>
		<path class="st0" d="M48.1,88.4c0-3,0-5.7,0-8.7c4.4,0,8.8,0,13.2,0c0,2.9,0,5.7,0,8.7C57,88.4,52.7,88.4,48.1,88.4z"/>
		<path class="st0" d="M83.8,88.5c-4.4,0-8.7,0-13.1,0c0-2.9,0-5.7,0-8.8c4.3,0,8.7,0,13.1,0C83.8,82.6,83.8,85.5,83.8,88.5z"/>
		<path class="st0" d="M101.9,79.7c0,3.1,0,5.9,0,8.8c-3,0-5.8,0-8.8,0c0-3,0-5.8,0-8.8C96,79.7,98.9,79.7,101.9,79.7z"/>
	</g>
</g>
</svg>
