<?xml version="1.0" encoding="utf-8"?>
<!-- Generator: Adobe Illustrator 24.0.2, SVG Export Plug-In . SVG Version: 6.00 Build 0)  -->
<svg version="1.1" xmlns="http://www.w3.org/2000/svg" xmlns:xlink="http://www.w3.org/1999/xlink" x="0px" y="0px"
	 viewBox="0 0 150 150" style="enable-background:new 0 0 150 150;" xml:space="preserve">
<style type="text/css">
	.st0{fill:#101820;}
	.st1{display:none;}
	.st2{display:inline;}
	.st3{fill:#FFFFFF;}
	.st4{display:inline;fill:#FFFFFF;}
</style>
<g id="Capa_1">
	<g>
		<path class="st0" d="M87.7,3c0,1.3,0,2.3,0,3.3c0,8.4,0,16.9,0,25.3c0.1,8.5,5.2,13.6,13.7,13.6c9.4,0,18.7,0,28.4,0
			c0,1.2,0,2.2,0,3.2c0,27.9,0,55.9,0,83.8c0,10-4.8,14.8-14.8,14.8c-26.8,0-53.6,0-80.4,0c-9.4,0-14.4-4.9-14.5-14.3
			c0-38.4,0-76.9,0-115.3C20.2,8,25.1,3,34.5,3c16.6,0,33.2,0,49.8,0C85.3,3,86.3,3,87.7,3z M75,70.8c7.7,0,15.3,0,23,0
			c0.9,0,1.9,0,2.8-0.1c2.3-0.3,3.6-1.7,3.6-4c0.1-2.4-1.2-3.9-3.6-4.2c-0.8-0.1-1.7-0.1-2.5-0.1c-15.5,0-31.1,0-46.6,0
			c-1,0-2.4-0.3-3,0.3c-1.3,1-2.7,2.4-3,3.8c-0.5,2,0.9,3.6,3,4.1c1,0.2,2,0.2,3.1,0.2C59.5,70.8,67.2,70.8,75,70.8z M75.3,79.2
			c-7.3,0-14.6,0-21.9,0c-1.4,0-2.8-0.1-4.2,0.1c-2.3,0.3-3.6,1.7-3.6,3.9c-0.1,2.4,1.2,3.9,3.6,4.2c0.9,0.1,1.9,0.1,2.8,0.1
			c15.3,0,30.7,0,46,0c1.1,0,2.3,0,3.3-0.2c2.1-0.5,3.4-2.1,3-4.1c-0.3-1.5-1.8-2.8-3-3.8c-0.7-0.5-2-0.3-3-0.3
			C90.6,79.2,83,79.2,75.3,79.2z M75,96.1c-7,0-14,0-21.1,0c-1.6,0-3.2-0.1-4.8,0.1c-2.4,0.3-3.7,1.8-3.7,4.2c0,2.2,1.3,3.6,3.6,4
			c0.8,0.1,1.7,0.1,2.5,0.1c15.5,0,31.1,0,46.6,0c0.9,0,1.9,0,2.8-0.2c2.3-0.4,3.4-1.9,3.4-4.1c0-2.1-1.2-3.5-3.3-3.9
			c-0.9-0.2-1.9-0.2-2.8-0.2C90.6,96.1,82.8,96.1,75,96.1z M66.6,121.4C66.6,121.4,66.6,121.4,66.6,121.4c5.4,0,10.8,0.1,16.3,0
			c3.1,0,4.8-1.8,4.8-4.3c-0.1-2.4-1.8-4-4.7-4c-10.8-0.1-21.7-0.1-32.5,0c-1.3,0-3,0.6-3.6,1.5c-0.8,1.1-1.2,3.2-0.6,4.3
			c0.7,1.2,2.5,2.3,3.9,2.4C55.5,121.5,61,121.4,66.6,121.4z"/>
		<path class="st0" d="M96.1,6.1c10.3,10.3,20.3,20.3,30.4,30.4c-0.1,0-0.5,0.2-0.9,0.2c-8.2,0-16.5,0-24.7,0c-2.9,0-4.7-1.4-4.8-4
			C96.1,23.9,96.1,15.2,96.1,6.1z"/>
	</g>
</g>
<g id="Capa_2" class="st1">
	<g class="st2">
		<path class="st3" d="M87.7,3c0,1.3,0,2.3,0,3.3c0,8.4,0,16.9,0,25.3c0.1,8.5,5.2,13.6,13.7,13.6c9.4,0,18.7,0,28.4,0
			c0,1.2,0,2.2,0,3.2c0,27.9,0,55.9,0,83.8c0,10-4.8,14.8-14.8,14.8c-26.8,0-53.6,0-80.4,0c-9.4,0-14.4-4.9-14.5-14.3
			c0-38.4,0-76.9,0-115.3C20.2,8,25.1,3,34.5,3c16.6,0,33.2,0,49.8,0C85.3,3,86.3,3,87.7,3z M75,70.8c7.7,0,15.3,0,23,0
			c0.9,0,1.9,0,2.8-0.1c2.3-0.3,3.6-1.7,3.6-4c0.1-2.4-1.2-3.9-3.6-4.2c-0.8-0.1-1.7-0.1-2.5-0.1c-15.5,0-31.1,0-46.6,0
			c-1,0-2.4-0.3-3,0.3c-1.3,1-2.7,2.4-3,3.8c-0.5,2,0.9,3.6,3,4.1c1,0.2,2,0.2,3.1,0.2C59.5,70.8,67.2,70.8,75,70.8z M75.3,79.2
			c-7.3,0-14.6,0-21.9,0c-1.4,0-2.8-0.1-4.2,0.1c-2.3,0.3-3.6,1.7-3.6,3.9c-0.1,2.4,1.2,3.9,3.6,4.2c0.9,0.1,1.9,0.1,2.8,0.1
			c15.3,0,30.7,0,46,0c1.1,0,2.3,0,3.3-0.2c2.1-0.5,3.4-2.1,3-4.1c-0.3-1.5-1.8-2.8-3-3.8c-0.7-0.5-2-0.3-3-0.3
			C90.6,79.2,83,79.2,75.3,79.2z M75,96.1c-7,0-14,0-21.1,0c-1.6,0-3.2-0.1-4.8,0.1c-2.4,0.3-3.7,1.8-3.7,4.2c0,2.2,1.3,3.6,3.6,4
			c0.8,0.1,1.7,0.1,2.5,0.1c15.5,0,31.1,0,46.6,0c0.9,0,1.9,0,2.8-0.2c2.3-0.4,3.4-1.9,3.4-4.1c0-2.1-1.2-3.5-3.3-3.9
			c-0.9-0.2-1.9-0.2-2.8-0.2C90.6,96.1,82.8,96.1,75,96.1z M66.6,121.4C66.6,121.4,66.6,121.4,66.6,121.4c5.4,0,10.8,0.1,16.3,0
			c3.1,0,4.8-1.8,4.8-4.3c-0.1-2.4-1.8-4-4.7-4c-10.8-0.1-21.7-0.1-32.5,0c-1.3,0-3,0.6-3.6,1.5c-0.8,1.1-1.2,3.2-0.6,4.3
			c0.7,1.2,2.5,2.3,3.9,2.4C55.5,121.5,61,121.4,66.6,121.4z"/>
		<path class="st3" d="M96.1,6.1c10.3,10.3,20.3,20.3,30.4,30.4c-0.1,0-0.5,0.2-0.9,0.2c-8.2,0-16.5,0-24.7,0c-2.9,0-4.7-1.4-4.8-4
			C96.1,23.9,96.1,15.2,96.1,6.1z"/>
	</g>
</g>
</svg>
