<?xml version="1.0" encoding="utf-8"?>
<!-- Generator: Adobe Illustrator 24.0.2, SVG Export Plug-In . SVG Version: 6.00 Build 0)  -->
<svg version="1.1" xmlns="http://www.w3.org/2000/svg" xmlns:xlink="http://www.w3.org/1999/xlink" x="0px" y="0px"
	 viewBox="0 0 150 150" style="enable-background:new 0 0 150 150;" xml:space="preserve">
<style type="text/css">
	.st0{fill:#101820;}
	.st1{display:none;}
	.st2{display:inline;}
	.st3{fill:#FFFFFF;}
	.st4{display:inline;fill:#101820;}
</style>
<g id="Capa_1">
	<g>
		<path class="st0" d="M99.6,3c26.2,0,47.4,21.2,47.4,47.4c0,26.2-21.1,47.4-47.3,47.5C73.4,98,52,76.5,52.1,50.3
			C52.2,24.1,73.4,3,99.6,3z M83.1,53.9c11.6,0,22.9,0,34.4,0c0-2.1-0.1-3.9,0-5.8c0.2-2.1-0.6-2.7-2.7-2.7
			c-9.8,0.1-19.7,0-29.5,0.1c-0.7,0-1.5,0.1-2.3,0.2C83.1,48.4,83.1,51.1,83.1,53.9z M83.1,36.6c11.5,0,22.8,0,34.2,0
			c0-2.9,0-5.5,0-8.2c-11.5,0-22.8,0-34.2,0C83.1,31.1,83.1,33.7,83.1,36.6z M83.1,62.8c0,2.9,0,5.5,0,8.3c7.2,0,14.2,0,21.3,0
			c0-2.9,0-5.5,0-8.3C97.2,62.8,90.2,62.8,83.1,62.8z"/>
		<path class="st0" d="M32.5,93.8c7.7,7.8,15.7,15.8,23.8,24c0.1-0.1-0.1,0.2-0.3,0.5c-8,8-15.9,16.1-24.1,24c-5.2,5-12.6,6-19,3
			c-6.4-3-10.6-9.5-9.8-16.5c0.4-3.4,1.5-7.3,3.7-9.7C15.1,110.3,24,102.1,32.5,93.8z"/>
		<path class="st0" d="M45.3,92.9c2.8-2.8,5.8-5.8,8.2-8.2c3.9,3.8,7.8,7.8,11.5,11.5c-2.3,2.3-5.3,5.4-8.2,8.3
			C53.2,100.8,49.3,96.9,45.3,92.9z"/>
	</g>
</g>
<g id="Capa_2" class="st1">
	<g class="st2">
		<path class="st0" d="M99.6,3c26.2,0,47.4,21.2,47.4,47.4c0,26.2-21.1,47.4-47.3,47.5C73.4,98,52,76.5,52.1,50.3
			C52.2,24.1,73.4,3,99.6,3z M83.1,53.9c11.6,0,22.9,0,34.4,0c0-2.1-0.1-3.9,0-5.8c0.2-2.1-0.6-2.7-2.7-2.7
			c-9.8,0.1-19.7,0-29.5,0.1c-0.7,0-1.5,0.1-2.3,0.2C83.1,48.4,83.1,51.1,83.1,53.9z M83.1,36.6c11.5,0,22.8,0,34.2,0
			c0-2.9,0-5.5,0-8.2c-11.5,0-22.8,0-34.2,0C83.1,31.1,83.1,33.7,83.1,36.6z M83.1,62.8c0,2.9,0,5.5,0,8.3c7.2,0,14.2,0,21.3,0
			c0-2.9,0-5.5,0-8.3C97.2,62.8,90.2,62.8,83.1,62.8z"/>
		<path class="st0" d="M32.5,93.8c7.7,7.8,15.7,15.8,23.8,24c0.1-0.1-0.1,0.2-0.3,0.5c-8,8-15.9,16.1-24.1,24c-5.2,5-12.6,6-19,3
			c-6.4-3-10.6-9.5-9.8-16.5c0.4-3.4,1.5-7.3,3.7-9.7C15.1,110.3,24,102.1,32.5,93.8z"/>
		<path class="st0" d="M45.3,92.9c2.8-2.8,5.8-5.8,8.2-8.2c3.9,3.8,7.8,7.8,11.5,11.5c-2.3,2.3-5.3,5.4-8.2,8.3
			C53.2,100.8,49.3,96.9,45.3,92.9z"/>
	</g>
</g>
</svg>
