<?xml version="1.0" encoding="utf-8"?>
<!-- Generator: Adobe Illustrator 24.0.2, SVG Export Plug-In . SVG Version: 6.00 Build 0)  -->
<svg version="1.1" xmlns="http://www.w3.org/2000/svg" xmlns:xlink="http://www.w3.org/1999/xlink" x="0px" y="0px"
	 viewBox="0 0 150 150" style="enable-background:new 0 0 150 150;" xml:space="preserve">
<style type="text/css">
	.st0{fill:#101820;}
	.st1{display:none;}
	.st2{display:inline;}
	.st3{fill:#FFFFFF;}
	.st4{display:inline;fill:#FFFFFF;}
</style>
<g id="Capa_1">
	<g>
		<g>
			<path class="st0" d="M79.5,3c0,2.9,0,5.8,0,9.1c6,0,12.1,0,18.5,0c0,3.6,0,6.8,0,10.3c-15.2,0-30.5,0-46,0c0-3.3,0-6.5,0-10.1
				c6.1,0,12.2,0,18.5,0c0-3.3,0-6.3,0-9.2C73.5,3,76.5,3,79.5,3z"/>
		</g>
		<path class="st0" d="M35.9,41.7c0,5.6,0,11.1,0,16.9c-4,0-7.9,0-12,0c0,2.9,0,5.5,0,8.4c3.9,0,7.8,0,11.9,0c0,2.9,0,5.5,0,8.5
			c-3.9,0-7.9,0-11.9,0c0,3,0,5.6,0,8.5c4,0,7.9,0,12,0c0,2.9,0,5.5,0,8.4c-3.9,0-7.8,0-11.9,0c0,2.9,0,5.6,0,8.6
			c3.9,0,7.8,0,11.9,0c0,2.9,0,5.5,0,8.4c-3.9,0-7.8,0-11.9,0c0,3,0,5.6,0,8.6c4,0,7.9,0,12.1,0c0,7.1,0,13.9,0,20.8
			c2.8,0,5.3,0,8,0c0-36,0-71.8,0-107.8c20.7,0,41.1,0,61.7,0c0,35.9,0,71.7,0,107.7c2.7,0,5.2,0,8,0c0-6.7,0-13.5,0-20.7
			c4.3,0,8.3,0,12.4,0c0-3,0-5.5,0-8.4c-4,0-7.9,0-12,0c0-2.9,0-5.6,0-8.5c3.9,0,7.8,0,12,0c0-2.9,0-5.4,0-8.4c-3.9,0-7.8,0-12,0
			c0-2.9,0-5.5,0-8.5c3.9,0,7.9,0,12,0c0-3,0-5.5,0-8.4c-3.9,0-7.8,0-12,0c0-2.9,0-5.6,0-8.5c3.9,0,7.8,0,11.9,0c0-2.9,0-5.6,0-8.5
			c-4,0-7.9,0-12,0c0-5.8,0-11.2,0-17c8.4,0,16.9,0,25.6,0c0,32.3,0,64.5,0,96.9c2.5,0,4.8,0,7.2,0c0,2.9,0,5.5,0,8.3
			c-47.8,0-95.8,0-143.9,0c0-2.6,0-5.2,0-8.1c2.2,0,4.4,0,7,0c0-32.5,0-64.7,0-97.2C18.8,41.7,27.3,41.7,35.9,41.7z M79.2,138.7
			c0-3.8,0-7.3,0-10.9c0-1.6-0.9-2-2.1-1.8c-2.1,0.5-5.4-1.5-6.1,1.3c-0.8,3.6-0.2,7.5-0.2,11.4C73.7,138.7,76.2,138.7,79.2,138.7z
			 M61.2,50.1c3,0,5.8,0,8.7,0c0-2.8,0-5.4,0-8c-3,0-5.8,0-8.7,0C61.2,44.8,61.2,47.4,61.2,50.1z M80,50c3,0,5.9,0,8.7,0
			c0-2.8,0-5.4,0-8c-3,0-5.9,0-8.7,0C80,44.8,80,47.3,80,50z M61.1,67c3.1,0,5.8,0,8.6,0c0-2.8,0-5.5,0-8.1c-3,0-5.7,0-8.6,0
			C61.1,61.7,61.1,64.2,61.1,67z M88.8,58.9c-3.1,0-5.8,0-8.6,0c0,2.8,0,5.5,0,8.1c3,0,5.7,0,8.6,0C88.8,64.3,88.8,61.7,88.8,58.9z
			 M61.1,83.9c3.1,0,5.8,0,8.6,0c0-2.8,0-5.5,0-8.1c-3,0-5.7,0-8.6,0C61.1,78.5,61.1,81.1,61.1,83.9z M88.8,75.8c-3,0-5.8,0-8.6,0
			c0,2.8,0,5.4,0,8.1c3,0,5.7,0,8.6,0C88.8,81.2,88.8,78.6,88.8,75.8z M69.9,92.7c-3.1,0-5.9,0-8.6,0c0,2.8,0,5.5,0,8.1
			c3,0,5.8,0,8.6,0C69.9,98,69.9,95.5,69.9,92.7z M80.1,92.7c0,2.9,0,5.5,0,8.1c3,0,5.8,0,8.6,0c0-2.8,0-5.4,0-8.1
			C85.8,92.7,83.1,92.7,80.1,92.7z M61.1,117.7c3.1,0,5.9,0,8.6,0c0-2.8,0-5.5,0-8.1c-3,0-5.8,0-8.6,0
			C61.1,112.4,61.1,115,61.1,117.7z M80.2,109.6c0,2.9,0,5.5,0,8.1c3,0,5.8,0,8.6,0c0-2.8,0-5.4,0-8.1
			C85.8,109.6,83.1,109.6,80.2,109.6z"/>
	</g>
</g>
<g id="Capa_2" class="st1">
	<g class="st2">
		<g>
			<path class="st3" d="M79.5,3c0,2.9,0,5.8,0,9.1c6,0,12.1,0,18.5,0c0,3.6,0,6.8,0,10.3c-15.2,0-30.5,0-46,0c0-3.3,0-6.5,0-10.1
				c6.1,0,12.2,0,18.5,0c0-3.3,0-6.3,0-9.2C73.5,3,76.5,3,79.5,3z"/>
		</g>
		<path class="st3" d="M35.9,41.7c0,5.6,0,11.1,0,16.9c-4,0-7.9,0-12,0c0,2.9,0,5.5,0,8.4c3.9,0,7.8,0,11.9,0c0,2.9,0,5.5,0,8.5
			c-3.9,0-7.9,0-11.9,0c0,3,0,5.6,0,8.5c4,0,7.9,0,12,0c0,2.9,0,5.5,0,8.4c-3.9,0-7.8,0-11.9,0c0,2.9,0,5.6,0,8.6
			c3.9,0,7.8,0,11.9,0c0,2.9,0,5.5,0,8.4c-3.9,0-7.8,0-11.9,0c0,3,0,5.6,0,8.6c4,0,7.9,0,12.1,0c0,7.1,0,13.9,0,20.8
			c2.8,0,5.3,0,8,0c0-36,0-71.8,0-107.8c20.7,0,41.1,0,61.7,0c0,35.9,0,71.7,0,107.7c2.7,0,5.2,0,8,0c0-6.7,0-13.5,0-20.7
			c4.3,0,8.3,0,12.4,0c0-3,0-5.5,0-8.4c-4,0-7.9,0-12,0c0-2.9,0-5.6,0-8.5c3.9,0,7.8,0,12,0c0-2.9,0-5.4,0-8.4c-3.9,0-7.8,0-12,0
			c0-2.9,0-5.5,0-8.5c3.9,0,7.9,0,12,0c0-3,0-5.5,0-8.4c-3.9,0-7.8,0-12,0c0-2.9,0-5.6,0-8.5c3.9,0,7.8,0,11.9,0c0-2.9,0-5.6,0-8.5
			c-4,0-7.9,0-12,0c0-5.8,0-11.2,0-17c8.4,0,16.9,0,25.6,0c0,32.3,0,64.5,0,96.9c2.5,0,4.8,0,7.2,0c0,2.9,0,5.5,0,8.3
			c-47.8,0-95.8,0-143.9,0c0-2.6,0-5.2,0-8.1c2.2,0,4.4,0,7,0c0-32.5,0-64.7,0-97.2C18.8,41.7,27.3,41.7,35.9,41.7z M79.2,138.7
			c0-3.8,0-7.3,0-10.9c0-1.6-0.9-2-2.1-1.8c-2.1,0.5-5.4-1.5-6.1,1.3c-0.8,3.6-0.2,7.5-0.2,11.4C73.7,138.7,76.2,138.7,79.2,138.7z
			 M61.2,50.1c3,0,5.8,0,8.7,0c0-2.8,0-5.4,0-8c-3,0-5.8,0-8.7,0C61.2,44.8,61.2,47.4,61.2,50.1z M80,50c3,0,5.9,0,8.7,0
			c0-2.8,0-5.4,0-8c-3,0-5.9,0-8.7,0C80,44.8,80,47.3,80,50z M61.1,67c3.1,0,5.8,0,8.6,0c0-2.8,0-5.5,0-8.1c-3,0-5.7,0-8.6,0
			C61.1,61.7,61.1,64.2,61.1,67z M88.8,58.9c-3.1,0-5.8,0-8.6,0c0,2.8,0,5.5,0,8.1c3,0,5.7,0,8.6,0C88.8,64.3,88.8,61.7,88.8,58.9z
			 M61.1,83.9c3.1,0,5.8,0,8.6,0c0-2.8,0-5.5,0-8.1c-3,0-5.7,0-8.6,0C61.1,78.5,61.1,81.1,61.1,83.9z M88.8,75.8c-3,0-5.8,0-8.6,0
			c0,2.8,0,5.4,0,8.1c3,0,5.7,0,8.6,0C88.8,81.2,88.8,78.6,88.8,75.8z M69.9,92.7c-3.1,0-5.9,0-8.6,0c0,2.8,0,5.5,0,8.1
			c3,0,5.8,0,8.6,0C69.9,98,69.9,95.5,69.9,92.7z M80.1,92.7c0,2.9,0,5.5,0,8.1c3,0,5.8,0,8.6,0c0-2.8,0-5.4,0-8.1
			C85.8,92.7,83.1,92.7,80.1,92.7z M61.1,117.7c3.1,0,5.9,0,8.6,0c0-2.8,0-5.5,0-8.1c-3,0-5.8,0-8.6,0
			C61.1,112.4,61.1,115,61.1,117.7z M80.2,109.6c0,2.9,0,5.5,0,8.1c3,0,5.8,0,8.6,0c0-2.8,0-5.4,0-8.1
			C85.8,109.6,83.1,109.6,80.2,109.6z"/>
	</g>
</g>
</svg>
