<?xml version="1.0" encoding="utf-8"?>
<!-- Generator: Adobe Illustrator 24.0.2, SVG Export Plug-In . SVG Version: 6.00 Build 0)  -->
<svg version="1.1" xmlns="http://www.w3.org/2000/svg" xmlns:xlink="http://www.w3.org/1999/xlink" x="0px" y="0px"
	 viewBox="0 0 150 150" style="enable-background:new 0 0 150 150;" xml:space="preserve">
<style type="text/css">
	.st0{fill:#101820;}
	.st1{display:none;}
	.st2{display:inline;}
	.st3{fill:#FFFFFF;}
	.st4{display:inline;fill:#101820;}
</style>
<g id="Capa_1">
	<path class="st0" d="M22.6,3c0,48.1,0,96,0,144c35,0,69.8,0,104.9,0c0-48.2,0-96.1,0-144C92.3,3,57.4,3,22.6,3z M87.6,16.6
		c8.8,0,17.4,0,26.2,0c0,8.7,0,17.3,0,26.1c-8.7,0-17.4,0-26.2,0C87.6,34.1,87.6,25.5,87.6,16.6z M114.1,52.9c0,2.7,0,5.3,0,8
		c-26,0-51.9,0-78,0c0-2.6,0-5.1,0-8C61.9,52.9,87.9,52.9,114.1,52.9z M78.2,42.8c-14.1,0-28,0-42.1,0c0-2.6,0-5.2,0-8
		c14,0,28,0,42.1,0C78.2,37.6,78.2,40.1,78.2,42.8z M36,16.7c14,0,27.9,0,42.1,0c0,2.6,0,5.1,0,8c-13.9,0-27.9,0-42.1,0
		C36,22.1,36,19.5,36,16.7z M36,70.9c26.1,0,52,0,78.1,0c0,2.7,0,5.2,0,8c-26,0-51.9,0-78.1,0C36,76.1,36,73.6,36,70.9z M36,89
		c26,0,51.9,0,78,0c0,2.6,0,5.2,0,8.1c-26.1,0-52,0-78,0C36,94.3,36,91.8,36,89z M59.3,112.8c-0.2-1.2-0.6-1.9-1.1-2.4
		c-0.5-0.4-1.3-0.6-2.5-0.6h-5.6v24.6c0,0.5,0,0.9,0.1,1.2c0.1,0.3,0.2,0.5,0.3,0.6c0.2,0.1,0.4,0.2,0.7,0.3c0.3,0,0.7,0,1.2,0v0.4
		h-8.4v-0.4c0.5,0,0.8,0,1.1,0c0.3,0,0.5-0.1,0.7-0.3c0.2-0.1,0.3-0.4,0.4-0.6c0.1-0.3,0.1-0.7,0.1-1.2v-24.6h-5.7
		c-1.1,0-2,0.2-2.5,0.7c-0.5,0.4-0.9,1.2-1.1,2.3h-0.4l0.2-5.2h22.8l0.1,5.2H59.3z M114.1,133.2c-14.1,0-28.1,0-42.2,0
		c0-2.7,0-5.3,0-8.1c14.1,0,28,0,42.2,0C114.1,128,114.1,130.5,114.1,133.2z M114.1,115.1c-14.1,0-28.1,0-42.2,0c0-2.7,0-5.3,0-8
		c14.1,0,28,0,42.2,0C114.1,109.9,114.1,112.4,114.1,115.1z"/>
</g>
<g id="Capa_2" class="st1">
	<path class="st4" d="M22.6,3c0,48.1,0,96,0,144c35,0,69.8,0,104.9,0c0-48.2,0-96.1,0-144C92.3,3,57.4,3,22.6,3z M87.6,16.6
		c8.8,0,17.4,0,26.2,0c0,8.7,0,17.3,0,26.1c-8.7,0-17.4,0-26.2,0C87.6,34.1,87.6,25.5,87.6,16.6z M114.1,52.9c0,2.7,0,5.3,0,8
		c-26,0-51.9,0-78,0c0-2.6,0-5.1,0-8C61.9,52.9,87.9,52.9,114.1,52.9z M78.2,42.8c-14.1,0-28,0-42.1,0c0-2.6,0-5.2,0-8
		c14,0,28,0,42.1,0C78.2,37.6,78.2,40.1,78.2,42.8z M36,16.7c14,0,27.9,0,42.1,0c0,2.6,0,5.1,0,8c-13.9,0-27.9,0-42.1,0
		C36,22.1,36,19.5,36,16.7z M36,70.9c26.1,0,52,0,78.1,0c0,2.7,0,5.2,0,8c-26,0-51.9,0-78.1,0C36,76.1,36,73.6,36,70.9z M36,89
		c26,0,51.9,0,78,0c0,2.6,0,5.2,0,8.1c-26.1,0-52,0-78,0C36,94.3,36,91.8,36,89z M59.3,112.8c-0.2-1.2-0.6-1.9-1.1-2.4
		c-0.5-0.4-1.3-0.6-2.5-0.6h-5.6v24.6c0,0.5,0,0.9,0.1,1.2c0.1,0.3,0.2,0.5,0.3,0.6c0.2,0.1,0.4,0.2,0.7,0.3c0.3,0,0.7,0,1.2,0v0.4
		h-8.4v-0.4c0.5,0,0.8,0,1.1,0c0.3,0,0.5-0.1,0.7-0.3c0.2-0.1,0.3-0.4,0.4-0.6c0.1-0.3,0.1-0.7,0.1-1.2v-24.6h-5.7
		c-1.1,0-2,0.2-2.5,0.7c-0.5,0.4-0.9,1.2-1.1,2.3h-0.4l0.2-5.2h22.8l0.1,5.2H59.3z M114.1,133.2c-14.1,0-28.1,0-42.2,0
		c0-2.7,0-5.3,0-8.1c14.1,0,28,0,42.2,0C114.1,128,114.1,130.5,114.1,133.2z M114.1,115.1c-14.1,0-28.1,0-42.2,0c0-2.7,0-5.3,0-8
		c14.1,0,28,0,42.2,0C114.1,109.9,114.1,112.4,114.1,115.1z"/>
</g>
</svg>
