<?xml version="1.0" encoding="utf-8"?>
<!-- Generator: Adobe Illustrator 24.0.2, SVG Export Plug-In . SVG Version: 6.00 Build 0)  -->
<svg version="1.1" xmlns="http://www.w3.org/2000/svg" xmlns:xlink="http://www.w3.org/1999/xlink" x="0px" y="0px"
	 viewBox="0 0 150 150" style="enable-background:new 0 0 150 150;" xml:space="preserve">
<style type="text/css">
	.st0{fill:#101820;}
	.st1{display:none;}
	.st2{display:inline;}
	.st3{fill:#FFFFFF;}
	.st4{display:inline;fill:#101820;}
</style>
<g id="Capa_1">
	<g id="White" class="st1">
		<g id="Capa_1_4_" class="st2">
			<g>
				<path class="st3" d="M65.3,2.5c6.2,0,12.5,0,18.7,0C86.2,3.2,87.2,5,87.7,7c1,4.7,2.2,9.5,3.5,14.5c0.2,1,0.7,1.2,1.5,1.7
					c2,0.7,4.2,1.7,6.2,2.5c0.7,0.5,1.5,0.5,2.2,0c4.2-2.5,8.5-5,12.5-7.5c2.7-1.5,4.2-1.5,6.5,0.7c3.5,3.5,7,7,10.5,10.5
					c2.5,2.5,2.5,4,0.7,7c-2.5,4.2-5,8.5-7.5,12.5c-0.5,0.7-0.5,1.2,0,2c1,2.2,1.7,4.2,2.7,6.5c0.2,0.7,0.7,1.2,1.7,1.5
					c5,1.2,10,2.5,15,3.7c3,0.7,4,2,4,5c0,5,0,10.2,0,15.2c0,3-1,4.5-4,5c-5,1.2-10,2.5-15,3.7c-0.7,0.2-1.2,0.5-1.7,1.5
					c-0.7,2.2-1.7,4.2-2.5,6.5c-0.2,0.7-0.5,1.5,0,2.2c2.5,4.2,5,8.5,7.7,12.7c1.5,2.7,1.2,4.2-0.7,6.5c-3.5,3.5-7.2,7.2-10.7,10.7
					c-2.2,2.2-4,2.5-6.7,0.7c-4.2-2.5-8.2-5-12.5-7.5c-0.7-0.5-1.5-0.5-2.2,0c-2,1-4.2,1.7-6.2,2.5c-1,0.2-1.2,0.7-1.5,1.7
					c-1.2,4.7-2.2,9.5-3.5,14.2c-0.7,3-2.2,4-5.2,4c-5,0-10,0-14.7,0c-3.5,0-4.7-1-5.7-4.5c-1.2-4.7-2.2-9.2-3.5-14
					c-0.2-0.7-0.5-1.2-1.5-1.7c-2.2-0.7-4.2-1.7-6.5-2.5c-0.7-0.2-1.5-0.5-2.2,0c-4.2,2.5-8.5,5-12.7,7.7c-2.7,1.5-4.2,1.2-6.5-0.7
					c-3.5-3.5-7.2-7.2-10.7-10.7c-2.2-2.2-2.5-4-0.7-6.7c2.5-4.2,5-8.5,7.5-12.5c0.5-0.7,0.5-1.2,0-2c-0.7-2.5-1.7-4.7-2.5-7
					c-0.2-0.7-0.7-1.2-1.5-1.2c-4.7-1.2-9.5-2.5-14.2-3.5c-2-0.5-3.5-1.5-4.2-3.5c0-6.2,0-12.5,0-18.7c0.7-2,2.2-3,4.2-3.5
					c4.7-1,9.5-2.5,14-3.5c1-0.2,1.5-0.5,1.7-1.5c0.7-2,1.7-4.2,2.5-6.2c0.5-0.7,0.5-1.5,0-2.2c-2.5-4.2-5-8.2-7.5-12.5
					c-1.7-2.7-1.5-4.5,0.7-6.7c3.5-3.5,7-7,10.5-10.5c2.5-2.5,4-2.7,7-0.7c4.2,2.5,8.2,5,12.5,7.5c0.7,0.5,1.2,0.5,2,0.2
					c2.2-1,4.5-2,6.7-2.7c0.7-0.2,1.2-0.7,1.2-1.5c1-4.7,2.2-9.5,3.5-14.5C62.3,5,63.3,3.2,65.3,2.5z M74.8,53.9
					c-11.7,0-21.2,9.5-21.2,21.2s9.5,21.2,21,21.2c11.7,0,21.2-9.5,21.2-21.2C96,63.6,86.5,53.9,74.8,53.9z"/>
			</g>
		</g>
	</g>
	<g>
		<path class="st0" d="M75,99.8c1.5-3.9,2.5-7.1,4-10.1c0.6-1.3,2-2.5,3.4-3.2c3.3-1.8,6.6-3.4,10-4.9c1.3-0.5,3.2-0.9,4.3-0.4
			c8,4.2,15.7,8.7,23.7,12.9c6.3,3.3,10.2,8.4,12.3,15c1.6,5.2,3,10.6,4,16c0.3,1.6-1,3.9-2.2,5.4c-4.6,5.5-10.9,8.4-17.5,10.7
			c-10.4,3.6-21.1,4.9-32,5.4c-15.5,0.7-30.9,0.2-46-3.7c-7.8-2-15.1-4.9-21.2-10.4c-3.4-3-5.2-6.4-3.5-11.1
			c2.1-5.9,3.7-11.9,6-17.8c1.4-3.7,4.2-6.4,7.7-8.3c8.5-4.7,17-9.4,25.5-14.2c1.7-1,3-0.6,4.7,0.4c3.2,1.8,6.7,3.2,10,4.9
			c1.3,0.7,2.6,1.8,3.2,3C72.5,92.6,73.5,95.8,75,99.8z M90.9,119.3c5.6,1.9,10.8,4.4,16.9,1.5c4.1-1.9,4.3-1.5,4.1-6
			c0-0.3-0.2-0.5-0.3-1c-3.4,0-6.8,0-10.3,0c-3.4,0-6.9,0-10.4,0C90.9,115.7,90.9,117.4,90.9,119.3z"/>
		<path class="st0" d="M108.6,41c0.2,14.1-4.1,26.2-15.2,35.4c-1.3,1.1-2.7,2-4.1,3c-9.7,6.4-19.2,6.2-28.9-0.2
			c-11.7-7.8-18-18.7-18.4-32.6c-0.2-7.3,0.3-14.8,1.5-22C45.4,13,52.7,6.3,64.2,4.1c8.4-1.6,16.8-1.5,25,0.8
			c10.5,3,16,10.6,17.8,21C107.8,30.9,108.1,35.9,108.6,41z M102.9,36.3c-0.5,0-1.1,0.1-1.6,0.1c-5.2,0.5-10.4,1.4-15.6,1.3
			c-8-0.2-15.4-2.4-20.3-9.5c-0.3-0.4-1.1-0.8-1.6-0.8c-5,0.1-9.5,1.4-13.5,4.7c-3.4,2.9-3.7,6.6-3.7,10.6C46.3,59,55.1,72.7,69,78
			c4.1,1.6,7.9,1.6,12,0C97.1,71.7,105.8,55.6,102.9,36.3z"/>
	</g>
</g>
<g id="Capa_2" class="st1">
	<g id="White_1_">
		<g id="Capa_1_3_" class="st2">
			<g>
				<path class="st3" d="M65.3,2.5c6.2,0,12.5,0,18.7,0C86.2,3.2,87.2,5,87.7,7c1,4.7,2.2,9.5,3.5,14.5c0.2,1,0.7,1.2,1.5,1.7
					c2,0.7,4.2,1.7,6.2,2.5c0.7,0.5,1.5,0.5,2.2,0c4.2-2.5,8.5-5,12.5-7.5c2.7-1.5,4.2-1.5,6.5,0.7c3.5,3.5,7,7,10.5,10.5
					c2.5,2.5,2.5,4,0.7,7c-2.5,4.2-5,8.5-7.5,12.5c-0.5,0.7-0.5,1.2,0,2c1,2.2,1.7,4.2,2.7,6.5c0.2,0.7,0.7,1.2,1.7,1.5
					c5,1.2,10,2.5,15,3.7c3,0.7,4,2,4,5c0,5,0,10.2,0,15.2c0,3-1,4.5-4,5c-5,1.2-10,2.5-15,3.7c-0.7,0.2-1.2,0.5-1.7,1.5
					c-0.7,2.2-1.7,4.2-2.5,6.5c-0.2,0.7-0.5,1.5,0,2.2c2.5,4.2,5,8.5,7.7,12.7c1.5,2.7,1.2,4.2-0.7,6.5c-3.5,3.5-7.2,7.2-10.7,10.7
					c-2.2,2.2-4,2.5-6.7,0.7c-4.2-2.5-8.2-5-12.5-7.5c-0.7-0.5-1.5-0.5-2.2,0c-2,1-4.2,1.7-6.2,2.5c-1,0.2-1.2,0.7-1.5,1.7
					c-1.2,4.7-2.2,9.5-3.5,14.2c-0.7,3-2.2,4-5.2,4c-5,0-10,0-14.7,0c-3.5,0-4.7-1-5.7-4.5c-1.2-4.7-2.2-9.2-3.5-14
					c-0.2-0.7-0.5-1.2-1.5-1.7c-2.2-0.7-4.2-1.7-6.5-2.5c-0.7-0.2-1.5-0.5-2.2,0c-4.2,2.5-8.5,5-12.7,7.7c-2.7,1.5-4.2,1.2-6.5-0.7
					c-3.5-3.5-7.2-7.2-10.7-10.7c-2.2-2.2-2.5-4-0.7-6.7c2.5-4.2,5-8.5,7.5-12.5c0.5-0.7,0.5-1.2,0-2c-0.7-2.5-1.7-4.7-2.5-7
					c-0.2-0.7-0.7-1.2-1.5-1.2c-4.7-1.2-9.5-2.5-14.2-3.5c-2-0.5-3.5-1.5-4.2-3.5c0-6.2,0-12.5,0-18.7c0.7-2,2.2-3,4.2-3.5
					c4.7-1,9.5-2.5,14-3.5c1-0.2,1.5-0.5,1.7-1.5c0.7-2,1.7-4.2,2.5-6.2c0.5-0.7,0.5-1.5,0-2.2c-2.5-4.2-5-8.2-7.5-12.5
					c-1.7-2.7-1.5-4.5,0.7-6.7c3.5-3.5,7-7,10.5-10.5c2.5-2.5,4-2.7,7-0.7c4.2,2.5,8.2,5,12.5,7.5c0.7,0.5,1.2,0.5,2,0.2
					c2.2-1,4.5-2,6.7-2.7c0.7-0.2,1.2-0.7,1.2-1.5c1-4.7,2.2-9.5,3.5-14.5C62.3,5,63.3,3.2,65.3,2.5z M74.8,53.9
					c-11.7,0-21.2,9.5-21.2,21.2s9.5,21.2,21,21.2c11.7,0,21.2-9.5,21.2-21.2C96,63.6,86.5,53.9,74.8,53.9z"/>
			</g>
		</g>
	</g>
	<g class="st2">
		<path class="st0" d="M75,99.8c1.5-3.9,2.5-7.1,4-10.1c0.6-1.3,2-2.5,3.4-3.2c3.3-1.8,6.6-3.4,10-4.9c1.3-0.5,3.2-0.9,4.3-0.4
			c8,4.2,15.7,8.7,23.7,12.9c6.3,3.3,10.2,8.4,12.3,15c1.6,5.2,3,10.6,4,16c0.3,1.6-1,3.9-2.2,5.4c-4.6,5.5-10.9,8.4-17.5,10.7
			c-10.4,3.6-21.1,4.9-32,5.4c-15.5,0.7-30.9,0.2-46-3.7c-7.8-2-15.1-4.9-21.2-10.4c-3.4-3-5.2-6.4-3.5-11.1
			c2.1-5.9,3.7-11.9,6-17.8c1.4-3.7,4.2-6.4,7.7-8.3c8.5-4.7,17-9.4,25.5-14.2c1.7-1,3-0.6,4.7,0.4c3.2,1.8,6.7,3.2,10,4.9
			c1.3,0.7,2.6,1.8,3.2,3C72.5,92.6,73.5,95.8,75,99.8z M90.9,119.3c5.6,1.9,10.8,4.4,16.9,1.5c4.1-1.9,4.3-1.5,4.1-6
			c0-0.3-0.2-0.5-0.3-1c-3.4,0-6.8,0-10.3,0c-3.4,0-6.9,0-10.4,0C90.9,115.7,90.9,117.4,90.9,119.3z"/>
		<path class="st0" d="M108.6,41c0.2,14.1-4.1,26.2-15.2,35.4c-1.3,1.1-2.7,2-4.1,3c-9.7,6.4-19.2,6.2-28.9-0.2
			c-11.7-7.8-18-18.7-18.4-32.6c-0.2-7.3,0.3-14.8,1.5-22C45.4,13,52.7,6.3,64.2,4.1c8.4-1.6,16.8-1.5,25,0.8
			c10.5,3,16,10.6,17.8,21C107.8,30.9,108.1,35.9,108.6,41z M102.9,36.3c-0.5,0-1.1,0.1-1.6,0.1c-5.2,0.5-10.4,1.4-15.6,1.3
			c-8-0.2-15.4-2.4-20.3-9.5c-0.3-0.4-1.1-0.8-1.6-0.8c-5,0.1-9.5,1.4-13.5,4.7c-3.4,2.9-3.7,6.6-3.7,10.6C46.3,59,55.1,72.7,69,78
			c4.1,1.6,7.9,1.6,12,0C97.1,71.7,105.8,55.6,102.9,36.3z"/>
	</g>
</g>
</svg>
