<?xml version="1.0" encoding="utf-8"?>
<!-- Generator: Adobe Illustrator 24.0.2, SVG Export Plug-In . SVG Version: 6.00 Build 0)  -->
<svg version="1.1" id="Capa_1" xmlns="http://www.w3.org/2000/svg" xmlns:xlink="http://www.w3.org/1999/xlink" x="0px" y="0px"
	 viewBox="0 0 50 50" style="enable-background:new 0 0 50 50;" xml:space="preserve">
<style type="text/css">
	.st0{fill:#787E82;}
</style>
<g>
	<path class="st0" d="M2.5,9c0.2-0.6,0.4-1.1,0.9-1.6C4,6.9,4.6,6.8,5.3,6.7c2.2,0,4.4,0,6.6,0c1,0,1.5,0.5,1.5,1.5
		c0,0.2,0,0.4,0,0.6c0,0.5,0.4,1,0.9,1.1c0.2,0.1,0.5,0.1,0.7,0.1c7.5,0,15.1,0,22.6,0c1.6,0,2.6,1,2.8,2.1c0.1,0.6,0.1,1.3,0.1,2
		c-0.3,0-0.5,0-0.7,0c-10.8,0-21.6,0-32.4,0c-1.1,0-1.5,0.3-1.7,1.4C4.8,20.8,3.7,26,2.6,31.3c0,0.1-0.1,0.2-0.1,0.2
		C2.5,24,2.5,16.5,2.5,9z"/>
	<path class="st0" d="M8.3,16.7c0.2,0,0.3,0,0.4,0c12,0,23.9,0,35.9,0c1.8,0,3,1.3,2.9,3c0,0.6-0.1,1.2-0.2,1.7
		c-0.3,3.1-0.7,6.1-1,9.2c-0.3,3.1-0.7,6.1-1,9.2c0,0.3-0.1,0.6-0.1,0.9c-0.2,1.5-1.2,2.4-2.7,2.5c-0.1,0-0.3,0-0.4,0
		c-12.4,0-24.8,0-37.1,0c-0.1,0-0.3,0-0.4,0c-0.9-0.1-1.5-0.8-1.3-1.7c0.2-0.9,0.4-1.7,0.5-2.6c1.5-7.2,3-14.4,4.5-21.7
		C8.2,17.1,8.2,16.9,8.3,16.7z"/>
</g>
</svg>
