<?xml version="1.0" encoding="utf-8"?>
<!-- Generator: Adobe Illustrator 24.0.2, SVG Export Plug-In . SVG Version: 6.00 Build 0)  -->
<svg version="1.1" xmlns="http://www.w3.org/2000/svg" xmlns:xlink="http://www.w3.org/1999/xlink" x="0px" y="0px"
	 viewBox="0 0 150 150" style="enable-background:new 0 0 150 150;" xml:space="preserve">
<style type="text/css">
	.st0{fill:#101820;}
	.st1{display:none;}
	.st2{display:inline;}
	.st3{fill:#FFFFFF;}
	.st4{display:inline;fill:#101820;}
</style>
<g id="Capa_1">
	<g>
		<path class="st0" d="M124.5,38.8c-0.1,19.6-16.2,35.6-35.7,35.5c-19.6-0.1-35.6-16.2-35.6-35.7C53.3,18.9,69.4,2.9,89.1,3
			C108.7,3.1,124.6,19.1,124.5,38.8z M101.9,27.8c-0.5-4.3-2.7-7.6-6.9-9.6c-0.8-0.4-1.7-1.3-2-2.2c-0.7-2.1-1.9-3.5-4.1-3.5
			c-2.3,0-3.5,1.3-4.3,3.4c-0.4,0.9-1.3,1.9-2.2,2.4c-4.6,2.2-7.1,6.6-6.5,11.7c0.4,3.3,2,5.8,4.6,7.7c3.8,2.8,7.6,5.5,11.3,8.4
			c2.1,1.6,2.1,3.7,0.2,4.8c-2.9,1.8-7,0.2-7.9-3c-0.7-2.4-2.5-3.8-4.8-3.3c-2.4,0.5-3.5,2-3.4,4.4c0.2,4.5,2.4,7.8,6.5,9.7
			c1.2,0.6,2.2,1,2.4,2.6c0.3,2.2,2,3.5,4.2,3.3c2.2-0.1,3.5-1.4,4-3.7c0.1-0.7,0.7-1.5,1.3-1.8c9.4-4.7,10.3-14.2,1.8-20.5
			c-3.5-2.6-7-5.1-10.4-7.7c-1.8-1.4-1.9-3.4-0.4-4.5c2.5-2,7.5-0.3,8.2,2.7c0.6,2.4,2.5,3.8,4.7,3.5
			C100.5,32.4,102,30.5,101.9,27.8z"/>
		<path class="st0" d="M76.9,125.1c-5.4,0-10.9,0.1-16.3-0.1c-1,0-2.5-0.9-3-1.7c-5.2-8.7-10.1-17.5-15.3-26.2
			c-0.8-1.4-0.8-2.4,0-3.8c9-15,29.9-18.3,42.9-6.8c0.9,0.8,2.4,1.4,3.7,1.4c4.5,0.2,9,0,13.5,0.1c3.9,0,6.4,2.2,6.4,5.5
			c0,3.5-2.4,5.7-6.5,5.7c-6.6,0-13.1,0-19.7,0c-3.3,0-5.1,1.6-5.1,4.3c0.1,2.5,1.9,4.1,5,4.1c6.5,0,12.9,0,19.4,0
			c3.6,0,6.7-1.3,9.6-3.4c8.2-6,16.4-11.8,24.6-17.8c2.3-1.6,4.6-1.9,7.1-0.4c2.1,1.3,3.1,3.4,2.5,5.8c-0.4,1.5-1.4,3.2-2.6,4.1
			c-10.3,7.6-20.7,15.2-31.2,22.6c-6.6,4.7-14.1,6.8-22.2,6.6C85.5,125,81.2,125.1,76.9,125.1z"/>
		<path class="st0" d="M52.4,132.1c-0.9,1-1.6,2.4-2.8,3.1c-6.2,3.8-12.6,7.4-18.9,11c-2.7,1.5-4.6,1-6.1-1.7
			c-6.6-11.3-13.1-22.7-19.6-34c-1.6-2.8-1-4.7,1.8-6.3c6.1-3.6,12.3-7.1,18.5-10.7c3-1.7,4.8-1.2,6.5,1.8
			c6.5,11.2,12.9,22.3,19.3,33.5C51.5,129.7,51.8,130.7,52.4,132.1z"/>
	</g>
</g>
<g id="Capa_2" class="st1">
	<g class="st2">
		<path class="st0" d="M124.5,38.8c-0.1,19.6-16.2,35.6-35.7,35.5c-19.6-0.1-35.6-16.2-35.6-35.7C53.3,18.9,69.4,2.9,89.1,3
			C108.7,3.1,124.6,19.1,124.5,38.8z M101.9,27.8c-0.5-4.3-2.7-7.6-6.9-9.6c-0.8-0.4-1.7-1.3-2-2.2c-0.7-2.1-1.9-3.5-4.1-3.5
			c-2.3,0-3.5,1.3-4.3,3.4c-0.4,0.9-1.3,1.9-2.2,2.4c-4.6,2.2-7.1,6.6-6.5,11.7c0.4,3.3,2,5.8,4.6,7.7c3.8,2.8,7.6,5.5,11.3,8.4
			c2.1,1.6,2.1,3.7,0.2,4.8c-2.9,1.8-7,0.2-7.9-3c-0.7-2.4-2.5-3.8-4.8-3.3c-2.4,0.5-3.5,2-3.4,4.4c0.2,4.5,2.4,7.8,6.5,9.7
			c1.2,0.6,2.2,1,2.4,2.6c0.3,2.2,2,3.5,4.2,3.3c2.2-0.1,3.5-1.4,4-3.7c0.1-0.7,0.7-1.5,1.3-1.8c9.4-4.7,10.3-14.2,1.8-20.5
			c-3.5-2.6-7-5.1-10.4-7.7c-1.8-1.4-1.9-3.4-0.4-4.5c2.5-2,7.5-0.3,8.2,2.7c0.6,2.4,2.5,3.8,4.7,3.5
			C100.5,32.4,102,30.5,101.9,27.8z"/>
		<path class="st0" d="M76.9,125.1c-5.4,0-10.9,0.1-16.3-0.1c-1,0-2.5-0.9-3-1.7c-5.2-8.7-10.1-17.5-15.3-26.2
			c-0.8-1.4-0.8-2.4,0-3.8c9-15,29.9-18.3,42.9-6.8c0.9,0.8,2.4,1.4,3.7,1.4c4.5,0.2,9,0,13.5,0.1c3.9,0,6.4,2.2,6.4,5.5
			c0,3.5-2.4,5.7-6.5,5.7c-6.6,0-13.1,0-19.7,0c-3.3,0-5.1,1.6-5.1,4.3c0.1,2.5,1.9,4.1,5,4.1c6.5,0,12.9,0,19.4,0
			c3.6,0,6.7-1.3,9.6-3.4c8.2-6,16.4-11.8,24.6-17.8c2.3-1.6,4.6-1.9,7.1-0.4c2.1,1.3,3.1,3.4,2.5,5.8c-0.4,1.5-1.4,3.2-2.6,4.1
			c-10.3,7.6-20.7,15.2-31.2,22.6c-6.6,4.7-14.1,6.8-22.2,6.6C85.5,125,81.2,125.1,76.9,125.1z"/>
		<path class="st0" d="M52.4,132.1c-0.9,1-1.6,2.4-2.8,3.1c-6.2,3.8-12.6,7.4-18.9,11c-2.7,1.5-4.6,1-6.1-1.7
			c-6.6-11.3-13.1-22.7-19.6-34c-1.6-2.8-1-4.7,1.8-6.3c6.1-3.6,12.3-7.1,18.5-10.7c3-1.7,4.8-1.2,6.5,1.8
			c6.5,11.2,12.9,22.3,19.3,33.5C51.5,129.7,51.8,130.7,52.4,132.1z"/>
	</g>
</g>
</svg>
