<?xml version="1.0" encoding="utf-8"?>
<!-- Generator: Adobe Illustrator 24.0.2, SVG Export Plug-In . SVG Version: 6.00 Build 0)  -->
<svg version="1.1" xmlns="http://www.w3.org/2000/svg" xmlns:xlink="http://www.w3.org/1999/xlink" x="0px" y="0px"
	 viewBox="0 0 150 150" style="enable-background:new 0 0 150 150;" xml:space="preserve">
<style type="text/css">
	.st0{display:none;}
	.st1{display:inline;}
	.st2{fill:#FFFFFF;}
	.st3{display:inline;fill:#FFFFFF;}
</style>
<g id="black">
	<g>
		<g>
			<path d="M39.3,134.9c-1.4-5.1-2.7-9.9-4-14.8c-1.6-6.1-3.2-12.1-4.9-18.2c-0.5-1.7-0.2-2.7,1.3-3.7c2.2-1.5,4.2-3.2,6.3-4.8
				c4.2-3.1,8.7-4.1,13.8-2.6c10.3,2.9,20.7,5.6,31.1,8.5c4.7,1.3,7.5,5.2,7.4,9.9c-0.1,5.4-4.8,9-10,7.7c-5.4-1.4-10.7-2.9-16-4.3
				c-0.6-0.1-1.2-0.5-1.7-0.4c-0.8,0.3-2,0.7-2.2,1.3c-0.2,0.6,0.6,1.7,1.2,2.3c0.7,0.5,1.7,0.6,2.6,0.8c4.7,1.3,9.4,2.5,14.1,3.8
				c8.1,2.2,14.4-1.8,16-10.2c0.1-0.7,0.8-1.6,1.5-2c9-5.3,18-10.5,27-15.6c4.6-2.6,9.8-1.3,12.3,3c2.6,4.4,1.2,9.7-3.4,12.4
				c-15.8,9.2-31.6,18.3-47.4,27.4c-3.9,2.3-8.1,2.5-12.5,1.4c-5.2-1.2-10.5-2.3-15.7-3.7C50.3,131.9,44.8,131.5,39.3,134.9z"/>
			<path d="M23.7,96.1c0.6,0.9,1.5,1.9,1.8,2.9c2.3,8.3,4.5,16.6,6.7,24.9c1.4,5.2,2.7,10.4,4.2,15.5c0.6,2.2,0,3.3-2.2,3.8
				c-2.1,0.5-4.2,1-6.2,1.7c-1.7,0.5-2.7-0.1-3.2-1.7c-3.7-13.9-7.5-27.9-11.1-41.9c-0.2-0.7,0.3-2.3,0.9-2.5
				C17.3,97.8,20.2,97.1,23.7,96.1z"/>
		</g>
		<g>
			<path d="M48.1,40.2h19.9c2.2-7.3,8-13.1,15.3-15.3V5C65.2,7.8,50.9,22.1,48.1,40.2z"/>
			<path d="M111.6,40.2h19.9C128.7,22.1,114.4,7.8,96.3,5v19.9C103.6,27.1,109.4,32.9,111.6,40.2z"/>
			<path d="M68.1,53.2H48.1c2.8,18.1,17.1,32.4,35.2,35.2V68.4C76,66.2,70.2,60.5,68.1,53.2z"/>
			<path d="M96.3,68.4v19.9c18.1-2.8,32.4-17.1,35.2-35.2h-19.9C109.4,60.5,103.6,66.2,96.3,68.4z"/>
		</g>
	</g>
</g>
<g id="white" class="st0">
	<g class="st1">
		<g>
			<path class="st2" d="M39.3,134.9c-1.4-5.1-2.7-9.9-4-14.8c-1.6-6.1-3.2-12.1-4.9-18.2c-0.5-1.7-0.2-2.7,1.3-3.7
				c2.2-1.5,4.2-3.2,6.3-4.8c4.2-3.1,8.7-4.1,13.8-2.6c10.3,2.9,20.7,5.6,31.1,8.5c4.7,1.3,7.5,5.2,7.4,9.9c-0.1,5.4-4.8,9-10,7.7
				c-5.4-1.4-10.7-2.9-16-4.3c-0.6-0.1-1.2-0.5-1.7-0.4c-0.8,0.3-2,0.7-2.2,1.3c-0.2,0.6,0.6,1.7,1.2,2.3c0.7,0.5,1.7,0.6,2.6,0.8
				c4.7,1.3,9.4,2.5,14.1,3.8c8.1,2.2,14.4-1.8,16-10.2c0.1-0.7,0.8-1.6,1.5-2c9-5.3,18-10.5,27-15.6c4.6-2.6,9.8-1.3,12.3,3
				c2.6,4.4,1.2,9.7-3.4,12.4c-15.8,9.2-31.6,18.3-47.4,27.4c-3.9,2.3-8.1,2.5-12.5,1.4c-5.2-1.2-10.5-2.3-15.7-3.7
				C50.3,131.9,44.8,131.5,39.3,134.9z"/>
			<path class="st2" d="M23.7,96.1c0.6,0.9,1.5,1.9,1.8,2.9c2.3,8.3,4.5,16.6,6.7,24.9c1.4,5.2,2.7,10.4,4.2,15.5
				c0.6,2.2,0,3.3-2.2,3.8c-2.1,0.5-4.2,1-6.2,1.7c-1.7,0.5-2.7-0.1-3.2-1.7c-3.7-13.9-7.5-27.9-11.1-41.9c-0.2-0.7,0.3-2.3,0.9-2.5
				C17.3,97.8,20.2,97.1,23.7,96.1z"/>
		</g>
		<g>
			<path class="st2" d="M48.1,40.2h19.9c2.2-7.3,8-13.1,15.3-15.3V5C65.2,7.8,50.9,22.1,48.1,40.2z"/>
			<path class="st2" d="M111.6,40.2h19.9C128.7,22.1,114.4,7.8,96.3,5v19.9C103.6,27.1,109.4,32.9,111.6,40.2z"/>
			<path class="st2" d="M68.1,53.2H48.1c2.8,18.1,17.1,32.4,35.2,35.2V68.4C76,66.2,70.2,60.5,68.1,53.2z"/>
			<path class="st2" d="M96.3,68.4v19.9c18.1-2.8,32.4-17.1,35.2-35.2h-19.9C109.4,60.5,103.6,66.2,96.3,68.4z"/>
		</g>
	</g>
</g>
</svg>
