<?xml version="1.0" encoding="utf-8"?>
<!-- Generator: Adobe Illustrator 24.0.2, SVG Export Plug-In . SVG Version: 6.00 Build 0)  -->
<svg version="1.1" id="Capa_1" xmlns="http://www.w3.org/2000/svg" xmlns:xlink="http://www.w3.org/1999/xlink" x="0px" y="0px"
	 viewBox="0 0 50 50" style="enable-background:new 0 0 50 50;" xml:space="preserve">
<style type="text/css">
	.st0{fill:#787E82;}
</style>
<g>
	<path class="st0" d="M3,14.2c6.7,2.5,13.4,5,20.1,7.5c0.4,0.1,0.5,0.3,0.5,0.7c0,7.9,0,15.8,0,23.7c0,0.2,0,0.3,0,0.5
		C16.7,44.1,9.9,41.5,3,39C3,30.7,3,22.5,3,14.2z M14,39c0-0.9,0-1.8,0-2.7c0-0.1-0.1-0.2-0.2-0.3c-0.4-0.2-0.8-0.3-1.2-0.5
		c-1.3-0.5-2.6-1-4-1.5c0,0.9,0,1.8,0,2.7c0,0.1,0.1,0.2,0.2,0.3c0.5,0.2,1,0.4,1.6,0.6C11.5,38.1,12.7,38.6,14,39z"/>
	<path class="st0" d="M47,14.3c0,0.8,0,1.4,0,2.1c0,7.4,0,14.8,0,22.1c0,0.3-0.1,0.4-0.4,0.6c-6.6,2.5-13.3,5-19.9,7.5
		c-0.1,0-0.2,0.1-0.3,0.1c0-8.2,0-16.5,0-24.7c2.2-0.8,4.5-1.7,6.8-2.6c0,2.3,0,4.6,0,6.9c0.6-0.2,1.1-0.4,1.6-0.6
		c1.2-0.4,2.4-0.9,3.6-1.3c0.3-0.1,0.3-0.2,0.3-0.5c0-2.1,0-4.1,0-6.2c0-0.3,0.1-0.4,0.3-0.5c2.5-0.9,5.1-1.9,7.6-2.9
		C46.8,14.3,46.8,14.3,47,14.3z"/>
	<path class="st0" d="M25,13.3c2.8,1.1,5.4,2.2,8.2,3.4c-0.2,0.1-0.2,0.1-0.3,0.2c-2.5,0.9-5,1.9-7.5,2.8c-0.2,0.1-0.4,0.1-0.6,0
		c-7.1-2.7-14.2-5.3-21.3-8c-0.1,0-0.2-0.1-0.3-0.1c0.2-0.1,0.3-0.1,0.4-0.2c7.1-2.7,14.1-5.3,21.2-8c0.2-0.1,0.4-0.1,0.6,0
		c7.1,2.7,14.2,5.3,21.3,8c0.1,0,0.2,0.1,0.3,0.1c-0.1,0.1-0.2,0.1-0.3,0.2c-2.5,0.9-5.1,1.9-7.6,2.8c-0.2,0.1-0.4,0-0.6,0
		c-2.5-1.1-5-2.2-7.5-3.3c-0.3-0.1-0.5-0.2-0.8,0C28.4,11.8,26.8,12.5,25,13.3z"/>
</g>
</svg>
