<?xml version="1.0" encoding="utf-8"?>
<!-- Generator: Adobe Illustrator 24.0.2, SVG Export Plug-In . SVG Version: 6.00 Build 0)  -->
<svg version="1.1" xmlns="http://www.w3.org/2000/svg" xmlns:xlink="http://www.w3.org/1999/xlink" x="0px" y="0px"
	 viewBox="0 0 150 150" style="enable-background:new 0 0 150 150;" xml:space="preserve">
<style type="text/css">
	.st0{display:none;}
	.st1{display:inline;}
	.st2{fill:#FFFFFF;}
	.st3{display:inline;fill:#FFFFFF;}
</style>
<g id="black">
	<g>
		<path d="M137.7,81.6L145,75l-7.3-6.6l5.8-8l-8.5-4.9l4-9.1l-9.3-3l2-9.7l-9.8-1.1l-0.1-9.9l-9.8,1l-2.1-9.6l-9.3,3l-4-9l-8.5,4.9
			L82.3,5L75,11.6L67.7,5l-5.9,7.9L53.4,8l-4,9l-9.3-3l-2.1,9.6l-9.8-1l-0.1,9.9l-9.8,1.1l2,9.6L11,46.4l4,9.1l-8.5,4.9l5.8,8L5,75
			l7.3,6.6l-5.8,8l8.5,4.9l-4,9.1l9.3,3l-2,9.7l9.8,1.1l0.1,9.9l9.8-1l2.1,9.6l9.3-3l4,9l8.5-4.9l5.9,7.9l7.3-6.6l7.3,6.6l5.9-7.9
			l8.5,4.9l4-9l9.3,3l2.1-9.6l9.8,1l0.1-9.9l9.8-1.1l-2-9.6l9.3-3.1l-4-9.1l8.5-4.9L137.7,81.6z M64.3,110.7
			c-2.7,2.3-6.6,3.5-11.8,3.5c-2,0-4-0.2-6.3-0.4c-2.2-0.4-4-0.8-5.5-1.4V105c1.4,0.6,3.1,1.1,5.1,1.4c2,0.4,3.8,0.5,5.5,0.5
			c3,0,5.1-0.4,6.4-1.4c1.3-1,2.1-2.5,2.1-4.7c0-2.1-0.5-3.5-1.5-4.4c-1-0.9-2.9-1.3-5.6-1.3H40.6v-4.7l1.1-17.2h24L65,79.7H48.8
			l-0.5,8.9h6.1c4.8,0,8.3,1.1,10.6,3.1c2.2,2.1,3.4,5.2,3.4,9.4C68.3,105.2,67,108.4,64.3,110.7z M67.9,59.9L56.1,48.1
			c-1.7-1.7-1.7-4.5,0-6.2c1.7-1.7,4.5-1.7,6.2,0l8.8,8.8l16.7-16.7c1.7-1.7,4.5-1.7,6.2,0c1.7,1.7,1.7,4.5,0,6.2L74.2,59.9
			C72.4,61.6,69.6,61.6,67.9,59.9z M105.3,109.8c-2.9,3.6-7.5,5.4-14,5.4s-11.1-1.8-14-5.4c-2.9-3.6-4.3-8.9-4.3-15.9
			c0-7,1.4-12.4,4.3-15.9c2.9-3.6,7.5-5.4,14-5.4s11.1,1.8,14,5.4c2.9,3.6,4.3,8.9,4.3,15.9C109.6,100.9,108.2,106.2,105.3,109.8z"
			/>
		<path d="M91.3,79.8c-3.5,0-6,1.2-7.4,3.5s-2.2,5.8-2.2,10.6s0.7,8.2,2.2,10.6c1.4,2.3,3.9,3.5,7.4,3.5s5.9-1.2,7.4-3.5
			c1.4-2.3,2.2-5.8,2.2-10.6s-0.7-8.2-2.2-10.6C97.3,81,94.8,79.8,91.3,79.8z"/>
	</g>
</g>
<g id="white" class="st0">
	<g class="st1">
		<path class="st2" d="M137.7,81.6L145,75l-7.3-6.6l5.8-8l-8.5-4.9l4-9.1l-9.3-3l2-9.7l-9.8-1.1l-0.1-9.9l-9.8,1l-2.1-9.6l-9.3,3
			l-4-9l-8.5,4.9L82.3,5L75,11.6L67.7,5l-5.9,7.9L53.4,8l-4,9l-9.3-3l-2.1,9.6l-9.8-1l-0.1,9.9l-9.8,1.1l2,9.6L11,46.4l4,9.1
			l-8.5,4.9l5.8,8L5,75l7.3,6.6l-5.8,8l8.5,4.9l-4,9.1l9.3,3l-2,9.7l9.8,1.1l0.1,9.9l9.8-1l2.1,9.6l9.3-3l4,9l8.5-4.9l5.9,7.9
			l7.3-6.6l7.3,6.6l5.9-7.9l8.5,4.9l4-9l9.3,3l2.1-9.6l9.8,1l0.1-9.9l9.8-1.1l-2-9.6l9.3-3.1l-4-9.1l8.5-4.9L137.7,81.6z
			 M64.3,110.7c-2.7,2.3-6.6,3.5-11.8,3.5c-2,0-4-0.2-6.3-0.4c-2.2-0.4-4-0.8-5.5-1.4V105c1.4,0.6,3.1,1.1,5.1,1.4
			c2,0.4,3.8,0.5,5.5,0.5c3,0,5.1-0.4,6.4-1.4c1.3-1,2.1-2.5,2.1-4.7c0-2.1-0.5-3.5-1.5-4.4c-1-0.9-2.9-1.3-5.6-1.3H40.6v-4.7
			l1.1-17.2h24L65,79.7H48.8l-0.5,8.9h6.1c4.8,0,8.3,1.1,10.6,3.1c2.2,2.1,3.4,5.2,3.4,9.4C68.3,105.2,67,108.4,64.3,110.7z
			 M67.9,59.9L56.1,48.1c-1.7-1.7-1.7-4.5,0-6.2c1.7-1.7,4.5-1.7,6.2,0l8.8,8.8l16.7-16.7c1.7-1.7,4.5-1.7,6.2,0
			c1.7,1.7,1.7,4.5,0,6.2L74.2,59.9C72.4,61.6,69.6,61.6,67.9,59.9z M105.3,109.8c-2.9,3.6-7.5,5.4-14,5.4s-11.1-1.8-14-5.4
			c-2.9-3.6-4.3-8.9-4.3-15.9c0-7,1.4-12.4,4.3-15.9c2.9-3.6,7.5-5.4,14-5.4s11.1,1.8,14,5.4c2.9,3.6,4.3,8.9,4.3,15.9
			C109.6,100.9,108.2,106.2,105.3,109.8z"/>
		<path class="st2" d="M91.3,79.8c-3.5,0-6,1.2-7.4,3.5s-2.2,5.8-2.2,10.6s0.7,8.2,2.2,10.6c1.4,2.3,3.9,3.5,7.4,3.5
			s5.9-1.2,7.4-3.5c1.4-2.3,2.2-5.8,2.2-10.6s-0.7-8.2-2.2-10.6C97.3,81,94.8,79.8,91.3,79.8z"/>
	</g>
</g>
</svg>
