<?xml version="1.0" encoding="utf-8"?>
<!-- Generator: Adobe Illustrator 24.0.2, SVG Export Plug-In . SVG Version: 6.00 Build 0)  -->
<svg version="1.1" xmlns="http://www.w3.org/2000/svg" xmlns:xlink="http://www.w3.org/1999/xlink" x="0px" y="0px"
	 viewBox="0 0 150 150" style="enable-background:new 0 0 150 150;" xml:space="preserve">
<style type="text/css">
	.st0{fill:#101820;}
	.st1{display:none;}
	.st2{display:inline;}
	.st3{fill:#FFFFFF;}
	.st4{display:inline;fill:#101820;}
</style>
<g id="Capa_1">
	<g>
		<path class="st0" d="M70.4,144.6c-2.3,2.9-4.5,3.2-7,0.7c-1.7-1.6-3.1-3.5-5.1-5.7c-2,2.2-3.5,4-5.2,5.6c-2.4,2.3-4.4,2.3-6.9,0.1
			c-0.8-0.8-1.6-1.5-2.4-2.4c-0.8-0.8-1.4-1.7-2.5-3c-2,2.1-3.5,3.9-5.2,5.5c-2.3,2.2-4.4,2.2-6.6,0c-1.7-1.7-3.3-3.6-5-5.4
			c-1.9,1.9-3.5,3.4-5.1,5c-1.5,1.5-3,2.6-5.2,1.7c-2.3-0.9-2.8-2.8-2.8-5c0-23.2,0-46.5,0-69.7c0-15.6,0-31.1,0-46.7
			c0-13.1,9-22.1,22-22.2c23.4,0,46.9,0,70.3,0c0.8,0,1.6,0,2.8,0c-0.4,0.7-0.6,1.1-0.8,1.4c-3.7,4.8-5.2,10.3-5.2,16.3
			c0,12.7,0,25.5,0,38.2c0,1.1,0,2.2,0,3.4c-21,1.4-36.4,11.1-43.6,30.9C49.8,113.1,55.4,130.3,70.4,144.6z M46.9,75
			c4.5,0,9,0,13.5,0c3.2,0,5.2-1.7,5.1-4.3c-0.1-2.5-2-4.1-5-4.1c-8.9,0-17.8,0-26.7,0c-3.2,0-5.1,1.7-5,4.3c0.1,2.5,1.9,4,5,4.1
			C38.1,75,42.5,75,46.9,75z M41,91.9c2.8,0,5.6,0.1,8.4,0c2.7-0.1,4.4-1.7,4.4-4.1c0.1-2.5-1.7-4.3-4.5-4.3
			c-5.4-0.1-10.8-0.1-16.3,0c-2.7,0-4.4,1.7-4.4,4.1c-0.1,2.5,1.7,4.2,4.5,4.3C35.8,91.9,38.4,91.9,41,91.9z M39.6,108.7
			c2.2,0,4.3,0,6.5,0c3.1,0,4.9-1.6,5-4.1c0-2.5-1.8-4.2-4.8-4.3c-4.3,0-8.6,0-12.9,0c-2.8,0-4.7,1.7-4.7,4.1c0,2.5,1.8,4.2,4.8,4.3
			C35.5,108.8,37.6,108.7,39.6,108.7z"/>
		<path class="st0" d="M100.4,147c-20.9,0-37.9-16.9-37.9-37.9c0-21,16.9-38,37.8-38.1c21,0,38.2,17.1,38.2,38
			C138.4,129.9,121.3,147,100.4,147z M100.2,87c-1.4,1.3-2.6,2.4-3.7,3.6c-0.7,0.7-1,1.7-1.8,2.3c-6.6,4.7-6.2,13.1,0.9,17
			c1.8,1,3.9,1.5,5.6,2.6c1,0.6,1.4,2,2.1,3.1c-1.2,0.7-2.4,1.8-3.6,1.9c-1.4,0.1-2.8-0.8-4.2-1.3c-2.3-0.9-4.6-0.2-5.6,1.7
			c-1.1,2-0.4,4.4,1.8,5.8c0.8,0.5,1.7,0.7,2.5,1.3c0.9,0.6,1.6,1.6,2.4,2.2c1.3,1,2.7,2.6,3.9,2.5c1.4-0.1,2.7-1.8,3.9-2.9
			c0.8-0.7,1.2-1.8,2-2.4c7.4-4.8,7.3-14.5-0.4-18.9c-1.8-1-3.8-1.6-5.6-2.6c-0.8-0.4-1.2-1.4-1.8-2.1c1-0.4,1.9-0.9,2.9-1
			c0.5-0.1,1.2,0.4,1.8,0.7c2.6,1.4,4.8,0.9,6.1-1.2c1.2-2.1,0.5-4.3-1.8-6.1c-1.4-1.1-2.5-2.5-3.8-3.7
			C102.9,88.7,101.8,88.1,100.2,87z"/>
		<path class="st0" d="M108.7,62.5c0-1.2,0-2,0-2.9c0-13.6,0-27.1,0-40.7c0-9.2,6.3-15.9,14.9-15.9c8.6,0,14.9,6.7,14.9,15.9
			c0,12.6,0,25.3,0,37.9c0,4.2-1.4,5.6-5.5,5.6C125.1,62.5,117.1,62.5,108.7,62.5z"/>
	</g>
</g>
<g id="Capa_2" class="st1">
	<g class="st2">
		<path class="st0" d="M70.4,144.6c-2.3,2.9-4.5,3.2-7,0.7c-1.7-1.6-3.1-3.5-5.1-5.7c-2,2.2-3.5,4-5.2,5.6c-2.4,2.3-4.4,2.3-6.9,0.1
			c-0.8-0.8-1.6-1.5-2.4-2.4c-0.8-0.8-1.4-1.7-2.5-3c-2,2.1-3.5,3.9-5.2,5.5c-2.3,2.2-4.4,2.2-6.6,0c-1.7-1.7-3.3-3.6-5-5.4
			c-1.9,1.9-3.5,3.4-5.1,5c-1.5,1.5-3,2.6-5.2,1.7c-2.3-0.9-2.8-2.8-2.8-5c0-23.2,0-46.5,0-69.7c0-15.6,0-31.1,0-46.7
			c0-13.1,9-22.1,22-22.2c23.4,0,46.9,0,70.3,0c0.8,0,1.6,0,2.8,0c-0.4,0.7-0.6,1.1-0.8,1.4c-3.7,4.8-5.2,10.3-5.2,16.3
			c0,12.7,0,25.5,0,38.2c0,1.1,0,2.2,0,3.4c-21,1.4-36.4,11.1-43.6,30.9C49.8,113.1,55.4,130.3,70.4,144.6z M46.9,75
			c4.5,0,9,0,13.5,0c3.2,0,5.2-1.7,5.1-4.3c-0.1-2.5-2-4.1-5-4.1c-8.9,0-17.8,0-26.7,0c-3.2,0-5.1,1.7-5,4.3c0.1,2.5,1.9,4,5,4.1
			C38.1,75,42.5,75,46.9,75z M41,91.9c2.8,0,5.6,0.1,8.4,0c2.7-0.1,4.4-1.7,4.4-4.1c0.1-2.5-1.7-4.3-4.5-4.3
			c-5.4-0.1-10.8-0.1-16.3,0c-2.7,0-4.4,1.7-4.4,4.1c-0.1,2.5,1.7,4.2,4.5,4.3C35.8,91.9,38.4,91.9,41,91.9z M39.6,108.7
			c2.2,0,4.3,0,6.5,0c3.1,0,4.9-1.6,5-4.1c0-2.5-1.8-4.2-4.8-4.3c-4.3,0-8.6,0-12.9,0c-2.8,0-4.7,1.7-4.7,4.1c0,2.5,1.8,4.2,4.8,4.3
			C35.5,108.8,37.6,108.7,39.6,108.7z"/>
		<path class="st0" d="M100.4,147c-20.9,0-37.9-16.9-37.9-37.9c0-21,16.9-38,37.8-38.1c21,0,38.2,17.1,38.2,38
			C138.4,129.9,121.3,147,100.4,147z M100.2,87c-1.4,1.3-2.6,2.4-3.7,3.6c-0.7,0.7-1,1.7-1.8,2.3c-6.6,4.7-6.2,13.1,0.9,17
			c1.8,1,3.9,1.5,5.6,2.6c1,0.6,1.4,2,2.1,3.1c-1.2,0.7-2.4,1.8-3.6,1.9c-1.4,0.1-2.8-0.8-4.2-1.3c-2.3-0.9-4.6-0.2-5.6,1.7
			c-1.1,2-0.4,4.4,1.8,5.8c0.8,0.5,1.7,0.7,2.5,1.3c0.9,0.6,1.6,1.6,2.4,2.2c1.3,1,2.7,2.6,3.9,2.5c1.4-0.1,2.7-1.8,3.9-2.9
			c0.8-0.7,1.2-1.8,2-2.4c7.4-4.8,7.3-14.5-0.4-18.9c-1.8-1-3.8-1.6-5.6-2.6c-0.8-0.4-1.2-1.4-1.8-2.1c1-0.4,1.9-0.9,2.9-1
			c0.5-0.1,1.2,0.4,1.8,0.7c2.6,1.4,4.8,0.9,6.1-1.2c1.2-2.1,0.5-4.3-1.8-6.1c-1.4-1.1-2.5-2.5-3.8-3.7
			C102.9,88.7,101.8,88.1,100.2,87z"/>
		<path class="st0" d="M108.7,62.5c0-1.2,0-2,0-2.9c0-13.6,0-27.1,0-40.7c0-9.2,6.3-15.9,14.9-15.9c8.6,0,14.9,6.7,14.9,15.9
			c0,12.6,0,25.3,0,37.9c0,4.2-1.4,5.6-5.5,5.6C125.1,62.5,117.1,62.5,108.7,62.5z"/>
	</g>
</g>
</svg>
