<?xml version="1.0" encoding="utf-8"?>
<!-- Generator: Adobe Illustrator 24.0.2, SVG Export Plug-In . SVG Version: 6.00 Build 0)  -->
<svg version="1.1" xmlns="http://www.w3.org/2000/svg" xmlns:xlink="http://www.w3.org/1999/xlink" x="0px" y="0px"
	 viewBox="0 0 150 150" style="enable-background:new 0 0 150 150;" xml:space="preserve">
<style type="text/css">
	.st0{fill:#101820;}
	.st1{display:none;}
	.st2{display:inline;}
	.st3{fill:#FFFFFF;}
	.st4{display:inline;fill:#FFFFFF;}
</style>
<g id="Capa_1">
	<path class="st0" d="M75.1,3C35.3,3,3,35.2,3,75c0,39.7,32.1,71.9,71.8,72c39.8,0.1,72.1-32.1,72.2-71.8C147.1,35.4,114.9,3,75.1,3
		z M75,112.4L75,112.4L75,112.4l-49-49l11.7-11.7L75,89l37.3-37.3L124,63.3L75,112.4z"/>
</g>
<g id="Capa_2" class="st1">
	<path class="st4" d="M75.1,3C35.3,3,3,35.2,3,75c0,39.7,32.1,71.9,71.8,72c39.8,0.1,72.1-32.1,72.2-71.8C147.1,35.4,114.9,3,75.1,3
		z M75,112.4L75,112.4L75,112.4l-49-49l11.7-11.7L75,89l37.3-37.3L124,63.3L75,112.4z"/>
</g>
</svg>
