<?xml version="1.0" encoding="utf-8"?>
<!-- Generator: Adobe Illustrator 24.0.2, SVG Export Plug-In . SVG Version: 6.00 Build 0)  -->
<svg version="1.1" xmlns="http://www.w3.org/2000/svg" xmlns:xlink="http://www.w3.org/1999/xlink" x="0px" y="0px"
	 viewBox="0 0 150 150" style="enable-background:new 0 0 150 150;" xml:space="preserve">
<style type="text/css">
	.st0{fill:#101820;}
	.st1{display:none;}
	.st2{display:inline;}
	.st3{fill:#FFFFFF;}
	.st4{display:inline;fill:#101820;}
</style>
<g id="Capa_1">
	<g>
		<path class="st0" d="M75,147c-11.6,0-23.2,0-34.9,0c-5,0-9.7-1-14-3.5c-6.8-4-10.6-10.2-11-17.9c-0.7-13.2,0.7-26.2,7.1-38.2
			c4.8-9,12.3-14.1,22.7-14.7c2.9-0.2,5.3,0.9,7.6,2.5c4.8,3.3,9.8,6.3,15.5,7.6c8.6,2,16.5,0.2,24-4.1c1.5-0.8,3-1.7,4.2-2.7
			c4.7-3.9,9.9-3.8,15.4-2.2c8.4,2.5,13.9,8.3,17.4,16c5.5,12.1,7.1,24.9,5.5,37.9c-1.4,11.5-11.2,19.1-23.5,19.3
			C99,147.1,87,146.9,75,147C75,147,75,147,75,147z"/>
		<path class="st0" d="M39.4,37.6C39.5,18.2,55,2.9,74.3,3c19.1,0.1,34.6,15.8,34.4,34.9c-0.2,19.2-15.6,34.5-34.8,34.4
			C54.6,72.2,39.3,56.8,39.4,37.6z"/>
	</g>
</g>
<g id="Capa_2" class="st1">
	<g class="st2">
		<path class="st0" d="M75,147c-11.6,0-23.2,0-34.9,0c-5,0-9.7-1-14-3.5c-6.8-4-10.6-10.2-11-17.9c-0.7-13.2,0.7-26.2,7.1-38.2
			c4.8-9,12.3-14.1,22.7-14.7c2.9-0.2,5.3,0.9,7.6,2.5c4.8,3.3,9.8,6.3,15.5,7.6c8.6,2,16.5,0.2,24-4.1c1.5-0.8,3-1.7,4.2-2.7
			c4.7-3.9,9.9-3.8,15.4-2.2c8.4,2.5,13.9,8.3,17.4,16c5.5,12.1,7.1,24.9,5.5,37.9c-1.4,11.5-11.2,19.1-23.5,19.3
			C99,147.1,87,146.9,75,147C75,147,75,147,75,147z"/>
		<path class="st0" d="M39.4,37.6C39.5,18.2,55,2.9,74.3,3c19.1,0.1,34.6,15.8,34.4,34.9c-0.2,19.2-15.6,34.5-34.8,34.4
			C54.6,72.2,39.3,56.8,39.4,37.6z"/>
	</g>
</g>
</svg>
