<?xml version="1.0" encoding="utf-8"?>
<!-- Generator: Adobe Illustrator 24.0.2, SVG Export Plug-In . SVG Version: 6.00 Build 0)  -->
<svg version="1.1" xmlns="http://www.w3.org/2000/svg" xmlns:xlink="http://www.w3.org/1999/xlink" x="0px" y="0px"
	 viewBox="0 0 150 150" style="enable-background:new 0 0 150 150;" xml:space="preserve">
<style type="text/css">
	.st0{fill:#101820;}
	.st1{display:none;}
	.st2{display:inline;}
	.st3{fill:#FFFFFF;}
	.st4{display:inline;fill:#FFFFFF;}
</style>
<g id="Capa_1">
	<g>
		<path class="st0" d="M75,127c-18.4,0-36.9,0-55.3,0c-3.5,0-4.8-1.3-4.8-4.8c0-5.2,0-10.4,0-15.7c0-2,0.4-3.7,2.5-4.6
			c0.4-0.2,0.8-0.7,0.9-1.2c2-7,7.7-9.9,14.4-10c8.6-0.1,16.3-2.9,22.4-9.1c7.1-7,8.8-15.8,7.5-25.4c-1.1-7.8-4-15-7.3-22.1
			c-3.9-8.2-3.1-16.2,2.5-23.3C63.4,3.9,71,1.2,79.7,3.1C88.4,5,94,10.6,96.3,19.2c1.4,5.2,0.7,10.2-1.6,15
			c-3.9,8.2-7.1,16.6-7.7,25.8C86,74.5,95.7,87.2,110,89.9c4,0.8,8.2,0.9,12.2,1.6c4.7,0.9,7.6,3.9,9.2,8.4c0.3,0.9,1.4,1.5,1.9,2.4
			c0.7,1.1,1.7,2.3,1.7,3.5c0.2,5.6,0.1,11.3,0.1,16.9c0,3-1.4,4.1-4.7,4.2c-17.6,0-35.2,0-52.8,0C76.7,127,75.8,127,75,127
			C75,127,75,127,75,127z"/>
		<path class="st0" d="M75,147.5c-16.5,0-33,0-49.5,0c-3.8,0-4.8-1-4.9-4.8c0-1.3,0-2.6,0-4c0.1-3.1,1.3-4.3,4.4-4.3
			c14.5,0,29.1,0,43.6,0c18.6,0,37.2,0,55.7,0c4,0,5,1,5,5.1c0,1,0,1.9,0,2.9c0,4-0.9,5-5.1,5c-5.9,0-11.8,0-17.7,0
			C96,147.5,85.5,147.5,75,147.5z"/>
	</g>
</g>
<g id="Capa_2" class="st1">
	<g class="st2">
		<path class="st3" d="M75,127c-18.4,0-36.9,0-55.3,0c-3.5,0-4.8-1.3-4.8-4.8c0-5.2,0-10.4,0-15.7c0-2,0.4-3.7,2.5-4.6
			c0.4-0.2,0.8-0.7,0.9-1.2c2-7,7.7-9.9,14.4-10c8.6-0.1,16.3-2.9,22.4-9.1c7.1-7,8.8-15.8,7.5-25.4c-1.1-7.8-4-15-7.3-22.1
			c-3.9-8.2-3.1-16.2,2.5-23.3C63.4,3.9,71,1.2,79.7,3.1C88.4,5,94,10.6,96.3,19.2c1.4,5.2,0.7,10.2-1.6,15
			c-3.9,8.2-7.1,16.6-7.7,25.8C86,74.5,95.7,87.2,110,89.9c4,0.8,8.2,0.9,12.2,1.6c4.7,0.9,7.6,3.9,9.2,8.4c0.3,0.9,1.4,1.5,1.9,2.4
			c0.7,1.1,1.7,2.3,1.7,3.5c0.2,5.6,0.1,11.3,0.1,16.9c0,3-1.4,4.1-4.7,4.2c-17.6,0-35.2,0-52.8,0C76.7,127,75.8,127,75,127
			C75,127,75,127,75,127z"/>
		<path class="st3" d="M75,147.5c-16.5,0-33,0-49.5,0c-3.8,0-4.8-1-4.9-4.8c0-1.3,0-2.6,0-4c0.1-3.1,1.3-4.3,4.4-4.3
			c14.5,0,29.1,0,43.6,0c18.6,0,37.2,0,55.7,0c4,0,5,1,5,5.1c0,1,0,1.9,0,2.9c0,4-0.9,5-5.1,5c-5.9,0-11.8,0-17.7,0
			C96,147.5,85.5,147.5,75,147.5z"/>
	</g>
</g>
</svg>
