<?xml version="1.0" encoding="utf-8"?>
<!-- Generator: Adobe Illustrator 24.0.2, SVG Export Plug-In . SVG Version: 6.00 Build 0)  -->
<svg version="1.1" xmlns="http://www.w3.org/2000/svg" xmlns:xlink="http://www.w3.org/1999/xlink" x="0px" y="0px"
	 viewBox="0 0 150 150" style="enable-background:new 0 0 150 150;" xml:space="preserve">
<style type="text/css">
	.st0{fill:#101820;}
	.st1{display:none;}
	.st2{display:inline;}
	.st3{fill:#FFFFFF;}
	.st4{display:inline;fill:#FFFFFF;}
</style>
<g id="Capa_1">
	<g>
		<path class="st0" d="M43.7,7.3c0.8,1.4,1.3,2.5,1.8,3.5c4,7.3,7.8,14.7,12.1,21.7c2.3,3.8,2.1,7.2,0.8,11
			c-3,8.7-11.9,14.3-20.9,13.4c-9.3-1-17-8.3-18-17.6c-0.2-1.5,0.1-3.3,0.8-4.6c5.3-9.9,10.8-19.6,16.1-29.5c1-1.8,2.2-2.7,4.4-2.7
			c22.5,0.1,45.1,0.1,67.6,0c2.2,0,3.6,0.6,4.7,2.7c5.3,9.8,10.8,19.6,16.1,29.5c0.7,1.3,1,3.1,0.9,4.6c-1,9.8-9.7,17.6-19.5,17.7
			c-10.2,0.1-19.1-7.3-20.3-17.4c-0.2-1.8,0.3-4,1.1-5.6c4.3-8.1,8.8-16,13.3-24c0.4-0.7,0.8-1.5,1.3-2.5c-9.7,0-19.1,0-28.6,0
			c-0.1,0.8-0.2,1.7-0.2,2.5c0,24.5,0,49,0,73.5c0,1.5,0.4,2.2,1.9,2.8c6.1,2.3,8.9,7.4,8,14.1c-0.7,5.1-5.3,9.5-10.8,10.2
			c-5.7,0.8-11.2-2.6-13.4-8.2c-2.5-6.3,0.9-13.6,7.5-16.1c1.5-0.6,1.9-1.3,1.9-2.7c0-24.7,0-49.5,0-74.2c0-0.6-0.1-1.1-0.2-1.8
			C62.9,7.3,53.6,7.3,43.7,7.3z M53.1,34.3c-4.5-8.2-8.9-16.1-13.6-24.5c-4.6,8.4-9,16.3-13.5,24.5C35.3,34.3,44,34.3,53.1,34.3z
			 M110.4,9.8c-4.7,8.4-9,16.3-13.5,24.5c9.1,0,17.9,0,27,0C119.4,26.1,115,18.2,110.4,9.8z"/>
		<path class="st0" d="M49.2,74c-0.2,5,0.4,9.6-1.4,14.3c-5.8,14.8,2.7,32.2,17.8,37.1c17.2,5.6,35.3-5.1,37.9-23
			c0.6-4.3-0.1-9.1-1.1-13.4c-1.3-5.5-2.1-8.5-1.4-15c2.6,0,5.3,0,8,0c1.2,0,2.4,0.2,3.6,0c4.7-0.9,7.2,1.2,9,5.3
			c0.7,1.6,0.6,2.7-0.5,3.9c-2.1,2.3-4.3,4.6-6.3,7.1c-0.6,0.8-0.9,1.9-1,2.9c-0.1,3.2-0.1,6.3,0,9.5c0,1,0.3,2.2,1,2.9
			c1.9,2.4,4,4.7,6.2,6.9c1.5,1.5,1.5,2.8,0.5,4.5c-2.3,3.8-4.6,7.6-6.7,11.6c-1,1.9-2.4,2.2-4.2,1.8c-2.9-0.6-5.8-1.4-8.8-1.8
			c-1.1-0.2-2.4,0.3-3.5,0.8c-2.1,1.1-4,2.8-6.2,3.6c-2.6,1-3.9,2.6-4.6,5.2c-0.6,2.4-1.5,4.7-2.2,7.1c-0.5,1.5-1.3,2.2-3,2.2
			c-4.8-0.1-9.6,0.1-14.4-0.1c-1,0-2.5-1-2.9-1.8c-1.4-3.6-1.7-7.9-3.9-10.7c-2.3-2.8-6.4-4.1-9.8-5.9c-0.7-0.4-1.8-0.6-2.6-0.5
			c-3,0.5-6,1.2-9,1.9c-2,0.5-3.4,0-4.4-1.9c-2.1-4-4.4-7.9-6.8-11.8c-0.9-1.5-0.8-2.6,0.4-3.9c2-2.1,3.8-4.4,5.9-6.5
			c1.3-1.3,1.7-2.5,1.5-4.3c-0.2-2.8,0.1-5.6-0.1-8.4c-0.1-1.2-0.5-2.7-1.2-3.6c-1.8-2.4-3.9-4.5-6-6.7c-1.2-1.3-1.2-2.4-0.5-4.1
			c1.7-4.1,4.3-5.8,8.8-5.2C41.1,74.4,45,74,49.2,74z"/>
	</g>
</g>
<g id="Capa_2" class="st1">
	<g class="st2">
		<path class="st3" d="M43.7,7.3c0.8,1.4,1.3,2.5,1.8,3.5c4,7.3,7.8,14.7,12.1,21.7c2.3,3.8,2.1,7.2,0.8,11
			c-3,8.7-11.9,14.3-20.9,13.4c-9.3-1-17-8.3-18-17.6c-0.2-1.5,0.1-3.3,0.8-4.6c5.3-9.9,10.8-19.6,16.1-29.5c1-1.8,2.2-2.7,4.4-2.7
			c22.5,0.1,45.1,0.1,67.6,0c2.2,0,3.6,0.6,4.7,2.7c5.3,9.8,10.8,19.6,16.1,29.5c0.7,1.3,1,3.1,0.9,4.6c-1,9.8-9.7,17.6-19.5,17.7
			c-10.2,0.1-19.1-7.3-20.3-17.4c-0.2-1.8,0.3-4,1.1-5.6c4.3-8.1,8.8-16,13.3-24c0.4-0.7,0.8-1.5,1.3-2.5c-9.7,0-19.1,0-28.6,0
			c-0.1,0.8-0.2,1.7-0.2,2.5c0,24.5,0,49,0,73.5c0,1.5,0.4,2.2,1.9,2.8c6.1,2.3,8.9,7.4,8,14.1c-0.7,5.1-5.3,9.5-10.8,10.2
			c-5.7,0.8-11.2-2.6-13.4-8.2c-2.5-6.3,0.9-13.6,7.5-16.1c1.5-0.6,1.9-1.3,1.9-2.7c0-24.7,0-49.5,0-74.2c0-0.6-0.1-1.1-0.2-1.8
			C62.9,7.3,53.6,7.3,43.7,7.3z M53.1,34.3c-4.5-8.2-8.9-16.1-13.6-24.5c-4.6,8.4-9,16.3-13.5,24.5C35.3,34.3,44,34.3,53.1,34.3z
			 M110.4,9.8c-4.7,8.4-9,16.3-13.5,24.5c9.1,0,17.9,0,27,0C119.4,26.1,115,18.2,110.4,9.8z"/>
		<path class="st3" d="M49.2,74c-0.2,5,0.4,9.6-1.4,14.3c-5.8,14.8,2.7,32.2,17.8,37.1c17.2,5.6,35.3-5.1,37.9-23
			c0.6-4.3-0.1-9.1-1.1-13.4c-1.3-5.5-2.1-8.5-1.4-15c2.6,0,5.3,0,8,0c1.2,0,2.4,0.2,3.6,0c4.7-0.9,7.2,1.2,9,5.3
			c0.7,1.6,0.6,2.7-0.5,3.9c-2.1,2.3-4.3,4.6-6.3,7.1c-0.6,0.8-0.9,1.9-1,2.9c-0.1,3.2-0.1,6.3,0,9.5c0,1,0.3,2.2,1,2.9
			c1.9,2.4,4,4.7,6.2,6.9c1.5,1.5,1.5,2.8,0.5,4.5c-2.3,3.8-4.6,7.6-6.7,11.6c-1,1.9-2.4,2.2-4.2,1.8c-2.9-0.6-5.8-1.4-8.8-1.8
			c-1.1-0.2-2.4,0.3-3.5,0.8c-2.1,1.1-4,2.8-6.2,3.6c-2.6,1-3.9,2.6-4.6,5.2c-0.6,2.4-1.5,4.7-2.2,7.1c-0.5,1.5-1.3,2.2-3,2.2
			c-4.8-0.1-9.6,0.1-14.4-0.1c-1,0-2.5-1-2.9-1.8c-1.4-3.6-1.7-7.9-3.9-10.7c-2.3-2.8-6.4-4.1-9.8-5.9c-0.7-0.4-1.8-0.6-2.6-0.5
			c-3,0.5-6,1.2-9,1.9c-2,0.5-3.4,0-4.4-1.9c-2.1-4-4.4-7.9-6.8-11.8c-0.9-1.5-0.8-2.6,0.4-3.9c2-2.1,3.8-4.4,5.9-6.5
			c1.3-1.3,1.7-2.5,1.5-4.3c-0.2-2.8,0.1-5.6-0.1-8.4c-0.1-1.2-0.5-2.7-1.2-3.6c-1.8-2.4-3.9-4.5-6-6.7c-1.2-1.3-1.2-2.4-0.5-4.1
			c1.7-4.1,4.3-5.8,8.8-5.2C41.1,74.4,45,74,49.2,74z"/>
	</g>
</g>
</svg>
