<?xml version="1.0" encoding="utf-8"?>
<!-- Generator: Adobe Illustrator 24.0.2, SVG Export Plug-In . SVG Version: 6.00 Build 0)  -->
<svg version="1.1" id="Capa_1" xmlns="http://www.w3.org/2000/svg" xmlns:xlink="http://www.w3.org/1999/xlink" x="0px" y="0px"
	 viewBox="0 0 32 32" style="enable-background:new 0 0 32 32;" xml:space="preserve">
<style type="text/css">
	.st0{fill:#101820;}
	.st1{fill:#c89211;}
</style>
<g>
	<path class="st0" d="M16.2,32C10,32,4.9,28,3.3,22.4c-0.3-1.1-0.4-2.2-0.5-3.3c0-0.2,0-0.4,0-0.5c0.1-0.5,0.6-0.9,1.2-0.9
		s1,0.4,1.1,1c0,0.2,0,0.4,0.1,0.6c0,1.1,0.3,2.1,0.6,3.1c1.2,3.3,3.9,6.2,7.9,7.1c6.1,1.3,11.6-2.6,12.9-8.1
		c0.2-0.8,0.3-1.6,0.4-2.3c0-0.1,0-0.3,0-0.4c0-0.5,0.5-1,1-1c0.5,0,1.1,0.3,1.2,0.8c0.1,0.2,0.1,0.4,0.1,0.6
		c-0.1,1.7-0.4,3.3-1.1,4.9c-1.6,3.6-4.7,6.5-8.8,7.5C18.2,31.8,17.1,32,16.2,32z"/>
	<path class="st1" d="M15.1,6.3c0,1.5,0,3.1,0,4.6c0,0.7-0.1,1.4-0.4,2.1c-0.8,2-2.2,3.4-4.4,3.8c-1.9,0.3-3.5-0.1-5.1-1.2
		c-1-0.8-1.6-1.8-1.9-2.9C3,11,3.2,9.3,4,7.7c0.8-1.4,2-2.4,3.6-2.7c1.8-0.3,3.3,0.1,4.6,1.3c0.1,0.1,0.3,0.2,0.4,0.3h0.1
		c0,0,0,0,0-0.1c0-0.2,0-0.4,0-0.5c0-1.5,0-3,0-4.5c0-0.2,0-0.4,0-0.5c0-0.6,0.5-1.1,1.2-1c0.5,0.1,0.9,0.4,1,1c0,0.2,0,0.4,0,0.6
		C15.1,3.2,15.1,4.8,15.1,6.3L15.1,6.3z M13,11.2c0-0.7-0.1-1.2-0.3-1.7c-0.6-1.6-2.2-2.8-4.4-2.4C7.2,7.4,6.4,8,5.9,8.9
		c-0.4,0.6-0.5,1.3-0.5,2c0,0.7,0.2,1.4,0.5,2.1c0.8,1.6,2.7,2.4,4.5,1.8c0.9-0.3,1.6-0.9,2-1.7C12.8,12.5,13,11.8,13,11.2z"/>
	<path class="st1" d="M16.8,15.8c0-1.5,0-3.1,0-4.6c0-0.9,0.1-1.7,0.4-2.5c0.8-1.9,2.2-3.1,4.2-3.5c1.4-0.3,2.8-0.2,4.1,0.5
		c1.9,1,2.8,2.5,3.1,4.5c0.1,0.8,0.1,1.7-0.2,2.5c-0.3,1.1-0.8,2-1.6,2.8c-0.9,0.8-1.9,1.3-3,1.4c-1.7,0.2-3.2-0.4-4.4-1.5
		c-0.1-0.1-0.2-0.2-0.3-0.2c0,0-0.1,0-0.1,0.1c0,0.2,0,0.3,0,0.4c0,1.6,0,3.1,0,4.7c0,0.2,0,0.4,0,0.6c0,0.3-0.2,0.5-0.4,0.7
		c-0.4,0.3-0.8,0.3-1.2,0.1c-0.3-0.2-0.4-0.4-0.5-0.7c0-0.2,0-0.4,0-0.6C16.8,19,16.8,17.4,16.8,15.8z M19,11.1
		c0,0.8,0.2,1.5,0.5,2.1c0.9,1.6,2.8,2.3,4.6,1.6c1.1-0.4,1.8-1.2,2.2-2.1c0.3-0.6,0.3-1.2,0.3-1.9c0-0.7-0.2-1.3-0.5-1.9
		c-0.9-1.5-2.4-2.2-4.3-1.8c-1,0.2-1.7,0.8-2.2,1.6C19.2,9.4,18.9,10.2,19,11.1z"/>
</g>
</svg>
