<?xml version="1.0" encoding="utf-8"?>
<!-- Generator: Adobe Illustrator 24.0.2, SVG Export Plug-In . SVG Version: 6.00 Build 0)  -->
<svg version="1.1" xmlns="http://www.w3.org/2000/svg" xmlns:xlink="http://www.w3.org/1999/xlink" x="0px" y="0px"
	 viewBox="0 0 48 48" style="enable-background:new 0 0 48 48;" xml:space="preserve">
<style type="text/css">
	.st0{display:none;}
	.st1{display:inline;}
	.st2{fill:#C89211;}
</style>
<g id="Capa_1" class="st0">
	<g class="st1">
		<g>
			<g>
				<path class="st2" d="M14.8,39.3l0-21.6c0-0.4,0.3-0.6,0.6-0.6h3c0.4,0,0.6,0.3,0.6,0.6l0,21.6c0,0.4-0.3,0.6-0.6,0.6h-3
					C15.1,40,14.8,39.7,14.8,39.3z"/>
				<path class="st2" d="M29,39.3l0-21.6c0-0.4,0.3-0.6,0.6-0.6h3c0.4,0,0.6,0.3,0.6,0.6v21.6c0,0.4-0.3,0.6-0.6,0.6h-3
					C29.2,40,29,39.7,29,39.3z"/>
			</g>
			<path class="st2" d="M21.9,43.4l0-25.6c0-0.4,0.3-0.6,0.6-0.6h3c0.4,0,0.6,0.3,0.6,0.6l0,25.6c0,0.4-0.3,0.6-0.6,0.6h-3
				C22.2,44,21.9,43.7,21.9,43.4z"/>
		</g>
		<path class="st2" d="M41.1,7.9l-34.2,0c-0.4,0-0.6-0.3-0.6-0.6V4.6C6.2,4.3,6.5,4,6.9,4l34.2,0c0.4,0,0.6,0.3,0.6,0.6v2.6
			C41.8,7.6,41.5,7.9,41.1,7.9z"/>
		<path class="st2" d="M36.8,14.4l-25.5,0c-0.4,0-0.6-0.3-0.6-0.6v-2.6c0-0.4,0.3-0.6,0.6-0.6l25.5,0c0.4,0,0.6,0.3,0.6,0.6v2.6
			C37.4,14.1,37.1,14.4,36.8,14.4z"/>
	</g>
</g>
<g id="Capa_2">
	<g>
		<path class="st2" d="M38.5,16H25.9l1.9,21l-3,3.5V14.8h1.9h4v-1.7h-4V4h-5.4v9.1h-4v1.7h4h1.9v25.7l-3-3.5l1.9-21H9.5l-5.1,8.1v0
			v0.1v4.3h10.6v-4.3v-0.1v0l-4-6.4h9.2l-1.8,19.9l5,5.8L24,44l0.6-0.6l5-5.8l-1.8-19.9h9.2l-4,6.4v0v0.1v4.3h10.6v-4.3v-0.1v0
			L38.5,16z M23,5.7h2v7.4h-2V5.7z M13.4,26.8H6.1v-1h7.3V26.8z M13.1,24.1H6.4l3.3-5.3L13.1,24.1z M38.2,18.8l3.3,5.3h-6.7
			L38.2,18.8z M41.9,26.8h-7.3v-1h7.3V26.8z"/>
	</g>
</g>
</svg>
