<?xml version="1.0" encoding="utf-8"?>
<!-- Generator: Adobe Illustrator 24.0.2, SVG Export Plug-In . SVG Version: 6.00 Build 0)  -->
<svg version="1.1" xmlns="http://www.w3.org/2000/svg" xmlns:xlink="http://www.w3.org/1999/xlink" x="0px" y="0px"
	 viewBox="0 0 1469 457" style="enable-background:new 0 0 1469 457;" xml:space="preserve">
<style type="text/css">
	.st0{fill:#202945;}
	.st1{fill:#FD495C;}
	.st2{fill:#FFFFFF;}
</style>
<g id="Capa_2">
</g>
<g id="Capa_1">
	<g>
		<g>
			<path class="st1" d="M80.4,359.8c27.8-26.3,71.7-25.8,98.9,1.4c0.1,0.1,0.3,0.3,0.4,0.4c0,0,0,0,0,0l8.9,8.9l0,0
				c32.3,31,83.5,30.7,115.3-1l0,0l100.7-100.7c16.8-16.8,16.8-44.1,0-60.9c-0.2-0.2-0.3-0.3-0.5-0.5l-30.4,30.4L288.7,323l0,0
				c-23.6,23.5-61.8,23.6-85.5,0.2l-0.5,0.6l0.1-0.3l0.3-0.3c-0.1-0.1-0.1-0.1-0.2-0.2c-23.6-23.6-23.6-61.9-0.2-85.6l0,0l43-43l0,0
				c8.4-8.5,8.3-22.3-0.2-30.8s-22.2-8.5-30.8-0.2l0,0L103.9,274.3l-27.2,27.2l-25,25c3.5,8.3,8.6,16.1,15.3,22.8
				C71.1,353.4,75.6,356.9,80.4,359.8z"/>
			<path class="st1" d="M395.6,99.3c-27.8,26.3-71.7,25.8-98.9-1.4c-0.1-0.1-0.3-0.3-0.4-0.4c0,0,0,0,0,0l-8.9-8.9l0,0
				c-32.3-31-83.5-30.7-115.3,1l0,0L71.3,190.3c-16.8,16.8-16.8,44.1,0,60.9c0.2,0.2,0.3,0.3,0.5,0.5l30.4-30.4l85.1-85.1l0,0
				c23.6-23.5,61.8-23.6,85.5-0.2l0.5-0.6l-0.1,0.3l-0.3,0.3c0.1,0.1,0.1,0.1,0.2,0.2c23.6,23.6,23.6,61.9,0.2,85.6l0,0l-43,43l0,0
				c-8.4,8.5-8.3,22.3,0.2,30.8c8.5,8.5,22.2,8.5,30.8,0.2l0,0L372,184.8l27.2-27.2l25-25c-3.5-8.3-8.6-16.1-15.3-22.8
				C404.8,105.7,400.3,102.2,395.6,99.3z"/>
		</g>
		<g>
			<g>
				<g>
					<path class="st0" d="M548.3,379c-2.2,0-4.2-0.3-6.1-0.8c-1.9-0.6-3.7-1.4-5.3-2.4c-1.6-1-3-2.3-4.2-3.8l4.7-4.7
						c1.4,1.7,3,3,4.9,3.8c1.8,0.8,3.9,1.2,6.1,1.2c2.3,0,4-0.4,5.3-1.2c1.2-0.8,1.9-1.9,1.9-3.3c0-1.4-0.5-2.5-1.5-3.3
						c-1-0.8-2.3-1.4-3.8-1.9c-1.6-0.5-3.2-1-5-1.5c-1.8-0.5-3.4-1.2-5-2c-1.6-0.8-2.8-1.9-3.8-3.3c-1-1.4-1.5-3.3-1.5-5.6
						c0-2.3,0.6-4.3,1.7-6c1.1-1.7,2.7-3,4.7-3.9c2-0.9,4.5-1.4,7.3-1.4c3,0,5.7,0.5,8.1,1.6c2.3,1,4.3,2.6,5.8,4.7l-4.7,4.7
						c-1.1-1.4-2.4-2.5-4-3.2c-1.6-0.8-3.4-1.1-5.4-1.1c-2.1,0-3.7,0.4-4.8,1.1c-1.1,0.7-1.7,1.7-1.7,3s0.5,2.3,1.5,3
						c1,0.7,2.3,1.3,3.8,1.8c1.6,0.5,3.2,1,5,1.5c1.7,0.5,3.4,1.2,4.9,2.1c1.6,0.9,2.8,2,3.8,3.5c1,1.5,1.5,3.4,1.5,5.7
						c0,3.6-1.3,6.5-3.8,8.6C556,377.9,552.6,379,548.3,379z"/>
					<path class="st0" d="M592.2,378.9c-3.8,0-7.2-0.9-10.2-2.7c-3-1.8-5.4-4.2-7.2-7.2c-1.8-3-2.7-6.5-2.7-10.2
						c0-3.7,0.9-7.1,2.7-10.1c1.8-3,4.2-5.4,7.2-7.2c3-1.8,6.4-2.7,10.2-2.7c3.7,0,7.1,0.9,10.2,2.6c3,1.7,5.5,4.1,7.2,7.2
						c1.8,3,2.7,6.4,2.7,10.1c0,3.8-0.9,7.2-2.7,10.2c-1.8,3-4.2,5.5-7.2,7.2C599.3,378,595.9,378.9,592.2,378.9z M592.2,371.9
						c2.4,0,4.6-0.6,6.5-1.7c1.9-1.1,3.4-2.7,4.4-4.7c1.1-2,1.6-4.2,1.6-6.8c0-2.5-0.6-4.7-1.7-6.6c-1.1-1.9-2.6-3.5-4.5-4.6
						c-1.9-1.1-4-1.7-6.4-1.7c-2.4,0-4.6,0.6-6.5,1.7c-1.9,1.1-3.4,2.6-4.4,4.6c-1.1,1.9-1.6,4.2-1.6,6.6c0,2.5,0.5,4.8,1.6,6.8
						c1.1,2,2.6,3.5,4.5,4.6C587.6,371.3,589.8,371.9,592.2,371.9z"/>
					<path class="st0" d="M624.5,378.1l-0.1-57.8l7.3,0l0.1,57.8L624.5,378.1z"/>
					<path class="st0" d="M662,378.9c-3.2,0-6-0.7-8.5-2.1c-2.5-1.4-4.5-3.4-5.9-5.9c-1.4-2.5-2.1-5.5-2.1-8.8l0-22.3l7.3,0l0,22
						c0,2.1,0.4,3.9,1.1,5.5c0.7,1.5,1.8,2.7,3.2,3.5c1.4,0.8,3,1.2,4.9,1.2c2.9,0,5.1-0.9,6.7-2.7c1.6-1.8,2.4-4.3,2.4-7.5l0-22
						l7.3,0l0,22.3c0,3.3-0.7,6.3-2.1,8.8c-1.4,2.5-3.3,4.5-5.8,6C668.1,378.1,665.3,378.9,662,378.9z"/>
					<path class="st0" d="M709.8,378.8c-3.8,0-7.2-0.9-10.2-2.7c-3-1.8-5.5-4.2-7.2-7.2c-1.8-3-2.6-6.4-2.6-10.2
						c0-3.8,0.9-7.2,2.6-10.2c1.7-3,4.1-5.4,7.2-7.2c3-1.8,6.5-2.6,10.2-2.6c3,0,5.7,0.5,8.3,1.6c2.5,1.1,4.7,2.7,6.6,4.8l-4.8,4.9
						c-1.2-1.4-2.6-2.5-4.3-3.2c-1.7-0.7-3.6-1.1-5.6-1.1c-2.4,0-4.6,0.6-6.5,1.7c-1.9,1.1-3.4,2.6-4.4,4.6
						c-1.1,1.9-1.6,4.2-1.6,6.7c0,2.5,0.5,4.8,1.6,6.7c1.1,1.9,2.6,3.5,4.5,4.6c1.9,1.1,4,1.7,6.5,1.7c2,0,3.9-0.4,5.6-1.1
						c1.7-0.7,3.2-1.8,4.4-3.2l4.8,4.8c-1.8,2.1-3.9,3.6-6.5,4.8C715.6,378.2,712.8,378.8,709.8,378.8z"/>
					<path class="st0" d="M739.6,331.8c-1.3,0-2.5-0.4-3.3-1.3c-0.9-0.9-1.3-2-1.3-3.4c0-1.3,0.4-2.4,1.3-3.3c0.9-0.9,2-1.3,3.3-1.3
						c1.3,0,2.5,0.4,3.3,1.3c0.9,0.9,1.3,2,1.3,3.3c0,1.3-0.4,2.5-1.3,3.4C742,331.4,740.9,331.8,739.6,331.8z M736,378l0-38.4
						l7.3,0l0,38.4L736,378z"/>
					<path class="st0" d="M775.6,378.7c-3.8,0-7.2-0.9-10.2-2.7c-3-1.8-5.4-4.2-7.2-7.2c-1.8-3-2.7-6.5-2.7-10.2
						c0-3.7,0.9-7.1,2.7-10.1c1.8-3,4.2-5.4,7.2-7.2c3-1.8,6.4-2.7,10.2-2.7c3.7,0,7.1,0.9,10.2,2.6c3,1.7,5.5,4.1,7.2,7.2
						c1.8,3,2.7,6.4,2.7,10.1c0,3.8-0.9,7.2-2.7,10.2c-1.8,3-4.2,5.5-7.2,7.2C782.7,377.8,779.3,378.7,775.6,378.7z M775.6,371.7
						c2.4,0,4.6-0.6,6.5-1.7c1.9-1.1,3.4-2.7,4.4-4.7c1.1-2,1.6-4.2,1.6-6.8c0-2.5-0.6-4.7-1.7-6.6c-1.1-1.9-2.6-3.5-4.5-4.6
						c-1.9-1.1-4-1.7-6.4-1.7c-2.4,0-4.6,0.6-6.5,1.7c-1.9,1.1-3.4,2.6-4.4,4.6c-1.1,1.9-1.6,4.2-1.6,6.6c0,2.5,0.5,4.8,1.6,6.8
						c1.1,2,2.6,3.5,4.5,4.6C771,371.1,773.2,371.7,775.6,371.7z"/>
					<path class="st0" d="M807.9,377.9l0-38.4l7.3,0l0,38.4L807.9,377.9z M835.1,377.9l0-22.4c0-2.9-0.9-5.3-2.8-7.2
						c-1.8-1.9-4.2-2.8-7.1-2.8c-1.9,0-3.7,0.4-5.2,1.3c-1.5,0.9-2.7,2.1-3.6,3.6c-0.9,1.5-1.3,3.2-1.3,5.2l-3-1.7
						c0-2.9,0.6-5.5,1.9-7.8c1.3-2.3,3.1-4.1,5.4-5.4c2.3-1.3,4.9-2,7.8-2c2.9,0,5.5,0.7,7.7,2.2c2.2,1.5,4,3.4,5.3,5.7
						c1.3,2.3,1.9,4.8,2,7.5l0,23.9L835.1,377.9z"/>
					<path class="st0" d="M874.1,378.6c-3.8,0-7.3-0.9-10.4-2.6c-3.1-1.7-5.5-4.1-7.3-7.2c-1.8-3-2.7-6.4-2.7-10.3
						c0-3.8,0.9-7.2,2.6-10.2c1.7-3,4.1-5.4,7.1-7.2c3-1.8,6.3-2.6,10.1-2.6c3.6,0,6.7,0.8,9.4,2.4c2.7,1.6,4.9,3.9,6.4,6.7
						c1.5,2.9,2.3,6.1,2.3,9.7c0,0.5,0,1.1-0.1,1.7c-0.1,0.6-0.2,1.3-0.3,2.1l-32.4,0l0-6.1l28.6,0l-2.7,2.3c0-2.6-0.5-4.8-1.4-6.6
						c-0.9-1.8-2.2-3.2-3.9-4.2c-1.7-1-3.7-1.5-6.1-1.5c-2.5,0-4.7,0.5-6.6,1.6c-1.9,1.1-3.3,2.6-4.4,4.5c-1,1.9-1.5,4.2-1.5,6.9
						c0,2.7,0.5,5.1,1.6,7.1c1.1,2,2.6,3.6,4.6,4.7c2,1.1,4.3,1.7,6.9,1.7c2.2,0,4.1-0.4,5.9-1.1c1.8-0.8,3.4-1.9,4.6-3.4l4.7,4.8
						c-1.8,2.2-4.1,3.8-6.7,4.9C879.9,378,877.1,378.6,874.1,378.6z"/>
					<path class="st0" d="M915.9,378.6c-2.2,0-4.2-0.3-6.1-0.8c-1.9-0.6-3.7-1.4-5.3-2.4c-1.6-1-3-2.3-4.2-3.8l4.7-4.7
						c1.4,1.7,3,3,4.9,3.8c1.8,0.8,3.9,1.2,6.1,1.2c2.3,0,4-0.4,5.3-1.2c1.2-0.8,1.9-1.9,1.9-3.3c0-1.4-0.5-2.5-1.5-3.3
						c-1-0.8-2.3-1.4-3.8-1.9c-1.6-0.5-3.2-1-5-1.5c-1.8-0.5-3.4-1.2-5-2c-1.6-0.8-2.8-1.9-3.8-3.3c-1-1.4-1.5-3.3-1.5-5.6
						c0-2.3,0.6-4.3,1.7-6c1.1-1.7,2.7-3,4.7-3.9c2-0.9,4.5-1.4,7.3-1.4c3,0,5.7,0.5,8.1,1.6c2.3,1,4.3,2.6,5.8,4.7l-4.7,4.7
						c-1.1-1.4-2.4-2.5-4-3.2c-1.6-0.8-3.4-1.1-5.4-1.1c-2.1,0-3.7,0.4-4.8,1.1c-1.1,0.7-1.7,1.7-1.7,3s0.5,2.3,1.5,3
						c1,0.7,2.3,1.3,3.8,1.8c1.6,0.5,3.2,1,5,1.5c1.7,0.5,3.4,1.2,4.9,2.1c1.6,0.9,2.8,2,3.8,3.5c1,1.5,1.5,3.4,1.5,5.7
						c0,3.6-1.3,6.5-3.8,8.6C923.6,377.5,920.2,378.6,915.9,378.6z"/>
					<path class="st0" d="M979.4,378.5c-3.6,0-6.7-0.9-9.5-2.6c-2.8-1.7-5-4.1-6.7-7.2c-1.6-3-2.5-6.4-2.5-10.2
						c0-3.8,0.8-7.2,2.5-10.2c1.6-3,3.9-5.4,6.7-7.2c2.8-1.8,6-2.7,9.5-2.7c2.9,0,5.4,0.6,7.8,1.8c2.3,1.2,4.2,2.9,5.6,5
						c1.4,2.1,2.2,4.6,2.4,7.4l0,11.6c-0.2,2.8-0.9,5.2-2.3,7.4c-1.4,2.2-3.3,3.8-5.6,5.1C984.9,377.9,982.3,378.5,979.4,378.5z
						 M980.6,371.6c2.4,0,4.5-0.6,6.3-1.7c1.8-1.1,3.2-2.7,4.2-4.7c1-2,1.5-4.2,1.5-6.8c0-2.6-0.5-4.9-1.6-6.9
						c-1.1-1.9-2.5-3.5-4.3-4.6c-1.8-1.1-3.9-1.7-6.4-1.7c-2.4,0-4.6,0.6-6.4,1.7c-1.8,1.1-3.3,2.7-4.3,4.7c-1,2-1.6,4.2-1.6,6.8
						c0,2.6,0.5,4.9,1.6,6.8c1.1,2,2.5,3.5,4.4,4.6S978.2,371.6,980.6,371.6z M999.6,377.7l-7.4,0l0-10.4l1.4-9.4l-1.4-9.3l0-28.7
						l7.4,0L999.6,377.7z"/>
					<path class="st0" d="M1032.1,378.4c-3.8,0-7.3-0.9-10.4-2.6c-3.1-1.7-5.5-4.1-7.3-7.2c-1.8-3-2.7-6.4-2.7-10.3
						c0-3.8,0.9-7.2,2.6-10.2c1.7-3,4.1-5.4,7.1-7.2c3-1.8,6.3-2.6,10.1-2.6c3.6,0,6.7,0.8,9.4,2.4c2.7,1.6,4.9,3.9,6.4,6.7
						c1.5,2.9,2.3,6.1,2.3,9.7c0,0.5,0,1.1-0.1,1.7c-0.1,0.6-0.2,1.3-0.3,2.1l-32.4,0l0-6.1l28.6,0l-2.7,2.3c0-2.6-0.5-4.8-1.4-6.6
						c-0.9-1.8-2.2-3.2-3.9-4.2c-1.7-1-3.7-1.5-6.1-1.5c-2.5,0-4.7,0.5-6.6,1.6c-1.9,1.1-3.3,2.6-4.4,4.5c-1,1.9-1.5,4.2-1.5,6.9
						c0,2.7,0.5,5.1,1.6,7.1c1.1,2,2.6,3.6,4.6,4.7c2,1.1,4.3,1.7,6.9,1.7c2.2,0,4.1-0.4,5.9-1.1c1.8-0.8,3.4-1.9,4.6-3.4l4.7,4.8
						c-1.8,2.2-4.1,3.8-6.7,4.9C1037.9,377.9,1035.1,378.4,1032.1,378.4z"/>
					<path class="st0" d="M1100.3,378.4c-3.8,0-7.3-0.9-10.4-2.6c-3.1-1.7-5.5-4.1-7.3-7.2c-1.8-3-2.7-6.4-2.7-10.3
						c0-3.8,0.9-7.2,2.6-10.2c1.7-3,4.1-5.4,7.1-7.2c3-1.8,6.3-2.6,10.1-2.6c3.6,0,6.7,0.8,9.4,2.4c2.7,1.6,4.9,3.9,6.4,6.7
						c1.5,2.9,2.3,6.1,2.3,9.7c0,0.5,0,1.1-0.1,1.7c-0.1,0.6-0.2,1.3-0.3,2.1l-32.4,0l0-6.1l28.6,0l-2.7,2.3c0-2.6-0.5-4.8-1.4-6.6
						c-0.9-1.8-2.2-3.2-3.9-4.2c-1.7-1-3.7-1.5-6.1-1.5c-2.5,0-4.7,0.5-6.6,1.6c-1.9,1.1-3.3,2.6-4.4,4.5c-1,1.9-1.5,4.2-1.5,6.9
						c0,2.7,0.5,5.1,1.6,7.1c1.1,2,2.6,3.6,4.6,4.7c2,1.1,4.3,1.7,6.9,1.7c2.2,0,4.1-0.4,5.9-1.1c1.8-0.8,3.4-1.9,4.6-3.4l4.7,4.8
						c-1.8,2.2-4.1,3.8-6.7,4.9C1106.2,377.8,1103.4,378.4,1100.3,378.4z"/>
					<path class="st0" d="M1124.8,377.5l15.8-21.4l4.1,5.3l-11.4,16L1124.8,377.5z M1154,377.5l-12-16.8l-1.4-1.3l-15.2-20.3l8.8,0
						l10.9,15l1.4,1.1l16.2,22.3L1154,377.5z M1147.2,359.3l-4.2-5.2l10.6-15.1l8.5,0L1147.2,359.3z"/>
					<path class="st0" d="M1173.6,393.6l-0.1-54.5l7.3,0l0,10.1l-1.4,9.3l1.4,9.4l0,25.7L1173.6,393.6z M1193.8,378.3
						c-2.9,0-5.5-0.6-7.9-1.8c-2.3-1.2-4.2-2.9-5.6-5c-1.4-2.2-2.2-4.6-2.4-7.4l0-11.6c0.2-2.8,1-5.3,2.4-7.4c1.4-2.1,3.3-3.8,5.7-5
						c2.3-1.2,4.9-1.8,7.8-1.8c3.5,0,6.7,0.9,9.5,2.7c2.8,1.8,5.1,4.2,6.7,7.2c1.6,3,2.4,6.4,2.4,10.2c0,3.8-0.8,7.2-2.4,10.2
						c-1.6,3-3.8,5.4-6.7,7.2C1200.5,377.4,1197.3,378.3,1193.8,378.3z M1192.6,371.4c2.4,0,4.6-0.6,6.4-1.7
						c1.8-1.1,3.3-2.7,4.4-4.7c1.1-2,1.6-4.2,1.6-6.8c0-2.5-0.5-4.8-1.6-6.8c-1.1-2-2.5-3.5-4.4-4.6c-1.8-1.1-3.9-1.7-6.3-1.7
						c-2.4,0-4.6,0.6-6.4,1.7c-1.8,1.1-3.3,2.7-4.3,4.7c-1,2-1.5,4.3-1.5,6.9c0,2.5,0.5,4.8,1.5,6.8c1,2,2.4,3.5,4.3,4.6
						C1188.1,370.8,1190.2,371.4,1192.6,371.4z"/>
					<path class="st0" d="M1242.5,378.2c-3.8,0-7.3-0.9-10.4-2.6c-3.1-1.7-5.5-4.1-7.3-7.2c-1.8-3-2.7-6.4-2.7-10.3
						c0-3.8,0.9-7.2,2.6-10.2c1.7-3,4.1-5.4,7.1-7.2c3-1.8,6.3-2.6,10.1-2.6c3.6,0,6.7,0.8,9.4,2.4c2.7,1.6,4.9,3.9,6.4,6.7
						c1.5,2.9,2.3,6.1,2.3,9.7c0,0.5,0,1.1-0.1,1.7c-0.1,0.6-0.2,1.3-0.3,2.1l-32.4,0l0-6.1l28.6,0l-2.7,2.3c0-2.6-0.5-4.8-1.4-6.6
						c-0.9-1.8-2.2-3.2-3.9-4.2c-1.7-1-3.7-1.5-6.1-1.5c-2.5,0-4.7,0.5-6.6,1.6c-1.9,1.1-3.3,2.6-4.4,4.5c-1,1.9-1.5,4.2-1.5,6.9
						c0,2.7,0.5,5.1,1.6,7.1c1.1,2,2.6,3.6,4.6,4.7c2,1.1,4.3,1.7,6.9,1.7c2.2,0,4.1-0.4,5.9-1.1c1.8-0.8,3.4-1.9,4.6-3.4l4.7,4.8
						c-1.8,2.2-4.1,3.8-6.7,4.9C1248.3,377.6,1245.5,378.2,1242.5,378.2z"/>
					<path class="st0" d="M1272.1,377.4l0-38.4l7.3,0l0,38.4L1272.1,377.4z M1279.3,355.4l-2.8-1.2c0-4.9,1.1-8.8,3.4-11.7
						s5.5-4.4,9.8-4.4c1.9,0,3.7,0.3,5.3,1c1.6,0.7,3,1.8,4.4,3.4l-4.8,4.9c-0.8-0.9-1.7-1.5-2.7-1.9c-1-0.4-2.1-0.6-3.4-0.6
						c-2.7,0-4.9,0.9-6.6,2.6C1280.2,349.3,1279.3,351.9,1279.3,355.4z"/>
					<path class="st0" d="M1304.9,345.5l0-6.6l26.2,0l0,6.6L1304.9,345.5z M1314.4,377.3l-0.1-54.5l7.3,0l0.1,54.5L1314.4,377.3z"/>
					<path class="st0" d="M1358.7,378.1c-3.8,0-7.2-0.9-10.2-2.7c-3-1.8-5.4-4.2-7.2-7.2c-1.8-3-2.7-6.5-2.7-10.2
						c0-3.7,0.9-7.1,2.7-10.1c1.8-3,4.2-5.4,7.2-7.2c3-1.8,6.4-2.7,10.2-2.7c3.7,0,7.1,0.9,10.2,2.6c3,1.7,5.5,4.1,7.2,7.2
						c1.8,3,2.7,6.4,2.7,10.1c0,3.8-0.9,7.2-2.7,10.2c-1.8,3-4.2,5.5-7.2,7.2C1365.8,377.2,1362.4,378.1,1358.7,378.1z M1358.6,371
						c2.4,0,4.6-0.6,6.5-1.7c1.9-1.1,3.4-2.7,4.4-4.7c1.1-2,1.6-4.2,1.6-6.8c0-2.5-0.6-4.7-1.7-6.6c-1.1-1.9-2.6-3.5-4.5-4.6
						c-1.9-1.1-4-1.7-6.4-1.7c-2.4,0-4.6,0.6-6.5,1.7c-1.9,1.1-3.4,2.6-4.4,4.6c-1.1,1.9-1.6,4.2-1.6,6.6c0,2.5,0.5,4.8,1.6,6.8
						c1.1,2,2.6,3.5,4.5,4.6C1354.1,370.5,1356.2,371,1358.6,371z"/>
					<path class="st0" d="M1403.1,378c-2.2,0-4.2-0.3-6.1-0.8c-1.9-0.6-3.7-1.4-5.3-2.4c-1.6-1-3-2.3-4.2-3.8l4.7-4.7
						c1.4,1.7,3,3,4.9,3.8c1.8,0.8,3.9,1.2,6.1,1.2s4-0.4,5.3-1.2c1.2-0.8,1.9-1.9,1.9-3.3c0-1.4-0.5-2.5-1.5-3.3
						c-1-0.8-2.3-1.4-3.8-1.9c-1.6-0.5-3.2-1-5-1.5c-1.8-0.5-3.4-1.2-5-2c-1.6-0.8-2.8-1.9-3.8-3.3c-1-1.4-1.5-3.3-1.5-5.6
						c0-2.3,0.6-4.3,1.7-6c1.1-1.7,2.7-3,4.7-3.9c2-0.9,4.5-1.4,7.3-1.4c3,0,5.7,0.5,8.1,1.6c2.3,1,4.3,2.6,5.8,4.7l-4.7,4.7
						c-1.1-1.4-2.4-2.5-4-3.2c-1.6-0.8-3.4-1.1-5.4-1.1c-2.1,0-3.7,0.4-4.8,1.1c-1.1,0.7-1.7,1.7-1.7,3c0,1.3,0.5,2.3,1.5,3
						c1,0.7,2.3,1.3,3.8,1.8c1.6,0.5,3.3,1,5,1.5c1.7,0.5,3.4,1.2,4.9,2.1c1.6,0.9,2.8,2,3.8,3.5c1,1.5,1.5,3.4,1.5,5.7
						c0,3.6-1.3,6.5-3.8,8.6C1410.9,377,1407.5,378,1403.1,378z"/>
				</g>
			</g>
			<g>
				
					<rect x="867.2" y="134.4" transform="matrix(1 -1.133107e-03 1.133107e-03 1 -0.2359 1.0015)" class="st0" width="33" height="148.5"/>
				<path class="st0" d="M805.8,141.7c-10.6-6.3-22.7-9.5-36.4-9.5c-14.1,0-27,3.4-38.5,10.2c-11.6,6.8-20.7,15.9-27.5,27.5
					c-6.7,11.6-10.1,24.6-10.1,39.2c0,14.5,3.5,27.6,10.3,39.3c6.9,11.7,16.2,20.8,28,27.5c11.8,6.6,25,10,39.8,9.9
					c11.5,0,22.3-2.2,32.6-6.5c10.2-4.3,18.9-10.7,26.1-19.1l-21.5-21.8c-4.5,5.1-10,9-16.4,11.7c-6.4,2.7-13.5,4-21,4
					c-8.8,0-16.6-1.9-23.3-5.7c-6.8-3.8-12-9.1-15.7-16.1c-1.8-3.3-3.1-6.9-4-10.7l110-0.1c0.6-3.1,1.1-5.9,1.4-8.4
					c0.3-2.6,0.5-5.1,0.5-7.5c0-14.1-3.1-26.7-9.1-37.8C824.6,156.7,816.3,148,805.8,141.7z M728.1,194c0.9-3.5,2-6.7,3.6-9.7
					c3.5-6.7,8.4-11.8,14.7-15.5c6.3-3.7,13.8-5.5,22.4-5.6c8.2,0,15.1,1.6,20.7,4.9c5.6,3.3,10,8,13.1,14.1c1.7,3.4,3,7.3,3.9,11.7
					L728.1,194z"/>
				
					<ellipse transform="matrix(0.5401 -0.8416 0.8416 0.5401 331.8303 783.694)" class="st1" cx="883" cy="88.2" rx="22.7" ry="22.7"/>
				<polygon class="st0" points="677.6,135.4 538,135.5 538.1,166.2 626.1,166.1 532.7,259.3 532.7,282.6 675.9,282.4 675.9,251.8 
					583.2,251.9 677.6,156.7 				"/>
				<polygon class="st0" points="992.1,282 1028.5,282 1028.5,281.8 1095.7,134.4 1059.4,134.4 1010.3,242 961.2,134.4 924.9,134.4 
					992.2,281.8 				"/>
				<path class="st0" d="M1176.1,131.6c-44.5,0-80.5,34.4-80.5,76.8c0,42.4,36,76.8,80.5,76.8s80.5-34.4,80.5-76.8
					C1256.6,166,1220.6,131.6,1176.1,131.6z M1176.1,252.3c-24.3,0-44-19.9-44-44.5s19.7-44.5,44-44.5s44,19.9,44,44.5
					S1200.4,252.3,1176.1,252.3z"/>
				<path class="st0" d="M1369.6,220.1c5.1-0.9,9.7-2.4,13.9-4.4c7.6-3.7,13.5-8.7,17.7-15.3c4.2-6.5,6.3-14.1,6.3-22.8
					c0-8.6-2.1-16.1-6.3-22.7c-4.2-6.6-10-11.7-17.5-15.4c-7.4-3.7-16.1-5.6-25.9-5.5l-45.2,0v0l-6.2,0l-25.2,0l0.2,148.5l33,0
					l-0.1-61.2l0.3,0v0l19.2,0l44.4,61.2l39.1,0L1369.6,220.1z M1353.9,196.8l-39.6,0l0-37.2l0.4,0v0l39.4,0
					c6.6,0,11.6,1.7,15.2,5.2c3.5,3.5,5.3,7.9,5.3,13.2c0,5.8-1.8,10.3-5.3,13.7C1365.5,195.1,1360.5,196.8,1353.9,196.8z"/>
			</g>
		</g>
	</g>
</g>
</svg>
