<?xml version="1.0" encoding="utf-8"?>
<!-- Generator: Adobe Illustrator 24.0.2, SVG Export Plug-In . SVG Version: 6.00 Build 0)  -->
<svg version="1.1" xmlns="http://www.w3.org/2000/svg" xmlns:xlink="http://www.w3.org/1999/xlink" x="0px" y="0px"
	 viewBox="0 0 300 74" style="enable-background:new 0 0 300 74;" xml:space="preserve">
<style type="text/css">
	.st0{display:none;}
	.st1{display:inline;}
	.st2{fill:#C89211;}
	.st3{fill:#101820;}
	.st4{fill:#FFFFFF;}
</style>
<g id="Capa_1" class="st0">
	<g class="st1">
		<g>
			<g>
				<g>
					<g>
						<path class="st2" d="M15.9,65.4l0-40c0-0.6,0.5-1.2,1.2-1.2h5.5c0.6,0,1.2,0.5,1.2,1.2l0,40c0,0.6-0.5,1.2-1.2,1.2h-5.5
							C16.4,66.5,15.9,66,15.9,65.4z"/>
						<path class="st2" d="M42,65.4l0-40c0-0.6,0.5-1.2,1.2-1.2h5.5c0.6,0,1.2,0.5,1.2,1.2l0,40c0,0.6-0.5,1.2-1.2,1.2h-5.5
							C42.6,66.5,42,66,42,65.4z"/>
					</g>
					<path class="st2" d="M29,72.8l0-47.4c0-0.6,0.5-1.2,1.2-1.2h5.5c0.6,0,1.2,0.5,1.2,1.2l0,47.4c0,0.6-0.5,1.2-1.2,1.2h-5.5
						C29.5,74,29,73.5,29,72.8z"/>
				</g>
				<path class="st2" d="M64.6,7.2l-63.4,0C0.5,7.2,0,6.7,0,6.1V1.2C0,0.5,0.5,0,1.2,0l63.4,0c0.6,0,1.2,0.5,1.2,1.2v4.9
					C65.7,6.7,65.2,7.2,64.6,7.2z"/>
				<path class="st2" d="M56.5,19.2l-47.3,0c-0.6,0-1.2-0.5-1.2-1.2v-4.9c0-0.6,0.5-1.2,1.2-1.2l47.3,0c0.6,0,1.2,0.5,1.2,1.2v4.9
					C57.7,18.7,57.1,19.2,56.5,19.2z"/>
			</g>
			<g>
				<g>
					<path class="st4" d="M89.9,13.5l8.7,8.6v25.8h-8.7V13.5z"/>
					<path class="st4" d="M108.3,44.8c-2.5-2.5-3.8-6-3.8-10.5V17.3h8.7V34c0,4.9,1.9,7.3,5.8,7.3c3.8,0,5.8-2.4,5.8-7.3V17.3h8.5
						v16.9c0,4.5-1.3,8.1-3.8,10.5c-2.5,2.5-6.1,3.7-10.6,3.7C114.3,48.5,110.8,47.3,108.3,44.8z"/>
					<path class="st4" d="M142.6,47.6c-2.3-0.6-4.2-1.4-5.7-2.4l2.8-6.4c1.4,0.9,3,1.6,4.8,2.2c1.8,0.6,3.6,0.8,5.3,0.8
						c3.3,0,5-0.8,5-2.5c0-0.9-0.5-1.5-1.4-1.9c-0.9-0.4-2.5-0.9-4.6-1.3c-2.3-0.5-4.2-1-5.8-1.6c-1.5-0.6-2.9-1.5-4-2.7
						c-1.1-1.3-1.7-2.9-1.7-5.1c0-1.9,0.5-3.5,1.5-5c1-1.5,2.5-2.7,4.6-3.6c2-0.9,4.5-1.3,7.4-1.3c2,0,4,0.2,5.9,0.7
						c2,0.5,3.7,1.1,5.2,2l-2.7,6.4c-2.9-1.6-5.7-2.4-8.5-2.4c-1.7,0-3,0.3-3.8,0.8c-0.8,0.5-1.2,1.2-1.2,2c0,0.8,0.5,1.4,1.4,1.8
						c0.9,0.4,2.4,0.8,4.5,1.3c2.3,0.5,4.3,1,5.8,1.6c1.5,0.6,2.9,1.5,4,2.7c1.1,1.2,1.7,2.9,1.7,5c0,1.8-0.5,3.5-1.5,5
						c-1,1.5-2.5,2.7-4.6,3.6c-2,0.9-4.5,1.3-7.4,1.3C147.3,48.5,144.9,48.2,142.6,47.6z"/>
					<path class="st4" d="M176,24v6.7h13.5v6.7H176v10.5h-8.7V17.3h24V24H176z"/>
					<path class="st4" d="M201.8,46.5c-2.6-1.4-4.6-3.3-6.1-5.7c-1.5-2.4-2.2-5.1-2.2-8.2c0-3,0.7-5.8,2.2-8.2
						c1.5-2.4,3.5-4.3,6.1-5.7c2.6-1.4,5.5-2.1,8.7-2.1c3.2,0,6.1,0.7,8.7,2.1c2.6,1.4,4.6,3.3,6.1,5.7c1.5,2.4,2.2,5.1,2.2,8.2
						c0,3-0.7,5.8-2.2,8.2c-1.5,2.4-3.5,4.3-6.1,5.7c-2.6,1.4-5.5,2.1-8.7,2.1C207.3,48.5,204.4,47.8,201.8,46.5z M214.8,40.3
						c1.3-0.7,2.2-1.8,3-3.1c0.7-1.3,1.1-2.8,1.1-4.6c0-1.7-0.4-3.2-1.1-4.6c-0.7-1.3-1.7-2.4-3-3.1c-1.3-0.7-2.7-1.1-4.2-1.1
						c-1.5,0-2.9,0.4-4.2,1.1c-1.3,0.7-2.2,1.8-3,3.1c-0.7,1.3-1.1,2.8-1.1,4.6c0,1.7,0.4,3.2,1.1,4.6c0.7,1.3,1.7,2.4,3,3.1
						c1.3,0.7,2.7,1.1,4.2,1.1C212.1,41.3,213.5,41,214.8,40.3z"/>
					<path class="st4" d="M245.5,39.8h-4.7v8.1h-8.7V17.3h14c2.8,0,5.2,0.5,7.2,1.4c2,0.9,3.6,2.2,4.7,3.9c1.1,1.7,1.7,3.7,1.7,6
						c0,2.2-0.5,4.1-1.6,5.8c-1,1.6-2.5,2.9-4.4,3.9l6.6,9.6H251L245.5,39.8z M249.6,25.3c-0.9-0.8-2.2-1.2-4-1.2h-4.8v9h4.8
						c1.8,0,3.1-0.4,4-1.2c0.9-0.8,1.4-1.9,1.4-3.3C250.9,27.2,250.5,26.1,249.6,25.3z"/>
					<path class="st4" d="M292,47.9L292,31.7l-7.9,13.2h-3.8l-7.8-12.8v15.8h-8V17.3h7.1L282.3,35l10.5-17.6h7.1l0.1,30.6H292z"/>
					<polygon class="st2" points="98.5,17.5 90,8.9 98.5,8.9 					"/>
				</g>
				<g>
					<path class="st4" d="M94.9,57.6c0.6,0.3,1.1,0.8,1.5,1.4c0.3,0.6,0.5,1.3,0.5,2.1c0,0.8-0.2,1.5-0.5,2.1
						c-0.3,0.6-0.8,1.1-1.5,1.4c-0.6,0.3-1.4,0.5-2.2,0.5h-2.8v-7.9h2.8C93.5,57.1,94.3,57.3,94.9,57.6z M94.6,63
						c0.5-0.5,0.7-1.1,0.7-1.9c0-0.8-0.2-1.5-0.7-1.9c-0.5-0.5-1.1-0.7-1.9-0.7h-1.1v5.2h1.1C93.5,63.7,94.1,63.4,94.6,63z"/>
					<path class="st4" d="M103.1,58.4v2h2.7v1.3h-2.7v2.1h3V65h-4.6v-7.9h4.6v1.3H103.1z"/>
					<path class="st4" d="M112.2,64.8c-0.4-0.2-0.8-0.5-1.1-0.8c-0.3-0.4-0.4-0.8-0.4-1.3h1.7c0,0.3,0.1,0.6,0.3,0.8
						c0.2,0.2,0.5,0.3,0.9,0.3c0.4,0,0.7-0.1,0.9-0.3c0.2-0.2,0.3-0.4,0.3-0.7c0-0.2-0.1-0.4-0.2-0.6c-0.1-0.2-0.3-0.3-0.5-0.4
						c-0.2-0.1-0.5-0.2-0.9-0.3c-0.5-0.2-0.9-0.3-1.3-0.4c-0.3-0.1-0.6-0.4-0.8-0.7c-0.2-0.3-0.3-0.7-0.3-1.2c0-0.5,0.1-0.9,0.4-1.2
						c0.2-0.3,0.6-0.6,1-0.8s0.9-0.3,1.5-0.3c0.8,0,1.5,0.2,2,0.6c0.5,0.4,0.8,1,0.8,1.7h-1.7c0-0.3-0.1-0.5-0.3-0.7
						c-0.2-0.2-0.5-0.3-0.9-0.3c-0.3,0-0.6,0.1-0.7,0.2c-0.2,0.2-0.3,0.4-0.3,0.7c0,0.2,0.1,0.4,0.2,0.5c0.1,0.1,0.3,0.3,0.5,0.3
						c0.2,0.1,0.5,0.2,0.9,0.3c0.5,0.2,0.9,0.3,1.3,0.5c0.3,0.2,0.6,0.4,0.8,0.7c0.2,0.3,0.4,0.7,0.4,1.2c0,0.4-0.1,0.8-0.3,1.2
						c-0.2,0.4-0.5,0.7-1,0.9c-0.4,0.2-0.9,0.3-1.5,0.3C113.1,65.1,112.6,65,112.2,64.8z"/>
					<path class="st4" d="M126.7,60.7c-0.2,0.4-0.5,0.7-0.9,0.9c-0.4,0.2-1,0.3-1.6,0.3h-1.3v3h-1.6v-7.9h2.9c0.6,0,1.1,0.1,1.6,0.3
						c0.4,0.2,0.8,0.5,1,0.9c0.2,0.4,0.3,0.8,0.3,1.3C127,60,126.9,60.4,126.7,60.7z M125.1,60.4c0.2-0.2,0.3-0.5,0.3-0.8
						c0-0.8-0.4-1.2-1.3-1.2h-1.3v2.3h1.3C124.5,60.7,124.9,60.6,125.1,60.4z"/>
					<path class="st4" d="M136.4,63.5h-3.2l-0.5,1.5h-1.7l2.9-7.9h1.9l2.9,7.9h-1.7L136.4,63.5z M136,62.2l-1.1-3.3l-1.1,3.3H136z"
						/>
					<path class="st4" d="M143.2,59c0.4-0.6,0.8-1.1,1.4-1.4c0.6-0.3,1.3-0.5,2.1-0.5c0.9,0,1.7,0.2,2.3,0.7
						c0.7,0.5,1.1,1.1,1.4,1.9h-1.8c-0.2-0.4-0.4-0.7-0.8-0.9s-0.7-0.3-1.1-0.3c-0.5,0-0.9,0.1-1.2,0.3c-0.4,0.2-0.6,0.5-0.8,0.9
						c-0.2,0.4-0.3,0.9-0.3,1.4c0,0.5,0.1,1,0.3,1.4c0.2,0.4,0.5,0.7,0.8,0.9c0.4,0.2,0.8,0.3,1.2,0.3c0.4,0,0.8-0.1,1.1-0.3
						c0.3-0.2,0.6-0.5,0.8-0.9h1.8c-0.3,0.8-0.7,1.4-1.4,1.9c-0.7,0.5-1.4,0.7-2.3,0.7c-0.8,0-1.4-0.2-2.1-0.5
						c-0.6-0.3-1.1-0.8-1.4-1.4c-0.4-0.6-0.5-1.3-0.5-2.1C142.7,60.3,142.9,59.6,143.2,59z"/>
					<path class="st4" d="M161.8,57.1V65h-1.6v-3.4h-3.4V65h-1.6v-7.9h1.6v3.3h3.4v-3.3H161.8z"/>
					<path class="st4" d="M168.4,64.6c-0.6-0.3-1.1-0.8-1.5-1.4c-0.4-0.6-0.5-1.3-0.5-2.1c0-0.8,0.2-1.5,0.5-2.1
						c0.4-0.6,0.9-1.1,1.5-1.4c0.6-0.3,1.3-0.5,2-0.5c0.7,0,1.4,0.2,2.1,0.5c0.6,0.3,1.1,0.8,1.5,1.4c0.4,0.6,0.5,1.3,0.5,2.1
						c0,0.8-0.2,1.5-0.5,2.1c-0.4,0.6-0.9,1.1-1.5,1.4c-0.6,0.3-1.3,0.5-2,0.5C169.7,65.1,169,64.9,168.4,64.6z M171.7,63.4
						c0.4-0.2,0.6-0.5,0.9-0.9c0.2-0.4,0.3-0.9,0.3-1.4c0-0.5-0.1-1-0.3-1.4s-0.5-0.7-0.9-0.9c-0.4-0.2-0.8-0.3-1.3-0.3
						c-0.5,0-0.9,0.1-1.3,0.3c-0.4,0.2-0.7,0.5-0.9,0.9c-0.2,0.4-0.3,0.9-0.3,1.4c0,0.5,0.1,1,0.3,1.4c0.2,0.4,0.5,0.7,0.9,0.9
						c0.4,0.2,0.8,0.3,1.3,0.3C170.9,63.7,171.4,63.6,171.7,63.4z"/>
					<path class="st4" d="M190.2,57.6c0.6,0.3,1.1,0.8,1.5,1.4c0.3,0.6,0.5,1.3,0.5,2.1c0,0.8-0.2,1.5-0.5,2.1
						c-0.3,0.6-0.8,1.1-1.5,1.4c-0.6,0.3-1.4,0.5-2.2,0.5h-2.8v-7.9h2.8C188.8,57.1,189.6,57.3,190.2,57.6z M189.9,63
						c0.5-0.5,0.7-1.1,0.7-1.9c0-0.8-0.2-1.5-0.7-1.9c-0.5-0.5-1.1-0.7-1.9-0.7h-1.1v5.2h1.1C188.8,63.7,189.4,63.4,189.9,63z"/>
					<path class="st4" d="M198.4,58.4v2h2.7v1.3h-2.7v2.1h3V65h-4.6v-7.9h4.6v1.3H198.4z"/>
					<path class="st4" d="M217.2,63.5H214l-0.5,1.5h-1.7l2.9-7.9h1.9l2.9,7.9h-1.7L217.2,63.5z M216.8,62.2l-1.1-3.3l-1.1,3.3H216.8
						z"/>
					<path class="st4" d="M229.5,61.6c0.3,0.4,0.4,0.8,0.4,1.2c0,0.4-0.1,0.8-0.3,1.1c-0.2,0.3-0.5,0.6-0.9,0.8
						c-0.4,0.2-0.9,0.3-1.4,0.3h-3.4v-7.9h3.3c0.5,0,1,0.1,1.4,0.3s0.7,0.4,0.9,0.7c0.2,0.3,0.3,0.7,0.3,1.1c0,0.5-0.1,0.8-0.4,1.2
						c-0.2,0.3-0.6,0.5-1,0.7C228.8,61,229.2,61.3,229.5,61.6z M225.5,60.4h1.5c0.4,0,0.7-0.1,0.9-0.3c0.2-0.2,0.3-0.4,0.3-0.7
						s-0.1-0.6-0.3-0.7c-0.2-0.2-0.5-0.3-0.9-0.3h-1.5V60.4z M228,63.5c0.2-0.2,0.3-0.4,0.3-0.8c0-0.3-0.1-0.6-0.3-0.8
						c-0.2-0.2-0.5-0.3-0.9-0.3h-1.6v2.1h1.6C227.5,63.7,227.8,63.6,228,63.5z"/>
					<path class="st4" d="M236.2,64.6c-0.6-0.3-1.1-0.8-1.5-1.4c-0.4-0.6-0.5-1.3-0.5-2.1c0-0.8,0.2-1.5,0.5-2.1
						c0.4-0.6,0.9-1.1,1.5-1.4c0.6-0.3,1.3-0.5,2-0.5c0.7,0,1.4,0.2,2.1,0.5c0.6,0.3,1.1,0.8,1.5,1.4c0.4,0.6,0.5,1.3,0.5,2.1
						c0,0.8-0.2,1.5-0.5,2.1c-0.4,0.6-0.9,1.1-1.5,1.4c-0.6,0.3-1.3,0.5-2,0.5S236.8,64.9,236.2,64.6z M239.5,63.4
						c0.4-0.2,0.6-0.5,0.9-0.9c0.2-0.4,0.3-0.9,0.3-1.4c0-0.5-0.1-1-0.3-1.4c-0.2-0.4-0.5-0.7-0.9-0.9c-0.4-0.2-0.8-0.3-1.3-0.3
						c-0.5,0-0.9,0.1-1.3,0.3c-0.4,0.2-0.7,0.5-0.9,0.9s-0.3,0.9-0.3,1.4c0,0.5,0.1,1,0.3,1.4c0.2,0.4,0.5,0.7,0.9,0.9
						c0.4,0.2,0.8,0.3,1.3,0.3C238.7,63.7,239.2,63.6,239.5,63.4z"/>
					<path class="st4" d="M252.4,59.5c-0.2-0.3-0.4-0.6-0.7-0.8c-0.3-0.2-0.7-0.3-1.1-0.3c-0.5,0-0.9,0.1-1.2,0.3
						c-0.4,0.2-0.6,0.5-0.9,0.9c-0.2,0.4-0.3,0.8-0.3,1.4c0,0.5,0.1,1,0.3,1.4c0.2,0.4,0.5,0.7,0.9,0.9c0.4,0.2,0.8,0.3,1.3,0.3
						c0.6,0,1.1-0.2,1.5-0.5c0.4-0.3,0.6-0.8,0.8-1.3h-2.7v-1.2h4.3V62c-0.1,0.6-0.3,1.1-0.7,1.5c-0.3,0.5-0.8,0.8-1.3,1.1
						s-1.2,0.4-1.8,0.4c-0.8,0-1.5-0.2-2.1-0.5c-0.6-0.3-1.1-0.8-1.5-1.4c-0.4-0.6-0.5-1.3-0.5-2.1c0-0.8,0.2-1.5,0.5-2.1
						c0.4-0.6,0.8-1.1,1.5-1.4c0.6-0.3,1.3-0.5,2.1-0.5c0.9,0,1.7,0.2,2.3,0.7c0.7,0.4,1.1,1,1.4,1.8H252.4z"/>
					<path class="st4" d="M263.9,63.5h-3.2l-0.5,1.5h-1.7l2.9-7.9h1.9l2.9,7.9h-1.7L263.9,63.5z M263.5,62.2l-1.1-3.3l-1.1,3.3
						H263.5z"/>
					<path class="st4" d="M275.6,57.6c0.6,0.3,1.1,0.8,1.5,1.4c0.3,0.6,0.5,1.3,0.5,2.1c0,0.8-0.2,1.5-0.5,2.1
						c-0.3,0.6-0.8,1.1-1.5,1.4c-0.6,0.3-1.4,0.5-2.2,0.5h-2.8v-7.9h2.8C274.2,57.1,274.9,57.3,275.6,57.6z M275.2,63
						c0.5-0.5,0.7-1.1,0.7-1.9c0-0.8-0.2-1.5-0.7-1.9c-0.5-0.5-1.1-0.7-1.9-0.7h-1.1v5.2h1.1C274.1,63.7,274.8,63.4,275.2,63z"/>
					<path class="st4" d="M283.8,64.6c-0.6-0.3-1.1-0.8-1.5-1.4c-0.4-0.6-0.5-1.3-0.5-2.1c0-0.8,0.2-1.5,0.5-2.1
						c0.4-0.6,0.9-1.1,1.5-1.4c0.6-0.3,1.3-0.5,2-0.5c0.7,0,1.4,0.2,2.1,0.5c0.6,0.3,1.1,0.8,1.5,1.4c0.4,0.6,0.5,1.3,0.5,2.1
						c0,0.8-0.2,1.5-0.5,2.1c-0.4,0.6-0.9,1.1-1.5,1.4c-0.6,0.3-1.3,0.5-2,0.5S284.4,64.9,283.8,64.6z M287.1,63.4
						c0.4-0.2,0.6-0.5,0.9-0.9c0.2-0.4,0.3-0.9,0.3-1.4c0-0.5-0.1-1-0.3-1.4c-0.2-0.4-0.5-0.7-0.9-0.9c-0.4-0.2-0.8-0.3-1.3-0.3
						c-0.5,0-0.9,0.1-1.3,0.3c-0.4,0.2-0.7,0.5-0.9,0.9c-0.2,0.4-0.3,0.9-0.3,1.4c0,0.5,0.1,1,0.3,1.4c0.2,0.4,0.5,0.7,0.9,0.9
						c0.4,0.2,0.8,0.3,1.3,0.3C286.3,63.7,286.7,63.6,287.1,63.4z"/>
					<path class="st4" d="M295.7,64.8c-0.4-0.2-0.8-0.5-1.1-0.8c-0.3-0.4-0.4-0.8-0.4-1.3h1.7c0,0.3,0.1,0.6,0.3,0.8
						c0.2,0.2,0.5,0.3,0.9,0.3c0.4,0,0.7-0.1,0.9-0.3c0.2-0.2,0.3-0.4,0.3-0.7c0-0.2-0.1-0.4-0.2-0.6c-0.1-0.2-0.3-0.3-0.5-0.4
						c-0.2-0.1-0.5-0.2-0.9-0.3c-0.5-0.2-0.9-0.3-1.3-0.4c-0.3-0.1-0.6-0.4-0.8-0.7c-0.2-0.3-0.3-0.7-0.3-1.2c0-0.5,0.1-0.9,0.4-1.2
						c0.2-0.3,0.6-0.6,1-0.8c0.4-0.2,0.9-0.3,1.5-0.3c0.8,0,1.5,0.2,2,0.6c0.5,0.4,0.8,1,0.8,1.7h-1.7c0-0.3-0.1-0.5-0.3-0.7
						c-0.2-0.2-0.5-0.3-0.9-0.3c-0.3,0-0.6,0.1-0.7,0.2c-0.2,0.2-0.3,0.4-0.3,0.7c0,0.2,0.1,0.4,0.2,0.5c0.1,0.1,0.3,0.3,0.5,0.3
						c0.2,0.1,0.5,0.2,0.9,0.3c0.5,0.2,0.9,0.3,1.3,0.5c0.3,0.2,0.6,0.4,0.8,0.7c0.2,0.3,0.4,0.7,0.4,1.2c0,0.4-0.1,0.8-0.3,1.2
						c-0.2,0.4-0.5,0.7-1,0.9c-0.4,0.2-0.9,0.3-1.5,0.3C296.6,65.1,296.1,65,295.7,64.8z"/>
				</g>
			</g>
		</g>
	</g>
</g>
<g id="Capa_2">
	<g>
		<g>
			<g>
				<g>
					<path class="st4" d="M92.3,14.2l8.6,8.5v25.6h-8.6V14.2z"/>
					<path class="st4" d="M110.4,45.1c-2.5-2.4-3.7-5.9-3.7-10.4V17.9h8.6v16.5c0,4.8,1.9,7.3,5.7,7.3c3.8,0,5.7-2.4,5.7-7.3V17.9
						h8.4v16.8c0,4.5-1.2,8-3.7,10.4c-2.5,2.4-6,3.7-10.5,3.7C116.4,48.8,112.9,47.6,110.4,45.1z"/>
					<path class="st4" d="M144.4,47.9c-2.3-0.6-4.2-1.4-5.6-2.4l2.8-6.3c1.4,0.9,2.9,1.6,4.7,2.2c1.8,0.5,3.5,0.8,5.3,0.8
						c3.3,0,4.9-0.8,4.9-2.5c0-0.9-0.5-1.5-1.4-1.9c-0.9-0.4-2.4-0.9-4.5-1.3c-2.3-0.5-4.2-1-5.7-1.6c-1.5-0.6-2.8-1.5-3.9-2.7
						c-1.1-1.2-1.6-2.9-1.6-5c0-1.8,0.5-3.5,1.5-5c1-1.5,2.5-2.7,4.5-3.5c2-0.9,4.5-1.3,7.4-1.3c2,0,3.9,0.2,5.9,0.7
						c1.9,0.4,3.6,1.1,5.1,2l-2.6,6.4c-2.9-1.6-5.7-2.3-8.4-2.3c-1.7,0-2.9,0.3-3.7,0.8c-0.8,0.5-1.2,1.2-1.2,2
						c0,0.8,0.5,1.4,1.4,1.8c0.9,0.4,2.4,0.8,4.4,1.3c2.3,0.5,4.2,1,5.7,1.6c1.5,0.6,2.8,1.5,3.9,2.7c1.1,1.2,1.7,2.9,1.7,5
						c0,1.8-0.5,3.5-1.5,4.9c-1,1.5-2.5,2.6-4.5,3.5c-2,0.9-4.5,1.3-7.3,1.3C149.1,48.8,146.7,48.5,144.4,47.9z"/>
					<path class="st4" d="M177.4,24.5v6.7h13.3v6.6h-13.3v10.4h-8.6V17.9h23.7v6.6H177.4z"/>
					<path class="st4" d="M202.9,46.7c-2.5-1.4-4.5-3.2-6-5.6c-1.5-2.4-2.2-5.1-2.2-8.1c0-3,0.7-5.7,2.2-8.1c1.5-2.4,3.5-4.3,6-5.6
						c2.5-1.4,5.4-2,8.6-2c3.2,0,6.1,0.7,8.6,2c2.5,1.4,4.5,3.2,6,5.6c1.5,2.4,2.2,5.1,2.2,8.1c0,3-0.7,5.7-2.2,8.1
						c-1.5,2.4-3.5,4.3-6,5.6c-2.5,1.4-5.4,2-8.6,2C208.4,48.8,205.5,48.1,202.9,46.7z M215.7,40.6c1.2-0.7,2.2-1.7,2.9-3
						c0.7-1.3,1.1-2.8,1.1-4.5c0-1.7-0.4-3.2-1.1-4.5c-0.7-1.3-1.7-2.3-2.9-3c-1.2-0.7-2.6-1.1-4.1-1.1c-1.5,0-2.9,0.4-4.1,1.1
						c-1.2,0.7-2.2,1.7-2.9,3c-0.7,1.3-1.1,2.8-1.1,4.5c0,1.7,0.4,3.2,1.1,4.5c0.7,1.3,1.7,2.3,2.9,3c1.2,0.7,2.6,1.1,4.1,1.1
						C213.1,41.7,214.5,41.3,215.7,40.6z"/>
					<path class="st4" d="M246.1,40.1h-4.7v8h-8.6V17.9h13.8c2.7,0,5.1,0.5,7.1,1.4c2,0.9,3.6,2.2,4.7,3.9c1.1,1.7,1.6,3.7,1.6,5.9
						c0,2.2-0.5,4.1-1.5,5.7c-1,1.6-2.5,2.9-4.4,3.8l6.5,9.5h-9.2L246.1,40.1z M250.1,25.8c-0.9-0.8-2.2-1.2-4-1.2h-4.8v8.9h4.8
						c1.8,0,3.1-0.4,4-1.1c0.9-0.8,1.3-1.9,1.3-3.3C251.5,27.7,251,26.6,250.1,25.8z"/>
					<path class="st4" d="M292.1,48.2l-0.1-16l-7.8,13.1h-3.8l-7.7-12.6v15.6h-7.9V17.9h7l10.6,17.5l10.4-17.5h7l0.1,30.3H292.1z"/>
					<polygon class="st2" points="100.8,18 92.4,9.6 100.8,9.6 					"/>
				</g>
				<g>
					<path class="st4" d="M93.7,64.9c-0.4-0.2-0.8-0.5-1-0.8c-0.3-0.3-0.4-0.8-0.4-1.2h1.7c0,0.3,0.1,0.6,0.3,0.8
						c0.2,0.2,0.5,0.3,0.8,0.3c0.4,0,0.6-0.1,0.9-0.3c0.2-0.2,0.3-0.4,0.3-0.7c0-0.2-0.1-0.4-0.2-0.6c-0.1-0.1-0.3-0.3-0.5-0.3
						c-0.2-0.1-0.5-0.2-0.9-0.3c-0.5-0.1-0.9-0.3-1.2-0.4c-0.3-0.1-0.6-0.4-0.8-0.7c-0.2-0.3-0.3-0.7-0.3-1.2c0-0.5,0.1-0.9,0.3-1.2
						c0.2-0.3,0.6-0.6,1-0.8c0.4-0.2,0.9-0.3,1.4-0.3c0.8,0,1.4,0.2,1.9,0.6c0.5,0.4,0.8,0.9,0.8,1.6h-1.7c0-0.3-0.1-0.5-0.3-0.7
						c-0.2-0.2-0.5-0.3-0.8-0.3c-0.3,0-0.5,0.1-0.7,0.2c-0.2,0.2-0.3,0.4-0.3,0.7c0,0.2,0.1,0.4,0.2,0.5c0.1,0.1,0.3,0.2,0.5,0.3
						c0.2,0.1,0.5,0.2,0.9,0.3c0.5,0.1,0.9,0.3,1.2,0.4c0.3,0.1,0.6,0.4,0.8,0.7c0.2,0.3,0.3,0.7,0.3,1.2c0,0.4-0.1,0.8-0.3,1.2
						c-0.2,0.4-0.5,0.6-0.9,0.8c-0.4,0.2-0.9,0.3-1.5,0.3C94.6,65.2,94.1,65.1,93.7,64.9z"/>
					<path class="st4" d="M103.9,57.3v7.7h-1.6v-7.7H103.9z"/>
					<path class="st4" d="M109.9,64.9c-0.4-0.2-0.8-0.5-1-0.8c-0.3-0.3-0.4-0.8-0.4-1.2h1.7c0,0.3,0.1,0.6,0.3,0.8
						c0.2,0.2,0.5,0.3,0.8,0.3c0.4,0,0.6-0.1,0.9-0.3c0.2-0.2,0.3-0.4,0.3-0.7c0-0.2-0.1-0.4-0.2-0.6c-0.1-0.1-0.3-0.3-0.5-0.3
						c-0.2-0.1-0.5-0.2-0.9-0.3c-0.5-0.1-0.9-0.3-1.2-0.4c-0.3-0.1-0.6-0.4-0.8-0.7c-0.2-0.3-0.3-0.7-0.3-1.2c0-0.5,0.1-0.9,0.3-1.2
						c0.2-0.3,0.6-0.6,1-0.8c0.4-0.2,0.9-0.3,1.4-0.3c0.8,0,1.4,0.2,1.9,0.6c0.5,0.4,0.8,0.9,0.8,1.6h-1.7c0-0.3-0.1-0.5-0.3-0.7
						c-0.2-0.2-0.5-0.3-0.8-0.3c-0.3,0-0.5,0.1-0.7,0.2c-0.2,0.2-0.3,0.4-0.3,0.7c0,0.2,0.1,0.4,0.2,0.5c0.1,0.1,0.3,0.2,0.5,0.3
						c0.2,0.1,0.5,0.2,0.9,0.3c0.5,0.1,0.9,0.3,1.2,0.4c0.3,0.1,0.6,0.4,0.8,0.7c0.2,0.3,0.3,0.7,0.3,1.2c0,0.4-0.1,0.8-0.3,1.2
						c-0.2,0.4-0.5,0.6-0.9,0.8c-0.4,0.2-0.9,0.3-1.5,0.3C110.8,65.2,110.3,65.1,109.9,64.9z"/>
					<path class="st4" d="M123.8,57.3v1.3h-2.1v6.5h-1.6v-6.5h-2.1v-1.3H123.8z"/>
					<path class="st4" d="M129.7,58.6v1.9h2.6v1.2h-2.6v2.1h2.9v1.3h-4.5v-7.8h4.5v1.3H129.7z"/>
					<path class="st4" d="M145.7,57.3v7.7h-1.6v-5l-2.1,5h-1.2l-2.1-5v5h-1.6v-7.7h1.8l2.5,5.8l2.5-5.8H145.7z"/>
					<path class="st4" d="M155.1,63.6H152l-0.5,1.5h-1.6l2.8-7.8h1.8l2.8,7.8h-1.6L155.1,63.6z M154.7,62.4l-1.1-3.2l-1.1,3.2H154.7
						z"/>
					<path class="st4" d="M172.6,60.9c-0.2,0.4-0.5,0.7-0.9,0.9c-0.4,0.2-0.9,0.3-1.6,0.3h-1.3v3h-1.6v-7.7h2.8
						c0.6,0,1.1,0.1,1.5,0.3c0.4,0.2,0.7,0.5,0.9,0.9c0.2,0.4,0.3,0.8,0.3,1.2C172.9,60.1,172.8,60.5,172.6,60.9z M171,60.6
						c0.2-0.2,0.3-0.5,0.3-0.8c0-0.8-0.4-1.1-1.3-1.1h-1.2v2.3h1.2C170.5,60.9,170.8,60.8,171,60.6z"/>
					<path class="st4" d="M181.9,63.6h-3.1l-0.5,1.5h-1.6l2.8-7.8h1.8l2.8,7.8h-1.6L181.9,63.6z M181.5,62.4l-1.1-3.2l-1.1,3.2
						H181.5z"/>
					<path class="st4" d="M192.3,65.1l-1.7-3h-0.7v3h-1.6v-7.7h2.9c0.6,0,1.1,0.1,1.5,0.3c0.4,0.2,0.7,0.5,0.9,0.9
						c0.2,0.4,0.3,0.8,0.3,1.2c0,0.5-0.1,1-0.4,1.4c-0.3,0.4-0.7,0.7-1.3,0.8l1.9,3.1H192.3z M189.9,60.9h1.3c0.4,0,0.7-0.1,0.9-0.3
						c0.2-0.2,0.3-0.5,0.3-0.8c0-0.4-0.1-0.6-0.3-0.8c-0.2-0.2-0.5-0.3-0.9-0.3h-1.3V60.9z"/>
					<path class="st4" d="M203.3,63.6h-3.1l-0.5,1.5h-1.6l2.8-7.8h1.8l2.8,7.8h-1.6L203.3,63.6z M202.9,62.4l-1.1-3.2l-1.1,3.2
						H202.9z"/>
					<path class="st4" d="M220.2,63.6h-3.1l-0.5,1.5H215l2.8-7.8h1.8l2.8,7.8h-1.6L220.2,63.6z M219.8,62.4l-1.1-3.2l-1.1,3.2H219.8
						z"/>
					<path class="st4" d="M232.1,61.8c0.3,0.4,0.4,0.8,0.4,1.2c0,0.4-0.1,0.8-0.3,1.1c-0.2,0.3-0.5,0.6-0.9,0.7
						c-0.4,0.2-0.8,0.3-1.4,0.3h-3.3v-7.7h3.2c0.5,0,1,0.1,1.4,0.3c0.4,0.2,0.7,0.4,0.9,0.7c0.2,0.3,0.3,0.6,0.3,1
						c0,0.5-0.1,0.8-0.4,1.1c-0.2,0.3-0.6,0.5-1,0.6C231.4,61.2,231.8,61.4,232.1,61.8z M228.2,60.5h1.4c0.4,0,0.7-0.1,0.9-0.2
						c0.2-0.2,0.3-0.4,0.3-0.7c0-0.3-0.1-0.6-0.3-0.7c-0.2-0.2-0.5-0.3-0.9-0.3h-1.4V60.5z M230.6,63.6c0.2-0.2,0.3-0.4,0.3-0.8
						c0-0.3-0.1-0.6-0.3-0.8c-0.2-0.2-0.5-0.3-0.9-0.3h-1.5v2.1h1.6C230.1,63.8,230.4,63.7,230.6,63.6z"/>
					<path class="st4" d="M238.5,64.7c-0.6-0.3-1.1-0.8-1.4-1.4c-0.4-0.6-0.5-1.3-0.5-2c0-0.8,0.2-1.4,0.5-2
						c0.4-0.6,0.8-1.1,1.4-1.4c0.6-0.3,1.3-0.5,2-0.5c0.7,0,1.4,0.2,2,0.5c0.6,0.3,1.1,0.8,1.4,1.4c0.4,0.6,0.5,1.3,0.5,2
						c0,0.8-0.2,1.4-0.5,2c-0.4,0.6-0.8,1.1-1.4,1.4c-0.6,0.3-1.3,0.5-2,0.5C239.8,65.2,239.1,65,238.5,64.7z M241.7,63.5
						c0.4-0.2,0.6-0.5,0.8-0.9c0.2-0.4,0.3-0.8,0.3-1.4c0-0.5-0.1-1-0.3-1.4c-0.2-0.4-0.5-0.7-0.8-0.9c-0.4-0.2-0.8-0.3-1.2-0.3
						c-0.5,0-0.9,0.1-1.2,0.3c-0.4,0.2-0.6,0.5-0.8,0.9c-0.2,0.4-0.3,0.8-0.3,1.4c0,0.5,0.1,1,0.3,1.4c0.2,0.4,0.5,0.7,0.8,0.9
						c0.4,0.2,0.8,0.3,1.2,0.3C241,63.8,241.4,63.7,241.7,63.5z"/>
					<path class="st4" d="M254.2,59.7c-0.2-0.3-0.4-0.6-0.7-0.7c-0.3-0.2-0.7-0.3-1.1-0.3c-0.5,0-0.9,0.1-1.2,0.3
						c-0.4,0.2-0.6,0.5-0.8,0.9c-0.2,0.4-0.3,0.8-0.3,1.3c0,0.5,0.1,1,0.3,1.4c0.2,0.4,0.5,0.7,0.8,0.9c0.4,0.2,0.8,0.3,1.3,0.3
						c0.6,0,1.1-0.2,1.5-0.5c0.4-0.3,0.6-0.8,0.7-1.3H252v-1.2h4.2v1.4c-0.1,0.5-0.3,1-0.7,1.5c-0.3,0.5-0.8,0.8-1.3,1.1
						c-0.5,0.3-1.1,0.4-1.8,0.4c-0.7,0-1.4-0.2-2-0.5c-0.6-0.3-1.1-0.8-1.4-1.4c-0.3-0.6-0.5-1.3-0.5-2c0-0.8,0.2-1.4,0.5-2
						c0.3-0.6,0.8-1.1,1.4-1.4c0.6-0.3,1.3-0.5,2-0.5c0.9,0,1.6,0.2,2.3,0.6c0.6,0.4,1.1,1,1.3,1.8H254.2z"/>
					<path class="st4" d="M265.2,63.6h-3.1l-0.5,1.5H260l2.8-7.8h1.8l2.8,7.8h-1.6L265.2,63.6z M264.8,62.4l-1.1-3.2l-1.1,3.2H264.8
						z"/>
					<path class="st4" d="M276.4,57.8c0.6,0.3,1.1,0.8,1.4,1.4c0.3,0.6,0.5,1.3,0.5,2c0,0.8-0.2,1.5-0.5,2c-0.3,0.6-0.8,1-1.4,1.3
						c-0.6,0.3-1.3,0.5-2.1,0.5h-2.7v-7.7h2.7C275.1,57.3,275.8,57.5,276.4,57.8z M276.1,63.1c0.4-0.4,0.7-1.1,0.7-1.9
						s-0.2-1.4-0.7-1.9s-1.1-0.7-1.9-0.7h-1.1v5.1h1.1C275.1,63.8,275.7,63.5,276.1,63.1z"/>
					<path class="st4" d="M284.3,64.7c-0.6-0.3-1.1-0.8-1.4-1.4c-0.4-0.6-0.5-1.3-0.5-2c0-0.8,0.2-1.4,0.5-2
						c0.4-0.6,0.8-1.1,1.4-1.4c0.6-0.3,1.3-0.5,2-0.5c0.7,0,1.4,0.2,2,0.5c0.6,0.3,1.1,0.8,1.4,1.4c0.4,0.6,0.5,1.3,0.5,2
						c0,0.8-0.2,1.4-0.5,2c-0.4,0.6-0.8,1.1-1.4,1.4c-0.6,0.3-1.3,0.5-2,0.5C285.6,65.2,284.9,65,284.3,64.7z M287.5,63.5
						c0.4-0.2,0.6-0.5,0.8-0.9c0.2-0.4,0.3-0.8,0.3-1.4c0-0.5-0.1-1-0.3-1.4c-0.2-0.4-0.5-0.7-0.8-0.9c-0.4-0.2-0.8-0.3-1.2-0.3
						s-0.9,0.1-1.2,0.3c-0.4,0.2-0.6,0.5-0.8,0.9c-0.2,0.4-0.3,0.8-0.3,1.4c0,0.5,0.1,1,0.3,1.4c0.2,0.4,0.5,0.7,0.8,0.9
						c0.4,0.2,0.8,0.3,1.2,0.3S287.2,63.7,287.5,63.5z"/>
					<path class="st4" d="M295.8,64.9c-0.4-0.2-0.8-0.5-1-0.8c-0.3-0.3-0.4-0.8-0.4-1.2h1.7c0,0.3,0.1,0.6,0.3,0.8
						c0.2,0.2,0.5,0.3,0.8,0.3c0.4,0,0.6-0.1,0.9-0.3c0.2-0.2,0.3-0.4,0.3-0.7c0-0.2-0.1-0.4-0.2-0.6c-0.1-0.1-0.3-0.3-0.5-0.3
						c-0.2-0.1-0.5-0.2-0.9-0.3c-0.5-0.1-0.9-0.3-1.2-0.4c-0.3-0.1-0.6-0.4-0.8-0.7c-0.2-0.3-0.3-0.7-0.3-1.2c0-0.5,0.1-0.9,0.3-1.2
						c0.2-0.3,0.6-0.6,1-0.8c0.4-0.2,0.9-0.3,1.4-0.3c0.8,0,1.4,0.2,1.9,0.6c0.5,0.4,0.8,0.9,0.8,1.6h-1.7c0-0.3-0.1-0.5-0.3-0.7
						c-0.2-0.2-0.5-0.3-0.8-0.3c-0.3,0-0.5,0.1-0.7,0.2c-0.2,0.2-0.3,0.4-0.3,0.7c0,0.2,0.1,0.4,0.2,0.5c0.1,0.1,0.3,0.2,0.5,0.3
						c0.2,0.1,0.5,0.2,0.9,0.3c0.5,0.1,0.9,0.3,1.2,0.4c0.3,0.1,0.6,0.4,0.8,0.7c0.2,0.3,0.3,0.7,0.3,1.2c0,0.4-0.1,0.8-0.3,1.2
						c-0.2,0.4-0.5,0.6-0.9,0.8c-0.4,0.2-0.9,0.3-1.5,0.3C296.7,65.2,296.2,65.1,295.8,64.9z"/>
				</g>
			</g>
			<g>
				<g>
					<g>
						<path class="st2" d="M62.3,22.3h-23l3.5,38.4l-5.5,6.5V20.2h3.4h7.4v-3.1h-7.4V0.4h-9.9v16.7h-7.4v3.1h7.4h3.4v47.1l-5.5-6.5
							l3.5-38.4h-23L0,37.1v0v0.2v7.8h19.5v-7.8v-0.2v0l-7.3-11.7h16.8l-3.3,36.4l9.1,10.7l1.1,1.2l1.1-1.2L46,61.8l-3.3-36.4h16.8
							l-7.3,11.7v0v0.2v7.8h19.5v-7.8v-0.2v0L62.3,22.3z M33.9,3.5h3.7v13.6h-3.7V3.5z M16.4,42.1H3.1v-1.9h13.3V42.1z M15.8,37.2
							H3.6l6.1-9.7L15.8,37.2z M61.9,27.4l6.1,9.7H55.8L61.9,27.4z M68.5,42.1H55.2v-1.9h13.3V42.1z"/>
					</g>
				</g>
			</g>
		</g>
	</g>
</g>
</svg>
