<?xml version="1.0" encoding="utf-8"?>
<!-- Generator: Adobe Illustrator 24.0.2, SVG Export Plug-In . SVG Version: 6.00 Build 0)  -->
<svg version="1.1" id="Capa_1" xmlns="http://www.w3.org/2000/svg" xmlns:xlink="http://www.w3.org/1999/xlink" x="0px" y="0px"
	 viewBox="0 0 145 36" style="enable-background:new 0 0 145 36;" xml:space="preserve">
<style type="text/css">
	.st0{fill:#101820;}
	.st1{fill:#c89211;}
	.st2{fill:#1D1D1B;}
	.st3{fill:#FFFFFF;}
</style>
<g>
	<path class="st3" d="M15.1,36c-7,0-12.7-4.5-14.5-10.8C0.3,24,0.1,22.7,0,21.5c0-0.2,0-0.4,0-0.6c0.1-0.6,0.7-1,1.3-1
		c0.6,0,1.1,0.4,1.2,1.1c0,0.2,0,0.5,0.1,0.7c0,1.2,0.3,2.4,0.7,3.5c1.3,3.7,4.4,7,8.9,8c6.9,1.5,13.1-2.9,14.6-9.1
		c0.2-0.9,0.3-1.8,0.4-2.6c0-0.1,0-0.3,0-0.4c0-0.6,0.6-1.1,1.1-1.1c0.6,0,1.2,0.3,1.4,0.9c0.1,0.2,0.1,0.4,0.1,0.7
		c-0.1,1.9-0.4,3.7-1.2,5.5c-1.8,4.1-5.3,7.3-9.9,8.5C17.4,35.8,16.1,36,15.1,36z"/>
	<path class="st3" d="M13.9,7c0,1.7,0,3.5,0,5.2c0,0.8-0.1,1.6-0.4,2.4c-0.9,2.3-2.5,3.8-5,4.3c-2.1,0.3-4-0.1-5.7-1.4
		c-1.1-0.9-1.8-2-2.1-3.3c-0.5-1.9-0.3-3.8,0.7-5.6c0.9-1.6,2.3-2.7,4.1-3c2-0.3,3.7,0.1,5.2,1.5c0.1,0.1,0.3,0.2,0.4,0.3
		c0,0,0.1,0,0.1,0c0,0,0,0,0-0.1c0-0.2,0-0.4,0-0.6c0-1.7,0-3.4,0-5.1c0-0.2,0-0.4,0-0.6c0-0.7,0.6-1.2,1.4-1.1
		c0.6,0.1,1,0.5,1.1,1.1c0,0.2,0,0.4,0,0.7C13.9,3.5,13.9,5.3,13.9,7C13.9,7,13.9,7,13.9,7z M11.5,12.5c0-0.8-0.1-1.4-0.3-1.9
		c-0.7-1.8-2.5-3.2-5-2.7c-1.2,0.3-2.1,1-2.7,2c-0.4,0.7-0.6,1.5-0.6,2.3c0,0.8,0.2,1.6,0.6,2.4c0.9,1.8,3,2.7,5.1,2
		c1-0.3,1.8-1,2.3-1.9C11.3,14,11.5,13.2,11.5,12.5z"/>
	<path class="st3" d="M15.8,17.7c0-1.7,0-3.5,0-5.2c0-1,0.1-1.9,0.5-2.8c0.9-2.1,2.5-3.5,4.7-4c1.6-0.3,3.2-0.2,4.6,0.6
		c2.1,1.1,3.2,2.8,3.5,5.1c0.1,0.9,0.1,1.9-0.2,2.8c-0.3,1.2-0.9,2.3-1.8,3.2c-1,0.9-2.1,1.5-3.4,1.6c-1.9,0.2-3.6-0.4-5-1.7
		c-0.1-0.1-0.2-0.2-0.3-0.2c0,0-0.1,0-0.1,0.1c0,0.2,0,0.3,0,0.5c0,1.8,0,3.5,0,5.3c0,0.2,0,0.4,0,0.7c0,0.3-0.2,0.6-0.5,0.8
		c-0.4,0.3-0.9,0.3-1.3,0.1c-0.3-0.2-0.5-0.4-0.6-0.8c0-0.2,0-0.4,0-0.7C15.8,21.3,15.8,19.5,15.8,17.7z M18.3,12.4
		c0,0.9,0.2,1.7,0.6,2.4c1,1.8,3.2,2.6,5.2,1.8c1.2-0.4,2-1.3,2.5-2.4c0.3-0.7,0.3-1.4,0.3-2.1c0-0.8-0.2-1.5-0.6-2.1
		c-1-1.7-2.7-2.5-4.8-2c-1.1,0.2-1.9,0.9-2.5,1.8C18.5,10.5,18.2,11.4,18.3,12.4z"/>
	<path class="st3" d="M43.1,13.1c0,0.8,0,1.7,0,2.5c0,0.4-0.1,0.8-0.2,1.2c-0.4,1.3-1.5,2.2-3,2.3c-1.4,0.1-2.7-0.7-3.2-2
		c-0.5-1.3-0.4-2.6,0.5-3.7c1-1.2,2.7-1.4,3.8-0.7c0.2,0.1,0.4,0.3,0.6,0.4c0.1,0,0.1,0.1,0.2,0c0,0,0.1-0.1,0.1-0.2
		c0-0.7,0-1.5,0-2.2c0-0.2,0-0.4,0-0.6c0-0.3,0.3-0.6,0.6-0.6c0.3,0,0.6,0.2,0.6,0.6c0,0.2,0,0.3,0,0.5
		C43.1,11.5,43.1,12.3,43.1,13.1C43.1,13.1,43.1,13.1,43.1,13.1z M37.6,15.7c0,0.6,0.1,0.8,0.3,1.2c0.7,1.3,2.5,1.6,3.5,0.4
		c0.6-0.7,0.7-1.6,0.4-2.5c-0.3-0.8-1-1.4-2-1.3c-0.9,0-1.5,0.5-1.9,1.3C37.7,15.1,37.6,15.4,37.6,15.7z"/>
	<path class="st3" d="M83.8,18.3c0-0.8,0-1.7,0-2.5c0-0.3,0-0.7,0.1-1c0.5-1.9,2.4-2.7,4-2.3c1.6,0.4,2.7,1.8,2.6,3.7
		c-0.1,0.5-0.2,1.1-0.5,1.5c-0.6,0.9-1.4,1.4-2.5,1.5c-0.7,0-1.3-0.1-1.9-0.5c-0.1-0.1-0.3-0.2-0.4-0.3c0,0-0.2,0-0.2,0.1
		c0,0.1,0,0.3,0,0.4c0,0.7,0,1.4,0,2.2c0,0.1,0,0.3,0,0.4c0,0.2-0.2,0.4-0.4,0.4c-0.2,0.1-0.3,0.1-0.5,0c-0.2-0.1-0.3-0.2-0.3-0.4
		c0-0.2,0-0.3,0-0.5C83.8,20.1,83.8,19.2,83.8,18.3C83.8,18.3,83.8,18.3,83.8,18.3z M87.4,18c0.6,0,1.2-0.4,1.6-1.2
		c0.3-0.5,0.3-1.1,0.2-1.7c-0.2-0.7-0.8-1.6-1.9-1.7c-0.9-0.1-1.7,0.4-2.1,1.3C85,15.2,85,15.6,85,16C85.1,17.1,86,18,87.4,18z"/>
	<path class="st3" d="M95.5,16.2c-0.6,0-1.2,0-1.9,0c-0.1,0-0.2,0-0.4,0c0,0-0.1,0.1-0.1,0.2c0,0,0,0.1,0,0.1
		c0.3,0.8,0.9,1.3,1.7,1.5c0.6,0.1,1.2,0,1.7-0.3c0.1-0.1,0.3-0.2,0.4-0.2c0.3-0.1,0.6,0,0.7,0.3c0.1,0.2,0,0.4-0.1,0.5
		c-0.1,0.1-0.2,0.2-0.3,0.2c-1,0.6-2.1,0.8-3.3,0.4c-1.2-0.4-2.1-1.5-2.1-2.9c0-0.5,0-1,0.2-1.5c0.4-1.1,1.3-2.1,2.8-2.2
		c0.3,0,0.7,0,1,0.1c1,0.2,1.7,0.9,2.1,1.8c0.2,0.4,0.2,0.9,0.2,1.4c0,0.3-0.2,0.5-0.5,0.5c-0.1,0-0.3,0-0.4,0
		C96.8,16.2,96.2,16.2,95.5,16.2C95.5,16.2,95.5,16.2,95.5,16.2z M95.1,15.2C95.1,15.2,95.1,15.2,95.1,15.2c0.6,0,1.1,0,1.7,0
		c0.2,0,0.3-0.1,0.2-0.3c-0.2-0.8-0.7-1.3-1.5-1.4c-0.5-0.1-1,0-1.5,0.3c-0.5,0.3-0.8,0.7-0.9,1.3c0,0.1,0.1,0.2,0.2,0.2
		C94,15.2,94.5,15.2,95.1,15.2z"/>
	<path class="st3" d="M113.2,16.2c-0.6,0-1.1,0-1.7,0c-0.1,0-0.3,0-0.4,0c-0.1,0-0.2,0.1-0.2,0.2c0.2,0.9,1.1,1.5,1.9,1.6
		c0.6,0,1.1-0.1,1.6-0.3c0.1-0.1,0.2-0.1,0.3-0.2c0.3-0.1,0.7,0.1,0.8,0.4c0,0.1,0,0.2-0.1,0.3c-0.1,0.1-0.2,0.2-0.3,0.3
		c-0.7,0.4-1.4,0.6-2.2,0.6c-0.5,0-0.9-0.1-1.4-0.3c-1.3-0.6-1.9-1.6-2-2.9c0-0.5,0.1-0.9,0.2-1.4c0.4-1.1,1.3-2.1,2.9-2.2
		c0.3,0,0.7,0,1,0.1c0.8,0.2,1.4,0.7,1.8,1.4c0.3,0.5,0.4,1.1,0.4,1.7c0,0,0,0.1,0,0.1c0,0.2-0.2,0.4-0.4,0.5c-0.1,0-0.3,0-0.4,0
		C114.4,16.2,113.8,16.2,113.2,16.2z M112.7,15.2C112.7,15.2,112.7,15.2,112.7,15.2c0.6,0,1.2,0,1.9,0c0.1,0,0.2-0.1,0.2-0.3
		c-0.1-0.2-0.1-0.4-0.2-0.6c-0.2-0.3-0.4-0.6-0.7-0.7c-0.9-0.4-2.3-0.1-2.8,1c0,0.1-0.1,0.2-0.1,0.4c0,0.1,0,0.2,0.1,0.2
		C111.5,15.2,112.1,15.2,112.7,15.2z"/>
	<path class="st3" d="M72.7,12.3c0.9,0,1.7,0.4,2.3,1.1c0.4,0.5,0.6,1.1,0.6,1.7c0,0.2,0,0.3,0,0.5c0,0.3-0.2,0.5-0.5,0.5
		c-0.2,0-0.4,0-0.6,0c-1.1,0-2.3,0-3.4,0c-0.1,0-0.3,0-0.4,0c0,0-0.1,0.1-0.1,0.1c0,0.1,0,0.1,0,0.2c0.3,0.8,0.9,1.3,1.7,1.4
		c0.6,0.1,1.1,0,1.7-0.3c0.1-0.1,0.3-0.2,0.5-0.2c0.3-0.1,0.7,0.1,0.7,0.4c0,0.1,0,0.2,0,0.3c-0.1,0.1-0.2,0.2-0.3,0.3
		c-1.3,0.8-2.6,0.9-3.9,0.2c-0.8-0.4-1.3-1.1-1.6-2c-0.2-0.7-0.2-1.4,0-2.1c0.4-1.3,1.5-2.2,2.9-2.3C72.5,12.3,72.6,12.3,72.7,12.3z
		 M72.5,15.2C72.5,15.2,72.5,15.2,72.5,15.2c0.5,0,0.9,0,1.4,0c0.1,0,0.2,0,0.4,0c0.1,0,0.2-0.1,0.2-0.2c-0.1-0.2-0.1-0.4-0.2-0.6
		c-0.2-0.4-0.5-0.7-0.8-0.8c-1-0.4-2.3-0.1-2.8,1.1c0,0.1,0,0.2-0.1,0.4c0,0,0,0.1,0.1,0.1c0.1,0,0.2,0,0.3,0
		C71.4,15.2,72,15.2,72.5,15.2z"/>
	<path class="st3" d="M52.2,16.2c-0.6,0-1.3,0-1.9,0c-0.1,0-0.1,0-0.2,0c-0.1,0-0.2,0.1-0.2,0.2c0.1,0.5,0.4,0.9,0.8,1.2
		c0.8,0.5,1.7,0.6,2.5,0.1c0.2-0.1,0.3-0.2,0.5-0.2c0.2-0.1,0.5,0,0.7,0.2c0.2,0.2,0.2,0.5,0,0.7c-0.1,0.1-0.2,0.2-0.4,0.3
		C53,19.1,52.1,19.3,51,19c-1.5-0.4-2.4-1.6-2.4-3.3c0-0.7,0.2-1.4,0.6-2c0.6-0.8,1.4-1.3,2.4-1.4c0.6-0.1,1.2,0,1.8,0.3
		c0.4,0.2,0.8,0.5,1,0.9c0.4,0.6,0.6,1.3,0.5,2.1c0,0.2-0.2,0.5-0.5,0.5c-0.1,0-0.3,0-0.4,0C53.4,16.2,52.8,16.2,52.2,16.2
		C52.2,16.2,52.2,16.2,52.2,16.2z M51.7,15.2C51.7,15.2,51.7,15.2,51.7,15.2c0.5,0,1,0,1.5,0c0.1,0,0.2,0,0.4,0
		c0.1,0,0.2-0.1,0.1-0.2c0-0.2-0.1-0.3-0.2-0.5c-0.2-0.5-0.6-0.8-1.2-1c-0.6-0.2-1.2-0.1-1.7,0.2c-0.4,0.2-0.7,0.6-0.8,1.1
		c-0.1,0.2,0,0.3,0.2,0.4C50.6,15.2,51.2,15.2,51.7,15.2z"/>
	<path class="st3" d="M135.8,15.7c0,0.5-0.1,1-0.3,1.5c-0.5,1-1.3,1.6-2.5,1.8c-0.5,0.1-1,0.1-1.5-0.1c-1.4-0.4-2.1-1.3-2.3-2.7
		c-0.1-0.5-0.1-1.1,0.1-1.6c0.4-1.1,1.1-1.9,2.2-2.2c0.7-0.2,1.4-0.2,2.1,0.1c1.3,0.4,2.1,1.5,2.2,2.8
		C135.8,15.5,135.8,15.6,135.8,15.7z M134.6,15.7c0-1.4-1-2.5-2.6-2.2c-0.7,0.1-1.2,0.6-1.5,1.2c-0.2,0.4-0.2,0.9-0.2,1.4
		c0.2,1.4,1.3,1.9,2.2,1.9c0.9,0,1.6-0.6,1.9-1.4C134.6,16.3,134.6,16,134.6,15.7z"/>
	<path class="st3" d="M56.5,15.7c0-0.8,0-1.5,0-2.3c0-0.2,0-0.3,0-0.5c0-0.2,0.2-0.4,0.4-0.5c0.2-0.1,0.4,0,0.6,0.2
		c0.1,0.1,0.1,0.2,0.2,0.3c0,0.1,0.1,0.1,0.2,0c0.3-0.2,0.7-0.4,1.1-0.5c0.9-0.2,1.7-0.1,2.4,0.4c0.7,0.4,1,1.1,1.2,1.8
		c0.1,0.3,0.1,0.6,0.1,1c0,0.8,0,1.7,0,2.5c0,0.2,0,0.3-0.1,0.5c0,0.2-0.2,0.4-0.5,0.4c-0.1,0-0.1,0-0.2,0c-0.2,0-0.5-0.2-0.5-0.5
		c0-0.2,0-0.3,0-0.5c0-0.8,0-1.6,0-2.5c0-0.3,0-0.5-0.1-0.8c-0.1-0.6-0.5-1-1.1-1.2c-0.6-0.2-1.1-0.2-1.7,0.1
		c-0.6,0.3-0.9,0.7-0.9,1.4c0,0.9,0,1.9,0,2.8c0,0.2,0,0.4,0,0.6c0,0.3-0.3,0.5-0.6,0.5c-0.3,0-0.6-0.2-0.6-0.5c0-0.2,0-0.3,0-0.5
		C56.5,17.3,56.5,16.5,56.5,15.7z"/>
	<path class="st3" d="M140.2,19.1c-0.8,0-1.4-0.1-2-0.4c-0.3-0.1-0.6-0.3-0.8-0.5c-0.2-0.2-0.2-0.6,0-0.9c0.1-0.1,0.2-0.1,0.3-0.1
		c0.1-0.1,0.3-0.1,0.4,0c0.1,0.1,0.3,0.2,0.4,0.3c0.7,0.5,1.5,0.6,2.3,0.3c0.1,0,0.3-0.1,0.4-0.2c0.3-0.2,0.3-0.7,0-0.9
		c-0.1-0.1-0.3-0.2-0.4-0.3c-0.2-0.1-0.5-0.2-0.7-0.2c-0.4-0.1-0.7-0.2-1.1-0.3c-0.4-0.1-0.7-0.3-1-0.5c-0.6-0.5-0.8-1.3-0.4-1.9
		c0.2-0.3,0.4-0.5,0.7-0.7c0.3-0.2,0.6-0.3,0.9-0.3c0.7-0.2,1.5-0.1,2.2,0.2c0.3,0.1,0.6,0.3,0.8,0.6c0.1,0.1,0.1,0.2,0.2,0.2
		c0.2,0.3,0,0.6-0.3,0.7c-0.2,0-0.4,0-0.6-0.1c-0.1,0-0.1-0.1-0.2-0.1c-0.6-0.5-1.4-0.5-2.1-0.3c0,0-0.1,0-0.1,0.1
		c-0.2,0.1-0.4,0.3-0.4,0.5c0,0.3,0.1,0.5,0.3,0.6c0.2,0.1,0.5,0.2,0.7,0.3c0.2,0.1,0.5,0.1,0.7,0.2c0.3,0.1,0.6,0.2,0.9,0.3
		c0.1,0,0.3,0.1,0.4,0.2c1.2,0.6,1.1,2.1,0.3,2.8c-0.4,0.4-0.8,0.5-1.3,0.6C140.6,19.1,140.3,19.1,140.2,19.1z"/>
	<path class="st3" d="M79.5,12.4c0.5,0,0.9,0,1.2,0.2c0.4,0.1,0.8,0.4,1.1,0.7c0.1,0.1,0.2,0.2,0.2,0.3c0.1,0.2,0,0.5-0.2,0.6
		c-0.2,0.1-0.4,0.1-0.6,0c-0.1-0.1-0.2-0.1-0.3-0.2c-0.3-0.3-0.7-0.4-1.2-0.4c-0.2,0-0.4,0-0.7,0c-0.1,0-0.3,0.1-0.4,0.1
		c-0.3,0.1-0.4,0.4-0.3,0.8c0,0.1,0.1,0.2,0.2,0.3c0.2,0.1,0.4,0.2,0.7,0.3c0.3,0.1,0.5,0.1,0.8,0.2c0.3,0.1,0.6,0.2,0.9,0.3
		c0.2,0.1,0.3,0.1,0.5,0.2c1.1,0.6,1,2,0.4,2.7c-0.3,0.3-0.7,0.5-1.2,0.6c-1.2,0.3-2.3,0.1-3.3-0.5c-0.1-0.1-0.3-0.2-0.4-0.3
		c-0.2-0.2-0.2-0.6,0.1-0.8c0.1-0.1,0.2-0.1,0.3-0.2c0.1-0.1,0.2,0,0.4,0c0.1,0.1,0.3,0.2,0.4,0.3c0.7,0.5,1.5,0.6,2.3,0.4
		c0.2-0.1,0.3-0.1,0.4-0.3c0.2-0.2,0.2-0.6,0-0.9c-0.2-0.2-0.3-0.3-0.6-0.4c-0.2-0.1-0.5-0.1-0.7-0.2c-0.4-0.1-0.7-0.2-1.1-0.3
		c-0.3-0.1-0.6-0.3-0.9-0.5c-0.9-0.7-0.6-1.9,0.1-2.5c0.5-0.3,1-0.5,1.5-0.6C79.3,12.3,79.4,12.4,79.5,12.4z"/>
	<path class="st3" d="M120.4,19.1c-0.6,0-1-0.1-1.5-0.3c-0.9-0.4-1.5-1.1-1.8-2c-0.2-0.8-0.2-1.6,0.1-2.3c0.5-1.3,1.4-2,2.7-2.1
		c1-0.1,1.9,0.2,2.6,0.9c0,0,0.1,0.1,0.1,0.1c0.2,0.2,0.2,0.5,0,0.7c-0.2,0.2-0.5,0.3-0.7,0.1c-0.1-0.1-0.2-0.2-0.3-0.2
		c-0.4-0.4-0.9-0.5-1.4-0.5c-0.8,0-1.5,0.4-1.8,1.2c-0.3,0.7-0.3,1.5,0,2.2c0.4,0.7,1,1.1,1.8,1.2c0.5,0,0.9-0.1,1.3-0.3
		c0.1-0.1,0.2-0.1,0.3-0.2c0.2-0.1,0.5,0,0.7,0.1c0.2,0.2,0.2,0.5,0,0.7c-0.4,0.4-0.9,0.7-1.5,0.8C120.7,19.1,120.5,19.1,120.4,19.1
		z"/>
	<path class="st3" d="M105.9,16.2c0-0.6,0-1.3,0-1.9c0-0.1,0-0.2,0-0.4c0-0.1,0-0.1-0.1-0.1c-0.2,0-0.3,0-0.5,0
		c-0.2,0-0.4-0.2-0.4-0.5c0-0.2,0.1-0.5,0.3-0.5c0.1,0,0.3,0,0.4,0c0.2,0,0.3-0.1,0.3-0.3c0-0.2,0-0.5,0.1-0.7c0.2-1,1-2,2.5-2.1
		c0.1,0,0.2,0,0.4,0.1c0.2,0.1,0.4,0.3,0.4,0.5c0,0.2-0.2,0.5-0.4,0.5c-0.1,0-0.3,0-0.4,0c-0.6,0.1-0.9,0.4-1.1,1
		c-0.1,0.2-0.1,0.4-0.1,0.7c0,0.2,0.1,0.3,0.3,0.3c0.3,0,0.7,0,1,0c0.2,0,0.3,0.1,0.4,0.3c0.2,0.3-0.1,0.7-0.4,0.7
		c-0.3,0-0.6,0-0.9,0c-0.1,0-0.1,0-0.2,0c-0.1,0-0.2,0.1-0.2,0.2c0,0.2,0,0.3,0,0.5c0,1.2,0,2.3,0,3.5c0,0.2,0,0.4,0,0.6
		c0,0.3-0.3,0.5-0.6,0.5c-0.3,0-0.5-0.2-0.6-0.5c0-0.1,0-0.3,0-0.4C105.9,17.4,105.9,16.8,105.9,16.2
		C105.9,16.2,105.9,16.2,105.9,16.2z"/>
	<path class="st3" d="M127,19c-1.2,0-2-0.9-2.1-1.8c0-0.3-0.1-0.5-0.1-0.8c0-0.7,0-1.4,0-2.2c0-0.1,0-0.2,0-0.4
		c0-0.1-0.1-0.2-0.2-0.2c-0.2,0-0.3,0-0.5,0c-0.2,0-0.4-0.3-0.4-0.5c0-0.2,0.2-0.5,0.4-0.5c0.1,0,0.3,0,0.4,0c0.2,0,0.3-0.1,0.3-0.3
		c0-0.4,0-0.7,0-1.1c0-0.1,0-0.3,0-0.4c0-0.3,0.3-0.5,0.6-0.5c0.3,0,0.5,0.2,0.6,0.5c0,0.1,0,0.2,0,0.3c0,0.2,0,0.4,0,0.7
		c0,0.3-0.1,0.6,0.1,0.9c0.3,0.1,0.5,0,0.8,0.1c0.1,0,0.1,0,0.2,0c0.3,0,0.5,0.3,0.5,0.6c0,0.2-0.2,0.4-0.4,0.5c-0.3,0-0.6,0-0.9,0
		c-0.2,0-0.3,0.1-0.3,0.3c0,0.1,0,0.1,0,0.2c0,0.3,0,0.6,0,1c0,0.5,0,1,0,1.6c0,0.3,0.1,0.5,0.2,0.7c0.2,0.2,0.4,0.4,0.7,0.4
		c0.1,0,0.3,0,0.4,0c0.2,0,0.4,0.2,0.5,0.4c0.1,0.4-0.2,0.8-0.6,0.8C127.2,19,127.1,19,127,19z"/>
	<path class="st3" d="M65,15.4c0-0.5,0-1,0-1.5c0-0.1-0.1-0.2-0.2-0.2c-0.2,0-0.3,0-0.5,0c-0.2,0-0.4-0.2-0.4-0.5
		c0-0.2,0.1-0.5,0.4-0.5c0.2,0,0.4,0,0.6-0.1c0.1,0,0.2-0.1,0.2-0.2c0-0.3,0-0.7,0-1c0-0.2,0-0.3,0-0.5c0-0.2,0.1-0.4,0.4-0.5
		c0.2-0.1,0.4-0.1,0.6,0.1c0.1,0.1,0.2,0.2,0.2,0.3c0,0.1,0,0.3,0,0.4c0,0.4,0,0.7,0,1.1c0,0.2,0.1,0.3,0.3,0.3c0.2,0,0.4,0,0.6,0
		c0.1,0,0.2,0,0.3,0c0.2,0,0.4,0.3,0.4,0.5c0,0.2-0.2,0.4-0.4,0.5c-0.2,0-0.5,0-0.7,0c-0.1,0-0.2,0-0.3,0c0,0-0.1,0.1-0.1,0.1
		c0,0.1,0,0.1,0,0.2c0,0.8,0,1.7,0,2.5c0,0.2,0,0.4,0.1,0.6c0.1,0.4,0.4,0.6,0.8,0.7c0.1,0,0.3,0,0.4,0c0.3,0,0.5,0.3,0.5,0.6
		c0,0.3-0.2,0.6-0.4,0.6c-0.9,0.1-1.6,0-2.3-0.9c-0.2-0.4-0.4-0.8-0.4-1.2C65.1,16.4,65.1,15.9,65,15.4C65.1,15.4,65.1,15.4,65,15.4
		z"/>
	<path class="st3" d="M99.9,15.7c0-0.8,0-1.6,0-2.4c0-0.2,0-0.3,0-0.5c0-0.2,0.1-0.3,0.3-0.4c0.1,0,0.2-0.1,0.4,0
		c0.2,0,0.4,0.1,0.5,0.3c0,0.1,0,0.1,0.1,0.2c0,0.1,0.1,0.1,0.2,0.1c0.3-0.3,0.7-0.5,1.1-0.6c0.5-0.1,1.1-0.2,1.6,0
		c0.1,0,0.2,0.1,0.3,0.2c0.2,0.2,0.3,0.5,0.1,0.7c-0.1,0.1-0.2,0.2-0.3,0.2c-0.2,0-0.4,0-0.6-0.1c-0.4-0.1-0.8,0-1.2,0.1
		c-0.2,0.1-0.4,0.2-0.6,0.3c-0.3,0.2-0.5,0.6-0.5,1c0,0.2,0,0.3,0,0.5c0,0.9,0,1.8,0,2.8c0,0.2,0,0.3,0,0.5c0,0.2-0.2,0.4-0.5,0.5
		c-0.1,0-0.1,0-0.2,0c-0.2,0-0.4-0.2-0.4-0.4c0-0.2,0-0.3,0-0.5C99.9,17.3,99.9,16.5,99.9,15.7z"/>
	<path class="st3" d="M45.4,15.7c0-0.7,0-1.5,0-2.2c0-0.2,0-0.3,0-0.5c0-0.3,0.3-0.5,0.6-0.5c0.3,0,0.6,0.2,0.6,0.5
		c0,0.1,0,0.2,0,0.4c0,1.6,0,3.2,0,4.8c0,0.1,0,0.3,0,0.4c-0.1,0.3-0.3,0.5-0.7,0.5c-0.3,0-0.5-0.2-0.5-0.5c0-0.2,0-0.3,0-0.5
		C45.4,17.2,45.4,16.5,45.4,15.7z"/>
	<path class="st3" d="M46,11.3c-0.4,0-0.8-0.4-0.8-0.8c0-0.4,0.4-0.8,0.8-0.8c0.4,0,0.8,0.4,0.8,0.8C46.9,10.9,46.5,11.3,46,11.3z"
		/>
	<path class="st3" d="M145,10.9c0,0.6-0.5,1.2-1.2,1.2c-0.6,0-1.2-0.6-1.1-1.2c0-0.6,0.5-1.1,1.2-1.1C144.4,9.7,145,10.3,145,10.9z
		 M143.2,10.2c-0.1,0-0.2,0.1-0.2,0.1c-0.1,0.1-0.2,0.3-0.2,0.5c0,0.3,0,0.6,0.4,0.8c0,0,0,0.1,0.1,0.1c0.4,0.2,0.8,0.2,1.1-0.1
		c0.3-0.3,0.4-0.8,0.1-1.1c-0.1-0.1-0.1-0.1-0.2-0.2c0,0,0-0.1,0-0.1c-0.4-0.3-0.6-0.3-1-0.1C143.3,10.1,143.3,10.2,143.2,10.2z"/>
	<path class="st3" d="M143.2,10.2c0.1,0,0.3,0,0.4,0c0.2,0,0.4,0,0.6,0.2c0,0.1,0.1,0.3,0,0.4c-0.2,0.2-0.1,0.4,0,0.6c0,0,0,0,0,0.1
		c0,0-0.1,0-0.1,0c-0.1-0.1-0.3-0.2-0.4-0.3c0,0-0.2,0-0.2,0.1c0,0,0,0.1,0,0.1c0,0.2-0.2,0.2-0.3,0.2
		C143.3,11.1,143.2,10.7,143.2,10.2z M143.8,10.9C143.8,10.8,143.8,10.8,143.8,10.9c0.2,0,0.2-0.1,0.2-0.2c0,0,0-0.1-0.1-0.1
		c-0.1,0-0.2,0-0.3,0c0,0-0.1,0.2,0,0.2C143.7,10.8,143.7,10.8,143.8,10.9z"/>
</g>
</svg>
