<?xml version="1.0" encoding="utf-8"?>
<!-- Generator: Adobe Illustrator 24.0.2, SVG Export Plug-In . SVG Version: 6.00 Build 0)  -->
<svg version="1.1" xmlns="http://www.w3.org/2000/svg" xmlns:xlink="http://www.w3.org/1999/xlink" x="0px" y="0px"
	 viewBox="0 0 150 150" style="enable-background:new 0 0 150 150;" xml:space="preserve">
<style type="text/css">
	.st0{fill:#c89211;}
	.st1{display:none;}
	.st2{display:inline;}
	.st3{fill:#FFFFFF;}
</style>
<g id="Sky">
	<g>
		<path class="st0" d="M78.6,2.5C81,2.8,83.4,3,85.8,3.4c9.4,1.5,17.6,5.3,22.9,13.7c3.3,5.2,4.8,10.9,5.6,16.9c0,0.1,0,0.2,0,0.3
			c0.3,2.7,0.3,2.7,3,2.9c3,0.2,4.9,2.1,4.9,5.2c0,6.6,0,13.2,0,19.8c0,3.2-2,5.2-5.3,5.2c-1.2,0-2,0.3-2.8,1.2
			c-2.7,3.1-6.4,4.4-10.2,5.4c-6.6,1.6-13.2,1.8-20,1.8c-0.8,0-1.5,0.5-2.3,0.7c-0.9,0.3-1.7,0.8-2.6,0.9c-1.9,0.1-3.9,0.1-5.8,0
			c-2.4-0.1-4.2-1.8-4.2-4.1c0-2.3,1.7-4.1,4.1-4.1c1.9,0,3.9-0.2,5.8,0.1c1.1,0.1,2.2,0.9,3.2,1.4c0.4,0.2,0.8,0.7,1.3,0.7
			c6.7,0.1,13.4,0,19.9-1.8c1.9-0.5,3.7-1.3,5.6-2.2c-3.1-1.3-3.7-3.7-3.6-6.6c0.1-6,0.1-12,0-18c0-1.8,0.4-3.3,1.9-4.5
			c0.2-0.2,0.5-0.6,0.4-0.9c-0.6-5.2-1.6-10.4-4.1-15.1c-3.2-6-8.5-9.6-14.9-11.2c-9.1-2.2-18.2-2.2-27.3,0
			c-9.6,2.3-15.4,8.4-17.9,17.9c-0.7,2.5-1,5.2-1.4,7.8c-0.1,0.5,0.2,1.3,0.6,1.7c1,1,1.6,2.2,1.6,3.7c0,6.8,0,13.7,0,20.5
			c0,2.7-1.9,4.6-4.6,4.7c-2.4,0.1-4.9,0.1-7.4,0c-2.8-0.1-4.7-2.1-4.7-4.9c0-6.8-0.1-13.6,0-20.4c0-2.8,2-4.7,4.9-4.9
			c2.7-0.2,2.7-0.2,3-2.9c0.7-5.3,1.9-10.4,4.4-15.1C44.3,11,51.2,6.3,60,4.3c3.4-0.8,6.9-1.1,10.3-1.6c0.3,0,0.6-0.1,1-0.2
			C73.7,2.5,76.2,2.5,78.6,2.5z"/>
		<path class="st0" d="M75.1,102.5c1.2-3.2,2.4-6.3,3.6-9.5c0.5-1.5,1.4-2.4,2.9-2.7c3.6-0.8,6.8-2.4,9.7-4.7
			c1.5-1.2,2.8-1.1,4.4-0.2c7.9,4.5,15.9,8.9,23.9,13.3c4.2,2.3,6.7,5.8,8.6,10c2.6,5.8,4,12,5.1,18.2c0.3,1.5-0.3,2.8-1.2,3.9
			c-2.5,3.5-5.9,6-9.6,7.9c-7.8,4.2-16.3,6.2-25,7.4c-10.9,1.5-21.9,1.8-32.9,1.2c-10-0.5-19.9-1.8-29.4-5.1
			c-6-2.1-11.6-4.9-16.1-9.7c-2-2.2-2.9-4.5-2.1-7.6c1.4-6.1,2.9-12.2,5.7-17.9c1.7-3.4,3.9-6.2,7.3-8c8.3-4.6,16.6-9.3,25-13.9
			c1.1-0.6,2.1-0.5,3,0.2c3.3,2.5,6.9,4.3,10.9,5.3c1.2,0.3,1.8,1,2.2,2.1c1.2,3.3,2.5,6.6,3.8,9.9C74.9,102.5,75,102.5,75.1,102.5z
			 M109.5,111.9c-6.7,0-13.4,0-20,0c0,1.4,0,2.8,0,4c6.7,0,13.4,0,20,0C109.5,114.5,109.5,113.2,109.5,111.9z"/>
		<path class="st0" d="M102,65.8c-5.5,1.3-11.1,1.5-16.7,1.5c-0.3,0-0.6-0.2-0.9-0.3c-0.2-0.1-0.3-0.2-0.4-0.3
			c-3.1-2.3-12.2-2.3-15.3-0.1c-2.6,1.9-3.9,5.3-3.2,8.4c0.8,3.3,3.5,5.8,6.8,6.1c2.6,0.2,5.3,0.1,7.9,0c0.6,0,1.3-0.1,1.8-0.5
			c2-1.3,4.2-1.2,6.4-1.2c1.7,0,3.5,0,5.4,0c-0.4,0.4-0.8,0.7-1.2,1.1c-4.4,3.6-9.3,6.2-15,7.3c-3.2,0.6-6.2,0-9.2-1.1
			c-9.3-3.5-16.3-9.7-20.7-18.6c-0.3-0.6-0.1-1.4,0-2.1c0.2-1.3,0.7-2.6,0.7-3.8c0.1-6.7,0-13.3,0-20c0-2-0.5-3.8-1.7-5.4
			c-0.2-0.3-0.5-0.8-0.4-1.1c0.7-5.3,1.9-10.4,5.4-14.6c3.5-4.2,8.3-6,13.4-6.9C72,13,79,13,85.9,14.4c8.8,1.7,14.4,6.7,16.5,15.6
			c0.2,1,0.5,2,0.7,3c0.4,1.8,0.6,3.5-0.6,5.2c-0.7,1.1-0.9,2.7-0.9,4c-0.1,6.7-0.1,13.3,0,20C101.6,63.4,101.8,64.5,102,65.8z"/>
	</g>
</g>
<g id="White" class="st1">
	<g class="st2">
		<path class="st3" d="M78.6,2.5C81,2.8,83.4,3,85.8,3.4c9.4,1.5,17.6,5.3,22.9,13.7c3.3,5.2,4.8,10.9,5.6,16.9c0,0.1,0,0.2,0,0.3
			c0.3,2.7,0.3,2.7,3,2.9c3,0.2,4.9,2.1,4.9,5.2c0,6.6,0,13.2,0,19.8c0,3.2-2,5.2-5.3,5.2c-1.2,0-2,0.3-2.8,1.2
			c-2.7,3.1-6.4,4.4-10.2,5.4c-6.6,1.6-13.2,1.8-20,1.8c-0.8,0-1.5,0.5-2.3,0.7c-0.9,0.3-1.7,0.8-2.6,0.9c-1.9,0.1-3.9,0.1-5.8,0
			c-2.4-0.1-4.2-1.8-4.2-4.1c0-2.3,1.7-4.1,4.1-4.1c1.9,0,3.9-0.2,5.8,0.1c1.1,0.1,2.2,0.9,3.2,1.4c0.4,0.2,0.8,0.7,1.3,0.7
			c6.7,0.1,13.4,0,19.9-1.8c1.9-0.5,3.7-1.3,5.6-2.2c-3.1-1.3-3.7-3.7-3.6-6.6c0.1-6,0.1-12,0-18c0-1.8,0.4-3.3,1.9-4.5
			c0.2-0.2,0.5-0.6,0.4-0.9c-0.6-5.2-1.6-10.4-4.1-15.1c-3.2-6-8.5-9.6-14.9-11.2c-9.1-2.2-18.2-2.2-27.3,0
			c-9.6,2.3-15.4,8.4-17.9,17.9c-0.7,2.5-1,5.2-1.4,7.8c-0.1,0.5,0.2,1.3,0.6,1.7c1,1,1.6,2.2,1.6,3.7c0,6.8,0,13.7,0,20.5
			c0,2.7-1.9,4.6-4.6,4.7c-2.4,0.1-4.9,0.1-7.4,0c-2.8-0.1-4.7-2.1-4.7-4.9c0-6.8-0.1-13.6,0-20.4c0-2.8,2-4.7,4.9-4.9
			c2.7-0.2,2.7-0.2,3-2.9c0.7-5.3,1.9-10.4,4.4-15.1C44.3,11,51.2,6.3,60,4.3c3.4-0.8,6.9-1.1,10.3-1.6c0.3,0,0.6-0.1,1-0.2
			C73.7,2.5,76.2,2.5,78.6,2.5z"/>
		<path class="st3" d="M75.1,102.5c1.2-3.2,2.4-6.3,3.6-9.5c0.5-1.5,1.4-2.4,2.9-2.7c3.6-0.8,6.8-2.4,9.7-4.7
			c1.5-1.2,2.8-1.1,4.4-0.2c7.9,4.5,15.9,8.9,23.9,13.3c4.2,2.3,6.7,5.8,8.6,10c2.6,5.8,4,12,5.1,18.2c0.3,1.5-0.3,2.8-1.2,3.9
			c-2.5,3.5-5.9,6-9.6,7.9c-7.8,4.2-16.3,6.2-25,7.4c-10.9,1.5-21.9,1.8-32.9,1.2c-10-0.5-19.9-1.8-29.4-5.1
			c-6-2.1-11.6-4.9-16.1-9.7c-2-2.2-2.9-4.5-2.1-7.6c1.4-6.1,2.9-12.2,5.7-17.9c1.7-3.4,3.9-6.2,7.3-8c8.3-4.6,16.6-9.3,25-13.9
			c1.1-0.6,2.1-0.5,3,0.2c3.3,2.5,6.9,4.3,10.9,5.3c1.2,0.3,1.8,1,2.2,2.1c1.2,3.3,2.5,6.6,3.8,9.9C74.9,102.5,75,102.5,75.1,102.5z
			 M109.5,111.9c-6.7,0-13.4,0-20,0c0,1.4,0,2.8,0,4c6.7,0,13.4,0,20,0C109.5,114.5,109.5,113.2,109.5,111.9z"/>
		<path class="st3" d="M102,65.8c-5.5,1.3-11.1,1.5-16.7,1.5c-0.3,0-0.6-0.2-0.9-0.3c-0.2-0.1-0.3-0.2-0.4-0.3
			c-3.1-2.3-12.2-2.3-15.3-0.1c-2.6,1.9-3.9,5.3-3.2,8.4c0.8,3.3,3.5,5.8,6.8,6.1c2.6,0.2,5.3,0.1,7.9,0c0.6,0,1.3-0.1,1.8-0.5
			c2-1.3,4.2-1.2,6.4-1.2c1.7,0,3.5,0,5.4,0c-0.4,0.4-0.8,0.7-1.2,1.1c-4.4,3.6-9.3,6.2-15,7.3c-3.2,0.6-6.2,0-9.2-1.1
			c-9.3-3.5-16.3-9.7-20.7-18.6c-0.3-0.6-0.1-1.4,0-2.1c0.2-1.3,0.7-2.6,0.7-3.8c0.1-6.7,0-13.3,0-20c0-2-0.5-3.8-1.7-5.4
			c-0.2-0.3-0.5-0.8-0.4-1.1c0.7-5.3,1.9-10.4,5.4-14.6c3.5-4.2,8.3-6,13.4-6.9C72,13,79,13,85.9,14.4c8.8,1.7,14.4,6.7,16.5,15.6
			c0.2,1,0.5,2,0.7,3c0.4,1.8,0.6,3.5-0.6,5.2c-0.7,1.1-0.9,2.7-0.9,4c-0.1,6.7-0.1,13.3,0,20C101.6,63.4,101.8,64.5,102,65.8z"/>
	</g>
</g>
</svg>
