<?xml version="1.0" encoding="utf-8"?>
<!-- Generator: Adobe Illustrator 24.0.2, SVG Export Plug-In . SVG Version: 6.00 Build 0)  -->
<svg version="1.1" id="Capa_1" xmlns="http://www.w3.org/2000/svg" xmlns:xlink="http://www.w3.org/1999/xlink" x="0px" y="0px"
	 viewBox="0 0 24 24" style="enable-background:new 0 0 24 24;" xml:space="preserve">
<style type="text/css">
	.st0{fill:#007BFF;}
</style>
<g>
	<path class="st0" d="M0,12c0.2-0.2,0.3-0.4,0.5-0.6c2-2.3,4.3-4,7.2-5.1c2.4-0.9,4.8-1,7.2-0.4c1.6,0.4,3,1.1,4.4,1.9
		c1.6,1,3,2.2,4.2,3.6c0.2,0.2,0.3,0.4,0.5,0.6c-0.6,0.6-1.1,1.3-1.7,1.9c-1.4,1.3-2.9,2.4-4.6,3.2c-2.8,1.3-5.6,1.8-8.6,1
		c-1.6-0.4-3-1.1-4.4-1.9c-1.6-1-3-2.2-4.2-3.6C0.3,12.4,0.2,12.2,0,12C0,12,0,12,0,12z M7.6,10.9c-0.6,2.6,1,4.7,2.8,5.4
		c2,0.7,4.2,0,5.4-1.7c1.2-1.8,1-4.1-0.5-5.7c-0.7-0.8-1.7-1.2-2.8-1.4c-1.4-0.2-2.6,0.3-3.6,1.2C8.7,8.5,8.5,8.3,8.4,8.1
		C8.2,7.9,8.1,7.9,7.9,8C6.1,8.7,4.5,9.8,3,11.2c-0.3,0.3-0.6,0.6-0.9,0.8c1.7,1.8,3.6,3.2,5.9,4.1c-1.5-1.5-2-3.3-1.6-5.4
		C6.9,10.8,7.2,10.8,7.6,10.9z M21.8,12c-1.1-1.4-4.5-3.8-5.9-4.1c1.1,1.1,1.7,2.5,1.7,4.1c0,1.6-0.6,2.9-1.7,4
		C18.2,15.2,20.1,13.8,21.8,12z"/>
	<path class="st0" d="M9.1,11.1c0.7,0.1,1.5,0.2,2.3,0.4c-0.5-0.6-1-1.1-1.5-1.7c0.8-0.9,2.5-1.2,3.8-0.3c1.3,0.9,1.7,2.6,0.9,4
		c-0.8,1.4-2.5,1.9-3.9,1.3C9.4,14.1,8.6,12.5,9.1,11.1z"/>
</g>
</svg>
