<?xml version="1.0" encoding="utf-8"?>
<!-- Generator: Adobe Illustrator 24.0.2, SVG Export Plug-In . SVG Version: 6.00 Build 0)  -->
<svg version="1.1" id="Capa_1" xmlns="http://www.w3.org/2000/svg" xmlns:xlink="http://www.w3.org/1999/xlink" x="0px" y="0px"
	 viewBox="0 0 150 150" style="enable-background:new 0 0 150 150;" xml:space="preserve">
<style type="text/css">
	.st0{display:none;}
	.st1{display:inline;}
	.st2{fill:#FFFFFF;}
	.st3{fill:#c89211;}
</style>
<g id="White" class="st0">
	<g class="st1">
		<g>
			<path class="st2" d="M68.6,149c-2.6-0.2-5.3-0.4-7.9-0.6c-10.8-0.9-21.4-2.7-31.2-7.5c-3.7-1.8-7.2-4-9.8-7.4
				c-0.5-0.7-0.9-1.6-0.9-2.4c0.1-8.5,0.2-17.1,1.6-25.5c1.1-6.2,3-12.1,7.5-16.9c3.1-3.3,7-5.6,11.2-7.3c6.1-2.5,12.5-3.9,18.9-5.1
				c0.4-0.1,1,0.1,1.3,0.4c3.7,3.5,8.2,5,13.2,5.4s9.8-0.2,14.3-2.6c1.4-0.8,2.6-1.9,4-2.8c0.4-0.3,0.9-0.5,1.3-0.4
				c6.6,1.2,13.1,2.6,19.3,5.3c6,2.5,11,6.1,14.3,11.9c2.4,4.3,3.8,8.9,4.2,13.7c0.7,7.9,1,15.8,1.4,23.8c0,0.9-0.4,1.9-0.9,2.6
				c-3.4,4.3-8.1,6.8-13,8.8c-9.1,3.7-18.7,5.3-28.4,6.1c-2.4,0.2-4.9,0.4-7.3,0.6C77.3,149,73,149,68.6,149z"/>
			<path class="st2" d="M45.3,34.5c0.1-5.5,0.6-11,2.3-16.4c3.1-9.8,10-15,20.1-16.5C73.8,0.7,80,0.8,86,2.3c8,2.1,13.6,7,16.1,14.9
				c3.4,10.9,4,22.1,0.6,33.1c-2.9,9.3-8.4,16.8-17.6,20.8C76.4,75,68,73.9,60.3,68.6C52.4,63.1,48,55.3,46.2,46
				c-0.8-3.7-0.9-7.6-1.3-11.4C45,34.6,45.2,34.6,45.3,34.5z"/>
		</g>
	</g>
</g>
<g>
	<path class="st3" d="M27.3,1c19,0,38,0,57,0c0,12,0,24.1,0,36.1c0,6.3,3.8,10.1,10.2,10.1c11.5,0,22.9,0,34.4,0c0.5,0,1,0,1.7,0
		c0,0.7,0,1.3,0,1.9c0,13.1,0,26.1,0,39.2c0,17,0,34,0,51c0,4.9-2.6,8.2-7.3,9.5c-0.2,0-0.3,0.2-0.5,0.2c-31.8,0-63.6,0-95.4,0
		c-6.1-2.2-7.8-4.6-7.8-11.2c0-34.2,0-68.3,0-102.5c0-8.3,0-16.7,0-25c0-2.9,1-5.4,3.3-7.2C24.1,2.2,25.8,1.7,27.3,1z M61.1,84
		c2.2-1,4.4-1.8,6.3-3c8-5,10-14.8,4.4-22c-3.7-4.7-8.7-6.8-14.6-7.2c-2-0.1-4-0.5-5.9-1.2c-2.4-1-4.1-2.8-4.1-5.6
		c0-2.8,1.7-4.5,4-5.7c0.5-0.3,1-0.5,1.6-0.7c3.7-1.1,7.2-0.7,10.4,1.7c2.2,1.6,5,1.1,6.5-1c1.5-2.1,1.1-4.8-1-6.4
		c-0.9-0.7-1.9-1.3-2.9-1.8c-1.5-0.7-3.1-1.3-4.7-1.9c0-1.6,0-3.2,0-4.7c0-2.8-2-4.9-4.6-4.9c-2.6,0-4.6,2-4.6,4.9
		c0,1.6,0,3.3,0,4.7c-1.9,0.8-3.7,1.4-5.3,2.3c-8.1,4.5-11,13.6-6.5,21c3,4.9,7.6,7.5,13.2,8.5c2.5,0.4,5.1,0.5,7.5,1.2
		c2.8,0.8,4.8,2.8,4.9,5.9c0.1,2.5-1.8,5-4.9,6.2c-3.9,1.5-7.5,1.1-11-1.3c-2.9-2.1-6.5-0.8-7.4,2.4c-0.5,2,0.1,3.8,1.8,4.8
		c2.4,1.5,4.9,2.7,7.6,4.1c0,1.2,0,2.8,0,4.4c0,2.8,2,4.9,4.6,4.9c2.6,0,4.6-2,4.7-4.9C61.1,87,61.1,85.4,61.1,84z M75.1,102.8
		c-5.7,0-11.4,0-17.1,0c-5.2,0-10.3,0-15.5,0c-2.4,0-4.4,1.8-4.6,4.1c-0.2,2.3,1.3,4.4,3.5,5c0.6,0.2,1.3,0.1,2,0.1c16,0,32,0,48,0
		c5.2,0,10.4,0,15.6,0c2.1,0,3.8-1.1,4.5-3c1.2-3.1-1.1-6.3-4.6-6.3C96.4,102.8,85.8,102.8,75.1,102.8z M75.1,121.3
		c-5.6,0-11.2,0-16.8,0c-5.3,0-10.5,0-15.8,0c-2.4,0-4.4,1.8-4.6,4.1c-0.2,2.3,1.3,4.4,3.5,5c0.6,0.2,1.3,0.1,2,0.1
		c21,0,41.9,0,62.9,0c0.4,0,0.9,0,1.3,0c1.9-0.2,3.3-1.2,4-3.1c1.1-3.1-1.2-6.1-4.6-6.1C96.5,121.3,85.8,121.3,75.1,121.3z
		 M98.2,65.7c-2.9,0-5.9,0-8.8,0c-3.1,0-5.1,1.9-5.1,4.7c0,2.7,2.1,4.6,5.1,4.6c5.9,0,11.8,0,17.6,0c2.9,0,5-1.9,5.1-4.6
		c0-2.7-2.1-4.6-5-4.7C104.1,65.7,101.1,65.7,98.2,65.7z M98.2,84.3c-2.9,0-5.9,0-8.8,0c-3.1,0-5.1,1.9-5.1,4.7
		c0,2.7,2.1,4.6,5.1,4.6c5.9,0,11.8,0,17.6,0c3,0,5-1.9,5.1-4.6c0-2.7-2.1-4.6-5.1-4.7C104,84.2,101.1,84.3,98.2,84.3z"/>
	<path class="st3" d="M93.8,1c0.3,0.4,0.6,0.8,0.9,1.2c11.5,11.5,23,23,34.4,34.5c0.4,0.4,0.7,0.7,1.2,1.3c-12.4,0-24.5,0-36.9,0
		c0-12.3,0-24.6,0-36.9C93.6,1,93.7,1,93.8,1z"/>
</g>
</svg>
