<?xml version="1.0" encoding="utf-8"?>
<!-- Generator: Adobe Illustrator 24.0.2, SVG Export Plug-In . SVG Version: 6.00 Build 0)  -->
<svg version="1.1" xmlns="http://www.w3.org/2000/svg" xmlns:xlink="http://www.w3.org/1999/xlink" x="0px" y="0px"
	 viewBox="0 0 150 150" style="enable-background:new 0 0 150 150;" xml:space="preserve">
<style type="text/css">
	.st0{fill:#c89211;}
	.st1{display:none;}
	.st2{display:inline;}
	.st3{fill:#FFFFFF;}
	.st4{display:inline;fill:#FFFFFF;}
</style>
<g id="Sky">
	<g>
		<path class="st0" d="M6.8,84.1c0.6-1.9,0.9-4,1.8-5.8c3.3-7,8.8-11,16.6-11.5c3.9-0.3,7.8,0,11.8,0c-0.1,0.4-0.2,0.7-0.2,1
			c-0.4,3-1.2,5.9-1.3,8.9c-0.1,12.8-0.1,51.6,0,64.4c0,1.5,0.3,3.1,0.5,4.7c-1.5,0-3.1,0-4.6,0c-3.9,0-7.8-0.1-11.7,0
			C13.1,146,7.8,141.7,7,135.6c0-0.1-0.1-0.1-0.1-0.2C6.8,126.9,6.8,92.5,6.8,84.1z"/>
		<path class="st0" d="M74.8,145.8c-9,0-17.9,0-26.9,0c-3.3,0-4.7-1.4-4.7-4.7c0-12.9,0-51.8,0-64.7c0-9.7,6.1-17.3,15.4-19.5
			c1.4-0.3,2.9-0.4,4.3-0.5c7.9,0,15.9-0.1,23.8,0c9.5,0.1,17.1,6.2,19.3,15.4c0.4,1.5,0.5,3.2,0.5,4.7c0,12.9,0,51.8,0,64.7
			c0,3.1-1.5,4.5-4.6,4.6C93,145.8,83.9,145.8,74.8,145.8z"/>
		<path class="st0" d="M75,51.5c-13,0-23.7-10.7-23.7-23.8C51.3,14.8,62,4.2,75,4.2c13,0,23.6,10.7,23.6,23.5
			C98.6,40.8,88,51.5,75,51.5z"/>
		<path class="st0" d="M114.3,145.7c0.1-3,0.3-5.8,0.3-8.7c0-11,0-47.9,0-58.9c0-3.7-0.3-7.4-1.5-10.9c-0.1-0.2,0-0.3-0.1-0.6
			c0.4,0,0.8-0.1,1.2-0.1c3.6,0,7.2-0.1,10.8,0.1c10.1,0.7,17.9,9,18.1,19.1c0.1,7.4,0.1,40.7,0,48.1c-0.1,6.4-4.6,11.4-10.8,11.7
			C126.3,145.9,120.2,145.7,114.3,145.7z"/>
		<path class="st0" d="M15.7,44c-0.1-9.7,7.9-17.7,17.7-17.7c9.7,0,17.6,7.8,17.7,17.5c0.1,9.8-7.9,17.8-17.6,17.9
			C23.8,61.7,15.8,53.7,15.7,44z"/>
		<path class="st0" d="M134.2,43.9c0,9.7-7.9,17.7-17.7,17.7c-9.6,0.1-17.6-7.9-17.7-17.7c-0.1-9.7,7.9-17.7,17.6-17.7
			C126.3,26.3,134.2,34.1,134.2,43.9z"/>
	</g>
</g>
<g id="White" class="st1">
	<g class="st2">
		<path class="st3" d="M6.8,84.1c0.6-1.9,0.9-4,1.8-5.8c3.3-7,8.8-11,16.6-11.5c3.9-0.3,7.8,0,11.8,0c-0.1,0.4-0.2,0.7-0.2,1
			c-0.4,3-1.2,5.9-1.3,8.9c-0.1,12.8-0.1,51.6,0,64.4c0,1.5,0.3,3.1,0.5,4.7c-1.5,0-3.1,0-4.6,0c-3.9,0-7.8-0.1-11.7,0
			C13.1,146,7.8,141.7,7,135.6c0-0.1-0.1-0.1-0.1-0.2C6.8,126.9,6.8,92.5,6.8,84.1z"/>
		<path class="st3" d="M74.8,145.8c-9,0-17.9,0-26.9,0c-3.3,0-4.7-1.4-4.7-4.7c0-12.9,0-51.8,0-64.7c0-9.7,6.1-17.3,15.4-19.5
			c1.4-0.3,2.9-0.4,4.3-0.5c7.9,0,15.9-0.1,23.8,0c9.5,0.1,17.1,6.2,19.3,15.4c0.4,1.5,0.5,3.2,0.5,4.7c0,12.9,0,51.8,0,64.7
			c0,3.1-1.5,4.5-4.6,4.6C93,145.8,83.9,145.8,74.8,145.8z"/>
		<path class="st3" d="M75,51.5c-13,0-23.7-10.7-23.7-23.8C51.3,14.8,62,4.2,75,4.2c13,0,23.6,10.7,23.6,23.5
			C98.6,40.8,88,51.5,75,51.5z"/>
		<path class="st3" d="M114.3,145.7c0.1-3,0.3-5.8,0.3-8.7c0-11,0-47.9,0-58.9c0-3.7-0.3-7.4-1.5-10.9c-0.1-0.2,0-0.3-0.1-0.6
			c0.4,0,0.8-0.1,1.2-0.1c3.6,0,7.2-0.1,10.8,0.1c10.1,0.7,17.9,9,18.1,19.1c0.1,7.4,0.1,40.7,0,48.1c-0.1,6.4-4.6,11.4-10.8,11.7
			C126.3,145.9,120.2,145.7,114.3,145.7z"/>
		<path class="st3" d="M15.7,44c-0.1-9.7,7.9-17.7,17.7-17.7c9.7,0,17.6,7.8,17.7,17.5c0.1,9.8-7.9,17.8-17.6,17.9
			C23.8,61.7,15.8,53.7,15.7,44z"/>
		<path class="st3" d="M134.2,43.9c0,9.7-7.9,17.7-17.7,17.7c-9.6,0.1-17.6-7.9-17.7-17.7c-0.1-9.7,7.9-17.7,17.6-17.7
			C126.3,26.3,134.2,34.1,134.2,43.9z"/>
	</g>
</g>
</svg>
