<?xml version="1.0" encoding="utf-8"?>
<!-- Generator: Adobe Illustrator 24.0.2, SVG Export Plug-In . SVG Version: 6.00 Build 0)  -->
<svg version="1.1" xmlns="http://www.w3.org/2000/svg" xmlns:xlink="http://www.w3.org/1999/xlink" x="0px" y="0px"
	 viewBox="0 0 150 150" style="enable-background:new 0 0 150 150;" xml:space="preserve">
<style type="text/css">
	.st0{fill:#c89211;}
	.st1{display:none;}
	.st2{display:inline;}
	.st3{fill:#FFFFFF;}
</style>
<g id="Sky">
	<g>
		<path class="st0" d="M26.7,147.5c-0.4-0.1-0.8-0.3-1.2-0.4c-3.9-1.3-6.4-5.2-5.8-9.1c0.6-4.2,4.1-7.4,8.3-7.4c9.4,0,18.8,0,28.2,0
			c26.9,0,53.8,0,80.7,0c0.6,0,1.1,0,1.9,0c0,0.5,0,0.9,0,1.4c0,3.3-0.1,6.6,0,9.9c0.1,2.6-0.7,4.6-3.2,5.7
			C99.4,147.5,63.1,147.5,26.7,147.5z"/>
		<path class="st0" d="M138.8,121.9c-12.9,0-25.5,0-38.3,0c0-1.6,0-3.1,0-4.6c0-4.2,0.1-8.3,0-12.5c-0.1-4.6,1.6-8.2,5.1-11.2
			c8.2-7.2,12.4-16.3,11.9-27.2c-0.6-13.3-7.2-23.1-19.1-29.2c-3.3-1.7-6.4,0.4-6.4,4.1c0,5.3,0,10.7,0,16c0,0.9-0.3,1.5-0.9,2.2
			c-1.5,1.8-3.2,2.6-5.5,2.3c-1.6-0.2-3.3-0.2-5,0c-1.8,0.2-3.1-0.4-4.3-1.8c-1-1-1.5-2-1.4-3.4c0.1-5,0-10.1,0-15.1
			c0-4-3.1-5.9-6.8-4.1c-21.4,10.6-25.3,40-7.4,55.7c3.9,3.4,5.8,7.3,5.6,12.5c-0.2,5,0,10,0,15c0,0.4,0,0.7,0,1.2
			c-9.9,0-19.8,0-29.7,0c0-39.7,0-79.5,0-119.4c0.5,0,1,0,1.5,0c31.8,0,63.7,0,95.5,0c3.5,0,5.1,1.6,5.1,5.1c0,37.6,0,75.2,0,112.8
			C138.8,120.9,138.8,121.4,138.8,121.9z M83.5,19.8c-8.4,0-16.7,0-25.1,0c-2.1,0-3.7,1-4.4,2.7c-1.1,2.9,1,5.8,4.4,5.8
			c10.9,0,21.7,0,32.6,0c5.9,0,11.8,0,17.7,0c1.9,0,3.3-0.7,4.2-2.4c1.5-2.9-0.7-6.1-4.1-6.1C100.3,19.8,91.9,19.8,83.5,19.8z"/>
		<path class="st0" d="M28.1,2.5c0,39.9,0,79.6,0,119.4c-8.8,0.7-14.4,5.3-16.9,13.8c0-0.5-0.1-0.9-0.1-1.4c0-39.5,0-78.9,0-118.4
			c0-7.9,5.5-13.4,13.5-13.5C25.7,2.5,26.8,2.5,28.1,2.5z"/>
		<path class="st0" d="M92,121.9c-5.7,0-11.3,0-17,0c0-0.5,0-1,0-1.5c0-5.1-0.1-10.3,0-15.4c0.1-7.2-2.6-13.1-8.1-17.8
			C60.8,82,57.8,75.2,58,67.1c0.2-6.7,2.8-12.5,7.6-17.3c0.2-0.2,0.5-0.4,0.9-0.8c0,3.6,0.1,7,0,10.4c-0.1,2,0.5,3.6,2,4.9
			c1.6,1.5,3.1,3,4.6,4.6c1.1,1.1,2.3,1.6,3.8,1.6c4.4,0,8.8,0,13.2,0c1.5,0,2.8-0.5,3.8-1.5c1.7-1.7,3.4-3.4,5.1-5.1
			c1.1-1.1,1.5-2.3,1.5-3.8c0-3.6,0-7.2,0-11c0.5,0.4,0.8,0.6,1.1,0.9c10.4,10.5,9.8,27.6-1.4,37.2c-5.6,4.8-8.4,10.7-8.3,18.1
			C92.1,110.7,92,116.3,92,121.9z"/>
	</g>
</g>
<g id="White" class="st1">
	<g class="st2">
		<path class="st3" d="M26.7,147.5c-0.4-0.1-0.8-0.3-1.2-0.4c-3.9-1.3-6.4-5.2-5.8-9.1c0.6-4.2,4.1-7.4,8.3-7.4c9.4,0,18.8,0,28.2,0
			c26.9,0,53.8,0,80.7,0c0.6,0,1.1,0,1.9,0c0,0.5,0,0.9,0,1.4c0,3.3-0.1,6.6,0,9.9c0.1,2.6-0.7,4.6-3.2,5.7
			C99.4,147.5,63.1,147.5,26.7,147.5z"/>
		<path class="st3" d="M138.8,121.9c-12.9,0-25.5,0-38.3,0c0-1.6,0-3.1,0-4.6c0-4.2,0.1-8.3,0-12.5c-0.1-4.6,1.6-8.2,5.1-11.2
			c8.2-7.2,12.4-16.3,11.9-27.2c-0.6-13.3-7.2-23.1-19.1-29.2c-3.3-1.7-6.4,0.4-6.4,4.1c0,5.3,0,10.7,0,16c0,0.9-0.3,1.5-0.9,2.2
			c-1.5,1.8-3.2,2.6-5.5,2.3c-1.6-0.2-3.3-0.2-5,0c-1.8,0.2-3.1-0.4-4.3-1.8c-1-1-1.5-2-1.4-3.4c0.1-5,0-10.1,0-15.1
			c0-4-3.1-5.9-6.8-4.1c-21.4,10.6-25.3,40-7.4,55.7c3.9,3.4,5.8,7.3,5.6,12.5c-0.2,5,0,10,0,15c0,0.4,0,0.7,0,1.2
			c-9.9,0-19.8,0-29.7,0c0-39.7,0-79.5,0-119.4c0.5,0,1,0,1.5,0c31.8,0,63.7,0,95.5,0c3.5,0,5.1,1.6,5.1,5.1c0,37.6,0,75.2,0,112.8
			C138.8,120.9,138.8,121.4,138.8,121.9z M83.5,19.8c-8.4,0-16.7,0-25.1,0c-2.1,0-3.7,1-4.4,2.7c-1.1,2.9,1,5.8,4.4,5.8
			c10.9,0,21.7,0,32.6,0c5.9,0,11.8,0,17.7,0c1.9,0,3.3-0.7,4.2-2.4c1.5-2.9-0.7-6.1-4.1-6.1C100.3,19.8,91.9,19.8,83.5,19.8z"/>
		<path class="st3" d="M28.1,2.5c0,39.9,0,79.6,0,119.4c-8.8,0.7-14.4,5.3-16.9,13.8c0-0.5-0.1-0.9-0.1-1.4c0-39.5,0-78.9,0-118.4
			c0-7.9,5.5-13.4,13.5-13.5C25.7,2.5,26.8,2.5,28.1,2.5z"/>
		<path class="st3" d="M92,121.9c-5.7,0-11.3,0-17,0c0-0.5,0-1,0-1.5c0-5.1-0.1-10.3,0-15.4c0.1-7.2-2.6-13.1-8.1-17.8
			C60.8,82,57.8,75.2,58,67.1c0.2-6.7,2.8-12.5,7.6-17.3c0.2-0.2,0.5-0.4,0.9-0.8c0,3.6,0.1,7,0,10.4c-0.1,2,0.5,3.6,2,4.9
			c1.6,1.5,3.1,3,4.6,4.6c1.1,1.1,2.3,1.6,3.8,1.6c4.4,0,8.8,0,13.2,0c1.5,0,2.8-0.5,3.8-1.5c1.7-1.7,3.4-3.4,5.1-5.1
			c1.1-1.1,1.5-2.3,1.5-3.8c0-3.6,0-7.2,0-11c0.5,0.4,0.8,0.6,1.1,0.9c10.4,10.5,9.8,27.6-1.4,37.2c-5.6,4.8-8.4,10.7-8.3,18.1
			C92.1,110.7,92,116.3,92,121.9z"/>
	</g>
</g>
</svg>
