<?xml version="1.0" encoding="utf-8"?>
<!-- Generator: Adobe Illustrator 24.0.2, SVG Export Plug-In . SVG Version: 6.00 Build 0)  -->
<svg version="1.1" xmlns="http://www.w3.org/2000/svg" xmlns:xlink="http://www.w3.org/1999/xlink" x="0px" y="0px"
	 viewBox="0 0 150 150" style="enable-background:new 0 0 150 150;" xml:space="preserve">
<style type="text/css">
	.st0{fill:#c89211;}
	.st1{display:none;}
	.st2{display:inline;}
	.st3{fill:#FFFFFF;}
</style>
<g id="Sky">
	<g>
		<g>
			<path class="st0" d="M79.1,5c2.7,0.4,5.4,0.6,8.1,1.1c12.9,2.3,24.3,7.9,34.2,16.4c-7.8,7.8-15.5,15.5-23.2,23.2
				c-15.3-10.7-30.8-10.7-46.2,0c-7.7-7.7-15.4-15.4-23.2-23.2c5.5-4.9,11.7-8.8,18.6-11.8c7.2-3.1,14.7-5,22.6-5.5
				c0.4,0,0.7-0.1,1.1-0.2C73.6,5,76.4,5,79.1,5z"/>
			<path class="st0" d="M5,70.9c0.4-2.7,0.6-5.4,1.1-8.1c2.3-12.9,7.8-24.3,16.4-34.1C30.3,36.5,38,44.2,45.8,52
				C35.1,65.5,35.1,84.5,46,98.3c-7.7,7.8-15.4,15.5-23.2,23.3C15.2,113,9.9,103.3,7.2,92.4c-1-3.9-1.4-8-2-12
				C5.2,80,5.1,79.5,5,79.1C5,76.4,5,73.6,5,70.9z"/>
			<path class="st0" d="M31.8,5c1.7,0.4,3.5,0.8,5.3,1.3c-3.5,2.4-6.8,4.9-10.2,7.1c-1,0.7-2.4,0.8-3.6,1.3c-4.9,2.1-8,5.8-9.5,11
				c-0.1,0.4-0.2,0.9-0.4,1.3c-2.3,3.4-4.7,6.7-7.1,10.2c-0.4-1.8-0.8-3.5-1.3-5.3c0-1.5,0-3.1,0-4.6c0.1-0.4,0.2-0.9,0.3-1.3
				c1.5-8.3,6-14.6,13.6-18.3c2.6-1.2,5.5-1.7,8.3-2.6C28.7,5,30.2,5,31.8,5z"/>
			<path class="st0" d="M122.8,5c2.9,0.9,5.9,1.5,8.6,2.8c10.3,4.9,15.7,17.1,12.6,28c-0.1,0.4-0.3,0.8-0.4,1.2
				c-2.4-3.4-4.8-6.7-7-10.1c-0.7-1-0.8-2.4-1.3-3.6c-2.1-4.9-5.8-8-11-9.5c-0.4-0.1-0.9-0.2-1.3-0.4c-3.4-2.3-6.7-4.7-10.2-7.1
				c1.8-0.4,3.5-0.8,5.3-1.3C119.7,5,121.3,5,122.8,5z"/>
			<path class="st0" d="M5,118.2c0.4-1.7,0.8-3.5,1.3-5.3c2.4,3.5,4.9,6.8,7.1,10.2c0.7,1,0.8,2.4,1.3,3.6c2.1,4.9,5.8,8,11,9.5
				c0.4,0.1,0.9,0.2,1.3,0.4c3.4,2.3,6.7,4.7,10.1,7c-3.2,1.1-6.6,1.5-10,1.2c-11.4-1.2-20.3-10.2-21.7-21.2c0-0.3-0.2-0.5-0.2-0.8
				C5,121.3,5,119.8,5,118.2z"/>
			<path class="st0" d="M104.1,51.9c7.8-7.8,15.5-15.5,23.2-23.2c22.6,24.7,24.4,65.4,0.1,92.6c-7.8-7.8-15.5-15.5-23.3-23.3
				C115,84.1,114.7,65.5,104.1,51.9z"/>
			<path class="st0" d="M28.6,127.4c7.8-7.8,15.5-15.5,23.2-23.2c15.4,10.7,30.8,10.7,46.2,0c7.7,7.7,15.5,15.5,23.2,23.2
				C95.4,150.6,55.4,151.1,28.6,127.4z"/>
			<path class="st0" d="M143.6,113.1c3.3,7.5,0.6,18.5-6,24.9c-7.3,7.1-17.7,8.5-24.7,5.6c1.1-0.7,2.2-1.3,3.2-1.9
				c1.2-0.8,2.4-1.6,3.6-2.5c2-1.4,3.9-2.7,6.3-3.5c5.4-1.8,8.8-5.8,10.3-11.3c0.1-0.4,0.2-0.9,0.5-1.3
				C139,119.8,141.3,116.4,143.6,113.1z"/>
		</g>
	</g>
</g>
<g id="White" class="st1">
	<g class="st2">
		<g>
			<path class="st3" d="M79.1,5c2.7,0.4,5.4,0.6,8.1,1.1c12.9,2.3,24.3,7.9,34.2,16.4c-7.8,7.8-15.5,15.5-23.2,23.2
				c-15.3-10.7-30.8-10.7-46.2,0c-7.7-7.7-15.4-15.4-23.2-23.2c5.5-4.9,11.7-8.8,18.6-11.8c7.2-3.1,14.7-5,22.6-5.5
				c0.4,0,0.7-0.1,1.1-0.2C73.6,5,76.4,5,79.1,5z"/>
			<path class="st3" d="M5,70.9c0.4-2.7,0.6-5.4,1.1-8.1c2.3-12.9,7.8-24.3,16.4-34.1C30.3,36.5,38,44.2,45.8,52
				C35.1,65.5,35.1,84.5,46,98.3c-7.7,7.8-15.4,15.5-23.2,23.3C15.2,113,9.9,103.3,7.2,92.4c-1-3.9-1.4-8-2-12
				C5.2,80,5.1,79.5,5,79.1C5,76.4,5,73.6,5,70.9z"/>
			<path class="st3" d="M31.8,5c1.7,0.4,3.5,0.8,5.3,1.3c-3.5,2.4-6.8,4.9-10.2,7.1c-1,0.7-2.4,0.8-3.6,1.3c-4.9,2.1-8,5.8-9.5,11
				c-0.1,0.4-0.2,0.9-0.4,1.3c-2.3,3.4-4.7,6.7-7.1,10.2c-0.4-1.8-0.8-3.5-1.3-5.3c0-1.5,0-3.1,0-4.6c0.1-0.4,0.2-0.9,0.3-1.3
				c1.5-8.3,6-14.6,13.6-18.3c2.6-1.2,5.5-1.7,8.3-2.6C28.7,5,30.2,5,31.8,5z"/>
			<path class="st3" d="M122.8,5c2.9,0.9,5.9,1.5,8.6,2.8c10.3,4.9,15.7,17.1,12.6,28c-0.1,0.4-0.3,0.8-0.4,1.2
				c-2.4-3.4-4.8-6.7-7-10.1c-0.7-1-0.8-2.4-1.3-3.6c-2.1-4.9-5.8-8-11-9.5c-0.4-0.1-0.9-0.2-1.3-0.4c-3.4-2.3-6.7-4.7-10.2-7.1
				c1.8-0.4,3.5-0.8,5.3-1.3C119.7,5,121.3,5,122.8,5z"/>
			<path class="st3" d="M5,118.2c0.4-1.7,0.8-3.5,1.3-5.3c2.4,3.5,4.9,6.8,7.1,10.2c0.7,1,0.8,2.4,1.3,3.6c2.1,4.9,5.8,8,11,9.5
				c0.4,0.1,0.9,0.2,1.3,0.4c3.4,2.3,6.7,4.7,10.1,7c-3.2,1.1-6.6,1.5-10,1.2c-11.4-1.2-20.3-10.2-21.7-21.2c0-0.3-0.2-0.5-0.2-0.8
				C5,121.3,5,119.8,5,118.2z"/>
			<path class="st3" d="M104.1,51.9c7.8-7.8,15.5-15.5,23.2-23.2c22.6,24.7,24.4,65.4,0.1,92.6c-7.8-7.8-15.5-15.5-23.3-23.3
				C115,84.1,114.7,65.5,104.1,51.9z"/>
			<path class="st3" d="M28.6,127.4c7.8-7.8,15.5-15.5,23.2-23.2c15.4,10.7,30.8,10.7,46.2,0c7.7,7.7,15.5,15.5,23.2,23.2
				C95.4,150.6,55.4,151.1,28.6,127.4z"/>
			<path class="st3" d="M143.6,113.1c3.3,7.5,0.6,18.5-6,24.9c-7.3,7.1-17.7,8.5-24.7,5.6c1.1-0.7,2.2-1.3,3.2-1.9
				c1.2-0.8,2.4-1.6,3.6-2.5c2-1.4,3.9-2.7,6.3-3.5c5.4-1.8,8.8-5.8,10.3-11.3c0.1-0.4,0.2-0.9,0.5-1.3
				C139,119.8,141.3,116.4,143.6,113.1z"/>
		</g>
	</g>
</g>
</svg>
