<?xml version="1.0" encoding="utf-8"?>
<!-- Generator: Adobe Illustrator 24.0.2, SVG Export Plug-In . SVG Version: 6.00 Build 0)  -->
<svg version="1.1" xmlns="http://www.w3.org/2000/svg" xmlns:xlink="http://www.w3.org/1999/xlink" x="0px" y="0px"
	 viewBox="0 0 150 150" style="enable-background:new 0 0 150 150;" xml:space="preserve">
<style type="text/css">
	.st0{fill:#c89211;}
	.st1{display:none;}
	.st2{display:inline;}
	.st3{fill:#FFFFFF;}
</style>
<g id="Sky">
	<g id="Capa_1_1_">
		<g>
			<path class="st0" d="M65.3,2.5c6.2,0,12.5,0,18.7,0C86.2,3.2,87.2,5,87.7,7c1,4.7,2.2,9.5,3.5,14.5c0.2,1,0.7,1.2,1.5,1.7
				c2,0.7,4.2,1.7,6.2,2.5c0.7,0.5,1.5,0.5,2.2,0c4.2-2.5,8.5-5,12.5-7.5c2.7-1.5,4.2-1.5,6.5,0.7c3.5,3.5,7,7,10.5,10.5
				c2.5,2.5,2.5,4,0.7,7c-2.5,4.2-5,8.5-7.5,12.5c-0.5,0.7-0.5,1.2,0,2c1,2.2,1.7,4.2,2.7,6.5c0.2,0.7,0.7,1.2,1.7,1.5
				c5,1.2,10,2.5,15,3.7c3,0.7,4,2,4,5c0,5,0,10.2,0,15.2c0,3-1,4.5-4,5c-5,1.2-10,2.5-15,3.7c-0.7,0.2-1.2,0.5-1.7,1.5
				c-0.7,2.2-1.7,4.2-2.5,6.5c-0.2,0.7-0.5,1.5,0,2.2c2.5,4.2,5,8.5,7.7,12.7c1.5,2.7,1.2,4.2-0.7,6.5c-3.5,3.5-7.2,7.2-10.7,10.7
				c-2.2,2.2-4,2.5-6.7,0.7c-4.2-2.5-8.2-5-12.5-7.5c-0.7-0.5-1.5-0.5-2.2,0c-2,1-4.2,1.7-6.2,2.5c-1,0.2-1.2,0.7-1.5,1.7
				c-1.2,4.7-2.2,9.5-3.5,14.2c-0.7,3-2.2,4-5.2,4c-5,0-10,0-14.7,0c-3.5,0-4.7-1-5.7-4.5c-1.2-4.7-2.2-9.2-3.5-14
				c-0.2-0.7-0.5-1.2-1.5-1.7c-2.2-0.7-4.2-1.7-6.5-2.5c-0.7-0.2-1.5-0.5-2.2,0c-4.2,2.5-8.5,5-12.7,7.7c-2.7,1.5-4.2,1.2-6.5-0.7
				c-3.5-3.5-7.2-7.2-10.7-10.7c-2.2-2.2-2.5-4-0.7-6.7c2.5-4.2,5-8.5,7.5-12.5c0.5-0.7,0.5-1.2,0-2c-0.7-2.5-1.7-4.7-2.5-7
				c-0.2-0.7-0.7-1.2-1.5-1.2c-4.7-1.2-9.5-2.5-14.2-3.5c-2-0.5-3.5-1.5-4.2-3.5c0-6.2,0-12.5,0-18.7c0.7-2,2.2-3,4.2-3.5
				c4.7-1,9.5-2.5,14-3.5c1-0.2,1.5-0.5,1.7-1.5c0.7-2,1.7-4.2,2.5-6.2c0.5-0.7,0.5-1.5,0-2.2c-2.5-4.2-5-8.2-7.5-12.5
				c-1.7-2.7-1.5-4.5,0.7-6.7c3.5-3.5,7-7,10.5-10.5c2.5-2.5,4-2.7,7-0.7c4.2,2.5,8.2,5,12.5,7.5c0.7,0.5,1.2,0.5,2,0.2
				c2.2-1,4.5-2,6.7-2.7c0.7-0.2,1.2-0.7,1.2-1.5c1-4.7,2.2-9.5,3.5-14.5C62.3,5,63.3,3.2,65.3,2.5z M74.8,53.9
				c-11.7,0-21.2,9.5-21.2,21.2s9.5,21.2,21,21.2c11.7,0,21.2-9.5,21.2-21.2C96,63.6,86.5,53.9,74.8,53.9z"/>
		</g>
	</g>
</g>
<g id="White" class="st1">
	<g id="Capa_1_4_" class="st2">
		<g>
			<path class="st3" d="M65.3,2.5c6.2,0,12.5,0,18.7,0C86.2,3.2,87.2,5,87.7,7c1,4.7,2.2,9.5,3.5,14.5c0.2,1,0.7,1.2,1.5,1.7
				c2,0.7,4.2,1.7,6.2,2.5c0.7,0.5,1.5,0.5,2.2,0c4.2-2.5,8.5-5,12.5-7.5c2.7-1.5,4.2-1.5,6.5,0.7c3.5,3.5,7,7,10.5,10.5
				c2.5,2.5,2.5,4,0.7,7c-2.5,4.2-5,8.5-7.5,12.5c-0.5,0.7-0.5,1.2,0,2c1,2.2,1.7,4.2,2.7,6.5c0.2,0.7,0.7,1.2,1.7,1.5
				c5,1.2,10,2.5,15,3.7c3,0.7,4,2,4,5c0,5,0,10.2,0,15.2c0,3-1,4.5-4,5c-5,1.2-10,2.5-15,3.7c-0.7,0.2-1.2,0.5-1.7,1.5
				c-0.7,2.2-1.7,4.2-2.5,6.5c-0.2,0.7-0.5,1.5,0,2.2c2.5,4.2,5,8.5,7.7,12.7c1.5,2.7,1.2,4.2-0.7,6.5c-3.5,3.5-7.2,7.2-10.7,10.7
				c-2.2,2.2-4,2.5-6.7,0.7c-4.2-2.5-8.2-5-12.5-7.5c-0.7-0.5-1.5-0.5-2.2,0c-2,1-4.2,1.7-6.2,2.5c-1,0.2-1.2,0.7-1.5,1.7
				c-1.2,4.7-2.2,9.5-3.5,14.2c-0.7,3-2.2,4-5.2,4c-5,0-10,0-14.7,0c-3.5,0-4.7-1-5.7-4.5c-1.2-4.7-2.2-9.2-3.5-14
				c-0.2-0.7-0.5-1.2-1.5-1.7c-2.2-0.7-4.2-1.7-6.5-2.5c-0.7-0.2-1.5-0.5-2.2,0c-4.2,2.5-8.5,5-12.7,7.7c-2.7,1.5-4.2,1.2-6.5-0.7
				c-3.5-3.5-7.2-7.2-10.7-10.7c-2.2-2.2-2.5-4-0.7-6.7c2.5-4.2,5-8.5,7.5-12.5c0.5-0.7,0.5-1.2,0-2c-0.7-2.5-1.7-4.7-2.5-7
				c-0.2-0.7-0.7-1.2-1.5-1.2c-4.7-1.2-9.5-2.5-14.2-3.5c-2-0.5-3.5-1.5-4.2-3.5c0-6.2,0-12.5,0-18.7c0.7-2,2.2-3,4.2-3.5
				c4.7-1,9.5-2.5,14-3.5c1-0.2,1.5-0.5,1.7-1.5c0.7-2,1.7-4.2,2.5-6.2c0.5-0.7,0.5-1.5,0-2.2c-2.5-4.2-5-8.2-7.5-12.5
				c-1.7-2.7-1.5-4.5,0.7-6.7c3.5-3.5,7-7,10.5-10.5c2.5-2.5,4-2.7,7-0.7c4.2,2.5,8.2,5,12.5,7.5c0.7,0.5,1.2,0.5,2,0.2
				c2.2-1,4.5-2,6.7-2.7c0.7-0.2,1.2-0.7,1.2-1.5c1-4.7,2.2-9.5,3.5-14.5C62.3,5,63.3,3.2,65.3,2.5z M74.8,53.9
				c-11.7,0-21.2,9.5-21.2,21.2s9.5,21.2,21,21.2c11.7,0,21.2-9.5,21.2-21.2C96,63.6,86.5,53.9,74.8,53.9z"/>
		</g>
	</g>
</g>
</svg>
