<?xml version="1.0" encoding="utf-8"?>
<!-- Generator: Adobe Illustrator 24.0.2, SVG Export Plug-In . SVG Version: 6.00 Build 0)  -->
<svg version="1.1" id="Capa_1" xmlns="http://www.w3.org/2000/svg" xmlns:xlink="http://www.w3.org/1999/xlink" x="0px" y="0px"
	 viewBox="0 0 60 60" style="enable-background:new 0 0 60 60;" xml:space="preserve">
<style type="text/css">
	.st0{fill:#c89211;}
</style>
<g>
	<path class="st0" d="M1,48c0-10.7,0-21.3,0-32l0.1-0.1c0.4-2.9,3-5.7,7-5.6c3.8,0.1,7.7,0,11.5,0c0.2,0,0.4,0,0.7,0
		c0-0.3,0-0.5,0-0.8c0.1-2.2,1.8-3.2,4-3.3c3.7,0,7.5,0,11.2,0c1.9,0,3.5,0.6,3.9,2.4c0.1,0.5,0.1,1,0.2,1.6c0.2,0,0.4,0,0.7,0
		c3.9,0,7.9,0,11.8,0c2.6,0,4.6,1.2,5.9,3.4c0.4,0.7,0.6,1.5,0.9,2.3c0,10.6,0,21.3,0,31.9c-0.2,0.6-0.3,1.3-0.6,1.9
		c-1.3,2.6-3.4,3.9-6.3,3.9c-14.7,0-29.4,0-44.1,0c-0.2,0-0.3,0-0.5,0c-2.9-0.1-5.4-2-6.1-4.8C1.2,48.7,1.1,48.3,1,48z M19.1,46.5
		c3,0,6,0,8.9,0c1.2,0,1.9-0.7,1.9-1.9c0-0.4,0-0.8,0-1.1c0-3.6-3-6.5-6.6-6.6c-2.9,0-5.7,0-8.6,0c-1.9,0-3.4,0.7-4.7,2.1
		c-1.5,1.5-1.9,3.4-1.8,5.5c0.1,1.4,0.7,2.1,2.1,2.1C13.3,46.5,16.2,46.5,19.1,46.5z M25.2,28.4c0-3.3-2.7-6-6.1-6c-3.3,0-6,2.7-6,6
		s2.7,6.1,6,6.1C22.5,34.5,25.2,31.7,25.2,28.4z M43.3,36.9c2.2,0,4.3,0,6.5,0c1.2,0,2-0.7,2-1.8s-0.8-1.8-2-1.8
		c-4.3,0-8.6,0-12.9,0c-1.2,0-2,0.7-2,1.8s0.8,1.8,2,1.8C39,36.9,41.1,36.9,43.3,36.9z M43.3,46.5L43.3,46.5c2.2,0,4.3,0,6.5,0
		c1.1,0,1.9-0.8,1.9-1.8s-0.8-1.8-1.9-1.8c-4.3,0-8.7,0-13,0c-0.4,0-0.9,0.1-1.2,0.4c-0.7,0.4-0.9,1.3-0.7,2s0.9,1.2,1.7,1.2
		C38.9,46.5,41.1,46.5,43.3,46.5z M43.3,23.6L43.3,23.6c-2.1,0-4.3,0-6.4,0c-0.3,0-0.6,0-0.8,0.1c-0.8,0.2-1.3,1-1.2,1.8
		c0,0.8,0.6,1.6,1.4,1.6c4.7,0,9.4,0,14.1,0c0.2,0,0.4-0.1,0.5-0.2c0.7-0.4,1-1.2,0.8-1.9c-0.2-0.8-0.9-1.4-1.7-1.4
		C47.8,23.6,45.5,23.6,43.3,23.6z M25.2,13c3.2,0,6.4,0,9.6,0c0-1.6,0-1.1,0-2.6c-3.2,0-6.4,0-9.6,0C25.2,11.9,25.2,11.4,25.2,13z"
		/>
</g>
</svg>
