<?xml version="1.0" encoding="utf-8"?>
<!-- Generator: Adobe Illustrator 24.0.2, SVG Export Plug-In . SVG Version: 6.00 Build 0)  -->
<svg version="1.1" xmlns="http://www.w3.org/2000/svg" xmlns:xlink="http://www.w3.org/1999/xlink" x="0px" y="0px"
	 viewBox="0 0 150 150" style="enable-background:new 0 0 150 150;" xml:space="preserve">
<style type="text/css">
	.st0{fill:#c89211;}
	.st1{display:none;}
	.st2{display:inline;}
	.st3{fill:#FFFFFF;}
</style>
<g id="Sky">
	<g>
		<g>
			<path class="st0" d="M80.9,8.3c11-5,21.9-8,33.5-3.5c6.3,2.5,11.3,6.7,15.5,11.9c5.6,7,9.5,14.8,10.9,23.8
				c1.7,11.6-2.1,21.5-9.4,30.2c-2.5,3-5.3,5.9-7.9,8.9c-4.3,4.9-6.4,10.7-6.8,17.2c-0.5,6.4-0.5,12.8-1.2,19.1
				c-0.9,8.9-3.1,17.6-8.7,24.8c-1.6,2.1-3.7,3.9-5.8,5.5c-2.2,1.8-3.8,1.5-5.8-0.5c-3-3-5-6.6-5.9-10.6c-1.2-5.4-1.9-11-3-16.5
				c-1.3-6.2-2.7-12.3-4.3-18.5c-0.8-3.2-3.7-5.1-7-5.1c-3.3,0-6.1,2-7.1,5.3c-2.3,7.8-4.1,15.8-5,23.9c-0.5,5.3-1.5,10.5-4,15.3
				c-1.1,2-2.3,4-3.8,5.8c-2,2.4-3.9,2.6-6.5,0.8c-3.5-2.4-5.9-5.8-7.9-9.5c-4.6-8.2-6.2-17.1-6.6-26.3c-0.2-4.9-0.3-9.7-0.7-14.6
				C32.8,89,29.8,83.1,25.1,78c-2.5-2.7-5.1-5.4-7.4-8.3C7.6,56.9,6.2,43.1,12.8,28.4c3.1-6.9,7.4-13,13.3-17.9
				c10.4-8.6,22.1-9.8,34.5-5.8c10.9,3.4,20.1,9.7,28.7,17c2,1.7,3.9,3.5,5.9,5.2c1.6,1.4,3.1,1.4,4.3,0.1c1.3-1.4,1.3-3-0.4-4.4
				c-5.4-4.4-10.8-8.6-16.3-12.9C82.4,9.2,81.7,8.9,80.9,8.3z M49.3,14.4c-6.7,0.1-11.4,1.6-15.4,5c-5.1,4.3-8.9,9.5-11.2,15.7
				c-0.8,2.3-1.4,4.6-1.9,7c-0.3,1.6,0.7,2.7,2.2,3c1.7,0.3,2.9-0.4,3.4-2c0.1-0.3,0.2-0.7,0.3-1.1c1.5-7.2,5.1-13.1,10.6-17.9
				c2.3-2,4.9-3.3,8-3.7c3.3-0.5,6.5,0.2,9.7,1c2,0.5,3.4-0.2,3.9-1.9c0.5-1.8-0.3-3.3-2.4-3.8C53.6,15.2,50.7,14.7,49.3,14.4z"/>
		</g>
	</g>
</g>
<g id="White" class="st1">
	<g class="st2">
		<g>
			<path class="st3" d="M80.9,8.3c11-5,21.9-8,33.5-3.5c6.3,2.5,11.3,6.7,15.5,11.9c5.6,7,9.5,14.8,10.9,23.8
				c1.7,11.6-2.1,21.5-9.4,30.2c-2.5,3-5.3,5.9-7.9,8.9c-4.3,4.9-6.4,10.7-6.8,17.2c-0.5,6.4-0.5,12.8-1.2,19.1
				c-0.9,8.9-3.1,17.6-8.7,24.8c-1.6,2.1-3.7,3.9-5.8,5.5c-2.2,1.8-3.8,1.5-5.8-0.5c-3-3-5-6.6-5.9-10.6c-1.2-5.4-1.9-11-3-16.5
				c-1.3-6.2-2.7-12.3-4.3-18.5c-0.8-3.2-3.7-5.1-7-5.1c-3.3,0-6.1,2-7.1,5.3c-2.3,7.8-4.1,15.8-5,23.9c-0.5,5.3-1.5,10.5-4,15.3
				c-1.1,2-2.3,4-3.8,5.8c-2,2.4-3.9,2.6-6.5,0.8c-3.5-2.4-5.9-5.8-7.9-9.5c-4.6-8.2-6.2-17.1-6.6-26.3c-0.2-4.9-0.3-9.7-0.7-14.6
				C32.8,89,29.8,83.1,25.1,78c-2.5-2.7-5.1-5.4-7.4-8.3C7.6,56.9,6.2,43.1,12.8,28.4c3.1-6.9,7.4-13,13.3-17.9
				c10.4-8.6,22.1-9.8,34.5-5.8c10.9,3.4,20.1,9.7,28.7,17c2,1.7,3.9,3.5,5.9,5.2c1.6,1.4,3.1,1.4,4.3,0.1c1.3-1.4,1.3-3-0.4-4.4
				c-5.4-4.4-10.8-8.6-16.3-12.9C82.4,9.2,81.7,8.9,80.9,8.3z M49.3,14.4c-6.7,0.1-11.4,1.6-15.4,5c-5.1,4.3-8.9,9.5-11.2,15.7
				c-0.8,2.3-1.4,4.6-1.9,7c-0.3,1.6,0.7,2.7,2.2,3c1.7,0.3,2.9-0.4,3.4-2c0.1-0.3,0.2-0.7,0.3-1.1c1.5-7.2,5.1-13.1,10.6-17.9
				c2.3-2,4.9-3.3,8-3.7c3.3-0.5,6.5,0.2,9.7,1c2,0.5,3.4-0.2,3.9-1.9c0.5-1.8-0.3-3.3-2.4-3.8C53.6,15.2,50.7,14.7,49.3,14.4z"/>
		</g>
	</g>
</g>
</svg>
