<?xml version="1.0" encoding="utf-8"?>
<!-- Generator: Adobe Illustrator 24.0.2, SVG Export Plug-In . SVG Version: 6.00 Build 0)  -->
<svg version="1.1" xmlns="http://www.w3.org/2000/svg" xmlns:xlink="http://www.w3.org/1999/xlink" x="0px" y="0px"
	 viewBox="0 0 150 150" style="enable-background:new 0 0 150 150;" xml:space="preserve">
<style type="text/css">
	.st0{fill:#c89211;}
	.st1{display:none;}
	.st2{display:inline;}
	.st3{fill:#FFFFFF;}
	.st4{display:inline;fill:#FFFFFF;}
</style>
<g id="Sky">
	<path class="st0" d="M90.3,2.5c2.9,0.7,5.8,1.4,8.8,2.1c1.1,0.3,1.5,0.9,1.5,2.1c-0.1,4.2,0,8.4,0,12.7c-8.5,0-16.9,0-25.5,0
		c0-1.5,0-3.1,0-4.6c0-2.8,0-5.7,0-8.5c0-0.9,0.2-1.3,1.1-1.5c2.7-0.7,5.5-1.4,8.2-2c0.3-0.1,0.6-0.2,0.9-0.2
		C86.9,2.5,88.6,2.5,90.3,2.5z"/>
	<path class="st0" d="M109,11.1c0,5.7,0,11.2,0,16.8c-14.2,0-28.3,0-42.4,0c0-5.6,0-11.2,0-16.8c-8.5,0-16.9,0-25.3,0
		c0,20.1,0,66.6,0,99.7l25.5-25.5c0-1.9,0-3.8,0-5.7c14,0,28.1,0,42.3,0c0,2.8,0,5.5,0,8.3c-10.4,0-20.7,0-31.1,0l8.7,8.7
		c7.4,0,14.9,0,22.4,0c0,2.8,0,5.5,0,8.3c-6,0-12,0-18.1,0l-42.5,42.5c19.6,0,73.2,0,86,0c0-45.5,0-90.9,0-136.3
		C125.9,11.1,117.5,11.1,109,11.1z M100.4,62.5c-2.7,0-5.5,0-8.3,0c0,2.9,0,5.6,0,8.4c-2.9,0-5.6,0-8.5,0c0-2.7,0-5.5,0-8.3
		c-2.9,0-5.6,0-8.4,0c0-2.9,0-5.6,0-8.5c2.7,0,5.5,0,8.3,0c0-2.9,0-5.6,0-8.4c2.9,0,5.6,0,8.5,0c0,2.7,0,5.5,0,8.4
		c2.9,0,5.6,0,8.4,0C100.4,56.8,100.4,59.6,100.4,62.5z"/>
	<polygon class="st0" points="80.2,102.9 71,93.7 35.7,129 21.9,115.2 12.7,124.4 35.7,147.4 35.7,147.4 35.7,147.4 	"/>
</g>
<g id="White" class="st1">
	<path class="st4" d="M90.3,2.5c2.9,0.7,5.8,1.4,8.8,2.1c1.1,0.3,1.5,0.9,1.5,2.1c-0.1,4.2,0,8.4,0,12.7c-8.5,0-16.9,0-25.5,0
		c0-1.5,0-3.1,0-4.6c0-2.8,0-5.7,0-8.5c0-0.9,0.2-1.3,1.1-1.5c2.7-0.7,5.5-1.4,8.2-2c0.3-0.1,0.6-0.2,0.9-0.2
		C86.9,2.5,88.6,2.5,90.3,2.5z"/>
	<path class="st4" d="M109,11.1c0,5.7,0,11.2,0,16.8c-14.2,0-28.3,0-42.4,0c0-5.6,0-11.2,0-16.8c-8.5,0-16.9,0-25.3,0
		c0,20.1,0,66.6,0,99.7l25.5-25.5c0-1.9,0-3.8,0-5.7c14,0,28.1,0,42.3,0c0,2.8,0,5.5,0,8.3c-10.4,0-20.7,0-31.1,0l8.7,8.7
		c7.4,0,14.9,0,22.4,0c0,2.8,0,5.5,0,8.3c-6,0-12,0-18.1,0l-42.5,42.5c19.6,0,73.2,0,86,0c0-45.5,0-90.9,0-136.3
		C125.9,11.1,117.5,11.1,109,11.1z M100.4,62.5c-2.7,0-5.5,0-8.3,0c0,2.9,0,5.6,0,8.4c-2.9,0-5.6,0-8.5,0c0-2.7,0-5.5,0-8.3
		c-2.9,0-5.6,0-8.4,0c0-2.9,0-5.6,0-8.5c2.7,0,5.5,0,8.3,0c0-2.9,0-5.6,0-8.4c2.9,0,5.6,0,8.5,0c0,2.7,0,5.5,0,8.4
		c2.9,0,5.6,0,8.4,0C100.4,56.8,100.4,59.6,100.4,62.5z"/>
	<polygon class="st4" points="80.2,102.9 71,93.7 35.7,129 21.9,115.2 12.7,124.4 35.7,147.4 35.7,147.4 35.7,147.4 	"/>
</g>
</svg>
