<?xml version="1.0" encoding="utf-8"?>
<!-- Generator: Adobe Illustrator 24.0.2, SVG Export Plug-In . SVG Version: 6.00 Build 0)  -->
<svg version="1.1" xmlns="http://www.w3.org/2000/svg" xmlns:xlink="http://www.w3.org/1999/xlink" x="0px" y="0px"
	 viewBox="0 0 150 150" style="enable-background:new 0 0 150 150;" xml:space="preserve">
<style type="text/css">
	.st0{fill:#c89211;}
	.st1{display:none;}
	.st2{display:inline;}
	.st3{fill:#FFFFFF;}
</style>
<g id="Sky">
	<g>
		<g>
			<path class="st0" d="M69,44.2c10.1,0,20.3,0,30.4,0c4.3,0,5.1,0.7,4.5,5c-1.3,10.1-4.4,19.5-10.4,27.8C82.7,92,65.8,92.1,55,86.3
				c-6.5-3.5-10.9-9-14.3-15.5C37,63.6,34.8,56,33.7,48c-0.4-2.5,0.9-3.9,3.4-3.9C47.7,44.1,58.4,44.2,69,44.2z"/>
			<path class="st0" d="M55.6,147.5c-0.7,0-1.2,0-1.8,0c-12.5,0-25,0-37.5,0c-7,0-11-4-11-10.9c0-5.8,0-11.6,0-17.3
				c0-9.9,5.2-17.1,14.4-20.6c5-1.9,9.7-4.2,14.6-6.3c1.1-0.5,2.2-1,3.5-1.6c0.4,2.9,2.1,4.8,3.9,6.6c4.4,4.3,8.7,8.6,13,13
				c0.5,0.5,0.9,1.3,0.9,2c0.1,11.4,0,22.9,0,34.3C55.7,146.8,55.7,147,55.6,147.5z"/>
			<path class="st0" d="M119.8,120.7c-0.8,1.5-1.5,2.7-1.9,3.9c-1.7,4.8-2.3,9.8-2.4,14.8c-0.1,3.7-1.1,4.6-4.8,4.2
				c-3.5-0.4-6.2-2.1-7.4-5.4c-1.1-3.1-1.9-6.4-2.3-9.7c-0.8-6-1.9-11.8-3.7-17.5c-1.2-3.7-1.9-7.7-2.1-11.6
				c-0.3-7,4.2-10.7,11.1-9.6c3.1,0.5,6.2,1.3,9.2,2.1c3,0.8,5.9,0.8,8.9,0c3-0.8,6-1.6,9.1-2.1c7-1.1,11.5,2.6,11.3,9.6
				c-0.1,3.6-0.7,7.3-1.8,10.6c-2.3,6.8-3.4,13.8-4.3,20.9c-0.3,2.5-1,5.1-2,7.5c-1.6,3.8-5.4,5.7-9.4,5.3c-1.7-0.2-2.5-1.3-2.8-3.5
				c-0.4-4.2-0.8-8.4-1.5-12.6c-0.2-1.6-1-3.2-1.6-4.8C121,122.2,120.5,121.7,119.8,120.7z"/>
			<path class="st0" d="M104.2,38.3c-23.6,0-47,0-70.3,0c-0.1-0.1-0.2-0.2-0.2-0.3c0-6.3-0.7-12.6,2-18.6C40.3,9,48.4,3.2,60,2.7
				c5.9-0.3,11.9-0.1,17.8,0c14.3,0.3,26,11.9,26.4,26.2C104.3,31.9,104.2,35,104.2,38.3z M66,23.6c0,1.6,0,2.9,0,4.2
				c0,2.2,1,3.5,2.8,3.5c1.9,0,2.9-1.2,3-3.5c0-1.3,0-2.7,0-3.8c0.3-0.2,0.4-0.2,0.4-0.2c1.3,0,2.6,0,3.9-0.1
				c2.1-0.1,3.3-1.1,3.3-2.8c0-1.8-1.2-2.9-3.4-3c-1.4,0-2.8,0-4.3,0c0-1.6,0-2.9,0-4.2c0-2.2-1.1-3.5-2.8-3.5c-1.8,0-2.9,1.2-3,3.5
				c0,1.3,0,2.7,0,4.1c-1.7,0-3.1,0-4.5,0c-2,0.1-3.1,1.1-3.1,2.8c0,1.8,1.2,2.9,3.2,3C63,23.7,64.4,23.6,66,23.6z"/>
			<path class="st0" d="M92.7,86.8c1.3,2.6,0.9,4.7-1.3,7c-4.5,4.6-9.1,9.2-13.7,13.7c-0.9,0.9-1.3,1.8-1.3,3.1
				c0,11.6,0,23.2,0,34.8c0,0.7,0,1.3,0,2.1c-5,0-9.9,0-14.9,0c0-0.7,0-1.3,0-1.9c0-11.7,0-23.3,0-35c0-1.2-0.3-2.1-1.2-3
				c-5.2-5.1-10.3-10.2-15.4-15.3c-1.7-1.7-1.8-3.5-0.3-4.7c0.6-0.5,1.2-0.7,1.9-0.1c11.9,10.6,33,11.4,45.9-0.6
				C92.4,86.8,92.5,86.8,92.7,86.8z"/>
			<path class="st0" d="M82.2,147.5c0-8.8,0-17.4,0-26.4c0.6,0.7,0.9,1.1,1.2,1.6c5,6.9,10,13.8,15,20.7c1.4,1.9,0.5,4-1.8,4
				C91.9,147.5,87.1,147.5,82.2,147.5z"/>
		</g>
	</g>
</g>
<g id="White" class="st1">
	<g class="st2">
		<g>
			<path class="st3" d="M69,44.2c10.1,0,20.3,0,30.4,0c4.3,0,5.1,0.7,4.5,5c-1.3,10.1-4.4,19.5-10.4,27.8C82.7,92,65.8,92.1,55,86.3
				c-6.5-3.5-10.9-9-14.3-15.5C37,63.6,34.8,56,33.7,48c-0.4-2.5,0.9-3.9,3.4-3.9C47.7,44.1,58.4,44.2,69,44.2z"/>
			<path class="st3" d="M55.6,147.5c-0.7,0-1.2,0-1.8,0c-12.5,0-25,0-37.5,0c-7,0-11-4-11-10.9c0-5.8,0-11.6,0-17.3
				c0-9.9,5.2-17.1,14.4-20.6c5-1.9,9.7-4.2,14.6-6.3c1.1-0.5,2.2-1,3.5-1.6c0.4,2.9,2.1,4.8,3.9,6.6c4.4,4.3,8.7,8.6,13,13
				c0.5,0.5,0.9,1.3,0.9,2c0.1,11.4,0,22.9,0,34.3C55.7,146.8,55.7,147,55.6,147.5z"/>
			<path class="st3" d="M119.8,120.7c-0.8,1.5-1.5,2.7-1.9,3.9c-1.7,4.8-2.3,9.8-2.4,14.8c-0.1,3.7-1.1,4.6-4.8,4.2
				c-3.5-0.4-6.2-2.1-7.4-5.4c-1.1-3.1-1.9-6.4-2.3-9.7c-0.8-6-1.9-11.8-3.7-17.5c-1.2-3.7-1.9-7.7-2.1-11.6
				c-0.3-7,4.2-10.7,11.1-9.6c3.1,0.5,6.2,1.3,9.2,2.1c3,0.8,5.9,0.8,8.9,0c3-0.8,6-1.6,9.1-2.1c7-1.1,11.5,2.6,11.3,9.6
				c-0.1,3.6-0.7,7.3-1.8,10.6c-2.3,6.8-3.4,13.8-4.3,20.9c-0.3,2.5-1,5.1-2,7.5c-1.6,3.8-5.4,5.7-9.4,5.3c-1.7-0.2-2.5-1.3-2.8-3.5
				c-0.4-4.2-0.8-8.4-1.5-12.6c-0.2-1.6-1-3.2-1.6-4.8C121,122.2,120.5,121.7,119.8,120.7z"/>
			<path class="st3" d="M104.2,38.3c-23.6,0-47,0-70.3,0c-0.1-0.1-0.2-0.2-0.2-0.3c0-6.3-0.7-12.6,2-18.6C40.3,9,48.4,3.2,60,2.7
				c5.9-0.3,11.9-0.1,17.8,0c14.3,0.3,26,11.9,26.4,26.2C104.3,31.9,104.2,35,104.2,38.3z M66,23.6c0,1.6,0,2.9,0,4.2
				c0,2.2,1,3.5,2.8,3.5c1.9,0,2.9-1.2,3-3.5c0-1.3,0-2.7,0-3.8c0.3-0.2,0.4-0.2,0.4-0.2c1.3,0,2.6,0,3.9-0.1
				c2.1-0.1,3.3-1.1,3.3-2.8c0-1.8-1.2-2.9-3.4-3c-1.4,0-2.8,0-4.3,0c0-1.6,0-2.9,0-4.2c0-2.2-1.1-3.5-2.8-3.5c-1.8,0-2.9,1.2-3,3.5
				c0,1.3,0,2.7,0,4.1c-1.7,0-3.1,0-4.5,0c-2,0.1-3.1,1.1-3.1,2.8c0,1.8,1.2,2.9,3.2,3C63,23.7,64.4,23.6,66,23.6z"/>
			<path class="st3" d="M92.7,86.8c1.3,2.6,0.9,4.7-1.3,7c-4.5,4.6-9.1,9.2-13.7,13.7c-0.9,0.9-1.3,1.8-1.3,3.1
				c0,11.6,0,23.2,0,34.8c0,0.7,0,1.3,0,2.1c-5,0-9.9,0-14.9,0c0-0.7,0-1.3,0-1.9c0-11.7,0-23.3,0-35c0-1.2-0.3-2.1-1.2-3
				c-5.2-5.1-10.3-10.2-15.4-15.3c-1.7-1.7-1.8-3.5-0.3-4.7c0.6-0.5,1.2-0.7,1.9-0.1c11.9,10.6,33,11.4,45.9-0.6
				C92.4,86.8,92.5,86.8,92.7,86.8z"/>
			<path class="st3" d="M82.2,147.5c0-8.8,0-17.4,0-26.4c0.6,0.7,0.9,1.1,1.2,1.6c5,6.9,10,13.8,15,20.7c1.4,1.9,0.5,4-1.8,4
				C91.9,147.5,87.1,147.5,82.2,147.5z"/>
		</g>
	</g>
</g>
</svg>
